<svg width="226.777" height="226.777" viewBox="0 0 226.777 226.777" xmlns="http://www.w3.org/2000/svg"><path d="M1.225 213.715c0-1.25 6.942-22.595 15.428-47.43A34096.394 34096.394 0 0 0 44.187 85.33C55.96 50.527 62.681 30.947 66.401 20.632c.999-2.77 3.19-6.514 5.163-8.174 0 0 1.955-2.256 3.81-2.742 16.342-.31 63.01-1.462 75.816.084 1.494.545 4.328 2.434 4.328 2.434 2.448 2.06 3.942 5.898 5.51 10.84 1.285 4.052 4.833 14.617 7.884 23.477 3.05 8.86 12.167 35.707 20.26 59.662 8.091 23.954 19.588 57.744 25.546 75.09 5.959 17.346 10.834 32.327 10.834 33.291 0 1.477-2.022 1.643-12.827 1.052-30.145-1.648-60.636-16.42-83.239-40.329-4.6-4.865-9.97-11.377-11.932-14.47-1.963-3.094-3.882-5.645-4.265-5.669-.384-.024-2.8 3.031-5.37 6.788-7.13 10.424-21.633 24.268-33.86 32.323-16.855 11.104-34.306 17.686-54.127 20.415-14.356 1.977-18.707 1.747-18.707-.989zm221.94.042c0-1.287-11.37-34.945-22.021-65.185a24034.47 24034.47 0 0 1-12.579-35.797c-6.35-18.144-28.293-81.98-28.842-83.905-.247-.865-3.258 6.944-6.837 17.302-9.917 28.708-39.01 106.64-39.6 106.05-.624-.623 41.547-120.54 43.879-125.134 1.339-2.637 1.42-4.21.381-7.36-2.544-7.71-2.95-7.78-44.538-7.78-37.188 0-37.475.019-40.35 2.684-2.053 1.905-5.707 10.836-12.571 30.726-9.165 26.556-55.282 165.5-55.282 166.556 0 .273 2.625.496 5.834.496 7.67 0 26.049-3.932 36.525-7.814 23.224-8.606 46.8-26.87 59.63-46.195 2.5-3.765 5.161-6.846 5.914-6.846.752 0 3.581 3.356 6.287 7.458 19.021 28.836 51.87 49.131 87.358 53.975 14.32 1.955 16.813 2.07 16.813.77z"/></svg>