<svg xmlns="http://www.w3.org/2000/svg" width="226mm" height="226mm" viewBox="0 0 226 226"><g fill-rule="evenodd"><path d="M171.211 56.91c-22.148 0-37.333 13.837-50.454 30.989l7.777 11.358c12.019-16.445 24.794-29.383 42.677-29.383 20.543 0 37.623 14.89 40.78 34.316h-50.999v12.965h64.193a53.864 53.864 0 0 0 .398-6.484c.004-29.642-24.392-53.762-54.372-53.762"/><path d="M171.211 151.467c-21.867 0-36.301-18.887-54.62-46.602-18.314-27.71-35.61-47.956-62.429-47.956-29.98 0-54.376 24.121-54.376 53.766 0 29.643 24.396 53.757 54.375 53.757 22.114 0 37.28-13.792 50.39-30.9l-7.72-11.43c-12.02 16.438-24.79 29.365-42.67 29.365-22.776 0-41.303-18.3-41.303-40.797 0-22.49 18.527-40.796 41.304-40.796 21.872 0 35.524 17.924 54.58 46.558 19.055 28.628 35.651 48 62.47 48 23.048 0 42.79-14.253 50.69-34.313h-14.388a41.42 41.42 0 0 1-36.303 21.348"/></g></svg>