<svg xmlns="http://www.w3.org/2000/svg" width="226mm" height="226mm" viewBox="0 0 226 226"><g fill-rule="evenodd"><path d="M158.497 69.08c-16.916 0-28.514 10.569-38.536 23.669l5.94 8.675c9.18-12.56 18.937-22.442 32.596-22.442 15.69 0 28.735 11.373 31.146 26.21h-38.951v9.902h49.029a41.14 41.14 0 0 0 .304-4.952c.003-22.64-18.63-41.062-41.528-41.062"/><path d="M158.497 141.301c-16.702 0-27.726-14.426-41.717-35.594C102.792 84.543 89.582 69.08 69.098 69.08c-22.898 0-41.531 18.423-41.531 41.065 0 22.64 18.633 41.058 41.53 41.058 16.89 0 28.473-10.534 38.486-23.6l-5.896-8.73c-9.18 12.554-18.933 22.428-32.59 22.428-17.396 0-31.546-13.977-31.546-31.16 0-17.178 14.15-31.159 31.547-31.159 16.705 0 27.132 13.69 41.686 35.56 14.554 21.865 27.23 36.661 47.713 36.661 17.604 0 32.683-10.886 38.717-26.207h-10.99a31.636 31.636 0 0 1-27.727 16.305"/></g></svg>