<svg xmlns="http://www.w3.org/2000/svg" width="226mm" height="226mm" viewBox="0 0 226 226"><path d="M50.445 198.54l-8.44-12.96-8.365-13.054-8.365-13.052 1.581-3.443 1.58-3.443 37.336-58.913 37.335-58.913 5.432-8.512 5.432-8.511 10.848 16.81 10.848 16.809v2.447l-32.37 66.673-32.37 66.672-2.956 6.756-2.956 6.756 1.156-.753 1.157-.754 40.06-63.658L147.45 71.84l.785-.053.786-.054 10.604 16.15 10.604 16.148v3.24l-19.644 48.441-19.645 48.441.494.494.494.494 24.894-40.024 24.893-40.024h2.33l9.69 14.958 9.69 14.96-5.702 19.996-5.703 19.996-2.366 8.248-2.367 8.248H58.885z"/></svg>