<svg xmlns="http://www.w3.org/2000/svg" width="226mm" height="226mm" viewBox="0 0 226 226"><path d="M80.235 32.372a1.386 1.386 0 0 1-.74 1.8 84.67 84.67 0 0 0-34.697 27.906C36.63 73.32 31.324 86.43 29.408 100.08a1.39 1.39 0 0 1-1.538 1.198l-9.446-1.126a1.402 1.402 0 0 1-1.224-1.578c2.18-15.705 8.268-30.79 17.66-43.716a97.05 97.05 0 0 1 39.919-32.051 1.401 1.401 0 0 1 1.846.757z"/><path d="M141.462 30.933a83.989 83.989 0 0 0-32.683-4.699 1.375 1.375 0 0 1-1.456-1.285l-.473-7.465a1.423 1.423 0 0 1 1.332-1.506c12.628-.687 25.012 1.095 36.855 5.303a1.401 1.401 0 0 1 .831 1.818l-2.633 7.016a1.39 1.39 0 0 1-1.773.818z" fill="#999"/><path d="M207.607 104.193l-9.493.732a1.375 1.375 0 0 1-1.472-1.265c-2.097-23.795-14.087-45.429-33.108-59.724a1.385 1.385 0 0 1-.293-1.925l5.614-7.727a1.416 1.416 0 0 1 1.981-.312c21.91 16.416 35.704 41.305 38.077 68.691a1.423 1.423 0 0 1-1.306 1.53m-16.914 63.885c-12.924 17.789-31.588 30.725-52.682 36.548a1.4 1.4 0 0 1-1.723-1.008l-2.35-9.231a1.389 1.389 0 0 1 .984-1.681c18.346-5.097 34.58-16.366 45.83-31.85 7.785-10.715 12.832-22.68 15.022-35.586a1.39 1.39 0 0 1 1.571-1.155l9.414 1.398a1.398 1.398 0 0 1 1.177 1.613c-2.479 14.681-8.423 28.812-17.243 40.952z"/><path d="M108.176 205.589a1.418 1.418 0 0 1-1.486 1.349c-18.133-1.049-35.47-7.247-50.224-17.966-20.69-15.032-34.16-37.175-38.04-62.47a1.42 1.42 0 0 1 1.198-1.608l7.399-1.067a1.376 1.376 0 0 1 1.556 1.165c3.486 22.534 15.5 42.256 33.938 55.652a84.368 84.368 0 0 0 44.716 16.031 1.374 1.374 0 0 1 1.305 1.439z" fill="#999"/><path d="M163.506 148.325c-20.431 28.12-59.81 34.467-87.783 14.144-27.972-20.323-34.106-59.736-13.675-87.857C82.48 46.49 121.861 40.14 149.833 60.463c27.972 20.323 34.106 59.738 13.673 87.862zm-91.52-66.493c-16.427 22.612-11.496 54.305 10.996 70.646 22.491 16.341 54.159 11.239 70.587-11.373 16.428-22.611 11.495-54.302-10.999-70.645-22.494-16.343-54.154-11.24-70.583 11.372z"/></svg>