<svg xmlns="http://www.w3.org/2000/svg" width="226mm" height="226mm" viewBox="0 0 226 226"><path d="M75.084 20.81a1.62 1.62 0 0 1-.864 2.103 98.927 98.927 0 0 0-40.54 32.605c-9.543 13.135-15.742 28.452-17.98 44.4a1.624 1.624 0 0 1-1.798 1.4l-11.036-1.315a1.638 1.638 0 0 1-1.43-1.844c2.547-18.35 9.66-35.975 20.633-51.077A113.392 113.392 0 0 1 68.71 9.634a1.637 1.637 0 0 1 2.158.885z"/><path d="M146.621 19.128a98.131 98.131 0 0 0-38.186-5.49 1.607 1.607 0 0 1-1.701-1.501l-.553-8.722a1.663 1.663 0 0 1 1.556-1.76c14.755-.802 29.224 1.28 43.061 6.196a1.637 1.637 0 0 1 .971 2.124l-3.076 8.198a1.624 1.624 0 0 1-2.072.955z" fill="#999"/><path d="M223.904 104.724l-11.092.855a1.607 1.607 0 0 1-1.72-1.478c-2.45-27.801-16.459-53.078-38.682-69.78a1.618 1.618 0 0 1-.343-2.25l6.56-9.027a1.654 1.654 0 0 1 2.314-.365c25.6 19.18 41.716 48.26 44.489 80.258a1.663 1.663 0 0 1-1.526 1.787m-19.762 74.642c-15.1 20.785-36.907 35.899-61.553 42.702a1.636 1.636 0 0 1-2.013-1.177l-2.746-10.786a1.623 1.623 0 0 1 1.15-1.964c21.435-5.955 40.403-19.122 53.547-37.213 9.096-12.519 14.992-26.499 17.551-41.578a1.624 1.624 0 0 1 1.836-1.35l10.999 1.634a1.633 1.633 0 0 1 1.375 1.885c-2.896 17.153-9.841 33.663-20.146 47.847z"/><path d="M107.73 223.193a1.657 1.657 0 0 1-1.736 1.577c-21.186-1.226-41.442-8.468-58.68-20.992C23.138 186.215 7.4 160.344 2.867 130.79a1.66 1.66 0 0 1 1.4-1.88l8.645-1.246a1.608 1.608 0 0 1 1.818 1.361c4.073 26.329 18.11 49.372 39.652 65.023a98.574 98.574 0 0 0 52.245 18.73 1.605 1.605 0 0 1 1.525 1.682z" fill="#999"/><path d="M172.377 156.287c-23.871 32.855-69.881 40.27-102.564 16.526-32.682-23.745-39.85-69.795-15.978-102.65C77.708 37.304 123.72 29.885 156.402 53.63c32.682 23.745 39.848 69.797 15.975 102.656zm-106.93-77.69c-19.194 26.42-13.432 63.45 12.847 82.543 26.278 19.092 63.278 13.131 82.473-13.289 19.194-26.418 13.43-63.445-12.851-82.54-26.282-19.095-63.273-13.133-82.468 13.287z"/></svg>