<svg xmlns="http://www.w3.org/2000/svg" width="226mm" height="226mm" viewBox="0 0 226 226"><path d="M91.47 148.711c0-2.896-2.289-4.846-5.116-4.348l-33.795 5.958c-2.827.499-5.116 3.256-5.116 6.152v63.906c0 2.903 2.289 4.854 5.116 4.355l33.795-5.958c2.827-.498 5.116-3.256 5.116-6.159z" class="dark"/><path d="M179.516 5.614c0-2.896-2.29-4.847-5.117-4.348l-33.794 5.958c-2.827.498-5.116 3.256-5.116 6.152v63.906c0 2.903 2.289 4.853 5.116 4.355l33.794-5.958c2.828-.499 5.117-3.256 5.117-6.159z" class="light"/><path d="M96.961 20.52c-1.305-2.876-4.814-4.77-7.843-4.236L52.91 22.668c-3.03.534-4.426 3.293-3.12 6.168l80.178 176.589c1.305 2.875 4.821 4.785 7.85 4.251l36.209-6.383c3.03-.534 4.418-3.31 3.112-6.185z" class="dark"/></svg>