<svg width="226mm" height="226mm" viewBox="0 0 226 226" xmlns="http://www.w3.org/2000/svg"><path d="M113.887.655l-36.643 21.3L91.997 37.41l-29.593-6.83L19.75 55.376l94.135 54.719 24.96-14.008-74.436-43.339 56.047 10.944 12.26-7.005-21.017-28.89 72.684 42.024 24.521-14.445zM15.336 62.37v108.818l22.65 13.075V157.52l45.707 26.032v27.097l26.22 15.194V117.09zm196.77 0l-94.578 54.72v108.752l26.22-15.194v-27.071l45.706-26.034v26.72l22.653-13.075zm-174.12 41.414l45.707 27.904v24.692l-45.707-26.232zm151.468 0v26.39l-45.706 26.232v-24.718z" stroke-width="5.363"/></svg>