<svg xmlns="http://www.w3.org/2000/svg" width="226mm" height="226mm" viewBox="0 0 226 226"><path d="M102.427 225.51c-13.814-1.246-31.772-6.521-42.062-12.357-9.445-5.356-14.039-8.497-14.033-9.599.002-.62 1.02-2.398 2.263-3.95l2.256-2.82 5.802 3.712c25.69 16.433 58.408 20.661 87.166 11.262 15.681-5.124 27.536-12.151 39.546-23.444 21.015-19.758 32.248-45.939 32.248-75.162 0-29.492-11.246-55.04-33.379-75.83-4.467-4.195-8.527-7.627-9.023-7.627-1.596 0-.958-2.382 1.444-5.383l2.339-2.922 4.02 2.786c2.211 1.532 7.798 6.704 12.414 11.493 18.846 19.549 28.942 42.288 31.505 70.957.811 9.067-.764 23.467-3.933 35.965-10.898 42.97-51.803 78.303-95.485 82.476-11.768 1.124-14.878 1.183-23.088.443zm-7.224-14.708c-7.133-1.282-18.176-4.808-23.753-7.584-10.758-5.357-17.29-9.602-16.788-10.91.668-1.74 26.918-38.392 27.851-38.889 1.276-.677 50.651 11.856 51.385 13.043.989 1.6 6.276 33.144 6.356 37.931.066 3.9.025 3.944-4.854 5.27-5.859 1.59-33.348 2.368-40.197 1.139zm53.121-5.706c-.518-.837-3.922-18.709-5.553-29.153-.583-3.74-1.515-8.915-2.07-11.501l-1.008-4.703-6.681-1.52c-3.674-.835-16.637-3.965-28.806-6.952-12.17-2.988-22.779-5.434-23.575-5.434-.798 0-10.034 11.959-20.526 26.575-10.49 14.615-19.349 26.574-19.686 26.574-.338 0-1.755-1.219-3.15-2.707l-2.536-2.707 18.091-25.098c12.998-18.03 17.656-25.19 16.546-25.43-.85-.184-1.676-.184-1.836 0-.16.183-7.726 10.74-16.812 23.462-9.086 12.721-16.887 23.544-17.334 24.052-.937 1.06-5.762-3.065-5.762-4.925 0-.66 7.104-11.049 15.785-23.085 8.682-12.037 15.65-22.021 15.483-22.19-.168-.166-9.978-2.426-21.803-5.023-19.498-4.282-21.58-4.934-22.371-7.015-1.067-2.807-1.163-12.994-.122-12.994.414 0 6.946 1.35 14.517 3 7.573 1.652 18.86 4.097 25.085 5.436 6.226 1.338 12.05 2.66 12.943 2.94 1.23.383 8.632-9.25 30.458-39.637a84734.378 84734.378 0 0 1 42.436-59.035L153.64 9.134l3.182 1.36c1.75.75 3.137 1.96 3.081 2.69-.055.73-6.81 10.655-15.01 22.054-8.198 11.4-14.907 21.015-14.907 21.37 0 .355.626.645 1.391.645.764 0 8.125-9.411 16.357-20.915s15.317-21.296 15.745-21.761c.818-.891 6.86 2.199 6.86 3.51 0 .418-6.644 10.014-14.763 21.32l-14.763 20.56 1.977 13.092a2954.927 2954.927 0 0 0 3.413 22.018l3.887 24.182a6499.407 6499.407 0 0 1 5.037 31.988 3745.953 3745.953 0 0 0 4.962 31.136c1.307 7.923 2.377 14.894 2.377 15.49 0 1.35-13.506 8.25-14.142 7.223zm-10.91-63.446c-.264-1.217-1.364-8.194-2.443-15.501a8848.989 8848.989 0 0 0-4.458-29.684c-1.373-9.019-2.496-16.718-2.496-17.111 0-1.045-1.915 1.52-20.97 28.075-9.51 13.25-17.122 24.261-16.916 24.466.323.324 44.995 11.603 47.01 11.87.416.055.54-.897.274-2.115zm-24.144-10.736c-6.215-1.61-11.473-3.1-11.685-3.31-.552-.553 20.744-29.998 21.697-29.998.439 0 .799.133.799.295 0 .162 1.107 7.915 2.46 17.227 1.354 9.313 2.461 17.373 2.461 17.913 0 1.52-3.476 1.05-15.732-2.127zm52.87 46.66a17486.908 17486.908 0 0 1-7.602-47.98c-2.72-17.323-6.065-38.582-7.43-47.244a6340.5 6340.5 0 0 1-2.846-18.161c-.273-1.813 2.233-6.048 10.048-16.978 5.725-8.01 10.678-14.564 11.006-14.564.327 0 3.557 2.46 7.178 5.465 14.462 12.003 26.74 31.756 31.78 51.128 2.189 8.41 2.561 11.92 2.561 24.114 0 12.193-.372 15.704-2.56 24.113-5.045 19.388-17.008 38.654-31.629 50.934-3.706 3.112-6.99 5.66-7.297 5.66-.307 0-1.752-7.42-3.21-16.486zm-147.32-1.647c-4.495-6.532-11.43-20.874-13.698-28.322C-5.17 113.792.18 78.314 19.984 49.009c5.23-7.737 20.214-22.726 27.819-27.829C74.595 3.206 105.14-3.134 134.907 3.102c5.684 1.19 10.722 2.534 11.194 2.985.482.458-.136 2.258-1.404 4.092a243.804 243.804 0 0 0-2.38 3.484c-.065.115-4.527-.705-9.915-1.822-8.177-1.695-12.077-1.945-23.577-1.516-15.427.574-26.84 3.18-39.527 9.025-21.92 10.096-41.04 29.134-50.748 50.525-14.305 31.525-12.163 68.32 5.69 97.709l3.51 5.776-2.64 3.46c-1.451 1.904-2.786 3.46-2.966 3.46-.181 0-1.677-1.959-3.324-4.353zm10.514-9.213c-3.377-3.83-13.488-27.145-12.29-28.342.613-.614 28.476 5.427 29.542 6.406.414.379-2.964 5.85-7.506 12.157-7.6 10.554-8.376 11.333-9.746 9.78zm9.61-53.072c-13.532-3.01-24.784-5.629-25.001-5.82-.22-.19.142-4.23.801-8.972 2.917-20.966 13.292-41.052 28.988-56.118 9.422-9.042 14.084-12.376 24.74-17.691 15.319-7.64 26.276-10.133 44.225-10.063 14.002.053 24.719 1.764 24.572 3.922-.054.794-15.394 22.738-34.087 48.764-18.695 26.027-34.591 48.283-35.326 49.457-.733 1.176-2.002 2.106-2.82 2.066-.817-.04-12.558-2.535-26.091-5.545z"/></svg>