<svg xmlns="http://www.w3.org/2000/svg" width="226mm" height="226mm" viewBox="0 0 226 226"><path d="M106.464 215.837c-12.437-1.122-28.605-5.871-37.87-11.125-8.503-4.822-12.639-7.65-12.634-8.642.002-.559.919-2.159 2.037-3.556l2.032-2.54 5.223 3.342c23.13 14.795 52.586 18.602 78.478 10.14 14.118-4.613 24.791-10.94 35.604-21.107 18.92-17.789 29.034-41.36 29.034-67.67 0-26.553-10.125-49.555-30.052-68.272-4.022-3.777-7.677-6.867-8.124-6.867-1.437 0-.862-2.144 1.3-4.846l2.106-2.631 3.62 2.508c1.99 1.38 7.02 6.036 11.176 10.348 16.967 17.6 26.057 38.073 28.365 63.884.73 8.163-.688 21.128-3.541 32.38-9.812 38.687-46.64 70.498-85.968 74.255-10.595 1.012-13.395 1.065-20.786.399zm-6.504-13.242c-6.422-1.154-16.365-4.329-21.386-6.828-9.685-4.823-15.566-8.645-15.114-9.823.601-1.566 24.235-34.565 25.075-35.012 1.148-.61 45.602 10.674 46.263 11.743.89 1.441 5.65 29.84 5.722 34.15.06 3.512.023 3.551-4.37 4.744-5.275 1.432-30.024 2.133-36.19 1.026zm47.826-5.137c-.467-.754-3.531-16.844-5-26.247-.525-3.367-1.364-8.027-1.863-10.355l-.908-4.234-6.015-1.368c-3.308-.752-14.979-3.57-25.935-6.26s-20.508-4.892-21.225-4.892c-.718 0-9.034 10.767-18.48 23.926-9.444 13.158-17.42 23.925-17.724 23.925-.304 0-1.58-1.097-2.836-2.437l-2.283-2.437 16.288-22.596c11.702-16.234 15.896-22.68 14.897-22.896-.765-.165-1.509-.165-1.653 0-.145.165-6.956 9.67-15.137 21.124-8.18 11.453-15.203 21.197-15.606 21.654-.843.955-5.187-2.759-5.187-4.434 0-.594 6.395-9.947 14.211-20.784 7.817-10.837 14.09-19.826 13.94-19.977-.151-.15-8.984-2.185-19.63-4.523-17.554-3.855-19.429-4.442-20.141-6.316-.961-2.527-1.047-11.699-.11-11.699.373 0 6.254 1.216 13.07 2.702 6.818 1.487 16.98 3.688 22.585 4.893 5.605 1.205 10.849 2.396 11.653 2.647 1.107.345 7.771-8.328 27.422-35.686a76288.333 76288.333 0 0 1 38.206-53.15l12.247-17.009 2.865 1.225c1.576.674 2.824 1.764 2.774 2.421-.05.658-6.132 9.593-13.514 19.856-7.381 10.263-13.421 18.92-13.421 19.24 0 .319.563.58 1.252.58.688 0 7.315-8.473 14.727-18.83 7.411-10.357 13.79-19.173 14.175-19.592.737-.802 6.177 1.98 6.177 3.16 0 .377-5.982 9.016-13.292 19.196l-13.292 18.51 1.78 11.787a2660.39 2660.39 0 0 0 3.073 19.823l3.5 21.772a5851.567 5851.567 0 0 1 4.535 28.799c1.28 8.285 3.29 20.9 4.467 28.033 1.177 7.133 2.14 13.409 2.14 13.946 0 1.216-12.16 7.428-12.732 6.503zm-9.822-57.122c-.238-1.096-1.229-7.377-2.2-13.956-.973-6.58-2.779-18.606-4.014-26.725-1.236-8.12-2.247-15.052-2.247-15.406 0-.94-1.724 1.369-18.88 25.277-8.562 11.93-15.415 21.843-15.23 22.027.291.292 40.51 10.447 42.324 10.687.375.05.486-.807.247-1.904zm-21.738-9.666c-5.596-1.45-10.33-2.791-10.52-2.98-.497-.498 18.676-27.008 19.534-27.008.395 0 .719.12.719.266 0 .146.997 7.126 2.215 15.51 1.219 8.384 2.216 15.641 2.216 16.127 0 1.368-3.13.945-14.164-1.915zm47.6 42.01a15743.87 15743.87 0 0 1-6.844-43.199c-2.45-15.596-5.461-34.736-6.69-42.534a5708.5 5708.5 0 0 1-2.562-16.351c-.246-1.632 2.01-5.445 9.046-15.286 5.155-7.212 9.614-13.112 9.909-13.112.295 0 3.203 2.214 6.463 4.92 13.02 10.807 24.075 28.591 28.613 46.032 1.97 7.571 2.305 10.732 2.305 21.71 0 10.978-.335 14.139-2.305 21.71-4.542 17.455-15.313 34.801-28.476 45.857-3.337 2.802-6.293 5.095-6.57 5.095-.276 0-1.577-6.679-2.89-14.842zM31.19 171.196c-4.047-5.881-10.29-18.793-12.332-25.499-9.266-30.442-4.451-62.384 13.38-88.768 4.709-6.966 18.199-20.461 25.046-25.055 24.122-16.182 51.623-21.89 78.422-16.276 5.118 1.072 9.653 2.281 10.078 2.687.434.413-.122 2.033-1.264 3.685a219.502 219.502 0 0 0-2.143 3.136c-.058.104-4.075-.634-8.926-1.64-7.362-1.526-10.873-1.751-21.227-1.365-13.889.517-24.164 2.863-35.587 8.125-19.735 9.09-36.95 26.23-45.69 45.489-12.879 28.383-10.95 61.51 5.123 87.97l3.16 5.2-2.376 3.116c-1.307 1.714-2.509 3.115-2.671 3.115-.163 0-1.51-1.764-2.993-3.92zm9.466-8.294c-3.04-3.448-12.143-24.44-11.065-25.517.552-.553 25.638 4.886 26.598 5.767.372.341-2.669 5.267-6.758 10.945-6.842 9.502-7.541 10.204-8.775 8.805zm8.653-47.782c-12.184-2.71-22.314-5.068-22.51-5.24-.197-.172.128-3.808.722-8.078 2.626-18.876 11.967-36.96 26.098-50.524 8.483-8.141 12.68-11.143 22.274-15.928 13.792-6.878 23.657-9.123 39.817-9.06 12.606.048 22.255 1.588 22.123 3.531-.049.715-13.86 20.472-30.69 43.904C90.312 97.157 76 117.195 75.339 118.252c-.66 1.059-1.803 1.896-2.54 1.86-.735-.036-11.306-2.282-23.49-4.992z"/></svg>