<svg xmlns="http://www.w3.org/2000/svg" width="226mm" height="226mm" viewBox="0 0 226 226"><path d="M35.156 194.022l-8.803-.357-1.518-.686-1.518-.686-1.638-1.73-1.637-1.732-.943-2.257-.943-2.257.007-1.69.006-1.688.839-2.733.838-2.732.762-1.65c1.23-2.55 1.783-3.625 3.362-6.203 2.473-3.54 3.142-5.121 5.5-9.043l2.947-4.354 3.61-4.857 3.61-4.857 9.143-9.124 9.144-9.123 5.449-3.623 5.448-3.622 5.102-2.56 5.103-2.561 3.873-1.29 3.873-1.288-.416-.708-.417-.708-3.606-5.396-3.606-5.396-1.555-3.396-1.554-3.395-.267-4.616-.268-4.616.682-3.175.68-3.176 2.98-6.792 2.98-6.792 6.764-14.267 6.764-14.267 1.59-1.66 1.59-1.66 2.622-1 2.621-1.002 2.75.31 2.751.31 2.285 1.512 2.285 1.512 6.421 10.552 6.421 10.553 10.932 17.91 10.932 17.911 5.757 9.41 5.757 9.412 25.002 40.89 25.003 40.891.895 1.731.895 1.73v.668h-61.194l-3.884-1.2-3.884-1.2-2.895-1.916-2.894-1.918-2.393-2.802-2.393-2.803-9.79-15.178-9.79-15.18-7.616-11.838-7.618-11.84-.958-1.347-.959-1.347-1.518-.013-1.518-.012-5.881 2.055-5.882 2.054-4.988 2.948-4.989 2.948-5.599 4.968-5.598 4.967-3.567 4.032-3.567 4.033-4.306 5.74-4.306 5.74-3.738 6.276-3.74 6.277v.771h42.5v-.687l-.7-1.326-.7-1.327-5.978-8.647-5.978-8.647v-1.15l6.196-4.292 6.196-4.293.705.765.706.764 9.613 14.247 9.614 14.247.248 3.426.248 3.425-1.227 2.775-1.228 2.774-2.589 1.714-2.588 1.714-24.028.042-24.027.041-8.804-.356zm145.714-15.675v-.467l-4.317-5.756-4.318-5.757-4.03-4.514-4.031-4.515-5.464-5.319-5.465-5.318-3.946-3.17-3.946-3.171-4.858-3.164-4.857-3.163-3.643-1.81-3.642-1.81-3.947-1.529-3.946-1.53-1.749-.408-1.749-.41.29 1.094.29 1.094 15.022 23.072 15.023 23.071 1.223 1.32 1.223 1.322 2.213.59 2.214.59 13.205.062 13.205.062zm-30.55-55.239l-.265-.455L132.89 94.42l-17.167-28.232-4.517-7.438-4.517-7.437h-.879L98.4 68.162 90.992 85.01l.01 1.378.011 1.378L92.6 90.28l1.587 2.513 5.08 7.751 5.08 7.75 3.502.362 3.504.362 5.16.91 5.161.91 6.383 2.158 6.383 2.157 7.885 4.137 7.885 4.136.187.069.188.069-.265-.456z"/></svg>