<svg xmlns="http://www.w3.org/2000/svg" width="226.777" height="226.777" viewBox="0 0 226.777 226.777"><path d="M113.031.712A113.033 113.033 0 0 0 0 113.744a113.033 113.033 0 0 0 113.033 113.033 113.033 113.033 0 0 0 113.032-113.033A113.033 113.033 0 0 0 113.033.712zM102.084 5.05a84.33 84.33 0 0 1 84.33 84.328 84.33 84.33 0 0 1-84.33 84.332 84.33 84.33 0 0 1-84.331-84.332A84.33 84.33 0 0 1 102.084 5.05zM82.85 20.833a37.283 37.283 0 0 0-37.283 37.283A37.283 37.283 0 0 0 82.85 95.4a37.283 37.283 0 0 0 37.283-37.283A37.283 37.283 0 0 0 82.85 20.833z"/></svg>