<svg xmlns="http://www.w3.org/2000/svg" width="226.777" height="226.777" viewBox="0 0 226.777 226.777"><path d="M114.89 38.672a71.713 71.713 0 0 0-71.712 71.713 71.713 71.713 0 0 0 71.713 71.713 71.713 71.713 0 0 0 71.713-71.713 71.713 71.713 0 0 0-71.713-71.713zm-6.945 2.752a53.503 53.503 0 0 1 53.502 53.502 53.503 53.503 0 0 1-53.502 53.504 53.503 53.503 0 0 1-53.504-53.504 53.503 53.503 0 0 1 53.504-53.502zM95.742 51.438a23.654 23.654 0 0 0-23.654 23.654 23.654 23.654 0 0 0 23.654 23.654 23.654 23.654 0 0 0 23.654-23.654 23.654 23.654 0 0 0-23.654-23.654z"/></svg>