<svg xmlns="http://www.w3.org/2000/svg" width="226mm" height="226mm" viewBox="0 0 226 226"><path d="M99.132 200.8c-35.713-9.216-61.618-39.76-64.038-75.508-.714-10.548-.713-10.553 3.012-14.278 4.654-4.654 9.626-4.898 14.597-.715 3.123 2.628 3.687 4.105 4.424 11.585 2.045 20.753 10.323 35.877 25.626 46.82 22.871 16.357 52.527 16.181 74.495-.44 24.408-18.468 31.964-50.037 18.521-77.381-12.326-25.073-38.413-38.5-66.612-34.286l-6.38.953V46.643c0-7.12.502-11.217 1.446-11.8 2.746-1.697 20.78-2.006 29.4-.504 55.979 9.755 87.425 70.655 62.626 121.286-7.805 15.936-23.202 31.3-39.216 39.13-17.278 8.45-39.562 10.776-57.901 6.044zm12.152-40.52c-22.91-5.094-36.294-24.42-35.018-50.562l.386-7.899 11.24-.349 11.24-.35v9.471c0 11.97 1.387 16.77 6.317 21.856 10.747 11.088 29.65 5.984 33.713-9.103 2.772-10.292-3.676-21.575-13.961-24.43-2.82-.784-15.962-1.337-31.829-1.341l-27.025-.009-5.492-10.936-5.493-10.937h36.421c33.86 0 36.894.177 43.146 2.517 8.381 3.135 18.386 12.095 23.19 20.767 3.341 6.032 6.227 7.623 6.227 19.486 0 11.474-2.96 13.138-5.87 18.651-4.076 7.723-12.02 15.726-19.237 19.384-4.561 2.311-17.841 5.776-20.584 5.37-.378-.056-3.696-.77-7.371-1.588zM49.31 70.948c0-2.728 11.607-15.04 19.746-20.944l3.342-2.425v24.469H60.855c-6.35 0-11.544-.495-11.544-1.1zm27.948-20.173c0-21.067.042-21.41 2.983-24.35 5.796-5.797 16.389-3.144 18.296 4.58.375 1.521.526 11.241.334 21.6l-.348 18.835-10.632.351-10.633.351V50.774z"/></svg>