<svg xmlns="http://www.w3.org/2000/svg" width="226mm" height="226mm" viewBox="0 0 226 226"><path d="M105.459 222.24c-21.048-1.773-40.497-9.14-56.982-21.582-9.689-7.314-18.568-16.735-25.375-26.925C1.63 141.591-1.138 99.645 15.93 65.022c2.607-5.289 4.162-7.98 7.498-12.975 11.676-17.484 28.37-31.4 47.434-39.541C100.14.002 133.062.81 161.29 14.726c12.853 6.335 23.346 14.277 33.231 25.153 15.645 17.212 25.55 39.927 27.608 63.314.42 4.778.485 14.333.124 18.623-2.825 33.659-20.472 63.764-48.23 82.276-5.068 3.38-8.217 5.186-13.47 7.723-11.298 5.455-22.518 8.656-35.441 10.11-3.94.444-15.865.635-19.654.316zm19.607-8.99c22.28-2.683 42.299-12.227 58.308-27.8 8.54-8.307 15.08-17.293 20.267-27.85 11.058-22.504 13.344-48.155 6.447-72.348-2.71-9.506-7.254-19.382-12.733-27.671-20.79-31.453-56.654-48.53-93.941-44.729-29.844 3.042-56.833 19.553-73.507 44.97-8.682 13.233-13.9 27.636-15.908 43.906-.612 4.964-.617 17.67-.008 22.614 2.036 16.525 7.175 30.723 15.971 44.125 16.032 24.423 41.748 40.676 70.445 44.522 1.587.212 3.915.483 5.172.6 3.514.33 15.697.117 19.487-.34zm46.793-60.668c-6.729-.496-12.728-2.403-18.164-5.772-2.088-1.294-5.349-3.784-5.492-4.194-.044-.125 1.796-2.47 4.09-5.212 2.293-2.741 4.29-5.142 4.437-5.335.223-.293.618-.088 2.405 1.248 2.612 1.954 6.692 4.02 9.597 4.86 4.05 1.172 8.732 1.064 11.668-.27 2.64-1.199 3.709-2.82 3.721-5.643.007-1.613-.075-1.956-.714-2.986-.92-1.483-2.669-2.69-5.894-4.066l-8.54-3.64c-3.309-1.409-6.61-2.897-7.338-3.307-1.87-1.053-4.568-3.107-5.719-4.356-5.705-6.189-6.713-15.595-2.446-22.834 1.345-2.282 4.84-5.768 7.202-7.183 10.854-6.501 25.694-5.005 36.032 3.634.825.688 1.499 1.345 1.499 1.46 0 .194-6.538 8.482-7.465 9.463-.414.438-.47.42-1.99-.665-1.884-1.345-5.483-3.077-7.626-3.671-1.187-.33-2.435-.434-5.173-.433-3.16 0-3.773.066-4.932.53-3.257 1.306-4.81 3.957-4.06 6.933.404 1.604 2.138 3.314 4.541 4.478.993.48 4.933 2.135 8.755 3.677 9.945 4.01 11.642 4.914 14.635 7.785 3.947 3.786 5.739 8.732 5.41 14.93-.479 8.996-6.437 16.113-16.01 19.125-3.325 1.046-8.955 1.7-12.429 1.444zM32.502 116.234l.06-35.076 11.548-.072c19.442-.12 24.468.471 30.455 3.586 5.845 3.04 8.8 9.484 7.58 16.528-.94 5.429-3.711 9.742-7.584 11.807-.803.428-1.46.853-1.46.945 0 .092.73.42 1.623.728 2.422.836 4.481 2.07 6.275 3.763 1.892 1.785 3.179 3.845 4.06 6.5.578 1.741.64 2.282.652 5.654.015 4.377-.269 5.73-1.896 9.044-2.786 5.674-8.63 9.434-17.21 11.071-2.032.388-4.052.445-18.225.517l-15.94.08zm30.093 22.455c3.593-.822 5.85-2.433 7.041-5.025.614-1.335.691-1.772.693-3.909.002-2.092-.08-2.58-.625-3.746-.78-1.664-1.832-2.682-3.716-3.591-2.345-1.131-4.873-1.444-11.684-1.444H48.32v18.34l6.315-.124c4.475-.088 6.794-.234 7.96-.501zm-2.268-29.888c4.327-.976 6.615-3.765 6.592-8.037-.022-4.156-2.253-6.42-7.102-7.208-.832-.135-3.759-.246-6.504-.247l-4.992-.002v15.865l3.308.067c4.516.091 6.876-.028 8.698-.438zm33.223 7.368V81.023l12.45.036c6.848.02 13.873.126 15.612.236 9.436.597 15.394 2.998 18.888 7.612 2 2.643 3.01 6.428 2.774 10.415-.174 2.95-.63 4.646-2.002 7.442-1.328 2.705-3.734 5.299-5.8 6.252-.695.32-1.264.718-1.264.883 0 .165.569.486 1.263.714 5.641 1.847 9.39 5.805 10.794 11.398.441 1.754.494 2.505.393 5.534-.194 5.763-1.442 8.755-5.224 12.528-1.93 1.924-2.676 2.483-4.7 3.52-2.751 1.408-5.247 2.277-8.674 3.017-2.283.492-3.125.52-18.451.61l-16.059.095zm30.35 22.411c3.477-.931 5.637-2.526 6.735-4.975.798-1.78.913-5.293.233-7.098-.676-1.79-1.645-2.897-3.318-3.785-2.674-1.42-3.603-1.558-11.325-1.682l-7.037-.114v9.006c0 4.953.081 9.09.18 9.192.1.103 2.995.133 6.436.068 5.291-.1 6.539-.195 8.096-.612zm-2.206-29.873c2.677-.725 4.463-2.132 5.5-4.333.517-1.095.626-1.675.63-3.368.004-1.129-.14-2.464-.322-2.979-.423-1.202-1.776-2.694-3.02-3.33-2.06-1.053-3.143-1.207-9.34-1.325l-5.954-.113v15.915l3.91.066c4.325.073 6.964-.09 8.596-.533z"/></svg>