<svg xmlns="http://www.w3.org/2000/svg" width="226mm" height="226mm" viewBox="0 0 226 226"><path d="M117.334 12.79c-74.695 142.14-37.347 71.07 0 0zm29.796 150.944l25.512-29.18 16.325-18.537 16.324-18.538-1.51-2.537-1.51-2.537-11.67-16.097-11.67-16.096-14.41-7.908-14.408-7.909h-34.167l-34.167-.002L67.245 51.8l-14.534 7.41-13.692 17.633-13.691 17.634.571 2.65.571 2.651 44.445 50.235 44.444 50.235 3.13-3.668 3.13-3.668zm-36.433 21.92l-4.227-7.164v-1.408l-16.64-28.668-16.64-28.669 2.91-11.502 2.911-11.502 2.92-10.37L84.853 76h60.858l.9 3.456.899 3.457 4.44 16.272 4.439 16.272-5.815 11.382-5.814 11.382-9.13 16.79-9.129 16.79-5.787 10.509-5.788 10.508zm1.699-37.556v-4.938h3.95v9.877h5.926V143.6l6.715-1.26 6.715-1.26 2.015-2.428 2.015-2.427 1.268-5.053 1.268-5.052-3.772-4.658-3.773-4.66 2.128-5.636 2.128-5.637-2.096-3.323-2.097-3.323-6.257-1.622-6.257-1.62v-9.764h-5.926v9.876h-3.675l-.632-4.444-.63-4.445h-5.927l-.63 4.445-.632 4.444H92.643v7.901h7.901v31.605h-7.901v7.901h11.852v9.877h7.9zm0-18.765v-5.926h13.951l1.147 2.988 1.146 2.988-2.438 2.938-2.438 2.938h-11.368zm0-19.753v-5.926h9.393l2.459 2.963 2.459 2.963-2.46 2.963-2.458 2.963h-9.393zm-34.612 42.25L56.1 127.158l-8.387-9.283-8.386-9.283-.008-1.497-.01-1.497 15.4 7.846 15.399 7.847 4.634 8.465 4.635 8.466 10.827 18.357 10.827 18.358-.782.78-.781.782zm58.805 9.603l8.228-15.309 7.184-12.84 7.184-12.839 11.667-6.35 11.667-6.348 5.583-1.996 5.584-1.996-5.584 6.792-5.583 6.79-25.679 29.542-25.679 29.54-1.4.161-1.4.161zm-86.122-54.797l-19.46-10.109.047-1.493.046-1.494 12.05-15.58 12.052-15.578 12.3 5.846 12.301 5.846-.22 4.42-.22 4.419-4.718 16.915-4.718 16.915zm107.551 2.406l-2.062-6.374-2.985-12.84-2.986-12.84-.03-1.032-.029-1.032 6.42-3.28 6.42-3.28 6.221-3.043 6.222-3.043 8.593 11.262 8.593 11.262 3.338 5.327 3.337 5.327-4.325 2.737-4.325 2.737-10.864 4.515-10.864 4.516-4.306 2.728-4.306 2.728zM72.396 66.625l-11.358-5.062v-2.879l10.918-5.169 10.918-5.169h67.505l9.65 5.252 9.65 5.252-.053 1.168-.053 1.167-12.292 5.457-12.293 5.456-30.617-.206-30.617-.206z"/></svg>