<svg xmlns="http://www.w3.org/2000/svg" width="226mm" height="226mm" viewBox="0 0 226 226"><path d="M99.377 225.53l-3.782-.471-5.445-1.101-5.444-1.102-7.312-2.424-7.312-2.425-6.66-3.294-6.66-3.293-5.966-3.99-5.967-3.991-4.078-3.402-4.078-3.402-4.99-5.197-4.99-5.2-3.731-4.992-3.731-4.994-2.4-3.984-2.399-3.984-2.358-4.715-2.358-4.717-1.946-4.945-1.946-4.946-1.29-4.809-1.292-4.808-1.052-5.427-1.051-5.428-.57-7.666L0 113.155l.582-7.4.581-7.4 1.348-6.922 1.348-6.923 2.084-6.327 2.084-6.327 3.888-7.908 3.888-7.91 3.08-4.577 3.08-4.576 3.326-4.214 3.327-4.214 6.022-5.835 6.024-5.834 4.886-3.6 4.887-3.6 3.954-2.438 3.955-2.44 6.59-3.164 6.591-3.164 6.327-2.096 6.327-2.096 6.855-1.33 6.855-1.33 7.647-.592 7.647-.59 7.458.56 7.457.562 4.402.824 4.404.823 4.218 1.058 4.219 1.058 4.745 1.607 4.744 1.606 7.01 3.342 7.008 3.338 5.382 3.512 5.382 3.511 4.847 3.921 4.846 3.92 5.24 5.49 5.241 5.49 3.03 4.024 3.028 4.024 2.881 4.565 2.881 4.564 2.52 5.009 2.52 5.01 2.166 5.799 2.165 5.8 1.306 5.009 1.307 5.008.8 4.745.8 4.746.51 6.327.509 6.327-.249 5.273-.25 5.272-.533 4.482-.533 4.482-1.058 5.273-1.057 5.271-2.362 7.118-2.36 7.118-3.388 6.855-3.387 6.855-3.089 4.744-3.089 4.745-4.261 5.289-4.26 5.289-5.012 4.79-5.01 4.791-5.599 4.203-5.598 4.204-5.66 3.239-5.66 3.24-6.062 2.615-6.064 2.617-6.327 1.906-6.328 1.906-5.8 1.068-5.799 1.07-12.127.178-12.127.18zm29.882-11.655l6.59-1.08 6.065-1.762 6.063-1.76 5.01-2.155 5.007-2.156 5.538-3.172 5.535-3.172 4.54-3.387 4.54-3.387 4.12-3.842 4.118-3.841 3.92-4.48 3.921-4.48 3.335-5.01 3.333-5.012 2.38-4.481 2.38-4.482 2.11-5.325 2.11-5.325 1.584-6.01 1.587-6.011.845-5.8.845-5.8-.006-8.7-.006-8.7-.83-5.497-.828-5.5-1.345-5.31-1.346-5.31-1.87-5.009-1.87-5.009-2.515-5.008-2.513-5.01-3.13-4.744-3.13-4.746-3.194-3.954-3.193-3.954-5.2-5.024-5.2-5.023-3.164-2.417-3.164-2.419-4.6-2.997-4.602-2.998-5.944-2.838-5.943-2.839-5.506-1.899-5.505-1.899-6.357-1.274-6.36-1.275-6.59-.602-6.59-.603-5.272.331-5.273.33-3.954.531-3.955.532-5.009 1.103-5.009 1.1-5.972 2.057-5.972 2.055-5.744 2.88-5.743 2.882-3.048 1.93-3.047 1.93-4.745 3.564-4.745 3.562-5.652 5.714-5.65 5.714-2.442 3.163-2.444 3.164-2.903 4.408-2.902 4.408-2.87 5.753-2.868 5.753-2.32 6.975-2.32 6.975-1.064 5.272-1.064 5.273-.614 7.557-.613 7.556.612 7.101.612 7.101 1.075 5.379 1.077 5.376 2.114 6.507 2.114 6.506 3.095 6.186 3.098 6.185 3.258 4.972 3.26 4.972 3.303 3.954 3.305 3.954 4.928 4.797 4.93 4.798 4.337 3.2 4.34 3.202 4.477 2.704 4.478 2.705 4.892 2.318 4.892 2.316 5.537 1.849 5.535 1.848 6.855 1.39 6.854 1.39 6.59.35 6.592.35 4.744-.157 4.745-.158zm-17.494-6.882l-.887-.687-.139-.792-.14-.79.384-1.13.385-1.129 1.168-.314 1.17-.313 3.69-.01 3.691-.011 5.272-.795 5.273-.793 4.97-1.354 4.971-1.354 1.225.557 1.225.56v3.056l-.699.58-.7.58-4.969 1.314-4.97 1.315-4.744.77-4.745.77-5.272.33-5.273.328zm-32.067-5.643l-3.955-1.477-4.481-2.253-4.483-2.255-4.876-3.152-4.878-3.152v-2.844l.633-.632.632-.634h2.39l4.368 2.836 4.368 2.837 3.427 1.737 3.428 1.738 5.536 2.19 5.535 2.19.172 1.441.169 1.44-.63.759-.63.76-1.386-.026-1.385-.026-3.955-1.477zm22.598-7.182l-5.082-.694-5.154-1.371-5.154-1.372-5.581-2.36-5.582-2.36-4.42-2.662-4.42-2.66-3.224-2.48-3.226-2.48-3.895-3.693-3.894-3.693-3.262-4.218-3.265-4.218-2.439-3.958-2.44-3.96-2.095-4.537-2.096-4.536-1.589-5.214-1.587-5.212-.932-4.481-.932-4.483v-19.508l.938-5.006.94-5.007 1.864-5.767 1.864-5.768 3.098-6.098 3.095-6.098 4.176-5.559 4.175-5.558 4.705-4.459 4.706-4.46 4.177-2.983 4.18-2.982 5.536-2.91 5.536-2.908 5.395-1.864 5.397-1.866 5.677-1.107 5.675-1.108 6.59-.303 6.592-.304 5.536.629 5.536.627 5.907 1.527 5.906 1.527 3.584 1.42 3.584 1.42 3.652 1.823L153.7 42.7l3.993 2.638 3.993 2.638 3.527 2.878 3.526 2.878 3.334 3.534 3.334 3.535 2.414 3.154 2.416 3.155 2.814 4.696 2.815 4.695 2.028 4.706 2.03 4.705 1.323 4.565 1.321 4.564.789 4.489.787 4.488.321 5.54.322 5.541-.648 6.323-.648 6.323-1.557 6.051-1.556 6.054-2.245 5.283-2.245 5.284-2.198 3.755-2.2 3.755-3.248 4.417-3.248 4.418-4.83 4.745-4.83 4.744-4.987 3.547-4.987 3.545-5.8 2.89-5.8 2.888-4.745 1.569-4.745 1.568-3.976.81-3.976.81-4.724.541-4.723.542-4.746-.05-4.745-.05-5.083-.693zm1.875-22.717l.835-.321v-1.996h-1.582v-3.164h1.582v-2.634h-1.582v-2.638H102.3l-1.02.546-1.02.546v1.093l-.79.79-.79.792v1.012l.79.303.79.304v4.58l.923.537.922.537.616.016.617.016zm10.03-1.29l1.086-1.117-2.85.177-2.85.177-.21-.61-.21-.611 2.006.022 2.005.024.923-.072.922-.072v-2.304l-1.146-1.22-1.146-1.222h-4.104l-.964.518-.964.516-.58 1.66-.578 1.66.655 1.368.655 1.367 1.317.693 1.319.691 1.814-.264 1.814-.265zm16.873 0l1.086-1.117-2.85.177-2.85.177-.186-.536-.184-.535 2.507-.07 2.507-.07.396-.054.396-.054v-2.636l-1.055-1.055-1.055-1.053h-4.704l-1.075 1.153-1.074 1.155v3.033l.561 1.05.561 1.049 1.153.488 1.151.49 1.814-.238 1.815-.238zm9.414.106l1.01-1.009-.355-1.116-.354-1.113-1.415-.358-1.415-.356 1.498-.613 1.498-.614-.877-.877-.876-.876h-4.595l-.828.827-.829.83v1.43l.808.808.807.809 1.83.342 1.828.343v.937h-2.021l-.204-.61-.203-.61-1.46.366-1.46.366.211.64.211.64 1.277.677 1.275.677 1.815-.265 1.814-.265zm-3.946-4.656l.692-.278.318.32.32.317-1.011-.041-1.012-.041zm11.057 5.714l.677-.429-.338-.881-.337-.88h-1.47v-3.165h1.582v-2.634h-1.582v-2.638h-.477l-1.343.612-1.343.612v1.413h-1.054v2.635h1.054l.009 1.978.009 1.977.387.58.388.58.79.302.79.3.792.034.79.033.678-.428zm-60.107-5.486l-.15-5.405-1.714-.165-1.713-.165v11.14h3.728zm5.387 2.768v-2.637h1.581v5.273h3.691v-5.565l-.82-1.172-.82-1.171h-2.894l-.633.631-.632.633v-1.264h-3.164v7.908h3.69zm26.89 0v-2.637h1.996l.32-.833.32-.835v-.883l-3.163-.015-3.164-.015v7.854h3.69zm-7.909-20.43v-5.669h7.382v11.336h11.566l.148-6.124.149-6.123 3.006-.93 3.007-.93 2.31-1.353 2.31-1.354 1.993-2.206 1.995-2.207 1.345-2.939 1.345-2.939-.007-3.716-.007-3.715-1.204-2.778-1.205-2.78-2.734-2.493-2.734-2.493-2.074-.731-2.072-.733-1.288-.48-1.288-.48 2.606-1.213 2.605-1.214 2.209-2.217 2.207-2.217 1.106-2.283 1.105-2.284.308-2.608.31-2.609-.852-2.928-.851-2.928-2.447-2.723-2.449-2.722-2.168-1.114-2.168-1.116-2.11-.63-2.108-.629-.15-5.874-.148-5.875h-11.565v11.072h-7.382V63.156H100.26v11.072H82.333v9.49h5.684l1.244 1.009 1.245 1.008v45.384l-.685.685-.685.686-3.27.263-3.269.265v9.49h17.664v11.336h11.6zm-1.844-16.848l-1.58-.252-.389-.612-.39-.611-.008-8.832-.01-8.832 7.514.024 7.513.024 2.014.717 2.011.718 1.073.971 1.075.972.804 1.557.805 1.557-.024 2.736-.024 2.735-.785 1.508-.785 1.508-1.242 1.162-1.245 1.161-1.838.755-1.838.755-5.537.266-5.535.268-1.58-.254zm-2.374-37.878v-8.294l7.848.252 7.848.253 1.99 1.032 1.99 1.033.97 1.81.971 1.81v4.343l-1.193 1.792-1.193 1.79-2.102 1.056-2.103 1.054-7.513.181-7.513.183zm58.176 96.212l-1.14-.425-.322-1.015-.321-1.014.321-.837.322-.838 1.93-1.47 1.932-1.468 4.174-3.674 4.173-3.673 4.48-5.43 4.482-5.43h2.403l.82 1.171.821 1.173v1.204l-3.27 4.158-3.272 4.157-3.815 3.775-3.815 3.774-3.591 2.865-3.59 2.866-.79.277-.792.277zm-128.31-20.538l-1.065-1.065-2.35-3.667-2.352-3.669-2.39-4.76-2.39-4.76-1.604-4.035-1.602-4.035.158-1.622.16-1.621 1.433-.502 1.435-.5.988.895.99.896.661 2.232.66 2.232 2.785 5.876 2.785 5.877 3.226 4.98 3.226 4.98v1.222l-1.054 1.055-1.055 1.054h-1.582zm160.596-25.6l-.83-.83v-.884l1.303-4.925 1.302-4.923.806-5.01.803-5.008.056-3.954.053-3.955.356-1.268.356-1.268.829-.523.829-.523 1.392.35 1.391.349.345 1.374.345 1.374-.627 6.86-.626 6.859-.808 4.016-.806 4.018-1.068 3.69-1.067 3.691-.537.659-.536.66h-2.432zM20.235 115.588l-1.172-.82v-5.102l.556-5.46.557-5.46.975-4.494.977-4.495.878-3.02.878-3.021 1.037-.555 1.037-.555 1.034.329 1.036.329.56 1.045.56 1.046-.821 2.478-.82 2.477-1.04 4.745-1.037 4.744-.632 7.562-.632 7.56-.743.744-.744.744h-1.272zm177.73-28.837l-.492-.66-1.498-3.954-1.497-3.954-2.094-4.218-2.095-4.218-3.097-4.794-3.099-4.793v-1.585l1.034-.936 1.033-.935 1.254.315 1.25.314 2.957 4.44 2.954 4.44 2.442 4.863 2.444 4.865 1.542 4.009 1.544 4.009v2.185l-.632.633-.633.633h-2.823zM37.291 61.801l-.829-.829v-1.93l2.355-3.13 2.353-3.132 3.478-3.756 3.478-3.756 4.054-3.364 4.055-3.363 1.45-.935 1.45-.934 1.318.864 1.317.864v2.96l-2.43 1.746-2.43 1.745-4.969 4.75-4.968 4.75-2.711 3.48-2.711 3.48-.8.658-.8.66H38.12zM161.95 39.648l-3.428-2.356-5.537-2.831-5.535-2.83-4.138-1.46-4.136-1.46-.531-1.165-.531-1.165.565-1.055.565-1.056 1.017-.266 1.018-.265 3.084 1.023 3.087 1.022 6.378 3.064 6.378 3.062 4.31 2.837 4.312 2.836.314 1.208.313 1.207-.935 1.034-.935 1.033-1.104-.03-1.105-.03zM82.548 28.093l-.864-1.317.833-1.271.832-1.272 1.738-.573 1.736-.573 5.795-1.32 5.795-1.32 7.49-.63 7.488-.631 1.08.976 1.08.977v2.344l-.66.544-.66.544-5.009.354-5.008.355-5.009.76-5.01.759-4.58 1.306-4.58 1.307h-1.622z"/></svg>