<svg xmlns="http://www.w3.org/2000/svg" width="226mm" height="226mm" viewBox="0 0 226 226"><path d="M114.744 27.648L68.72 104.73 9.788 81.717l-1.31 22.825 53.507 12.348-36.108 61.926 177.921-.187-30.87-52.666 46.025-3.273-.562-19.27-51.262 12.347-.468-.842 53.695-13.096-.281-17.867-57.623 23.386-.468-1.029 58.091-23.667-2.245-17.96-60.804 34.05zm.374 47.053l21.328 36.576-8.98 5.051L114.65 94.44l-13.377 24.041-9.728-3.929zm-28.437 48.83l10.29 2.62-10.103 17.867 56.313.093-8.325-14.967 11.226-1.029 14.592 25.444-91.018-.187z" stroke="#000" stroke-width=".265"/></svg>