<svg width="226.777" height="226.777" viewBox="0 0 226.777 226.777" xmlns="http://www.w3.org/2000/svg"><path d="M132.67 127.716c-2.187-1.942-7.355-5.153-13.93-7.39-6.58-2.238-15.29-4.097-15.29-4.097l-7.769 28.997s8.92 2.595 15.042 3.761c6.117 1.165 12.716 1.309 16.269.43 3.55-.876 7.99-2.53 9.767-9.163 1.778-6.634-1.9-10.598-4.09-12.538zm-14.37-21.931c4.982 1.13 10.53 1.4 14.876.329 4.35-1.069 7.376-3.777 8.573-8.74 1.192-4.962-.974-10.01-6.075-13.208-5.104-3.195-8.794-4.32-13.013-5.518-4.216-1.196-8.614-1.968-8.614-1.968l-6.991 26.091s6.267 1.884 11.245 3.014z"/><path d="M142.766 3.865C82.265-12.347 20.076 23.557 3.864 84.06c-16.211 60.502 19.694 122.69 80.195 138.902 60.502 16.211 122.69-19.694 138.9-80.196 16.212-60.502-19.691-122.69-80.193-138.901zm4.028 163.387c-9.676 3.501-18.665 2.178-22.654 1.648-1.969-.259-5.297-.868-8.846-1.6l-5.885 21.964-13.521-3.623 5.79-21.608-10.297-2.76-5.79 21.609-13.52-3.623 5.79-21.608-26.597-7.126 7.13-15.495 8.086 2.167c2.718.728 3.92.78 5.345.011 1.425-.77 2.118-2.343 2.474-3.672l14.99-55.943c.939-3.504.908-4.53-.22-6.76-1.129-2.236-4.855-3.488-6.989-4.06l-7.815-2.093 3.762-14.038 26.596 7.126 5.807-21.67 13.519 3.623-5.807 21.67 10.297 2.759 5.807-21.67 13.52 3.623-5.875 21.93c9.912 3.325 16.9 7.256 22.153 13.85 6.791 8.523 3.435 19.27 2.552 21.81-.883 2.54-3.357 7.227-6.496 9.837-3.136 2.614-9.56 4.347-9.56 4.347s6.198 3.15 9.88 7.86c3.678 4.711 5.452 11.753 2.854 20.673-2.59 8.921-6.808 17.34-16.48 20.842z"/></svg>