<svg width="226.777" height="226.777" viewBox="0 0 226.777 226.777" xmlns="http://www.w3.org/2000/svg"><path d="M22.976 172.7v-52.807h72.532v105.616H22.976zm83.984 0v-52.885l30.38.232c34.452.264 33.466.14 44.379 5.545 12.95 6.414 21.594 16.385 26.51 30.58 2.018 5.827 2.089 6.374 2.104 16.21.014 8.928-.167 10.768-1.476 14.952-4.838 15.472-14.499 26.63-28.96 33.449-9.196 4.336-9.001 4.315-42.556 4.571l-30.38.233zM22.976 54.36V1.552h72.532v105.616H22.976zm83.984 0V1.552h27.078c15.79 0 28.984.281 31.653.675 19.921 2.94 35.834 16.313 42.614 35.815 1.961 5.64 2.023 6.144 2.007 16.318-.017 9.79-.139 10.862-1.813 15.906-2.22 6.689-3.494 9.238-7.561 15.144-7.161 10.397-19.587 18.46-32.16 20.865-3.576.684-11.352.893-33.243.893H106.96z"/></svg>