<svg xmlns="http://www.w3.org/2000/svg" viewBox="0 0 226.8 226.8"><path d="M113.016 31.89c-47.846 0-85.317 35.22-85.317 83.065s37.05 82.566 84.817 82.566c10.45 0 21.445.424 29.734-4.753 5.782-3.612 4.129-13.707-2.724-12.79-7.607 1.019-16.77 3.936-26.26 3.399-34.656-1.962-71.017-24.622-71.25-68.922-.206-39.088 30.4-67.009 70.75-68.75 43.151-1.862 71.77 28.06 71.6 69.073-.05 12.113-3.7 22.76-1 24.897 4.664 3.69 9.4 3.75 11.85.579 5.326-6.89 3.866-15.872 3.866-25.299 0-47.766-38.221-83.064-86.066-83.064z" stroke-width=".793"/><path d="M107.262 70.941l-10.674 1.87 2.148 10.898c-8.186 1.618-24.027 6.506-24.027 6.506l1.646 8.355s3.375-.682 4.645-.906c1.27-.224 3.488-.527 4.684.31 1.125.937 1.383 1.416 1.841 3.518.374 2.118 6.499 32.39 6.633 33.153.15.847.228 1.792-.33 2.59-.558.796-1.205 1.085-2.814 1.369-1.61.283-4.813.937-4.813.937l.262 9.908s17.615-3.37 25.547-4.943l2.607 12.726 9.729-1.681-2.772-13.115c2.088-.543 6.745-1.764 7.817-2.127 2.227-.742 7.26-2.416 11.39-6.725 4.116-4.394 4.205-9.825 3.235-15.33-.941-5.336-3.685-8.519-6.838-10.059-3.139-1.455-7.17-1.53-7.17-1.53s2.946-2.616 3.873-4.788c1.012-2.187 1.08-5.255.896-6.795-.184-1.54-1.484-9.492-7.209-12.238-1.348-1.343-2.922-3.537-18.074-1.668zm5.162 21.454c.74.004 1.533.045 2.4.132 3.552.335 5.92 2.363 6.612 5.297.677 2.85-.237 5.107-2.215 6.766-1.978 1.659-4.892 2.958-7.826 3.65-2.85.677-6.663 1.35-6.733 1.45l-3.07-15.442s2.48-.786 5.021-1.234c1.842-.325 3.59-.633 5.81-.62zm7.228 22.988c2.166.011 3.942.258 4.979.566 1.659.494 4.567 1.64 5.424 5.506.771 3.881-1.131 5.965-2.73 7.295-1.685 1.345-5.148 3.003-8.645 3.969-3.498.966-8.834 1.906-8.834 1.906l-3.471-17.203s5.022-1.235 9.033-1.768a31.23 31.23 0 0 1 4.244-.271z" stroke-width=".86"/><path d="M153.619 148.665l.177 5.657 12.02.353-12.197 17.501-.53 4.95h23.157l-.176-6.364-12.198.177 12.905-16.617v-6.01z"/></svg>