<svg xmlns="http://www.w3.org/2000/svg" viewBox="0 0 226.8 226.8"><path d="M112.046 5.267C49.21 5.267 0 51.521 0 114.356c0 62.834 48.657 108.433 111.39 108.433 13.723 0 28.163.557 39.049-6.242 7.593-4.744 5.422-18.001-3.578-16.797-9.99 1.338-22.024 5.169-34.487 4.464-45.513-2.577-93.266-32.336-93.572-90.515-.27-51.334 39.924-88.002 92.916-90.288 56.67-2.446 94.254 36.85 94.031 90.712-.065 15.908-4.859 29.89-1.313 32.697 6.125 4.846 12.345 4.925 15.562.76 6.995-9.048 5.078-20.844 5.078-33.224 0-62.73-50.196-109.087-113.03-109.087z" stroke-width="1.041"/><path d="M104.49 56.553l-14.02 2.456 2.821 14.312c-10.75 2.125-31.554 8.544-31.554 8.544l2.161 10.973s4.433-.896 6.1-1.19c1.669-.294 4.581-.692 6.152.407 1.478 1.23 1.816 1.86 2.418 4.62.491 2.782 8.535 42.538 8.711 43.54.197 1.112.3 2.353-.433 3.401-.733 1.045-1.583 1.425-3.696 1.798-2.114.372-6.32 1.23-6.32 1.23l.343 13.012s23.134-4.425 33.55-6.491l3.425 16.713 12.777-2.208-3.64-17.224c2.741-.713 8.857-2.316 10.265-2.793 2.925-.974 9.535-3.173 14.958-8.832 5.406-5.77 5.523-12.903 4.249-20.133-1.236-7.007-4.84-11.188-8.98-13.21-4.123-1.91-9.417-2.01-9.417-2.01s3.87-3.435 5.087-6.287c1.329-2.873 1.418-6.902 1.176-8.924-.241-2.023-1.948-12.466-9.467-16.072-1.77-1.764-3.837-4.645-23.736-2.19zm6.779 28.175a33.6 33.6 0 0 1 3.151.173c4.665.44 7.775 3.104 8.684 6.957.889 3.743-.311 6.707-2.91 8.886-2.597 2.178-6.424 3.884-10.277 4.793-3.743.89-8.75 1.773-8.842 1.904l-4.032-20.28s3.257-1.032 6.594-1.62c2.42-.427 4.715-.831 7.63-.814zm9.492 30.19c2.845.014 5.177.339 6.539.743 2.179.649 5.998 2.154 7.123 7.231 1.013 5.097-1.485 7.834-3.585 9.58-2.213 1.767-6.761 3.944-11.354 5.213-4.593 1.269-11.601 2.503-11.601 2.503l-4.559-22.592s6.596-1.622 11.863-2.322a41.014 41.014 0 0 1 5.574-.356z" stroke-width="1.129"/><path d="M165.37 158.627l.232 7.43 15.786.463-16.019 22.984-.696 6.5h30.412l-.23-8.357-16.02.232 16.948-21.823v-7.893z" stroke-width="1.313"/></svg>