<svg xmlns="http://www.w3.org/2000/svg" width="226.777" height="226.777" viewBox="0 0 226.777 226.777"><path d="M83.24 197.836L53.303 183.62V47.907l1.23.472 1.23.472 6.784 4.39 6.785 4.389v117.362l22.394 10.376 22.395 10.376.272 8.216.273 8.216-.744-.062-.744-.063-29.938-14.215zm36.265 6.194l.273-8.189 20.273-9.312 20.272-9.311 7.354-3.265 7.353-3.265h.851v13.194l-28.324 14.169-28.324 14.168zm-24.648-20.211l-21.149-9.384-.335-.335-.334-.335 9.488-3.835 9.488-3.835 12.354 5.675 12.355 5.675 20.857-9.045 20.857-9.045 1.414.067 1.414.066 5.62 3.479 5.618 3.478.039.743.038.743-27.816 12.691-27.816 12.692-.471-.056-.471-.055-21.15-9.384zm-21.525-69.881l.243-56.75 19.802-9.225 19.8-9.225.708-.03.707-.028v16.118l-11.307 5.286L91.98 65.37l-.244 49.118-.244 49.12-8.486 3.456-8.487 3.456-.714.084-.715.084zm64.127-51.496l-19.093-8.204-.001-7.858-.001-7.857.877.314.878.314 18.923 8.487 18.924 8.486v14.615l-.707-.046-.707-.047-19.093-8.204zm24.279.96v-7.336l7.072-3.5 7.071-3.499v15.048l-6.576 3.312-6.577 3.312h-.99zM64.74 50.957l-5.063-3.613-1.478-1.478-1.477-1.477 3.712-1.551 3.712-1.551 18.387-8.474 18.387-8.473 7.833-3.638 7.833-3.637 4.896 2.214 4.897 2.214 24.28 11.863 24.28 11.863v.983l-7.57 3.806-7.569 3.805-12.939-6.026-12.94-6.027-8.533-3.946-8.533-3.947L94.81 44.288 72.765 54.71l-1.48-.069-1.481-.07z" stroke-width=".943"/></svg>