<svg xmlns="http://www.w3.org/2000/svg" width="226.777" height="226.777" viewBox="0 0 226.777 226.777"><path d="M79.4 181.513l-30.501-30.574 31.161-31.087 31.162-31.086 10.548 10.548 10.548 10.548-21.097 21.208-21.097 21.207 10.54 10.54 10.539 10.539 21.166-21.057 21.167-21.056 10.044 9.807 10.044 9.808-30.541 30.614c-16.797 16.838-31.135 30.614-31.862 30.614-.727 0-15.046-13.758-31.822-30.573zm70.94-88.582l-39.1-39.099-38.143 38.085c-20.98 20.947-38.932 37.297-39.895 36.334-.963-.964-1.751-9.15-1.751-18.192V93.62l39.885-39.827 39.886-39.827 41.131 41.074 41.131 41.074v16.708c0 9.19-.91 17.27-2.023 17.958-1.112.688-19.617-16.344-41.121-37.848z" stroke-width="2.493"/></svg>