<svg width="226.777" height="226.777" viewBox="0 0 226.777 226.777" xmlns="http://www.w3.org/2000/svg"><path d="M36.242 30.58c5.007 34.121 23.605 52.603 56.509 55.446C76.143 58.734 74.868 32.713 87.028 3.57 63.424 9.256 50.941 17.092 36.242 30.581zM.476 108.773c17.882 19.193 55.078 22.036 78.683 0-33.62-7.82-53.31-27.51-62.231-53.313C6.915 70.387.157 91.01.476 108.772zm29.327 81.746c33.416-3.102 55.078-24.879 55.078-56.866C64.137 150 29.088 152.134 1.907 140.049c7.59 22.083 13.627 33.63 27.896 50.47zm78.683 36.253c20.744-20.615 22.174-54.024 0-78.903-8.583 34.83-27.18 52.602-55.078 62.553 19.211 11.649 31.686 14.278 55.078 16.35zm82.26-29.144c-2.146-34.12-25.428-54.192-56.51-56.156 16.088 27.96 19.314 54.023 5.008 82.456 21.356-5.81 33.62-11.373 51.502-26.3zm35.764-79.613c-20.029-21.326-59.37-19.193-78.683.71 31.54 7.613 48.64 22.036 62.946 54.024 10.922-17.916 15.737-31.277 15.737-54.734zm-27.897-81.036c-32.188-1.422-57.224 27.723-57.224 56.156 26.466-17.771 57.224-18.481 82.975-4.265-4.292-22.747-12.41-34.737-25.75-51.89zm-25.035-19.192C156.411 7.123 141.39 2.147 118.5.726c-21.459 19.903-20.743 60.42 0 78.902 8.584-34.12 28.612-52.602 55.078-61.842z" stroke-width="3.897"/></svg>