<svg xmlns="http://www.w3.org/2000/svg" width="226.777" height="226.777" viewBox="0 0 226.777 226.777"><path d="M31.686 192.415c0-.73 55.699-67.189 56.602-67.535 1.212-.465 2.773.888 2.773 2.404 0 .667-2.11 8.283-4.688 16.925-2.578 8.641-4.687 16.198-4.687 16.793 0 .595.492 1.23 1.093 1.413.602.181 29.596 6.106 64.432 13.165 34.836 7.06 63.594 12.994 63.906 13.186.312.193.567 1.178.567 2.19v1.837h-89.999c-49.5 0-89.999-.17-89.999-.378zm-7.278-2.445c-.2-.521-.239-1.6-.086-2.397.415-2.172 88.111-153.039 88.624-152.463.63.708 28.739 79.863 28.739 80.928 0 .485-.337 1.219-.75 1.631-1.972 1.972-3.422.825-15.211-12.03-6.446-7.03-12.066-12.913-12.489-13.076-1.108-.425-1.464-.021-43.114 48.98-20.89 24.579-38.985 45.742-40.21 47.031-2.33 2.452-4.852 3.091-5.503 1.396zm142.513-13.723c-22.73-4.554-41.643-8.477-42.03-8.717-.798-.493-.925-2.798-.216-3.913.258-.407 7.215-2.586 15.459-4.844 17.379-4.758 17.8-4.914 17.8-6.585 0-.692-9.292-27.346-20.65-59.231-11.478-32.221-20.57-58.668-20.469-59.536.147-1.254.578-1.602 2.18-1.757 1.721-.166 2.212.137 3.539 2.188 2.087 3.226 87.275 150.148 87.275 150.52 0 .474.348.54-42.888-8.125z" stroke-width=".625"/></svg>