<svg xmlns="http://www.w3.org/2000/svg" width="226.777" height="226.777" viewBox="0 0 226.777 226.777"><path d="M11.876 202.918c0-.86 65.633-79.173 66.697-79.58 1.429-.549 3.268 1.046 3.268 2.832 0 .786-2.486 9.76-5.524 19.944-3.038 10.182-5.523 19.087-5.523 19.788 0 .701.58 1.45 1.288 1.665.71.213 34.875 7.195 75.924 15.513 41.05 8.32 74.936 15.312 75.304 15.538.368.227.668 1.388.668 2.58v2.165H117.927c-58.329 0-106.051-.2-106.051-.445zM3.3 200.037c-.236-.614-.282-1.886-.102-2.825.49-2.56 103.827-180.335 104.431-179.656.743.834 33.865 94.107 33.865 95.362 0 .572-.397 1.437-.884 1.922-2.323 2.324-4.032.972-17.924-14.176-7.595-8.283-14.218-15.216-14.716-15.408-1.306-.5-1.725-.025-50.804 57.716-24.616 28.963-45.938 53.9-47.382 55.42-2.745 2.889-5.717 3.642-6.484 1.645zm167.931-16.171c-26.784-5.366-49.07-9.989-49.526-10.272-.94-.58-1.09-3.297-.255-4.61.304-.48 8.502-3.048 18.217-5.709 20.478-5.606 20.974-5.79 20.974-7.76 0-.815-10.949-32.223-24.333-69.795-13.525-37.967-24.239-69.132-24.12-70.154.174-1.478.682-1.888 2.57-2.07 2.027-.196 2.606.16 4.17 2.578 2.459 3.8 102.84 176.928 102.84 177.366 0 .559.41.636-50.537-9.574z" stroke-width=".736"/></svg>