<svg width="226.777" height="226.777" viewBox="0 0 226.777 226.777" xmlns="http://www.w3.org/2000/svg"><path d="M87.513 223.559c-36.677-10.118-69.992-45.06-78.607-82.448-3.423-14.858-2.834-43.64 1.17-57.127C18.508 55.58 35.119 32.634 57.915 17.9 72.095 8.734 94.753.773 106.656.773h7.52l-.621 24.583-.62 24.583-11.45 3.387c-17.97 5.316-17.966 6.34.105 22.577l16.15 14.511 14.598-14.712c8.03-8.091 14.6-15.478 14.6-16.414 0-2.5-14.327-8.06-20.77-8.06h-5.555V.774h7.28c10.24 0 28.909 5.834 43.67 13.648 13.731 7.269 38.3 30.535 44.602 42.238l3.978 7.387-8.072 9.85c-4.44 5.418-11.975 12.942-16.744 16.72l-8.672 6.868-7.245-7.865-7.244-7.864-15.907 16.05-15.906 16.052 16.615 16.4 16.615 16.4 7.202-8.227c3.96-4.525 7.749-8.227 8.417-8.227.669 0 7.842 7.403 15.94 16.451 14.662 16.383 14.711 16.48 11.788 23.583-4.383 10.65-31.92 36.909-46.15 44.007-14.164 7.065-32.661 12.42-43.038 12.458l-7.13.026v-47.224l11.445-2.719c20.241-4.808 20.433-6.988 2.217-25.204l-15.856-15.857-16.893 16.893-16.893 16.894 9.764 4.429c5.37 2.436 11.985 4.45 14.7 4.477 4.816.047 4.936.632 4.936 24.18v24.13l-8.227-.195c-4.525-.108-12.756-1.446-18.292-2.973zm-8.088-92.748c8.175-8.112 14.863-15.736 14.863-16.943 0-3.04-26.724-29.733-29.767-29.733-4.412 0-10.412 17.183-10.59 30.33-.158 11.554 5.734 31.094 9.374 31.094.692 0 7.946-6.637 16.12-14.748z" stroke-width="2.194"/></svg>