<svg xmlns="http://www.w3.org/2000/svg" width="226.777" height="226.777" viewBox="0 0 226.777 226.777"><path d="M97.738 208.45c-40.377-7.362-71.761-39.806-77.683-80.307-1.462-10-.56-26.99 1.98-37.248 2.458-9.933 9.444-24.65 15.602-32.869 18.266-24.383 46.257-38.413 76.638-38.413 12.457 0 21.627 1.525 31.644 5.264 14.768 5.513 25.57 12.316 35.8 22.545 13.414 13.414 23.032 31.646 26.523 50.277 1.706 9.106 1.717 24.786.023 33.808-7.458 39.716-38.788 70.595-78.095 76.97-9.037 1.465-24.314 1.452-32.432-.028zm3.94-42.147v-16.467l-4.158-2.052c-19.125-9.436-26.244-33.907-15.188-52.208 3.429-5.675 9.342-11.192 14.938-13.937l4.408-2.162V63.009c0-18.936.635-17.765-8.044-14.841-27.19 9.16-45.096 30.887-48.356 58.675-2.785 23.738 7.048 47.549 25.718 62.28 8.636 6.813 22.814 13.491 28.9 13.612l1.782.036zm34.314 14.543c27.415-9.284 46.47-33.944 47.849-61.923.27-5.477.06-11.324-.54-15.114-1.23-7.746-6.117-20.424-10.474-27.17-4.073-6.304-13.666-15.954-20.063-20.18-5.505-3.637-17.639-8.824-22.437-9.591l-3.304-.529.003 16.536.003 16.536 5.08 2.627c14.66 7.58 22.485 25.452 18.255 41.691-2.717 10.431-8.323 17.769-17.994 23.552l-5.347 3.197v16.147c0 18.708-.753 17.513 8.97 14.221zm-5.8-45.188c0-.21-1.322-3.054-2.938-6.318l-2.937-5.936 2.103-2.196c5.883-6.141 6.094-16.53.453-22.3-7.49-7.66-18.184-7.56-25.028.235-5.409 6.16-5.402 14.37.017 21.316l2.365 3.031-2.828 6.276-2.829 6.275h15.81c8.697 0 15.811-.172 15.811-.383z" stroke-width=".792"/></svg>