<svg xmlns="http://www.w3.org/2000/svg" width="226.777" height="226.777" viewBox="0 0 226.777 226.777"><path d="M93.056 225.45C45.12 216.71 7.863 178.194.833 130.112c-1.736-11.871-.665-32.042 2.35-44.22C6.101 74.1 14.395 56.63 21.705 46.872 43.39 17.924 76.62 1.268 112.688 1.268c14.788 0 25.675 1.81 37.567 6.249 17.532 6.545 30.356 14.621 42.5 26.765 15.925 15.924 27.343 37.569 31.488 59.687 2.025 10.81 2.038 29.425.027 40.136-8.854 47.15-46.048 83.808-92.712 91.376-10.729 1.74-28.865 1.724-38.502-.033zm4.677-50.035v-19.55l-4.936-2.436c-22.705-11.202-31.156-40.253-18.031-61.98 4.07-6.737 11.09-13.286 17.734-16.545l5.233-2.567v-19.55c0-22.48.754-21.09-9.55-17.619-32.279 10.875-53.536 36.668-57.406 69.657-3.307 28.182 8.367 56.45 30.531 73.938 10.253 8.088 27.084 16.016 34.31 16.16l2.115.042zm40.737 17.265c32.546-11.022 55.167-40.298 56.805-73.513.32-6.503.07-13.444-.641-17.943-1.46-9.196-7.262-24.247-12.435-32.256-4.835-7.484-16.224-18.94-23.818-23.957-6.536-4.318-20.94-10.476-26.637-11.386l-3.922-.628.004 19.631.004 19.631 6.03 3.119c17.405 8.998 26.694 30.216 21.673 49.494-3.226 12.383-9.881 21.095-21.362 27.96l-6.348 3.796v19.169c0 22.21-.894 20.79 10.649 16.883zm-6.886-53.646c0-.25-1.57-3.626-3.488-7.5l-3.487-7.048 2.497-2.607c6.984-7.29 7.235-19.624.538-26.474-8.892-9.093-21.588-8.975-29.713.28-6.421 7.312-6.413 17.059.02 25.305l2.808 3.598-3.357 7.451-3.359 7.45h18.77c10.324 0 18.77-.205 18.77-.455z" stroke-width=".94"/></svg>