<svg xmlns="http://www.w3.org/2000/svg" width="226mm" height="226mm" viewBox="0 0 226 226"><path d="M98.37 225.312c-23.887-3.278-45.076-14.145-63.331-32.478C12.952 170.654 2.35 145.013 2.35 113.78c0-31.361 10.586-56.86 32.916-79.284 11.02-11.065 15.876-14.661 27.733-20.533C82.087 4.509 93.59 1.719 113.493 1.719s31.406 2.79 50.494 12.243c19.247 9.531 37.966 27.838 47.48 46.435 17.905 34.994 17.905 71.77 0 106.764-9.519 18.604-28.236 36.907-47.48 46.427-7.906 3.911-18.178 8.076-22.828 9.255-11.634 2.949-31.106 4.073-42.788 2.47zm45.34-14.594c31.35-9.987 55.607-34.46 66.125-66.717 3.419-10.485 4.043-15.151 4.043-30.222 0-15.054-.627-19.755-4.038-30.255-10.448-32.167-34.379-56.284-66.375-66.892-10.398-3.447-15.025-4.076-29.972-4.076-14.946 0-19.574.63-29.972 4.076C51.525 27.24 27.594 51.357 17.146 83.524c-3.41 10.5-4.038 15.201-4.038 30.255 0 15.053.627 19.755 4.038 30.254 9.947 30.624 32.678 54.582 61.95 65.296 5.584 2.043 13.705 4.36 18.048 5.149 12.39 2.249 32.901.593 46.567-3.76zm-52.934-3.976c-33.004-8.72-57.128-31.478-68.147-64.291-5.182-15.434-5.22-41.71-.08-57.344C38.202 37.49 86.382 9.414 133.94 20.197c32.568 7.384 57.244 29.588 69.553 62.585 3.91 10.483 4.336 13.524 4.336 30.997 0 17.472-.425 20.513-4.336 30.997-7.377 19.774-18.04 34.445-33.292 45.807-23.1 17.207-52.679 23.225-79.424 16.159zm19.045-8.11l2.556-5.036-3.285 2.952c-1.806 1.624-3.284 3.89-3.284 5.037 0 3.37 1.286 2.425 4.013-2.952zm4.44.388c2.604-5.076 1.557-6.267-1.702-1.937-2.005 2.663-2.845 6.587-1.41 6.587.4 0 1.801-2.093 3.113-4.65zm3.889 1.464c2.782-5.242.911-6.615-2.073-1.522-1.517 2.59-2.051 4.708-1.188 4.708.864 0 2.33-1.434 3.26-3.186zm5.24-3.014c.982-3.724.928-3.757-1.364-.866-1.312 1.655-2.385 4.06-2.385 5.347 0 3.276 2.49.3 3.75-4.48zm-20.656-2.03c0-.853-1.383-.288-3.074 1.255-1.69 1.543-3.074 3.503-3.074 4.355 0 .853 1.383.288 3.074-1.255 1.69-1.543 3.074-3.503 3.074-4.355zm2.471 3.967c3.118-4.141 2.524-5.867-.934-2.712-3.01 2.748-4.043 5.425-2.09 5.425.54 0 1.901-1.22 3.024-2.713zm22.797-3.487c.98-3.723.927-3.757-1.365-.866-1.312 1.655-2.385 4.06-2.385 5.347 0 3.276 2.49.301 3.75-4.48zm3.322 2.253c1.427-5.734-.281-6.34-2.203-.782-.955 2.761-1.04 4.729-.207 4.729.785 0 1.87-1.776 2.41-3.947zm-34.175-1.38c2.351-3.617 2.31-3.768-.976-3.603-1.886.094-4.64 1.204-6.12 2.466-1.59 1.357-2.69 1.6-2.69.596 0-.934.781-2.185 1.735-2.78 1.19-.74.958-1.519-.735-2.474-1.668-.941-3.85-.515-6.73 1.316l-4.26 2.71 2.834-3.321c2.815-3.3 2.793-3.333-3.408-5.206-3.433-1.037-5.878-2.48-5.433-3.206 1.089-1.775-.02-1.662-4.68.48-4.953 2.275-4.977 4.072-.072 5.314 2.114.534 3.843 1.53 3.843 2.212 0 .681 4.272 2.694 9.495 4.472 9.007 3.067 9.658 3.097 12.68.571 1.752-1.464 2.32-1.67 1.264-.456-1.056 1.213-1.921 2.764-1.921 3.446 0 2.503 2.787 1.137 5.174-2.536zm-14.396-1.458c0-.322 1.21-1.542 2.69-2.712 2.437-1.928 2.492-1.873.58.585-2.008 2.582-3.27 3.403-3.27 2.127zm-7.338-4.953c1.46-1.54 3.075-2.376 3.59-1.857.516.52-.678 1.78-2.653 2.801-3.432 1.775-3.473 1.733-.937-.944zm-4.19-2.21c.523-.853 1.642-1.55 2.487-1.55.846 0 1.11.697.587 1.55-.522.852-1.641 1.549-2.487 1.549-.845 0-1.11-.697-.587-1.55zm-4.61-1.55c.522-.853 1.64-1.55 2.486-1.55.846 0 1.11.697.587 1.55-.522.852-1.641 1.55-2.487 1.55-.845 0-1.11-.698-.587-1.55zm69.32 10.001c1.427-5.734-.281-6.34-2.203-.782-.955 2.762-1.04 4.729-.207 4.729.785 0 1.87-1.776 2.41-3.947zm4.545-3.027c.718-3.1.564-4.133-.46-3.1-.846.852-2.022 3.642-2.614 6.2-.717 3.099-.563 4.132.462 3.099.845-.853 2.02-3.642 2.612-6.2zm3.6-1.254c-.146-4.723-.208-4.771-1.384-1.071-1.767 5.565-1.767 8.076 0 6.974.846-.527 1.468-3.183 1.384-5.903zm4.74-1.55c-.017-3.763-.379-4.39-1.513-2.62-1.97 3.073-1.97 9.75 0 8.523.846-.527 1.527-3.183 1.514-5.903zm2.62-3.783c-.386-1.492-.702-.272-.702 2.712 0 2.983.316 4.204.703 2.712.386-1.492.386-3.933 0-5.424zm5.09 1.162c0-2.557-.545-4.65-1.21-4.65-.666 0-1.369 2.093-1.562 4.65-.193 2.557.351 4.65 1.21 4.65s1.561-2.093 1.561-4.65zm7.684-4.156c0-5.13-3.048-6.049-3.227-.972l-.153 4.353-1.23-3.874c-1.098-3.455-1.248-3.244-1.384 1.95-.144 5.45.044 5.7 2.92 3.89 1.691-1.065 3.074-3.471 3.074-5.347zm-99.046-1.22c2.385-1.818 2.503-2.284.587-2.324-1.318-.027-3.738.975-5.38 2.226-2.385 1.82-2.502 2.286-.587 2.325 1.318.027 3.739-.975 5.38-2.226zm102.504-3.111c-.408-2.151-1.427-3.912-2.264-3.912-.837 0-1.103 1.104-.59 2.452.514 1.348.934 3.482.934 4.74 0 1.26.598 1.917 1.33 1.46.732-.455.998-2.589.59-4.74zm-105.578-.117c2.867-2.312 2.834-2.365-.86-1.376-4.741 1.27-7.692 3.78-4.443 3.78 1.276 0 3.662-1.082 5.303-2.404zm108.85-1.857c-1.114-4.681-1.79-5.889-2.751-4.908-1.13 1.153.95 9.17 2.378 9.17.763 0 .93-1.918.373-4.262zM59.02 176.467c2.867-2.311 2.834-2.365-.86-1.376-4.742 1.27-7.692 3.781-4.443 3.781 1.276 0 3.662-1.082 5.303-2.405zm115.227-1.854c-1.137-4.567-1.97-5.94-2.98-4.91-1.192 1.216.99 9.169 2.515 9.169.896 0 1.087-1.758.465-4.259zm-116.218-1.291c1.376-1.388-.826-1.889-4.864-1.107-2.324.45-4.226 1.51-4.226 2.356 0 1.401 7.482.373 9.09-1.25zm118.457-3.796c-2.487-4.684-3.488-2.827-1.372 2.544.97 2.463 2.071 3.644 2.448 2.626.377-1.018-.108-3.345-1.076-5.17zm-121.527.604c1.47-1.28-.924-1.778-4.868-1.014-2.324.45-4.226 1.448-4.226 2.217 0 1.233 7.42.251 9.094-1.203zm124.6-3.704c-2.485-4.684-3.487-2.827-1.371 2.545.97 2.462 2.071 3.643 2.448 2.625.377-1.018-.108-3.344-1.076-5.17zm-127.546-.3c0-.843-1.094-1.11-2.432-.593-1.337.517-3.453.94-4.701.94-1.25 0-1.9.604-1.448 1.342 1.082 1.767 8.58.291 8.58-1.688zm130.488-3.05c-1.074-2.023-2.159-2.769-2.505-1.721-.336 1.016.242 3.453 1.283 5.416 1.074 2.023 2.16 2.769 2.505 1.721.336-1.016-.241-3.453-1.283-5.416zm-134.193.073c.75-1.225-.173-1.532-2.983-.99-2.24.432-4.071.233-4.071-.442s1.556-1.53 3.458-1.9c2.135-.414 1.248-.752-2.319-.882-5.41-.197-5.655-.014-3.857 2.889 2.087 3.37 8.025 4.175 9.772 1.325zm139.712-1.267c1.072-3.407-1.506-9.357-4.055-9.357-.945 0-.537 1.727.945 4.009 1.433 2.205 2.26 4.357 1.839 4.782-.422.425-1.571-.741-2.553-2.592-2.475-4.663-3.608-2.877-1.348 2.125 2.191 4.85 3.865 5.184 5.172 1.033zm-50.703-3.87c11.885-3.895 23.61-15.17 27.477-26.423 4.124-12.003 4.866-26.523 1.883-36.87-4.461-15.472-15.513-24.366-34.18-27.507-9.607-1.616-58.966-.252-58.966 1.63 0 .601 2.248 1.743 4.995 2.537l4.995 1.445v82.026l-4.995 1.482c-2.747.816-4.995 2.21-4.994 3.1 0 1.062 9.362 1.614 27.282 1.61 22.856-.007 28.777-.498 36.503-3.03zm-31.125-3.414c-1.467-.597-1.921-10.24-1.921-40.825V73.729l4.644-1.028c12.1-2.68 26.105 3.025 31.9 12.995 3.674 6.32 4.229 9.093 4.723 23.631.896 26.376-4.923 39.604-19.594 44.54-5.268 1.772-16.198 2.177-19.752.731zm-61.864 1.356c0-.671-2.075-1.38-4.611-1.574-2.537-.195-4.611.354-4.611 1.22s2.074 1.574 4.61 1.574c2.537 0 4.612-.549 4.612-1.22zm149.711-6.022c2.266-6.707 2.255-7.457-.146-10.133-4.02-4.48-6.051.45-2.514 6.105l2.687 4.296-3.208-2.78c-2.83-2.45-3.317-2.494-4.126-.368-.977 2.568 1.795 10.122 3.714 10.122.63 0 2.247-3.259 3.593-7.242zm-5.263 1.78c-1.07-1.299-1.556-2.753-1.081-3.232.474-.479 1.635.584 2.578 2.362 2.013 3.793 1.266 4.228-1.497.87zm2.909-9.649c-1.912-2.458-1.858-2.513.58-.585 2.56 2.025 3.374 3.298 2.11 3.298-.32 0-1.53-1.221-2.69-2.713zm-150.816 9.393c-1.48-.39-3.9-.39-5.38 0-1.479.39-.268.71 2.69.71 2.96 0 4.17-.32 2.69-.71zm-1.152-3.58c-3.049-1.987-9.672-1.987-8.454 0 .522.852 3.157 1.538 5.854 1.525 3.732-.018 4.354-.383 2.6-1.526zm-3.074-4.65c-5.52-1.783-8.01-1.783-6.917 0 .522.852 3.157 1.48 5.854 1.395 4.684-.147 4.732-.21 1.063-1.395zm.691-2.9c-1.777-1.643-9.914-3.698-9.914-2.504 0 1.081 6.196 3.626 9.146 3.756 1.356.06 1.657-.43.768-1.252zm158.293-5.227c-1.593-1.924-1.912-2.625-.708-1.56 1.203 1.066 2.74 1.937 3.417 1.937 2.482 0 1.127-2.81-2.515-5.217-3.588-2.37-3.738-2.33-3.574.984.177 3.597 4.164 9.48 5.507 8.127.422-.426-.535-2.348-2.127-4.271zm-162.827-.38c-2.536-1.13-4.937-1.734-5.335-1.34-1.194 1.181 3.572 3.607 6.872 3.498 2.379-.08 2.031-.567-1.537-2.158zm2.306-2.19c0-.77-2.075-2.128-4.612-3.02-2.536-.891-4.61-1.017-4.61-.28 0 1.057 3.533 2.886 8.837 4.575.212.067.385-.507.385-1.276zm163.691-4.802c-1.53-1.705-3.473-3.1-4.319-3.1-.845 0-.285 1.395 1.245 3.1s3.474 3.1 4.32 3.1c.845 0 .284-1.395-1.246-3.1zm-163.691.825c0-.4-1.903-1.82-4.227-3.157-4.131-2.375-4.14-2.41-.385-1.519 3.7.878 3.731.822.86-1.493-4.243-3.42-6.887-3.05-5.882.824.882 3.404 9.634 8.259 9.634 5.345zm165.997-3.366c0-1.298-4.984-5.095-6.77-5.159-.766-.027-.14 1.346 1.39 3.05 2.725 3.037 5.38 4.077 5.38 2.109zm1.537-4.393c0-.405-2.248-1.895-4.995-3.312l-4.996-2.577 2.928 3.312c2.59 2.93 7.063 4.562 7.063 2.577zm-169.072-1.55c0-.404-2.074-1.817-4.61-3.14-4.838-2.522-6.576-.532-1.922 2.201 2.824 1.659 6.532 2.192 6.532.939zm169.072-2.325c0-.83-2.075-2.592-4.611-3.914-5.78-3.014-6.087-.866-.385 2.7 5.026 3.141 4.996 3.134 4.996 1.214zm-169.072-1.255c0-.669-2.074-2.452-4.61-3.963-2.537-1.51-4.612-2.031-4.612-1.158 0 .873 1.902 2.628 4.227 3.9 5.058 2.767 4.995 2.752 4.995 1.22zm166.854-5.886c-2.864-2.111-7.004-2.982-7.004-1.472 0 1.214 8.399 5.255 9.22 4.436.42-.421-.576-1.755-2.216-2.964zm-169.426-.83c-1.79-1.806-4.192-2.967-5.337-2.581-1.323.446-.402 1.619 2.53 3.22 6.165 3.368 6.668 3.253 2.807-.64zm-.117-4.769c-1.855-1.87-3.86-2.91-4.456-2.308-.596.6.25 2.109 1.878 3.351 4.571 3.488 6.355 2.766 2.578-1.043zm170.638.183c-.459-1.77-2.565-3.882-4.68-4.693-5.477-2.1-6.033-.542-.865 2.422 4.14 2.375 4.166 2.456.52 1.591-3.699-.878-3.731-.822-.86 1.493 4.238 3.416 6.887 3.05 5.885-.813zM31.263 99.83c-1.53-1.706-3.474-3.1-4.319-3.1-.845 0-.285 1.394 1.245 3.1 1.53 1.704 3.474 3.099 4.319 3.099.845 0 .285-1.395-1.245-3.1zm3.458-3.81c0-2.096-1.297-4.994-2.882-6.44-3.635-3.318-3.77-1.125-.192 3.126 2.568 3.05 2.566 3.098-.037 1.064-1.5-1.173-3.219-1.636-3.82-1.03-.79.797 4.866 6.719 6.74 7.055.105.019.191-1.68.191-3.776zm166.382 2.41c0-.768-2.075-2.127-4.611-3.018-2.536-.892-4.611-1.018-4.611-.28 0 1.056 3.533 2.886 8.838 4.575.21.067.384-.507.384-1.276zm-3.119-6.41c-1.243-.794-3.644-1.397-5.335-1.34-2.379.079-2.03.567 1.537 2.157 4.9 2.185 7.596 1.604 3.798-.818zM35.608 81.652l-2.687-4.296 3.208 2.78c2.829 2.45 3.316 2.494 4.125.369.977-2.568-1.794-10.123-3.714-10.123-.63 0-2.247 3.26-3.593 7.243-2.266 6.706-2.255 7.456.146 10.132 4.02 4.48 6.051-.45 2.515-6.105zm-2.236 3.066c-1.911-2.458-1.857-2.513.58-.585 1.48 1.17 2.69 2.39 2.69 2.712 0 1.276-1.262.455-3.27-2.127zm3.27-7.362c-1.086-1.32-1.629-2.748-1.206-3.174.423-.426 1.657.305 2.744 1.625 1.086 1.32 1.629 2.748 1.206 3.174-.423.426-1.657-.305-2.743-1.625zM198.72 89.091c-2.106-2.078-11.112-4.057-9.145-2.01.846.88 2.92 1.935 4.611 2.345 5.242 1.271 6.099 1.208 4.534-.335zm-1.46-4.76c-.522-.852-3.157-1.48-5.854-1.395-4.684.148-4.732.21-1.062 1.396 5.519 1.782 8.009 1.782 6.916 0zm-1.537-4.649c-.522-.852-3.025-1.55-5.56-1.55-2.683 0-4.214.649-3.662 1.55.523.853 3.025 1.55 5.561 1.55 2.683 0 4.214-.648 3.661-1.55zm-4.227-4.168c-1.479-.39-3.9-.39-5.38 0-1.478.39-.268.709 2.69.709 2.96 0 4.17-.319 2.69-.709zm-149.42-4.49c-1.433-2.205-2.26-4.357-1.838-4.783.421-.425 1.57.741 2.553 2.592 2.474 4.663 3.607 2.877 1.347-2.124-2.191-4.85-3.865-5.185-5.172-1.034-1.072 3.407 1.507 9.358 4.055 9.358.945 0 .538-1.728-.945-4.01zm149.805.909c0-.852-2.075-1.55-4.611-1.55-2.536 0-4.611.698-4.611 1.55 0 .852 2.075 1.55 4.61 1.55 2.537 0 4.612-.698 4.612-1.55zm-3.431-6.2c-2.087-3.37-8.025-4.175-9.772-1.325-.75 1.225.174 1.532 2.984.99 2.239-.431 4.07-.232 4.07.443s-1.556 1.53-3.458 1.899c-2.135.414-1.248.752 2.319.882 5.41.198 5.655.015 3.857-2.888zM45.707 60.788c-1.074-2.024-2.159-2.77-2.505-1.722-.336 1.016.242 3.453 1.283 5.416 1.074 2.023 2.16 2.769 2.505 1.722.336-1.016-.241-3.453-1.283-5.416zm3.091-2.2c-.97-2.463-2.071-3.644-2.448-2.626-.74 2.003 2.394 8.936 3.525 7.796.377-.381-.107-2.708-1.077-5.17zm133.309 2.497c1.248 0 1.9-.604 1.448-1.342-1.083-1.766-8.581-.291-8.581 1.689 0 .844 1.094 1.111 2.43.594 1.338-.518 3.454-.94 4.703-.94zM51.872 55.487c-.97-2.462-2.071-3.644-2.448-2.625-.74 2.002 2.394 8.935 3.525 7.795.378-.381-.107-2.708-1.077-5.17zm129.122 1.504c1.47-1.279-.924-1.778-4.868-1.014-2.324.45-4.226 1.448-4.226 2.218 0 1.233 7.42.251 9.094-1.204zM55.668 53.722c-1.169-4.913-1.784-5.89-2.962-4.703-1.256 1.267.956 8.965 2.577 8.965.77 0 .943-1.918.385-4.262zm122.252.17c.352-.307.26-.94-.203-1.407-1.257-1.268-8.891.963-8.891 2.597 0 1.243 7.412.272 9.094-1.19zm-119.178-3.27c-1.113-4.68-1.79-5.888-2.751-4.907-1.13 1.153.95 9.17 2.378 9.17.763 0 .931-1.918.373-4.262zm115.386-.561c2.593-2.442-3.017-1.505-6.161 1.03-2.868 2.31-2.834 2.364.859 1.375 2.113-.566 4.5-1.648 5.302-2.405zm-111.96-.727c-.513-1.349-.933-3.482-.933-4.741 0-1.26-.6-1.917-1.331-1.46-1.752 1.091-.289 8.652 1.674 8.652.838 0 1.103-1.103.59-2.451zm108.886-2.373c2.593-2.442-3.017-1.505-6.161 1.03-2.868 2.311-2.834 2.365.859 1.375 2.113-.566 4.5-1.648 5.302-2.405zm-103.6-2.925c1.016 3.396 1.178 3.155 1.313-1.95.143-5.45-.045-5.701-2.921-3.89-1.691 1.065-3.074 3.395-3.074 5.18 0 5.143 2.242 6.063 2.915 1.196l.609-4.41zm99.156.824c2.386-1.82 2.504-2.285.588-2.325-1.318-.027-3.739.975-5.38 2.226-2.385 1.82-2.503 2.286-.587 2.325 1.318.027 3.739-.974 5.38-2.226zm-6.31-1.073c4.953-2.276 4.978-4.073.072-5.314-2.113-.535-3.842-1.529-3.842-2.209 0-.68-3.233-2.346-7.183-3.704-6.651-2.285-7.395-2.274-10.049.148-4.442 4.054.447 6.101 6.054 2.535l4.261-2.71-2.833 3.321c-2.815 3.3-2.794 3.333 3.408 5.207 3.432 1.037 5.877 2.48 5.432 3.205-1.088 1.776.02 1.662 4.68-.479zm-3.002-2.85c.522-.853 1.642-1.55 2.487-1.55.845 0 1.11.697.587 1.55-.523.852-1.642 1.549-2.487 1.549-.845 0-1.11-.697-.587-1.55zm-4.611-1.55c.522-.853 1.641-1.55 2.487-1.55.845 0 1.11.697.587 1.55-.523.852-1.642 1.55-2.487 1.55-.845 0-1.11-.698-.587-1.55zm-5.38-.721c0-.396 1.557-1.557 3.459-2.579 3.135-1.684 3.261-1.617 1.348.72-1.964 2.402-4.807 3.5-4.807 1.859zm-7.685-2.965c0-.321 1.21-1.542 2.69-2.712 2.438-1.928 2.492-1.873.58.585-2.008 2.582-3.27 3.403-3.27 2.127zm-66.394 3.685c.194-2.557-.351-4.65-1.21-4.65s-1.561 2.093-1.561 4.65c0 2.558.544 4.65 1.21 4.65.665 0 1.368-2.092 1.561-4.65zm2.9-4.262c-.387-1.491-.704-.271-.704 2.712 0 2.984.317 4.204.703 2.713.387-1.492.387-3.933 0-5.425zm5.064-1.641c.013-1.996-.656-3.155-1.513-2.62-.846.526-1.527 3.183-1.514 5.903.018 3.763.38 4.39 1.514 2.62.82-1.278 1.5-3.935 1.513-5.903zm4.482-3.1c.084-1.116-.539-1.597-1.384-1.07-.845.526-1.468 3.183-1.384 5.903.146 4.723.209 4.77 1.384 1.07.677-2.13 1.3-4.787 1.384-5.903zm3.906.48c.717-3.1.563-4.134-.462-3.1-.845.852-2.02 3.642-2.612 6.199-.717 3.1-.564 4.133.461 3.1.845-.853 2.021-3.643 2.613-6.2zm4.475-3.83c-1.172-1.205-3.577 3.602-3.469 6.929.079 2.398.563 2.048 2.14-1.55 1.121-2.557 1.72-4.978 1.329-5.38zm4.61-1.55c-1.17-1.205-3.576 3.602-3.468 6.929.079 2.399.563 2.048 2.14-1.55 1.121-2.557 1.72-4.978 1.329-5.38zm4.069 1.673c0-3.276-2.49-.3-3.75 4.481-.98 3.724-.927 3.757 1.365.866 1.312-1.654 2.385-4.06 2.385-5.347zm34.757 4.287c3.27-3.645 1.143-3.804-3.127-.234-1.757 1.469-2.33 1.678-1.274.464 1.057-1.213 1.921-2.764 1.921-3.446 0-2.478-2.777-1.152-5.112 2.441-2.289 3.522-2.233 3.681 1.296 3.681 2.028 0 4.861-1.307 6.296-2.906zm-30.146-5.837c0-3.276-2.49-.3-3.75 4.481-.98 3.724-.927 3.758 1.365.866 1.312-1.654 2.385-4.06 2.385-5.347zm5.188-1.653c-1.176-1.186-5.19 4.7-5.178 7.593.007 1.454 1.204.59 3.009-2.17 1.649-2.523 2.625-4.963 2.17-5.423zm2.496 5.362c1.13-2.13 1.644-4.287 1.141-4.794-.502-.507-2.02 1.236-3.372 3.872-1.352 2.637-1.865 4.794-1.141 4.794s2.242-1.743 3.372-3.872zm5.81-4.103c-.424-1.267-1.779.052-3.418 3.325l-2.716 5.425 3.418-3.326c1.88-1.829 3.102-4.27 2.716-5.424zm4.465.77c-.596-.601-2.092.251-3.324 1.894-3.459 4.609-2.743 6.407 1.034 2.599 1.855-1.87 2.885-3.893 2.29-4.494zm5.096.525c0-.852-1.383-.287-3.074 1.255-1.69 1.543-3.074 3.503-3.074 4.356 0 .852 1.383.287 3.074-1.256 1.69-1.543 3.074-3.502 3.074-4.355z"/></svg>