<svg width="250" height="250" viewBox="0 0 250 250" xmlns="http://www.w3.org/2000/svg"><path d="M90.943 245.791c-2.982-1.81-8.758-5.127-12.836-7.37-4.079-2.244-11.878-6.766-17.332-10.05-5.455-3.285-12.297-7.206-15.206-8.714-6.132-3.18-22.983-12.947-23.47-13.604-.182-.246-1.67-1.554-3.306-2.907-1.636-1.354-3.926-3.954-5.088-5.778-4.16-6.526-4.169-6.66-4.157-65.764.008-42.453.193-54.198.9-57.206 1.036-4.396 4.323-10.13 7.662-13.363 2.397-2.32 9.361-6.914 12.94-8.534 1.105-.5 4.08-2.178 6.611-3.729 2.531-1.55 5.941-3.569 7.577-4.485 8.495-4.756 13.588-7.725 13.884-8.095.182-.227 2.809-1.658 5.838-3.18 3.029-1.52 7.491-4.042 9.917-5.603 4.13-2.659 7.313-4.511 27.549-16.031 14.124-8.041 16.023-8.863 21.518-9.316 6.642-.546 10.159.557 20.132 6.317 4.364 2.52 11.037 6.26 14.83 8.312 3.792 2.052 8.403 4.705 10.247 5.895 2.828 1.827 8.688 5.296 18.558 10.988 1.09.629 3.768 2.115 5.95 3.303 4.202 2.287 11.703 6.663 17.189 10.027 1.818 1.115 5.71 3.309 8.647 4.874 12.16 6.481 16.828 10.623 20.351 18.06l2.075 4.378.18 56.142c.194 60.576.265 59.132-3.251 66.024-3.208 6.287-10.191 11.079-40.233 27.604-4.181 2.3-9.264 5.296-11.295 6.657-2.03 1.36-6.344 3.88-9.586 5.6-3.242 1.718-9.42 5.208-13.73 7.755-8.477 5.01-11.98 5.958-16.505 4.464-2.974-.981-6.765-5.14-7.676-8.422-.475-1.71-.703-26.324-.705-76.281l-.004-73.756-6.036-3.761c-3.32-2.069-6.435-3.762-6.922-3.762-.906 0-2.138.645-9.354 4.9l-4.13 2.435.044 74.702.045 74.703-1.464 3.024c-2.084 4.306-6.237 6.84-11.21 6.84-3.305 0-4.343-.374-9.149-3.293zm-.748-84.637c0-32.3-.255-58.179-.572-58.179-.315 0-1.329.595-2.253 1.322-.925.728-1.843 1.323-2.042 1.323-.487 0-21.532 12.044-26.69 15.275-2.266 1.419-6.56 3.811-9.545 5.316-5.426 2.736-13.08 7.47-15.26 9.437-1.06.958-1.156 3.029-1.156 25.102 0 21.978.1 24.17 1.157 25.355 1.504 1.686 10.791 7.284 25.132 15.148 3.437 1.885 11.28 6.528 19.99 11.833 8.01 4.88 10.18 6.13 10.743 6.192.273.03.496-26.125.496-58.124zm79.996 53.57c.182-.244 2.71-1.738 5.62-3.319 2.908-1.581 7.222-4.12 9.586-5.642 2.363-1.523 6.975-4.187 10.247-5.92 8.787-4.656 21.265-12.225 22.619-13.721 1.09-1.204 1.182-3.185 1.182-25.344 0-20.49-.147-24.184-.992-25.023-1.296-1.286-10.823-7.045-17.52-10.59-2.909-1.54-9.008-5.041-13.553-7.782-4.545-2.74-10.603-6.228-13.461-7.75-2.858-1.522-6.28-3.44-7.603-4.263a257.65 257.65 0 0 0-3.232-1.985c-.659-.389-.827 11.34-.827 57.75v58.238l3.802-2.102c2.09-1.156 3.95-2.302 4.132-2.547zM39.949 105.296c2.364-1.544 5.636-3.548 7.273-4.454 5.716-3.164 7.868-4.42 10.7-6.247 1.569-1.012 5.022-2.96 7.673-4.327 6.154-3.175 9.344-4.985 14.683-8.332 5.9-3.7 14.048-8.453 19.05-11.114 5.72-3.042 9.877-5.449 13.014-7.534 4.27-2.84 12.692-7.253 13.84-7.253.583 0 3.062 1.228 5.51 2.728 2.448 1.5 5.79 3.471 7.426 4.38 1.636.91 4.611 2.624 6.611 3.81s5.273 3.033 7.273 4.105c6.622 3.55 10.2 5.626 14.544 8.443 2.364 1.532 7.421 4.506 11.24 6.608 3.817 2.103 9.321 5.227 12.23 6.944a583.057 583.057 0 0 0 10.248 5.885c2.727 1.52 7.192 4.197 9.922 5.95 2.73 1.752 5.631 3.397 6.446 3.656l1.482.47V93.88c0-17.14.384-15.884-5.95-19.479-2.857-1.621-4.354-2.449-13.884-7.67-2.363-1.296-8.06-4.658-12.658-7.471-4.599-2.814-9.889-5.89-11.755-6.835-1.867-.946-6.434-3.54-10.15-5.763-3.717-2.224-8.035-4.76-9.596-5.636a301.923 301.923 0 0 1-6.611-3.868c-2.075-1.25-4.031-2.275-4.347-2.276-.741-.002-7.621-4.079-12.422-7.361-5.475-3.742-6.014-3.66-15.432 2.363-2.909 1.86-6.181 3.809-7.272 4.33-3.06 1.46-12.442 6.738-13.553 7.624-.546.435-2.628 1.68-4.628 2.77a395.4 395.4 0 0 0-6.28 3.495 399.01 399.01 0 0 1-6.282 3.495c-2 1.089-4.105 2.384-4.68 2.878-.573.495-1.238.9-1.476.9s-4.975 2.72-10.526 6.046-12.473 7.268-15.382 8.76c-2.909 1.492-5.438 2.876-5.62 3.075-.181.2-1.738 1.176-3.458 2.17-1.72.994-3.432 2.373-3.802 3.065-.399.745-.673 7.224-.673 15.89v14.633l1.487-.455c.819-.251 3.422-1.72 5.785-3.263z" stroke-width=".661"/></svg>