<svg xmlns="http://www.w3.org/2000/svg" viewBox="0 0 250 250" height="250" width="250"><path d="M47.682 204.04l78.305 31.434 77.599-33.14 31.443-78.307-33.14-77.598-78.305-31.44-77.618 33.152-31.435 78.3zm78.382 45.959a6.976 6.976 0 0 1-2.598-.502L39.79 215.906a6.896 6.896 0 0 1-3.808-3.738L.565 129.246a6.93 6.93 0 0 1-.057-5.346L34.1 40.223a6.938 6.938 0 0 1 3.738-3.814L120.759.998a6.99 6.99 0 0 1 5.352-.057l83.671 33.591a6.938 6.938 0 0 1 3.813 3.738l35.411 82.908a6.943 6.943 0 0 1 .057 5.35l-33.591 83.678a6.88 6.88 0 0 1-3.737 3.809l-82.913 35.416a6.834 6.834 0 0 1-2.759.569z" stroke-width="4.271"/><path d="M162.108 73.681v15.915h-52.083l32.767 34.309-33.536 36.934h52.852v15.914h-74.64V160.84l33.222-36.78-33.072-34.464V73.68z" stroke-width="1.154"/></svg>