<svg xmlns="http://www.w3.org/2000/svg" viewBox="0 0 250 250" height="250" width="250"><path d="M58.785 193.864l67.836 27.232 67.224-28.71 27.24-67.837-28.71-67.224-67.836-27.236-67.241 28.719-27.232 67.832zm67.903 39.815a6.043 6.043 0 0 1-2.251-.435l-72.49-29.1a5.974 5.974 0 0 1-3.299-3.238L17.967 129.07a6.003 6.003 0 0 1-.049-4.631l29.1-72.49a6.01 6.01 0 0 1 3.238-3.304l71.836-30.677a6.055 6.055 0 0 1 4.636-.049l72.485 29.1a6.01 6.01 0 0 1 3.303 3.238l30.677 71.824a6.015 6.015 0 0 1 .049 4.635l-29.1 72.49a5.96 5.96 0 0 1-3.237 3.3l-71.828 30.681a5.92 5.92 0 0 1-2.39.493z" stroke-width="3.7"/><path d="M157.913 80.934v13.787h-45.12l28.386 29.722-29.052 31.996h45.786v13.787H93.252v-13.787l28.78-31.862-28.65-29.857V80.934z"/></svg>