<svg xmlns="http://www.w3.org/2000/svg" width="226mm" height="226mm" viewBox="0 0 226 226"><path d="M113.115 1.987C51.368 1.987 1.312 52.043 1.312 113.789a111.803 111.803 0 0 0 34.337 80.579l35.254-43.064L33 126.788l48.088-27.132L57.254 79.67l120.42-56.99a111.803 111.803 0 0 0-64.56-20.693zm79.503 33.33L154.825 82.42l33.213 26.907-42.398 24.028 19.469 17.786L48.77 205.054a111.803 111.803 0 0 0 64.345 20.539 111.803 111.803 0 0 0 111.802-111.804 111.803 111.803 0 0 0-32.299-78.473z" stroke-width="1.1"/></svg>