<svg width="250" height="250" viewBox="0 0 250 250" xmlns="http://www.w3.org/2000/svg"><circle cx="125.059" cy="125.319" r="124.637" stroke-width="1.947"/><path d="M121.1 206.314H67.292c-15.185.003-23.356-17.83-13.438-29.328l44.422-51.472a.273.273 0 0 0 0-.37l-44.422-51.49c-9.92-11.499-1.749-29.335 13.438-29.33H121.1l16.125 8.589-16.125 8.86H67.136a.662.662 0 0 0-.156.332v.136l44.578 51.491a17.82 17.82 0 0 1 0 23.175l-44.402 51.49v.117c.02.123.073.238.155.332h53.79l-16.006 8.962z" fill="#fff" stroke-width="1.947"/><path d="M129.536 44.324h53.808c15.184-.003 23.355 17.83 13.438 29.328l-44.422 51.472a.273.273 0 0 0 0 .37l44.422 51.49c9.92 11.499 1.748 29.335-13.438 29.33h-53.808l-16.125-8.589 16.125-8.86H183.5a.662.662 0 0 0 .156-.332v-.136l-44.578-51.491a17.82 17.82 0 0 1 0-23.175l44.402-51.49v-.117a.662.662 0 0 0-.155-.332h-53.79l16.006-8.962z" fill="#fff" stroke-width="1.947"/></svg>