<svg xmlns="http://www.w3.org/2000/svg" width="226.777" height="226.777" viewBox="0 0 226.777 226.777"><path d="M104.1 208.207c-10.25-1.458-19.189-4.192-28.222-8.632-13.184-6.48-25.38-16.392-33.366-27.116-.779-1.046-1.564-2.022-1.744-2.168-.781-.631-5.4-8.282-7.392-12.245-4.511-8.971-6.898-15.994-8.82-25.952-.77-3.989-.973-7.585-.97-17.242.001-10.671.155-12.934 1.22-18.038 8.346-39.988 40.336-69.684 80.742-74.953 5.459-.712 21.166-.353 26.526.607 9.252 1.656 23.261 6.194 23.763 7.697.105.318-.67.989-1.725 1.492-1.825.87-2.035.867-4.417-.067-5.251-2.058-14.598-4.526-20.368-5.378-8.19-1.209-22.254-.817-30.112.838-13.09 2.758-25.343 8.282-35.689 16.09-4.261 3.217-9.969 8.457-9.969 9.153 0 .244 1.015-.53 2.255-1.718 3.115-2.987 9.915-8.007 14.987-11.063 19.237-11.595 42.396-15.53 64.193-10.907 5.548 1.177 15.127 4.16 15.105 4.704-.009.205-2.933 2.461-6.5 5.013-27.27 19.514-47.225 48.214-52.843 76-2.996 14.815-3.416 42.89-.844 56.373 1.966 10.306 8.688 17.653 16.13 17.628 2.936-.01 7.341-1.364 9.302-2.86 4.178-3.187 5.807-8.082 5.77-17.337-.015-3.89-.273-7.1-.617-7.693-.325-.56-.598-.719-.607-.354-.008.365-.345.663-.747.663s-1.032.364-1.401.809c-.37.444-.797.683-.95.529-.154-.154-.763.139-1.352.65-.867.752-.785.422.428-1.723 5.152-9.109 14.956-19.743 25.869-28.058 12.2-9.296 14.743-12.296 14.743-17.389 0-3.695-3.248-7.96-7.232-9.497-2.272-.876-7.192-.722-10.376.325-3.584 1.178-9.125 4.296-13.182 7.418l-3.163 2.434.013-2.02c.006-1.111.217-2.901.467-3.978.333-1.434.275-2.025-.218-2.215-.448-.172-.583.086-.403.771.194.742.054.947-.5.735-.424-.163-2.303.632-4.176 1.767-1.873 1.134-4.29 2.479-5.37 2.988-1.081.51-2.607 1.52-3.39 2.248-1.117 1.034-1.524 1.168-1.874.614-.247-.388-.452-.884-.457-1.1-.004-.218 2.917-3.334 6.491-6.927 6.798-6.833 13.506-12.09 30.638-24.011 30.632-21.316 45.663-35.298 47.012-43.734.465-2.912 1.247-2.694.957.266-.326 3.333-1.806 6.933-2.47 6.007-.37-.519-.422-.45-.192.26.173.532.05 2.012-.27 3.289-.528 2.094-.466 2.492.639 4.073.673.964 1.36 1.871 1.527 2.017 1.12.98 7.227 10.725 9.475 15.12 5.257 10.273 8.54 21.179 9.694 32.195.914 8.728.33 21.968-1.308 29.61-4.812 22.473-16.781 41.548-34.725 55.344-6.724 5.17-11.892 8.187-21.354 12.466-3.755 1.699-14.02 4.663-19.596 5.66-6.983 1.249-22.023 1.52-29.034.522zm28.397-4.801a664.11 664.11 0 0 1 5.943-1.263c10.259-2.107 24.476-9.091 33.954-16.68 7.584-6.071 18.711-18.57 19.907-22.36.317-1.003.3-1.002-.519.026-.465.584-1.794 2.368-2.954 3.964-7.116 9.795-17.816 19.006-29.167 25.106-10.841 5.828-21.373 8.954-35.394 10.505-10.233 1.133-24.682-.634-35.96-4.396-7.334-2.447-16.92-7.322-23.078-11.737-10.382-7.443-14.371-11.515-23.183-23.663-.088-.121-.272-.11-.407.026-.362.362 3.61 5.91 7.837 10.947 5.486 6.538 12.788 12.784 20.479 17.52 11.146 6.862 24.647 11.537 37.185 12.874 5.551.592 21.084.06 25.357-.87zm-91.49-41.891c-.172-.45-.427-.705-.566-.566-.14.14-.096.508.096.819.524.846.83.682.47-.253zm153.422-1.436l.841-1.724-1.081 1.326c-1.041 1.277-1.38 2.122-.853 2.122.138 0 .63-.776 1.093-1.724zm-89.611-41.971c1.007-1.382 1.791-1.789 1.791-.93 0 .258-.627.88-1.393 1.383l-1.394.913z"/><path d="M161.684 195.925c.383-.154.84-.135 1.017.041.176.177-.137.302-.696.279-.619-.025-.744-.151-.321-.32zm41.522-49.286c.025-.618.151-.744.32-.32.154.382.135.84-.041 1.016-.177.177-.302-.137-.28-.696zm-17.808-91.994c-.576-.637-.792-1.39-.566-1.977.348-.902.391-.903.89-.016.287.513.378 1.167.201 1.453-.183.296.034.384.502.205.453-.174.823-.066.823.24 0 1.068-.926 1.116-1.85.095z" fill="#333"/></svg>