<svg xmlns="http://www.w3.org/2000/svg" width="226.777" height="226.777" viewBox="0 0 226.777 226.777"><path d="M97.034 226.045c-12.353-1.758-23.126-5.052-34.012-10.403-15.89-7.81-30.588-19.756-40.213-32.68-.938-1.26-1.885-2.437-2.101-2.613-.942-.76-6.508-9.981-8.91-14.758-5.436-10.811-8.313-19.275-10.629-31.277-.928-4.807-1.173-9.14-1.169-20.78.001-12.86.187-15.587 1.47-21.738C11.53 43.603 50.083 7.814 98.78 1.463c6.578-.858 25.508-.425 31.968.732 11.15 1.996 28.034 7.465 28.639 9.276.126.383-.808 1.192-2.08 1.798-2.199 1.049-2.452 1.045-5.322-.08-6.329-2.48-17.594-5.455-24.548-6.482-9.87-1.457-26.82-.984-36.29 1.01-15.776 3.324-30.543 9.981-43.012 19.392C43 30.986 36.121 37.3 36.121 38.139c0 .295 1.223-.638 2.717-2.07 3.754-3.6 11.95-9.65 18.062-13.333C80.085 8.762 107.995 4.02 134.265 9.591c6.686 1.419 18.23 5.014 18.204 5.67-.01.246-3.535 2.965-7.834 6.04C111.77 44.82 87.721 79.41 80.95 112.897c-3.61 17.855-4.117 51.69-1.017 67.94 2.37 12.42 10.47 21.275 19.44 21.245 3.538-.012 8.847-1.644 11.21-3.447 5.035-3.841 6.998-9.74 6.954-20.894-.018-4.689-.33-8.557-.744-9.272-.391-.675-.72-.866-.731-.426-.01.44-.416.799-.9.799-.485 0-1.244.438-1.689.975-.446.535-.96.823-1.145.637-.186-.185-.92.168-1.63.783-1.044.907-.945.51.516-2.076 6.21-10.978 18.025-23.794 31.177-33.815 14.704-11.204 17.768-14.82 17.768-20.957 0-4.453-3.914-9.593-8.716-11.446-2.738-1.055-8.667-.87-12.505.392-4.319 1.42-10.997 5.177-15.886 8.94l-3.812 2.933.015-2.434c.007-1.339.262-3.496.563-4.794.402-1.728.332-2.44-.262-2.67-.54-.207-.703.104-.486.93.234.894.065 1.14-.603.885-.51-.196-2.775.762-5.033 2.13-2.257 1.367-5.17 2.988-6.471 3.6-1.303.616-3.142 1.833-4.086 2.71-1.346 1.246-1.837 1.408-2.259.74-.297-.467-.544-1.065-.55-1.326-.005-.262 3.515-4.018 7.823-8.348 8.192-8.235 16.277-14.57 36.924-28.938 36.917-25.69 55.032-42.54 56.658-52.707.56-3.51 1.503-3.247 1.153.32-.392 4.017-2.176 8.356-2.976 7.24-.446-.625-.509-.542-.232.313.209.642.06 2.425-.325 3.964-.636 2.524-.562 3.004.77 4.909.811 1.162 1.639 2.255 1.84 2.43 1.35 1.182 8.71 12.926 11.42 18.223 6.335 12.381 10.292 25.525 11.682 38.801 1.102 10.519.398 26.476-1.576 35.686-5.8 27.084-20.224 50.073-41.85 66.7-8.104 6.23-14.332 9.866-25.735 15.023-4.526 2.048-16.897 5.62-23.617 6.822-8.416 1.505-26.542 1.831-34.992.629zm34.224-5.786a800.375 800.375 0 0 1 7.162-1.523c12.364-2.539 29.498-10.956 40.921-20.102 9.14-7.317 22.55-22.38 23.992-26.948.382-1.209.361-1.208-.626.031-.56.704-2.162 2.854-3.56 4.778-8.576 11.804-21.471 22.905-35.152 30.257-13.065 7.024-25.758 10.791-42.656 12.66-12.332 1.366-29.746-.764-43.338-5.298-8.84-2.949-20.392-8.824-27.813-14.145-12.513-8.97-17.32-13.877-27.94-28.518-.106-.146-.328-.133-.49.031-.437.437 4.35 7.123 9.444 13.193 6.612 7.88 15.412 15.408 24.681 21.115 13.433 8.27 29.704 13.905 44.815 15.516 6.69.713 25.41.072 30.56-1.049zM20.996 169.772c-.208-.542-.515-.85-.683-.682-.168.169-.115.612.116.987.632 1.02 1 .822.567-.305zm184.901-1.73l1.014-2.078-1.303 1.598c-1.255 1.539-1.663 2.557-1.028 2.557.166 0 .76-.935 1.317-2.077zM97.9 117.459c1.213-1.666 2.158-2.156 2.158-1.121 0 .31-.756 1.06-1.679 1.667l-1.68 1.1z" stroke-width="1.205"/><path d="M161.684 195.925c.383-.154.84-.135 1.017.041.176.177-.137.302-.696.279-.619-.025-.744-.151-.321-.32zm41.522-49.286c.025-.618.151-.744.32-.32.154.382.135.84-.041 1.016-.177.177-.302-.137-.28-.696zm-17.808-91.994c-.576-.637-.792-1.39-.566-1.977.348-.902.391-.903.89-.016.287.513.378 1.167.201 1.453-.183.296.034.384.502.205.453-.174.823-.066.823.24 0 1.068-.926 1.116-1.85.095z" fill="#333"/></svg>