<svg xmlns="http://www.w3.org/2000/svg" width="226.777" height="226.777" viewBox="0 0 226.777 226.777"><path d="M96.56 210.03c-19.303-3.067-40.472-13.705-52.436-26.351l-2.937-3.105h24.187c22.038 0 24.342-.16 25.937-1.811.962-.997 7.809-13.346 15.214-27.443l13.465-25.63 19.252-.308c23.673-.378 22.819.101 22.819-12.808 0-12.32-.107-12.407-15.89-12.828l-12.323-.329 7.507-14.171c4.129-7.794 8.001-14.502 8.606-14.906.605-.404 12.45-.742 26.324-.75l25.224-.016 1.412 2.75c3.021 5.884 6.586 19.488 7.765 29.63 4.721 40.613-16.971 80.342-54.125 99.128-17.835 9.017-39.361 12.228-60 8.948zM22.2 152.824c-3.02-5.883-6.586-19.487-7.765-29.628-4.743-40.808 17.16-80.659 54.626-99.387 27.334-13.664 61.828-13.165 89.243 1.291 8.623 4.548 17.71 11.102 22.694 16.37l2.937 3.104h-24.187c-22.038 0-24.343.161-25.937 1.812-.963.997-7.81 13.346-15.215 27.443l-13.464 25.63-19.252.308c-23.673.378-22.82-.101-22.82 12.807 0 12.322.108 12.408 15.89 12.829l12.323.328-7.506 14.172c-4.129 7.794-8.002 14.502-8.607 14.906-.604.404-12.45.742-26.323.75l-25.225.015z"/></svg>