<svg xmlns="http://www.w3.org/2000/svg" width="226.777" height="226.777" viewBox="0 0 226.777 226.777"><path d="M95.204 225.334C73 221.806 48.65 209.57 34.888 195.024l-3.378-3.572h27.82c25.35 0 28-.184 29.835-2.083 1.106-1.147 8.982-15.352 17.5-31.567l15.488-29.482 22.145-.354c27.23-.435 26.248.116 26.248-14.733 0-14.17-.123-14.271-18.277-14.755l-14.175-.379 8.635-16.3c4.75-8.965 9.203-16.681 9.9-17.146.695-.465 14.32-.854 30.279-.863l29.014-.018 1.624 3.163c3.475 6.768 7.576 22.416 8.932 34.083 5.43 46.715-19.52 92.415-62.258 114.024-20.515 10.372-45.276 14.065-69.016 10.292zM9.669 159.532c-3.473-6.767-7.575-22.416-8.931-34.08-5.456-46.94 19.738-92.78 62.834-114.322 31.442-15.718 71.12-15.144 102.654 1.485 9.919 5.231 20.371 12.77 26.104 18.83l3.378 3.57h-27.821c-25.35 0-28.001.185-29.835 2.084-1.107 1.147-8.983 15.352-17.501 31.567l-15.487 29.482-22.145.354c-27.23.435-26.25-.116-26.25 14.731 0 14.174.125 14.273 18.278 14.757l14.175.377-8.634 16.302c-4.75 8.965-9.204 16.681-9.9 17.146-.695.465-14.321.854-30.279.863l-29.015.017z" stroke-width="1.15"/></svg>