<svg xmlns="http://www.w3.org/2000/svg" width="226.777" height="226.777" viewBox="0 0 226.777 226.777"><path d="M104.427 226.409c-20.467-1.426-40.383-8.652-57.736-20.947-22.523-15.96-38.883-41.3-44.518-68.958C.472 128.16-.01 123.094 0 113.692c.014-11.4 1.102-19.436 4.058-29.952 3.02-10.738 8.728-23.184 14.816-32.3C38.275 22.388 69.378 4.022 104.46.902c6.574-.585 19.37-.261 25.114.635 34.693 5.414 62.989 24.116 80.802 53.408 13.872 22.81 19.213 50.31 14.813 76.267-5.156 30.424-21.813 57.065-46.556 74.462-17.694 12.44-37.26 19.353-58.74 20.753-7.218.47-8.47.47-15.468-.018zm14.57-43.438c5.001-2.854 6.347-3.797 5.945-4.16-.287-.26-6.18-3.78-13.095-7.822-6.916-4.044-12.954-7.595-13.419-7.892-.76-.485-1.49-.168-7.2 3.122-3.495 2.012-6.41 3.824-6.476 4.023-.12.36 27.082 16.659 27.54 16.5.131-.044 3.15-1.741 6.705-3.77zm39.036-22.346l17.714-10.165-.008-20.445-.008-20.446-17.157-9.894c-9.436-5.443-17.393-9.951-17.682-10.021-.358-.086-33.679 18.78-35.087 19.865-.035.027-.19 9.233-.344 20.457l-.279 20.406 17.453 10.188c9.598 5.604 17.504 10.195 17.566 10.204.065.008 8.088-4.559 17.831-10.149zm-78.342-4.5c5.328-3.076 9.808-5.719 9.956-5.874.147-.154.333-5.521.412-11.927l.144-11.645-9.88-5.773c-5.432-3.175-9.984-5.772-10.113-5.772-.13 0-4.682 2.574-10.116 5.72l-9.88 5.72-.109 11.749-.11 11.749 9.798 5.805c5.388 3.192 9.89 5.812 10.004 5.821.113.011 4.566-2.497 9.894-5.573zm11.543-50.415v-4.476l24.722-14.311 24.722-14.31 16.922 9.733c9.308 5.353 17.2 9.837 17.536 9.967.527.203.61-.832.593-7.538L175.711 77l-30.976-17.727c-17.038-9.75-31.194-17.781-31.457-17.848-.414-.105-61.71 35.31-62.553 36.142-.173.169-.265 7.463-.207 16.207l.109 15.898 9.804-5.675 9.801-5.676 10.192 5.93c5.605 3.262 10.331 5.932 10.5 5.934.17 0 .31-2.013.31-4.475z" stroke-width=".412"/></svg>