<svg xmlns="http://www.w3.org/2000/svg" width="226.777" height="226.777" viewBox="0 0 226.777 226.777"><path d="M105.697 214.246c-18.141-1.264-35.794-7.669-51.175-18.567-19.964-14.146-34.465-36.607-39.46-61.122-1.508-7.396-1.935-11.887-1.926-20.22.012-10.105.977-17.228 3.597-26.549 2.676-9.518 7.736-20.55 13.132-28.63 17.197-25.751 44.766-42.03 75.862-44.796 5.827-.518 17.168-.231 22.26.563 30.751 4.799 55.832 21.376 71.621 47.34 12.296 20.218 17.03 44.593 13.13 67.601-4.57 26.967-19.335 50.581-41.266 66.001-15.684 11.027-33.026 17.154-52.066 18.395-6.398.417-7.507.416-13.71-.016zm12.915-38.502c4.433-2.53 5.626-3.366 5.269-3.688-.254-.23-5.477-3.35-11.607-6.933-6.13-3.584-11.482-6.732-11.894-6.995-.673-.43-1.321-.149-6.382 2.767-3.098 1.784-5.682 3.39-5.74 3.566-.107.319 24.005 14.766 24.41 14.626.117-.04 2.792-1.544 5.944-3.343zm34.6-19.807l15.702-9.01-.007-18.122-.007-18.123-15.208-8.77c-8.364-4.824-15.417-8.82-15.673-8.882-.317-.076-29.852 16.646-31.1 17.608-.031.024-.168 8.184-.305 18.132l-.247 18.088 15.47 9.03c8.507 4.967 15.515 9.037 15.57 9.045.057.007 7.169-4.041 15.805-8.996zm-69.44-3.989c4.723-2.726 8.694-5.069 8.825-5.206.13-.137.295-4.894.365-10.572l.128-10.322-8.757-5.117c-4.816-2.814-8.85-5.116-8.965-5.116-.115 0-4.15 2.281-8.966 5.07l-8.758 5.07-.096 10.414-.097 10.414 8.684 5.145c4.776 2.83 8.766 5.152 8.867 5.16.1.01 4.047-2.213 8.77-4.94zm10.231-44.686v-3.968l21.913-12.685 21.913-12.684 15 8.627c8.25 4.745 15.245 8.72 15.543 8.835.467.18.54-.738.526-6.682l-.016-6.891-27.457-15.713c-15.102-8.642-27.649-15.761-27.882-15.82-.367-.093-54.698 31.298-55.446 32.035-.153.15-.235 6.615-.183 14.366l.096 14.091 8.69-5.03 8.688-5.031 9.034 5.256c4.968 2.892 9.157 5.258 9.307 5.26.151 0 .274-1.784.274-3.966z" stroke-width=".365"/></svg>