<svg xmlns="http://www.w3.org/2000/svg" width="226mm" height="226mm" viewBox="0 0 226 226"><path d="M108.963 213.727l-.882-.048-2.456-.19-2.456-.19-2.015-.255-2.015-.255-1.888-.318-1.887-.317-1.891-.383-1.892-.384-2.393-.609-2.393-.609-2.33-.71-2.33-.71-2.557-.941-2.557-.941-2.166-.925-2.167-.924-2.078-.999-2.078-.998-2.141-1.174-2.141-1.174-1.575-.945-1.574-.944-1.774-1.162-1.774-1.162-1.627-1.167-1.627-1.168-1.385-1.08-1.386-1.081-1.511-1.263-1.512-1.263-1.26-1.131-1.259-1.132-1.87-1.83-1.87-1.83-1.612-1.764-1.612-1.763-1.372-1.638-1.373-1.637-1.08-1.385-1.08-1.386-1.168-1.627-1.168-1.626-1.162-1.774-1.161-1.774-.945-1.575-.945-1.574-1.174-2.141-1.173-2.142-1-2.078-.998-2.078-.913-2.141-.913-2.142-.89-2.4-.889-2.402-.631-2.019-.632-2.02-.57-2.128-.57-2.13-.45-2.015-.45-2.015-.432-2.52-.433-2.518-.253-2.016-.254-2.015-.215-2.456-.216-2.456v-10.958l.216-2.456.215-2.456.254-2.015.253-2.016.433-2.519.432-2.519.45-2.015.45-2.015.57-2.13.57-2.129.632-2.019.631-2.02.89-2.4.889-2.401.913-2.142.913-2.14.999-2.08.999-2.077 1.173-2.142 1.174-2.14.945-1.575.945-1.575 1.161-1.774 1.162-1.774 1.168-1.626 1.168-1.627 1.08-1.386 1.08-1.385 1.373-1.637 1.372-1.638 1.612-1.763 1.611-1.764 1.87-1.83 1.871-1.83 1.26-1.132 1.26-1.13 1.51-1.264 1.512-1.263 1.386-1.08 1.385-1.08 1.627-1.169 1.627-1.167 1.774-1.162 1.774-1.162 1.574-.944 1.575-.945 2.14-1.174 2.142-1.174 2.078-.999 2.078-.998 2.167-.924 2.166-.925 2.557-.941 2.557-.942 2.33-.71 2.33-.71 2.393-.608 2.393-.61 1.892-.383 1.891-.383 1.887-.317 1.888-.318 2.015-.255 2.015-.254 2.456-.216 2.456-.215h10.958l2.456.215 2.456.216 2.016.254 2.015.255 1.887.318 1.887.317 1.892.383 1.891.384 2.393.609 2.393.609 2.33.71 2.33.71 2.558.941 2.556.941 2.167.925 2.166.924 2.078.998 2.079 1 2.14 1.173 2.142 1.174 1.575.945 1.574.944 1.774 1.162 1.774 1.162 1.627 1.167 1.626 1.168 1.386 1.08 1.385 1.08 1.512 1.264 1.511 1.263 1.26 1.131 1.26 1.131 1.87 1.831 1.87 1.83 1.612 1.764 1.611 1.763 1.373 1.638 1.373 1.637 1.08 1.385 1.08 1.386 1.168 1.627 1.168 1.626 1.161 1.774 1.162 1.774.945 1.575.944 1.574 1.174 2.141 1.174 2.142.999 2.078.999 2.078.913 2.141.913 2.142.89 2.4.888 2.402.632 2.019.632 2.02.57 2.128.57 2.13.45 2.015.45 2.015.432 2.52.432 2.518.254 2.016.254 2.015.215 2.456.215 2.456v10.958l-.215 2.456-.215 2.456-.254 2.015-.254 2.016-.432 2.519-.433 2.519-.45 2.015-.45 2.015-.57 2.13-.57 2.129-.631 2.019-.632 2.02-.889 2.4-.889 2.401-.913 2.142-.913 2.14-1 2.08-.998 2.077-1.174 2.142-1.174 2.14-.944 1.575-.945 1.575-1.162 1.774-1.161 1.774-1.168 1.626-1.168 1.627-1.08 1.386-1.08 1.385-1.373 1.637-1.373 1.638-1.611 1.763-1.612 1.764-1.87 1.83-1.87 1.83-1.26 1.132-1.26 1.13-1.511 1.264-1.512 1.263-1.385 1.08-1.386 1.08-1.626 1.169-1.627 1.167-1.774 1.162-1.774 1.162-1.574.944-1.575.945-2.141 1.174-2.141 1.174-2.079.998-2.078 1-2.166.923-2.167.925-2.556.941-2.557.941-2.33.71-2.33.71-2.394.61-2.393.608-1.891.384-1.892.383-1.887.317-1.887.318-2.015.254-2.016.255-2.33.199-2.33.198-4.723.04-4.723.04zm12.302-2.24l2.226-.19 1.616-.197 1.615-.197 2.079-.321 2.078-.32 2.141-.438 2.141-.437 2.393-.614 2.394-.615 2.078-.633 2.078-.633 1.632-.58 1.631-.58 2.046-.81 2.045-.813 2.095-.949 2.095-.949 1.263-.634 1.264-.634 1.947-1.069 1.948-1.069 1.786-1.083 1.786-1.083 2.104-1.418 2.105-1.418 1.926-1.447 1.926-1.447 1.7-1.417 1.7-1.418 1.575-1.416 1.575-1.416 2.584-2.627 2.584-2.627 1.531-1.784 1.531-1.785 1.187-1.49 1.186-1.49 1.194-1.638 1.195-1.638 1.147-1.715 1.147-1.716 1.315-2.189 1.315-2.189 1.21-2.267 1.21-2.267.96-2.074.961-2.075.813-1.951.813-1.952.804-2.224.804-2.224.647-2.126.647-2.126.614-2.393.614-2.393.437-2.141.437-2.141.323-2.079.322-2.078.247-2.141.248-2.141.162-2.016.162-2.015v-9.699l-.162-2.014-.162-2.016-.248-2.14-.247-2.142-.322-2.078-.323-2.079-.437-2.14-.437-2.142-.614-2.393-.614-2.393-.647-2.126-.647-2.126-.804-2.224-.804-2.224-.813-1.952-.813-1.951-.96-2.075-.962-2.074-1.21-2.267-1.21-2.267-1.322-2.205-1.322-2.204-1.421-2.104-1.421-2.105-1.447-1.926-1.446-1.926-1.418-1.7-1.418-1.7-1.416-1.575-1.415-1.574-2.628-2.584-2.627-2.584-1.784-1.532-1.784-1.531-1.49-1.186-1.491-1.186-1.638-1.195-1.637-1.195-1.7-1.135-1.7-1.134-1.787-1.085-1.786-1.085-1.948-1.07-1.947-1.068-1.263-.634-1.264-.634-2.095-.95-2.095-.948-2.045-.812-2.046-.812-1.631-.58-1.632-.58-2.078-.632-2.078-.633-2.394-.615-2.393-.614-2.14-.437-2.142-.437-2.078-.322-2.079-.323-2.14-.247-2.142-.248-2.015-.162-2.015-.162h-9.699l-2.015.162-2.015.162-2.142.248-2.14.247-2.079.323-2.078.322-2.141.437-2.142.437-2.393.614-2.393.615-2.078.633-2.078.633-1.632.58-1.632.58-2.045.81-2.045.813-2.095.949-2.096.949-1.263.634-1.263.634-1.948 1.069-1.947 1.069-1.786 1.085-1.786 1.085-1.7 1.134-1.701 1.135-1.638 1.195-1.637 1.195-1.49 1.186-1.491 1.186-1.784 1.531-1.784 1.532-2.628 2.584L43 47.989l-1.416 1.574-1.416 1.574-1.417 1.7-1.418 1.701-1.447 1.926-1.446 1.926-1.421 2.105-1.42 2.104-1.323 2.204-1.323 2.205-1.21 2.267-1.21 2.267-.96 2.074-.961 2.075-.813 1.951-.813 1.952-.804 2.224-.805 2.224-.646 2.126-.647 2.126-.614 2.393-.615 2.393-.437 2.141-.437 2.141-.322 2.079-.322 2.078-.248 2.141-.247 2.141-.162 2.016-.162 2.015v9.699l.162 2.014.162 2.016.247 2.14.248 2.142.322 2.078.322 2.079.437 2.14.437 2.142.615 2.393.614 2.393.647 2.126.646 2.126.805 2.224.804 2.224.813 1.952.813 1.951.96 2.075.961 2.074 1.21 2.267 1.21 2.267 1.315 2.189 1.315 2.189 1.146 1.716 1.147 1.715 1.195 1.638 1.195 1.637 1.186 1.49 1.186 1.491 1.532 1.785 1.531 1.784 2.584 2.627 2.584 2.627 1.574 1.416 1.575 1.416 1.7 1.418 1.7 1.417 1.927 1.447 1.926 1.447 2.104 1.418 2.105 1.418 1.786 1.083 1.786 1.083 1.947 1.07 1.948 1.068 1.263.634 1.263.634 2.096.95 2.095.948 2.045.812 2.045.812 1.632.58 1.632.58 2.078.632 2.078.633 2.393.615 2.393.614 2.142.437 2.14.437 2.079.322 2.078.323 2.141.248 2.142.248 2.015.134 2.015.135.693.045.693.046 4.471-.042 4.471-.042zM109.72 200.12l-.882-.036-1.826-.134-1.827-.133-1.7-.187-1.7-.187-2.645-.438-2.645-.439-1.953-.442-1.952-.442-1.89-.513-1.889-.512-2.582-.86-2.582-.861-2.015-.817-2.015-.817-1.551-.7-1.551-.699-2.417-1.245-2.416-1.245-1.764-1.048-1.763-1.048-1.763-1.16-1.764-1.16-1.511-1.103-1.511-1.103-1.423-1.133-1.422-1.134.037-.028.037-.028.818.124.819.123 43.854.05 43.854.048.201-.916.202-.916 7.988-37.84 7.988-37.84-.064-.104-.064-.103H109.93l-.143.661-.142.662-2.136 10.119-2.135 10.119.07.115.071.114h26.184l-.003.095-.003.094-3.188 14.863-3.188 14.862-22.094.035-22.094.036-.818-.137-.82-.138-.64-.29-.641-.292-.296-.479-.296-.479-.052-1.017-.052-1.018.507-2.456.508-2.456 6.944-32.81 6.944-32.812.317-1.133.317-1.134.477-1.02.477-1.019.481-.533.482-.533.605-.307.605-.306.852-.22.851-.218h90.532l1.026 2.015 1.026 2.015.733 1.63.733 1.63.76 1.897.759 1.897.92 2.77.92 2.772.633 2.456.632 2.456.449 2.193.448 2.192.37 2.594.37 2.593.22 2.456.219 2.457.003 4.597.003 4.597-.158 1.89-.158 1.889-.252 2.078-.251 2.078-.317 1.89-.316 1.889-.502 2.267-.502 2.267-.576 2.078-.576 2.079-.667 2.015-.666 2.015-.817 2.078-.816 2.079-.844 1.889-.844 1.89-1.105 2.14-1.106 2.142-1.102 1.889-1.102 1.89-1.682 2.518-1.682 2.52-1.513 1.963-1.513 1.963-1.337 1.563-1.336 1.564-1.838 1.933-1.837 1.932-1.701 1.58-1.701 1.578-1.836 1.529-1.836 1.528-1.798 1.352-1.797 1.351-2.17 1.434-2.17 1.434-1.89 1.104-1.889 1.103-2.015 1.043-2.015 1.043-2.008.905-2.008.906-2.022.792-2.023.793-1.89.63-1.889.629-1.322.383-1.323.382-2.015.503-2.015.503-1.89.379-1.89.378-2.14.315-2.141.315-1.953.195-1.952.195-2.393.127-2.393.127-2.267-.024-2.268-.024-.881-.035zm-65.506-35.122l-1.018-1.383-1.01-1.512-1.01-1.511-1.134-1.89-1.134-1.889-1.032-1.923-1.032-1.924-.876-1.887-.875-1.888-.688-1.634-.688-1.634-.749-2.049-.748-2.05-.593-1.951-.592-1.953-.544-2.14-.544-2.142-.379-1.89-.378-1.889-.322-2.14-.323-2.142-.065-.472-.066-.473h24.969l-.069.284-.068.283-3.293 15.618-3.293 15.619-.423 2.015-.423 2.015-.205 1.487-.204 1.486-.087 1.471-.086 1.472zm-15.545-62.063v-.034l.373-2.214.373-2.214.324-1.5.324-1.499.575-2.267.574-2.267.981-2.96.982-2.96.642-1.604.643-1.605.71-1.607.71-1.608 1.007-2.015 1.007-2.015 1.071-1.89 1.071-1.889 1.082-1.7 1.082-1.7.877-1.26.877-1.26.946-1.26.946-1.259 1.014-1.26 1.014-1.259 1.27-1.448 1.269-1.449 1.44-1.5 1.44-1.5 1.763-1.636 1.763-1.635 1.827-1.528 1.826-1.527 1.7-1.273 1.7-1.272 1.953-1.308 1.952-1.308 1.827-1.087 1.826-1.087 1.826-.976 1.827-.975 2.078-.972 2.078-.972 1.952-.79 1.953-.79 1.574-.56 1.574-.561 2.052-.62 2.051-.62 2.231-.559 2.231-.558 1.953-.38 1.952-.381 2.204-.319 2.204-.318 1.952-.203 1.953-.202 4.807-.067 4.807-.066 2.12.145 2.12.146 2.205.247 2.204.246 2.258.381 2.258.38 2.263.512 2.262.512 2.344.674 2.344.675 1.89.646 1.888.646 2.079.829 2.078.829 2.267 1.054 2.267 1.055 1.992 1.076 1.992 1.075 1.283.765 1.283.764 2.33 1.544 2.33 1.544 1.323.99 1.322.991-38.73.068-38.731.067-1.443.221-1.442.22-1.41.306-1.41.304-1.43.462-1.43.46-1.17.546-1.169.545-1.26.825-1.259.825-1.145 1.102-1.145 1.102-.722.882-.722.882-.787 1.196-.787 1.197-.807 1.607-.806 1.607-.489 1.227-.488 1.227-.5 1.574-.5 1.575-.29 1.106-.29 1.107-3.54 16.778-3.539 16.78-14.64.031-14.641.032z" stroke-width=".126"/></svg>