<svg xmlns="http://www.w3.org/2000/svg" width="226.777" height="226.777" viewBox="0 0 226.777 226.777"><path d="M111.774 191.377V176.08h-13.52l-.89 6.259-.888 6.258H88.13l-.908-6.408-.909-6.408-6.375-2.424-6.375-2.424-5.928-7.537-5.929-7.536v-7.594H30.704l.925-4.868.925-4.867 14.577-.841 14.576-.84v-13.265l-9.04-.872-9.039-.871v-8.346l9.04-.871 9.04-.872V98.198h-39.35l.928-4.867.928-4.868 18.175-.809 18.175-.81 5.379-9.987 5.378-9.987 7.71-2.687 7.709-2.688V42.57h11.125v19.47h13.908V25.88h11.125v36.16h13.908V42.569h11.126l.107 9.04.107 9.04L157 66.217l8.853 5.568 3.446 6.949 3.445 6.948 16.08 1.39 16.08 1.391.923 4.868.924 4.867h-33.785v13.555l9.04.872 9.04.871v8.345l-9.04.871-9.04.872v13.32l21.526.813 21.526.813.907 4.752.907 4.752-23.098.81-23.098.811-1.013 5.563-1.013 5.563-4.58 5.187-4.58 5.187-6.073 2.322-6.071 2.323-.882 9.18-.882 9.179h-8.345l-.871-9.04-.872-9.04H122.9v30.596h-11.125zm44.98-31.027l5.086-4.603-.043-36.423-.042-36.424-2.044-3.06-2.043-3.06-6.076-3.198-6.075-3.198H86.545l-6.856 4.492-6.856 4.492v75.412l4.604 5.087 4.603 5.086h69.627zm-63.951-14.064l.949-4.975 18.746-.822 18.746-.823v-5.309l-17.384-.042-17.384-.043-3.602-2.285-3.602-2.285.82-22.01.82-22.01 23.913-.798 23.913-.797 3.307 3.985 3.307 3.985-.796 28.8-.796 28.798-25.953.803-25.953.803zm38.44-36.962V98.198H103.43v22.252h27.814z" stroke-width="2.781"/></svg>