<svg xmlns="http://www.w3.org/2000/svg" width="226mm" height="226mm" viewBox="0 0 226 226"><path d="M113.454 1.898A111.52 111.382 0 0 0 1.934 113.28a111.52 111.382 0 0 0 111.52 111.383 111.52 111.382 0 0 0 111.52-111.383A111.52 111.382 0 0 0 113.454 1.898zm8.518 47.623c22.28.108 42.199 15.103 38.347 42.375h-28.215c2.935-11.924-9.64-36.402-36.791-.83l-24.62-.277c7.34-28.334 30.35-41.37 51.28-41.268zM69.473 98.507c8.391.092 16.36.184 24.752.277l-2.207 13.882c-7.382 1.543-18.37 3.204-26.85 4.723 1.555-5.658 3.268-14.172 4.305-18.882zm46.117 13.582l43.43.554.83 23.789-5.533.276.277 16.045c-6.379 10.688-18.823 18.343-34.025 24.619-10.084 2.38-20.136 5.22-30.705.83-18.958-9.762-27.513-26.845-26.555-50.622l27.662-7.746c-2.01 58.982 39.687 29.29 37.344 9.13l-17.704-1.107z"/></svg>