<svg xmlns="http://www.w3.org/2000/svg" width="226mm" height="226mm" viewBox="0 0 226 226"><path d="M104.356 224.44C45.578 218.858 1.859 170.97 1.859 112.17c0-50.514 34.213-94.233 84.29-107.704 9.43-2.538 12.66-2.877 27.329-2.877 14.67 0 17.9.34 27.33 2.877 23.716 6.38 44.355 19.486 59 37.469 53.014 65.09 18.326 163.21-63.792 180.438-7.593 1.593-24.814 2.718-31.66 2.068zm34.067-13.728c18.219-4.623 36.961-15.886 49.55-29.779 24.86-27.439 32.69-65.924 20.625-101.396-9.776-28.742-33.482-52.28-62.64-62.196-26.08-8.87-52.203-7.21-77.02 4.892-26.837 13.087-46.249 36.943-53.73 66.03-2.515 9.775-2.72 12.165-2.303 26.83.627 22.05 4.641 35.77 15.273 52.206 23.928 36.99 67.667 54.212 110.243 43.413zm-41.58-17.239c-29.938-7.475-53.516-28.758-63.015-56.88l-2.913-8.62 2.894-.364c1.59-.2 4.696.177 6.9.837 3.552 1.064 4.768 2.477 10.654 12.378 6.72 11.302 16.63 22.458 24.907 28.039 26.287 17.725 58.7 15.463 84.081-5.865 6.218-5.225 16.45-18.126 16.45-20.739 0-.479-2.362-.871-5.247-.871-6.532 0-11.357-3.157-8.706-5.695 2.697-2.58 19.476-8.418 25.97-9.036 5.915-.563 6.139-.489 6.827 2.251 2.047 8.16-6.912 26.73-19.403 40.224-10.688 11.543-25.286 19.878-41.713 23.817-10.09 2.42-29.045 2.683-37.687.525zM47.28 109.996c-1.694-2.662-.627-22.573 1.71-31.891 3.606-14.38 11.116-28.037 16.056-29.205 1.024-.242 2.836 3.692 5.93 12.88 2.45 7.275 4.875 13.31 5.39 13.414.514.104 2.29-3.89 3.946-8.878 3.523-10.607 6.04-14.421 9.82-14.874 2.371-.285 3.1.437 5.416 5.365 4.023 8.567 8.11 22.432 8.909 30.225.763 7.447-.1 14.647-1.755 14.647-2.087 0-7.608-9.243-9.767-16.354-1.23-4.047-2.756-7.185-3.391-6.973-.636.212-1.724 2.77-2.416 5.684-2.466 10.372-6.294 16.568-10.234 16.568-2.973 0-7.172-5.948-9.134-12.942-.996-3.55-2.292-6.294-2.878-6.099-.587.196-1.883 3.474-2.88 7.284-2.252 8.614-4.503 13.39-8.72 18.507-3.514 4.261-4.65 4.763-6.002 2.642zm106.825-14.49c-2.57-7.525-5.143-13.684-5.717-13.684-.574 0-1.407 2.173-1.85 4.83-1.019 6.098-7.093 18.08-10.193 20.107-2.263 1.48-2.483 1.282-5.695-5.082-6.276-12.43-9.66-24.874-9.66-35.515 0-10.923 1.174-12.102 5.89-5.918 2.744 3.599 6.99 14.08 6.99 17.258 0 .901.645 1.637 1.433 1.637.84 0 2.182-2.692 3.239-6.491 5.049-18.159 12.962-19.811 19.022-3.973 1.299 3.394 2.748 6.171 3.221 6.171.472 0 2.08-3.985 3.575-8.855 2.846-9.275 5.549-13.952 10.01-17.317 4.033-3.043 4.796-.818 4.187 12.22-.421 9.023-1.273 13.538-4.269 22.658-4.473 13.617-8.39 21.663-11.66 23.953-1.322.928-2.73 1.685-3.127 1.685-.398 0-2.826-6.158-5.397-13.684z" stroke-width="1.189"/></svg>