<svg xmlns="http://www.w3.org/2000/svg" width="226mm" height="226mm" viewBox="0 0 226 226"><path d="M107.242 205.318c-49.44-4.697-86.214-44.977-86.214-94.435 0-42.49 28.778-79.263 70.899-90.594 7.932-2.135 10.65-2.42 22.988-2.42 12.339 0 15.057.285 22.989 2.42 19.948 5.366 37.308 16.39 49.627 31.516 44.592 54.75 15.414 137.282-53.658 151.774-6.387 1.34-20.872 2.286-26.631 1.739zm28.655-11.548c15.325-3.888 31.09-13.362 41.678-25.048 20.912-23.08 27.497-55.451 17.349-85.288-8.223-24.176-28.163-43.975-52.689-52.316-21.937-7.46-43.91-6.065-64.784 4.115-22.574 11.008-38.902 31.074-45.195 55.54-2.115 8.223-2.287 10.233-1.937 22.569.528 18.547 3.904 30.087 12.847 43.912 20.127 31.113 56.917 45.6 92.73 36.516zm-34.975-14.5c-25.181-6.288-45.014-24.19-53.004-47.844l-2.45-7.251 2.434-.306c1.338-.168 3.95.149 5.805.704 2.987.895 4.01 2.084 8.961 10.412 5.652 9.506 13.988 18.89 20.95 23.584 22.111 14.91 49.375 13.007 70.724-4.933 5.23-4.395 13.836-15.246 13.836-17.444 0-.403-1.986-.733-4.413-.733-5.494 0-9.553-2.655-7.323-4.79 2.269-2.17 16.382-7.081 21.845-7.601 4.975-.473 5.163-.411 5.742 1.894 1.722 6.863-5.814 22.484-16.321 33.834-8.99 9.709-21.269 16.72-35.086 20.033-8.487 2.035-24.431 2.257-31.7.442zm-41.688-70.216c-1.425-2.239-.527-18.987 1.439-26.825 3.033-12.095 9.35-23.583 13.505-24.565.861-.204 2.385 3.105 4.988 10.833 2.06 6.12 4.1 11.197 4.533 11.284.433.087 1.926-3.273 3.32-7.468 2.963-8.922 5.08-12.13 8.26-12.511 1.994-.24 2.607.368 4.555 4.513 3.384 7.206 6.822 18.868 7.494 25.423.642 6.264-.084 12.32-1.476 12.32-1.756 0-6.4-7.774-8.216-13.756-1.034-3.404-2.318-6.043-2.852-5.865-.535.178-1.45 2.33-2.032 4.781-2.074 8.724-5.294 13.936-8.608 13.936-2.501 0-6.033-5.003-7.683-10.886-.838-2.986-1.928-5.294-2.421-5.13-.494.165-1.584 2.922-2.422 6.127-1.895 7.245-3.788 11.263-7.336 15.567-2.955 3.584-3.911 4.006-5.048 2.222zm89.855-12.188c-2.162-6.33-4.326-11.51-4.809-11.51-.483 0-1.183 1.828-1.556 4.062-.857 5.13-5.966 15.208-8.574 16.913-1.903 1.245-2.088 1.079-4.79-4.274-5.279-10.456-8.125-20.923-8.125-29.873 0-9.188.987-10.18 4.954-4.978 2.308 3.027 5.879 11.843 5.879 14.516 0 .758.543 1.377 1.206 1.377.706 0 1.835-2.264 2.724-5.46 4.247-15.274 10.903-16.664 16-3.342 1.093 2.855 2.312 5.191 2.71 5.191.397 0 1.75-3.352 3.007-7.448 2.394-7.802 4.667-11.736 8.42-14.566 3.392-2.56 4.034-.688 3.521 10.278-.354 7.59-1.07 11.388-3.59 19.059-3.763 11.454-7.057 18.222-9.808 20.148-1.112.78-2.296 1.417-2.63 1.417-.335 0-2.377-5.18-4.54-11.51z"/></svg>