<svg xmlns="http://www.w3.org/2000/svg" width="226mm" height="226mm" viewBox="0 0 226 226"><path d="M101.69 212.12l-6.668-.822-8.003-2.236-8.003-2.237-9.78-4.854-9.782-4.854-5.844-4.432-5.843-4.432-6.273-6.604-6.273-6.604-3.689-5.432-3.689-5.432-3.435-6.907-3.436-6.907-2.25-7.153-2.25-7.153-1.105-5.74-1.106-5.741v-23.12l1.106-5.74 1.106-5.74 2.25-7.153 2.249-7.153 3.436-6.907 3.435-6.908 3.689-5.432 3.689-5.432 6.273-6.604 6.273-6.604 5.843-4.431 5.844-4.432 9.781-4.85 9.781-4.85 7.773-2.199 7.773-2.199 9.51-.967 9.512-.968 9.593.96 9.593.959 7.802 2.207 7.801 2.207 9.782 4.85 9.78 4.85 5.844 4.432 5.844 4.431 6.273 6.604 6.273 6.604 3.718 5.475 3.717 5.475 3.925 8.198 3.924 8.199 2.226 7.802 2.227 7.802.959 9.593.959 9.593-.968 9.51-.967 9.511-2.199 7.773-2.199 7.773-4.85 9.781-4.85 9.781-4.431 5.844-4.432 5.843-6.786 6.446-6.786 6.446-6.655 4.345-6.655 4.344-5.038 2.383-5.038 2.384-6.15 2.091-6.148 2.092-6.32 1.303-6.32 1.303-9.336.428-9.336.428zm35.825-15.403l7.814-2.347 6.413-3.227 6.413-3.227 5.335-3.594 5.335-3.594 6.289-6.289 6.289-6.289 3.594-5.335 3.594-5.335 3.226-6.412 3.227-6.413 2.408-7.815 2.408-7.814V97.015l-2.408-7.815-2.408-7.814-3.18-6.317-3.182-6.316-3.163-4.765-3.163-4.764h-1.381l-1.91 5.74-1.91 5.738 4.069 8.266 4.069 8.266 1.886 7.113 1.887 7.114v23.119l-1.91 7.114-1.91 7.113-3.121 6.59-3.123 6.59-3.873 5.414-3.872 5.414-5.218 4.938-5.217 4.937-4.229 2.89-4.229 2.889-6.441 3.052-6.441 3.051-7.114 1.925-7.114 1.925h-23.119l-7.113-1.925-7.114-1.925-6.441-3.051-6.442-3.052-4.229-2.89-4.228-2.889-5.218-4.937-5.217-4.938-3.873-5.414-3.872-5.414-3.123-6.59-3.122-6.59-1.925-7.113-1.925-7.114v-23.12l1.925-7.113 1.925-7.113 3.122-6.59 3.123-6.59 3.872-5.414 3.873-5.415 5.217-4.937 5.218-4.938 4.228-2.889 4.23-2.89 6.44-3.05 6.442-3.053 7.114-1.909 7.113-1.91h23.12l7.113 1.887 7.114 1.887 8.265 4.069 8.266 4.069 5.74-1.91 5.738-1.91V44.36l-4.764-3.164-4.764-3.163-6.317-3.181-6.317-3.181-7.814-2.408-7.815-2.408H97.69l-7.814 2.408-7.815 2.408-6.412 3.227-6.413 3.227-5.335 3.594-5.335 3.594-6.29 6.288-6.288 6.29-3.594 5.334-3.594 5.336-3.227 6.412-3.227 6.413-2.407 7.814-2.408 7.815v32.011l2.408 7.814 2.407 7.815 3.227 6.413 3.227 6.412 3.585 5.335 3.585 5.335 6.354 6.301 6.354 6.301 5.28 3.582 5.278 3.582 6.224 3.109 6.225 3.108 4.546 1.49 4.547 1.488 5.679 1.284 5.68 1.283 13.782-.307 13.782-.307zm-5.53-22.442l4.829-1.434 4.89-2.505 4.891-2.505 4.268-3.575 4.267-3.576 3.462-4.19 3.462-4.189 2.758-5.603 2.758-5.602 1.28-6.035 1.278-6.035.017-3.144.016-3.143-1.88-10.195-1.88-10.194.517-8.003.518-8.002 2.655-9.422 2.656-9.42 1.82-4.617 1.819-4.617v-5.142l-1.397-1.398-1.398-1.397h-5.142l-4.617 1.82-4.616 1.82-9.421 2.655-9.422 2.655-8.002.518-8.003.517-10.194-1.88-10.195-1.88-3.143.016-3.144.017-6.035 1.279-6.035 1.279-5.579 2.746-5.579 2.747-4.54 3.74-4.542 3.74-3.513 4.445-3.514 4.446-2.26 4.484-2.261 4.484-1.51 5.19-1.508 5.19.372 9 .371 8.998 2.264 5.495 2.264 5.494 5.686 7.8 5.686 7.798 6.225 6.612 6.224 6.613 4.446 3.01 4.446 3.01 5.575 3.956 5.576 3.955 5.54 1.755 5.539 1.755 8.064.05 8.063.05 4.83-1.433zm-20.764-10.15l-3.364-.85-2.839-1.467-2.839-1.469 4.646-1.189 4.646-1.188 3.78-1.906 3.78-1.905 5.347-3.788 5.347-3.788 3.784-4.105 3.784-4.105 4.162-6.435 4.163-6.435 5.022-9.794 5.022-9.794 1.596 9.09 1.595 9.09-.492 4.693-.492 4.692-1.92 5.107-1.919 5.106-3.927 5.225-3.928 5.224-4.7 3.238-4.702 3.238-4.87 1.853-4.87 1.853-6.225.328-6.224.329zm-21.979-15.192l-3.112-.92-3.75-3.649-3.751-3.648-1.007-4.511-1.007-4.512.958-5.164.958-5.165 2.749-5.76 2.749-5.761 5.177-5.534 5.177-5.535 9.211-5.456 9.212-5.457 8.892-4.426 8.892-4.426 10.67-4.648 10.67-4.649 4.203-1.666 4.202-1.666-1.682 4.267-1.682 4.267-5.078 11.495-5.078 11.495-4.297 8.58-4.296 8.58-4.638 7.85-4.637 7.852-4.07 4.352-4.069 4.352-3.848 2.649-3.849 2.649-5.09 2.068-5.09 2.069-5.289.474-5.288.474zm-25.007-28.799l-2.06-4.446.033-8.003.034-8.003 1.996-5.09 1.996-5.09 3.836-5.21 3.835-5.211 5.535-3.696 5.534-3.696 5.785-1.786 5.784-1.787 3.685-.017 3.686-.017 8.447 1.492 8.448 1.491-9.795 5.016-9.794 5.016-6.435 4.163-6.435 4.163-4.105 3.783-4.105 3.784-3.788 5.348-3.788 5.347-1.905 3.78-1.905 3.78-1.229 4.667-1.229 4.668-2.06-4.446z" stroke-width=".889"/></svg>