<svg xmlns="http://www.w3.org/2000/svg" width="226mm" height="226mm" viewBox="0 0 226 226"><path d="M69.14 203.643c1.211-1.174 43.982-25.702 44.818-25.702.836 0 43.606 24.528 44.817 25.702.495.48-16.995.787-44.817.787s-45.313-.308-44.818-.787zm-2.792-4.127c4.669-8.735 21.495-36.96 21.926-36.779 3.948 1.656 21.26 12.274 20.777 12.743-.801.778-42.11 24.677-42.653 24.677-.216 0-.238-.288-.05-.64zm74.895-10.759c-10.606-6.184-20.155-11.825-21.221-12.536-1.89-1.26-1.676-1.443 8.542-7.264 5.765-3.283 10.75-6.082 11.078-6.22.43-.18 17.256 28.044 21.925 36.78.744 1.391-1.739.077-20.324-10.76zm-84.663 7.128c-1.356-2.057-41.351-71.271-43.458-75.207-.946-1.768-.619-1.692 3.974.921 15.445 8.79 40.13 23.204 40.692 23.762.36.356.552 12.35.427 26.654-.213 24.496-.308 25.882-1.635 23.87zm5.254-23.163c0-23.271.096-24.834 1.486-24.301 3.496 1.342 20.78 11.85 20.553 12.497-.784 2.227-20.866 36.618-21.398 36.644-.352.018-.64-11.16-.64-24.84zm92.712 6.857c-5.64-9.874-10.367-18.271-10.504-18.661-.227-.646 17.057-11.155 20.554-12.497 1.39-.533 1.485 1.03 1.485 24.301 0 13.68-.288 24.858-.64 24.84-.353-.017-5.256-8.11-10.896-17.983zm15.154-7.974l.226-26.381 17.944-10.39c26.04-15.076 28.093-16.218 27.603-15.353-12.933 22.822-43.99 76.33-44.831 77.24-.99 1.071-1.134-2.768-.942-25.116zm-78.813-19.177l-21.79-12.612V86.184l21.79-12.612c11.984-6.937 22.283-12.63 22.888-12.654 1.376-.052 44.616 24.765 44.616 25.607 0 .339-4.083 2.98-9.073 5.867l-9.073 5.25-12.693-7.274c-6.982-4.001-13.099-7.275-13.594-7.275-.496 0-6.658 3.3-13.695 7.332l-12.794 7.333v30.409l12.778 7.37c7.028 4.053 13.198 7.37 13.71 7.37.513 0 6.683-3.317 13.711-7.37 12.489-7.202 12.779-7.435 12.779-10.254V122.4h-26.489v-18.8h45.321l-.23 18.109-.231 18.108-21.79 12.612c-11.983 6.936-22.365 12.611-23.07 12.611-.705 0-11.087-5.675-23.071-12.612zm-54.15-24.027c-11.219-6.517-20.82-12.27-21.335-12.786-.679-.679 5.045-.873 20.825-.707l21.762.228.237 12.604c.13 6.932-.063 12.582-.428 12.556-.365-.026-9.842-5.379-21.061-11.895zm132.953-.661l.236-12.604 21.774-.229c18.496-.194 21.583-.052 20.508.945-1.351 1.251-41.466 24.491-42.275 24.491-.264 0-.373-5.671-.243-12.603zM15.708 110.148c1.35-1.251 41.465-24.491 42.274-24.491.264 0 .374 5.671.244 12.603l-.237 12.604-21.774.229c-18.496.194-21.583.052-20.507-.945zm154.36.573c-.672-.672-.781-25.064-.112-25.064.787 0 40.919 23.256 42.237 24.476 1.055.977-2.097 1.158-20.152 1.158-11.772 0-21.66-.256-21.972-.57zM12.443 106.52c12.933-22.822 43.99-76.33 44.831-77.24.99-1.071 1.134 2.768.942 25.116l-.226 26.381-17.944 10.39c-26.04 15.076-28.093 16.218-27.603 15.353zM192.57 93.901l-22.644-13.097-.226-26.395c-.192-22.36-.048-26.201.942-25.13.642.695 10.893 18.182 22.778 38.86 25.225 43.887 22.385 38.882 22.058 38.87-.145-.007-10.454-5.905-22.908-13.108zM61.834 53.278c0-13.68.289-24.858.641-24.84.532.026 20.614 34.417 21.398 36.644.227.646-17.057 11.155-20.553 12.497-1.39.533-1.486-1.03-1.486-24.301zm92.712 18.744c-5.64-3.267-10.254-6.318-10.254-6.779 0-1.256 20.406-36.769 21.148-36.805.353-.018.641 11.12.641 24.748 0 13.63-.288 24.78-.64 24.779-.353-.001-5.256-2.675-10.896-5.943zM76.925 44.92c-5.898-10.231-10.602-18.724-10.454-18.872.283-.283 41.452 23.381 42.579 24.474.484.47-16.871 11.11-20.791 12.746-.336.14-5.436-8.116-11.334-18.348zm51.776 12.28c-5.754-3.34-10.176-6.35-9.826-6.69 1.124-1.089 42.288-24.743 42.57-24.462.431.432-20.793 36.905-21.574 37.074-.389.083-5.415-2.581-11.17-5.922zM91.144 35.386C79.301 28.492 69.336 22.564 68.999 22.21c-.338-.352 19.907-.64 44.987-.64 27.805 0 45.284.307 44.79.786-1.574 1.525-44.112 25.701-45.1 25.632-.55-.038-10.69-5.71-22.532-12.603z" stroke-width=".854"/></svg>