<svg xmlns="http://www.w3.org/2000/svg" width="226.8" height="226.8" viewBox="0 0 226.8 226.8"><path d="M114.244 88.355a32.179 32.179 0 0 0-32.178 32.18 32.179 32.179 0 0 0 32.178 32.178 32.179 32.179 0 0 0 32.18-32.178 32.179 32.179 0 0 0-32.18-32.18zm0 14.082a18.191 18.191 0 0 1 18.192 18.192 18.191 18.191 0 0 1-18.192 18.191 18.191 18.191 0 0 1-18.191-18.191 18.191 18.191 0 0 1 18.191-18.192z" stroke-width="0"/><circle cx="25.37" cy="120.593" r="13.935" stroke-width="0"/><circle cx="201.717" cy="120.113" r="13.935" stroke-width="0"/><circle cx="114.264" cy="34.582" r="13.935" stroke-width="0"/><path d="M75.42 91.282L56.682 69.66l-12.013 9.61 13.455 14.896c-6.624 17.988-5.546 34.226 1.922 49.011l-16.338 15.377 9.13 12.012 24.933-22.56C69.13 135.476 64.037 112 75.42 91.283zm10.494 67.005l-21.623 18.74 9.61 12.012 14.896-13.454c17.989 6.624 34.226 5.546 49.012-1.922L153.185 190l12.013-9.13-22.56-24.932c-12.532 8.64-36.006 13.733-56.724 2.349zm68.53-11.261l18.74 21.623 12.013-9.61-13.454-14.896c6.624-17.988 5.546-34.226-1.922-49.011l16.337-15.377-9.13-12.012-24.933 22.56c8.641 12.531 13.733 36.006 2.35 56.723zm-10.869-65.567l21.623-18.74-9.61-12.013-14.896 13.454c-17.988-6.624-34.226-5.546-49.012 1.922L76.304 49.745l-12.013 9.13 22.56 24.933c12.532-8.641 36.006-13.733 56.724-2.35z"/></svg>