<svg xmlns="http://www.w3.org/2000/svg" width="226.777" height="226.777" viewBox="0 0 226.777 226.777"><path d="M192.487 75.841l-13.855-24.615 26.843.009c.718 0 1.554.477 1.946 1.12l5.226 8.615c3.134 5.168 6.883 11.345 9.026 14.871zm-49.65 149.078c-.65 1.164-1.494 1.164-1.768 1.164h-10.966c-5.806-.004-12.502-.008-16.489-.008l42.655-76.575a4.105 4.105 0 0 0-3.57-6.108h-.005L80 143.488l-14.454-25.027h105.883c.008 0 .015-.004.027-.004.011 0 .02.004.028.004.06 0 .115-.02.174-.025.238-.015.475-.04.702-.095a4.046 4.046 0 0 0 .78-.27c.792-.354 1.494-.934 1.941-1.757l17.454-32.267h28.813zm-36.326-2.91l-3.444-5.67c-4.41-7.277-10.06-16.596-10.698-17.617-.213-.346-.313-1.19.135-1.993 1.022-1.836 20.326-36.608 25.03-45.083l28.187-.036zm-48.07-47.923l-14.01-24.893 14.12-26.471 14.165 24.523a18114.648 18114.648 0 0 1-14.275 26.84zm-18.806 3.876c-7.13 0-14.224-.004-15.266-.004h-.004c-.697 0-1.54-.489-1.925-1.116l-4.561-7.518c-3.25-5.358-7.393-12.192-9.691-15.973h29.186l13.852 24.616c-3.024 0-7.303-.004-11.59-.004zM87.025 4.278c.65-1.168 1.49-1.168 1.762-1.168l27.574.003-42.769 76.576c-.035.064-.055.132-.087.199a4.352 4.352 0 0 0-.17.393 7.833 7.833 0 0 0-.12.39 3.617 3.617 0 0 0-.122.827c-.003.068-.02.132-.02.203 0 .051.011.1.015.15a3.3 3.3 0 0 0 .045.446c.015.123.035.247.066.37.033.131.076.254.12.382.043.122.087.25.143.369.055.119.118.232.185.346.068.11.132.222.21.33.075.108.162.207.254.31.087.096.175.195.27.287.095.087.194.162.297.242a3.534 3.534 0 0 0 .353.25c.046.028.083.063.13.091.048.029.1.037.15.06.21.108.432.199.666.27.083.025.163.056.25.077.297.07.602.114.923.114.004 0 .004.005.008.005h.008l1.811-.005c.008 0 .015.005.023.005h.005l70.868-.096c1.874 3.26 5.376 9.394 8.36 14.617 2.291 4.015 4.184 7.327 5.674 9.93H58.449c-.048 0-.092.017-.135.02a4.072 4.072 0 0 0-3.546 2.147l-17.459 32.724H8.517C21.085 122.587 86.183 5.782 87.025 4.278zM123.41 7.28l2.559 4.213a9602.75 9602.75 0 0 0 11.522 18.978c.214.346.314 1.185-.138 1.992l-25.03 45.084-28.175.035zm47.998 47.798l14.018 24.905-14.29 26.417a7283.87 7283.87 0 0 1-5.806-10.157 5010.48 5010.48 0 0 0-8.396-14.677c3.048-5.578 11.102-20.334 14.474-26.488z" stroke-width="4.744"/></svg>