<svg xmlns="http://www.w3.org/2000/svg" width="226.777" height="226.777" viewBox="0 0 226.777 226.777"><path d="M91.52 183.912l-14.062-.578-16.407-.67-16.407-.67-5.482-.328-5.483-.329-.485-.486-.486-.485 3.994-6.845 3.994-6.845 6.662-11.4 6.661-11.4 9.836-16.867 9.836-16.867 4.227 2.405 4.227 2.405.666.558.665.558.972 13.116.973 13.116.524 4.808.525 4.807 14.417 11.13 14.417 11.131-.337 1.875-.338 1.875-.07 3.54-.07 3.54-4.452-.259-4.454-.258zm26.754-4.58l.035-5.156 14.536-10.781 14.536-10.782.391-1.875.392-1.875 1.014-11.719 1.014-11.72.526-4.26.526-4.26 5.032-2.723 5.032-2.722.419.42.419.42 9.285 17.345 9.285 17.344 9.545 17.88 9.544 17.88v1.234l-40.783.253-40.783.254.035-5.156zm-13.906-18.243l-12.465-9.567-1.26-1.33-1.259-1.329-.643-16.932-.644-16.933 13.9-5.956 13.9-5.956 1.405.083 1.407.084 13.828 6.584 13.829 6.584.013 1.22.012 1.221-1.088 15.47-1.09 15.468-10.36 7.97-10.362 7.968-3.329 2.459-3.328 2.458zm5.434-15.976v-7.969h14.063v15.938h8.438v-38.439h-8.438v15h-14.063v-15h-8.437v38.439h8.438zm38.85-32.24l-.88-.81-14.913-6.68-14.913-6.678h-2.028l-15.011 6.26-15.012 6.262-.612.913-.612.913-4.31-2.526-4.31-2.525v-1.871l17.965-29.73 17.965-29.729 2.854-4.915 2.855-4.916.607.697.606.697 9.835 16.406 9.835 16.407 10.987 18.145 10.986 18.145-.293.256-.293.255-5.214 2.918-5.213 2.918z" stroke-width=".938"/></svg>