<svg xmlns="http://www.w3.org/2000/svg" width="226.777" height="226.777" viewBox="0 0 226.777 226.777"><path d="M80.675 208.019l-18.465-.76-21.544-.88-21.545-.879-7.198-.43-7.2-.433-.637-.638-.638-.637 5.245-8.988 5.244-8.988 8.748-14.97 8.747-14.97 12.916-22.148 12.916-22.149 5.55 3.159 5.55 3.158.875.732.874.733 1.276 17.223 1.278 17.223.688 6.313.69 6.313 18.93 14.615 18.932 14.616-.443 2.462-.444 2.462-.091 4.649-.092 4.648-5.846-.34-5.849-.339zm35.132-6.015l.046-6.77 19.087-14.157 19.088-14.158.513-2.462.515-2.462 1.331-15.389 1.332-15.39.69-5.593.691-5.594 6.608-3.576 6.608-3.574.55.551.55.552 12.192 22.776 12.193 22.775 12.534 23.478 12.532 23.48v1.62l-53.553.332-53.553.333.046-6.77zm-18.26-23.955l-16.369-12.562-1.654-1.747-1.653-1.745-.845-22.234-.845-22.235 18.252-7.821 18.252-7.821 1.845.109 1.848.11 18.158 8.646 18.16 8.646.016 1.602.016 1.603-1.429 20.314-1.431 20.311-13.604 10.466-13.607 10.463-4.371 3.229-4.37 3.228zm7.135-20.978v-10.465h18.466v20.929h11.08V117.06h-11.08v19.697h-18.466V117.06H93.603v50.475h11.08zm51.015-42.335l-1.156-1.064-19.582-8.772-19.583-8.769h-2.663l-19.711 8.22-19.713 8.223-.803 1.2-.804 1.198-5.66-3.317-5.66-3.316v-2.456l23.591-39.04 23.59-39.038 3.748-6.454 3.749-6.455.797.915.796.916 12.914 21.543 12.915 21.544 14.427 23.827 14.426 23.826-.385.337-.384.334-6.847 3.832-6.845 3.832z" stroke-width="1.232"/></svg>