<svg width="250" height="250" viewBox="0 0 250 250" xmlns="http://www.w3.org/2000/svg"><path d="M18.503 210.904c-4.26-1.089-4.098-6.632.224-7.66.596-.143 16.754-.251 35.907-.242 34.3.016 36.373.082 37.831 1.212.23.178.501.239.605.135.103-.103.218.028.257.29.516 3.54.512 3.593-.385 4.616-.59.67-1.543 1.151-2.801 1.411-2.335.482-69.807.706-71.638.238zm138.004.184c-1.175-.211-2.743-1.932-2.932-3.217-.109-.745.096-1.639.554-2.415 1.482-2.511.424-2.398 23.275-2.494 11.415-.048 20.984.055 21.265.228.738.456.23 5.35-.709 6.833l-.718 1.134-20 .032c-11 .018-20.33-.028-20.735-.1zm-90.05-17.472c-.898-.716-1.023-1.085-1.023-3.03 0-1.93.132-2.33 1.023-3.096.563-.484 1.314-.896 1.67-.916.682-.038 28.142-.026 29.923.013 1.31.029 2.206 1.327 2.288 3.313.09 2.196-.34 3.049-1.908 3.793-1.269.602-2.927.675-16.182.705-14.537.033-14.784.021-15.791-.782zm95.253.525c-.619-.16-1.493-.808-1.942-1.44-1.081-1.518-.739-3.916.758-5.315l1.036-.967 20.959.032c11.527.017 21.451.155 22.053.306l1.093.274-.26 2.537c-.143 1.395-.508 3.06-.812 3.7l-.552 1.164h-20.605c-11.332 0-21.11-.131-21.728-.291zM73.29 177.03c-1.337-.877-2.078-2.076-2.219-3.587-.104-1.118.1-1.515 1.367-2.66 1.023-.923 1.876-1.354 2.727-1.378.682-.018 7.216-.038 14.521-.045l13.282-.012.932.875c.734.69.931 1.26.931 2.685 0 2.388-.244 2.926-1.668 3.67-1.362.712-4.021.848-19.073.98-8.515.073-9.995.001-10.8-.528zm95.41.497c-2.536-.247-4.156-3.482-2.947-5.887 1.173-2.335 1.014-2.319 22.937-2.32 15.07 0 20.16.114 20.824.47.821.439.859.612.577 2.67-.165 1.21-.46 2.62-.656 3.135-.779 2.047-.181 1.989-20.587 2.02-10.427.015-19.494-.024-20.147-.088zM54.547 160.173c-1.544-.305-2.621-1.155-2.764-2.181-.227-1.636.103-3.117.904-4.048l.892-1.037 27.444-.002c15.094-.001 27.882.108 28.418.243 2.654.666 2.66 6.35.008 7.015-1.411.354-53.113.363-54.902.01zm116.372-.239c-1.412-.737-1.866-1.455-1.803-2.852.1-2.253.944-4.03 2.044-4.307 1.77-.445 43.178-.283 43.632.171.885.885.118 6.008-1.044 6.973-.912.757-41.382.772-42.829.015zM27.128 144.26c-2.138-.863-2.774-4.27-1.108-5.935l.936-.937 10.988-.009c65.05-.055 121.227.061 122.706.254 2.679.35 3.681 2.297 2.509 4.87-1.034 2.268 3.244 2.138-69.07 2.111-36.379-.013-66.512-.173-66.962-.354zm149.542-.697c-1.178-.167-2.393-2.016-2.393-3.639 0-1.033.293-1.627 1.24-2.515 1.458-1.366-1.32-1.225 24.64-1.252 21.508-.022 20.128-.245 19.955 3.226-.145 2.89-.745 3.624-3.184 3.894-2.115.235-38.789.495-40.258.286zm7.396-16.099c-3.36-.173-3.833-.288-4.483-1.091-.472-.584-.727-1.495-.727-2.602 0-1.375.216-1.92 1.115-2.82.614-.613 1.515-1.129 2.004-1.146 5.266-.182 42.272-.024 42.606.182 1.044.646.222 6.915-.967 7.372-.74.283-34.356.373-39.548.105zm-180.384-.486c-1.767-1.356-1.926-3.593-.38-5.324l1.114-1.246 82.038-.1 82.037-.1.795 1.01c1.093 1.39 1.104 4.148.02 4.729-.426.227-.684.559-.575.736.11.178-.07.427-.402.554-.33.126-37.375.225-82.321.218-63.637-.01-81.854-.115-82.326-.477zm125.443-15.155l-59.08-.19-1.113-1.247c-1.784-1.997-1.39-4.63.89-5.938 1.147-.658 4.625-.683 80.03-.568 89.044.136 80.563-.198 81.071 3.192.336 2.241-.265 3.775-1.714 4.375-1.365.565-19.875.635-100.084.376zM95.142 94.079c-2.09-1.61-2.21-3.3-.358-5.046 1.535-1.448-.264-1.31 17.602-1.34 9.538-.014 12.538.095 13.27.487 2.04 1.092 1.873 5.351-.254 6.49-.529.283-5.403.444-14.782.488l-13.992.066zm93.874.17c-.863-.767-1.105-1.321-1.139-2.6-.038-1.445.127-1.773 1.474-2.937.964-.833 1.935-1.321 2.665-1.34 5.91-.153 41.744-.042 42.022.13.707.437-.04 5.679-.974 6.832l-.667.823-21.142.033-21.143.034zm-88.948-15.664c-.633-.338-1.365-1.024-1.627-1.527-.894-1.714.255-4.623 2.118-5.362.664-.264 6.14-.415 15.458-.427l14.428-.018.975.974c.752.753.986 1.392 1.025 2.81.048 1.738-.033 1.893-1.522 2.94l-1.572 1.107-14.065.058c-12.26.05-14.214-.021-15.218-.555zm94.238-1.178c-1.273-1.514-1.032-4.218.514-5.764l1.136-1.136h21.617c14.789-.002 21.745.127 22.023.405.529.529.515 1.847-.044 4.144-.883 3.628 1.343 3.304-22.958 3.344l-21.423.035-.865-1.028zm-92.845-14.89c-2.395-1.572-2.003-5.198.713-6.602.851-.44 4.134-.548 17.676-.58l16.631-.04 1.306.996c2.23 1.701 1.922 5.296-.542 6.316-.79.328-5.859.472-17.943.51-15.334.05-16.931-.004-17.841-.6zm107.77-.35c-.496-.132-2.58-.217-4.634-.19-3.546.047-3.788 0-4.817-.962-1.595-1.49-1.523-3.67.183-5.531l1.265-1.38 20.934-.045c22.005-.047 21.872-.057 21.987 1.604.144 2.096-.11 3.78-.783 5.168l-.764 1.578h-16.236c-8.93 0-16.64-.109-17.136-.241zM111.7 46.255c-2.767-.374-3.66-4.057-1.587-6.541l1.085-1.3 14.273.063c7.85.035 14.468.068 14.706.074.237.005.944.534 1.57 1.175.942.963 1.123 1.438 1.049 2.75-.072 1.276-.34 1.797-1.365 2.652-.702.586-1.711 1.076-2.244 1.089-4.371.108-26.74.139-27.487.038zm94.65-.109c-2.24-.458-3.337-2.18-2.747-4.317.365-1.324 1.902-3.077 3-3.422.944-.296 40.855-.435 41.147-.143.703.703.773 2.924.15 4.832-1.138 3.494.64 3.22-21.12 3.256-10.598.017-19.791-.075-20.43-.206z" stroke-width=".382"/></svg>