<svg width="250" height="250" viewBox="0 0 250 250" xmlns="http://www.w3.org/2000/svg"><path d="M248.941 120.24L208.35 49.934a5.598 5.598 0 0 0-4.851-2.805h-81.214a5.6 5.6 0 0 0-4.851 2.805l-34.882 60.424c-.545.957-1.749 1.452-2.805 1.155a2.505 2.505 0 0 1-1.848-2.41v-23.38c0-21.269-17.309-38.578-38.578-38.578H6.337a5.616 5.616 0 0 0-5.61 5.61V85.74c0 15.378 9.158 29.139 23.348 35.046a2.483 2.483 0 0 1 0 4.587C9.885 131.23.727 144.975.727 160.37v32.984a5.616 5.616 0 0 0 5.61 5.61h32.984c21.27 0 38.578-17.308 38.578-38.577v-23.381c0-1.122.759-2.112 1.848-2.409 1.056-.28 2.26.198 2.805 1.155l34.882 60.424a5.62 5.62 0 0 0 4.85 2.805h81.2a5.602 5.602 0 0 0 4.85-2.805l40.59-70.308a5.561 5.561 0 0 0 .742-2.788 5.469 5.469 0 0 0-.725-2.838zm-85.438 32.292c-15.84 0-28.728-13.234-28.728-29.486 0-16.253 12.887-29.486 28.728-29.486 15.839 0 28.726 13.233 28.726 29.486 0 16.252-12.887 29.486-28.726 29.486z" opacity=".93"/></svg>