<svg xmlns="http://www.w3.org/2000/svg" width="226mm" height="226mm" viewBox="0 0 226 226"><path d="M100.574.68C77.852 3.277 56.939 12.32 39.446 27.183c-4.011 3.42-12.1 11.87-15.389 16.079-4.8 6.149-8.549 12.2-12.199 19.565C6.005 74.664 2.848 84.924.941 98.274c-.822 5.754-.822 23.642 0 29.396 1.874 13.318 5.064 23.61 10.917 35.447 15.882 32.126 45.673 54.585 80.923 60.997 12.166 2.203 28.213 2.203 40.38 0 30.35-5.525 56.918-23.05 74.017-48.83 9.503-14.337 15.29-29.792 17.822-47.614.822-5.754.822-23.642 0-29.396-1.907-13.35-5.064-23.61-10.917-35.447-5.557-11.213-11.41-19.532-20.058-28.41-9.93-10.194-18.546-16.474-31.238-22.722C151.41 6.072 140.855 2.817 128.03.975c-5.163-.723-21.999-.92-27.457-.295zm42.648 112.292v60.503h-18.414l-.066-25.78c-.065-14.172-.197-25.91-.329-26.042-.131-.132-.822.263-1.512.888-.724.625-2.5 2.071-4.012 3.255-11.574 9.076-14.698 11.476-19.104 14.961-2.795 2.17-5.524 4.308-6.116 4.768-6.314 4.867-9.602 7.432-12.66 9.898-2.006 1.611-3.847 2.926-4.077 2.926-.23 0-.526-.296-.625-.657-.099-.362-.395-.855-.592-1.053-.23-.23-1.085-1.315-1.94-2.4s-3.025-3.847-4.834-6.149c-3.156-3.979-3.682-4.866-3.025-4.866.165 0 2.17-1.513 4.505-3.387 2.335-1.842 5.36-4.21 6.708-5.229a519.26 519.26 0 0 0 6.083-4.669 1890.851 1890.851 0 0 1 16.112-12.495c5.097-3.88 6.84-5.228 8.911-6.938 1.086-.92 2.27-1.809 2.631-2.039.625-.361.625-.394-.066-.888a51.488 51.488 0 0 1-2.137-1.677c-2.17-1.775-2.335-1.907-3.551-2.795-.625-.427-3.387-2.564-6.15-4.735-4.866-3.814-8.812-6.905-13.744-10.686-1.282-.987-2.4-1.875-2.499-2.006-.164-.197-5.393-4.176-10.26-7.793-1.61-1.184-2.893-2.335-2.893-2.565 0-.23.23-.592.526-.855.296-.23 1.546-1.776 2.795-3.387a693.367 693.367 0 0 1 3.946-5.13c.92-1.183 2.203-2.827 2.828-3.715.625-.855 1.25-1.545 1.381-1.545.164 0 .69.361 1.217.822.855.756 2.762 2.268 8.944 7.036 1.84 1.414 7.266 5.689 15.06 11.838 2.17 1.743 5.195 4.11 6.707 5.294 5.92 4.57 9.734 7.661 10.523 8.484l.822.854.197-.953c.132-.56.23-10.128.263-21.308l.033-20.288h18.414z"/></svg>