<svg width="226.777" height="226.777" viewBox="0 0 226.777 226.777" xmlns="http://www.w3.org/2000/svg"><path d="M97.001 226.123c-23.824-3.71-44.801-14.064-61.86-30.537-16.75-16.172-27.68-35.831-32.531-58.513-2.99-13.973-2.984-31.897.013-46.426 9.013-43.679 44.163-78.829 87.842-87.841 13.465-2.778 29.812-3.026 43.022-.65 17.93 3.222 33.996 10.277 49.09 21.556 5.12 3.825 16.451 15.031 20.458 20.231 12.29 15.947 19.913 33.736 22.893 53.419.87 5.75.942 7.576.744 18.795-.234 13.185-.598 16.231-3.132 26.171-6.667 26.151-23.328 49.835-45.827 65.144-13.771 9.37-27.62 15.042-44.607 18.272-7.02 1.335-28.518 1.56-36.105.38zm15.258-68.751c0-3.276 0-3.276-4.46-3.428-4.363-.148-4.486-.182-5.702-1.544-1.897-2.125-2.22-4.689-2.22-17.597 0-11.648 0-11.648 3.125-14.173 1.72-1.39 3.182-2.457 3.25-2.372.068.085 3.956 6.721 8.641 14.748 10.523 18.029 11.547 19.63 14.022 21.91 4.274 3.94 9.138 5.165 22.152 5.581 8.956.287 8.956.287 8.956-3.098 0-3.386 0-3.386-1.88-3.39-3.832-.009-8.176-2.893-11.59-7.695-2.782-3.915-26.333-41.384-26.333-41.897 0-.82 20.85-23.389 23.839-25.804 3.5-2.829 7.075-4.58 10.07-4.933 2.134-.251 2.134-.251 1.989-3.521-.146-3.27-.146-3.27-17.58-3.27-17.434 0-17.434 0-17.434 3.317s0 3.317 1.88 3.318c2.642 0 4.863 1.217 5.345 2.928.54 1.92-.612 5.651-2.69 8.705-1.7 2.499-24.826 28.075-25.44 28.136-.186.018-.286-4.494-.22-10.028.118-10.061.118-10.061 5.315-10.186 5.196-.125 5.196-.125 5.196-3.427 0-3.303 0-3.303-5.368-3.303-5.369 0-5.369 0-5.144-3.935.405-7.104 2.138-8.889 8.633-8.89 3.648 0 3.648 0 3.648-3.318 0-3.316 0-3.316-22.334-3.316-22.333 0-22.333 0-22.333 3.316 0 3.317 0 3.317 3.648 3.318 6.58.001 8.292 1.803 8.292 8.727 0 4.098 0 4.098-4.864 4.098-4.865 0-4.865 0-4.865 3.317 0 3.316 0 3.316 4.865 3.316 4.864 0 4.864 0 4.864 28.098 0 30.039.013 29.857-2.195 31.828-.818.73-1.753.91-5.368 1.036-4.377.152-4.377.152-4.377 3.428 0 3.275 0 3.275 22.333 3.275 22.334 0 22.334 0 22.334-3.275z" stroke-width=".442"/></svg>