<svg xmlns="http://www.w3.org/2000/svg" width="226.777" height="226.777" viewBox="0 0 226.777 226.777"><path d="M64.505 175.539c-.294-.187-.354-12.764-.295-61.906l.074-61.672h30.107l.075 61.672c.06 49.142 0 61.719-.295 61.906-.204.129-6.878.235-14.833.235s-14.63-.106-14.833-.235zm59.255-26.321c-9.741-14.61-17.839-26.565-17.994-26.565-.25 0-5.34 5.12-9.244 9.298l-1.38 1.475-.006-18.304-.006-18.305 16.564-17.41a9899.403 9899.403 0 0 1 21.473-22.518l4.91-5.107 17.636.09 17.636.089-16.899 17.582c-9.294 9.67-19.92 20.73-23.613 24.577-3.693 3.847-6.715 7.128-6.715 7.291 0 .163.976 1.722 2.17 3.464 1.835 2.68 9.65 14.185 37.5 55.203a6821.19 6821.19 0 0 0 7.187 10.561c1.827 2.677 3.32 4.93 3.32 5.005 0 .077-7.835.139-17.413.139h-17.414z" stroke-width=".295"/></svg>