<svg xmlns="http://www.w3.org/2000/svg" width="226.777" height="226.777" viewBox="0 0 226.777 226.777"><path d="M16.866 222.92c-.516-.328-.622-22.407-.518-108.68l.13-108.268h52.854l.132 108.269c.105 86.272 0 108.351-.518 108.68-.358.226-12.075.412-26.04.412-13.966 0-25.684-.186-26.04-.413zm104.025-46.208c-17.1-25.648-31.317-46.636-31.59-46.636-.438 0-9.374 8.988-16.228 16.323l-2.422 2.59-.01-32.134-.011-32.136 29.079-30.564a17378.979 17378.979 0 0 1 37.697-39.531l8.62-8.966 30.96.158 30.962.156-29.667 30.866a132121.025 132121.025 0 0 0-41.454 43.147c-6.484 6.753-11.79 12.513-11.79 12.8 0 .286 1.714 3.023 3.81 6.08 3.222 4.706 16.942 24.903 65.834 96.913a11974.996 11974.996 0 0 0 12.617 18.54c3.208 4.7 5.829 8.655 5.829 8.787 0 .135-13.755.244-30.57.244h-30.571z" stroke-width=".518"/></svg>