<svg xmlns="http://www.w3.org/2000/svg" width="226.777" height="226.777" viewBox="0 0 226.777 226.777"><path d="M108.918 226.756c-9.17-.46-16.304-1.51-24.356-3.583-7.957-2.05-16.589-5.373-23.798-9.16-10.156-5.338-19.02-11.794-27.076-19.723a112.984 112.984 0 0 1-25.592-38.492A112.722 112.722 0 0 1 .03 111.227a112.82 112.82 0 0 1 15.226-54.103 112.54 112.54 0 0 1 20.79-26.032c2.334-2.172 4.038-3.65 6.179-5.366A112.708 112.708 0 0 1 68.972 9.764a113.009 113.009 0 0 1 37.35-8.748 115.761 115.761 0 0 1 19.13.497 113.137 113.137 0 0 1 52.066 19.553c8.13 5.649 15.554 12.44 22.093 20.214 5.1 6.064 9.854 13.182 13.588 20.347a113.178 113.178 0 0 1 12.37 42.665 115.669 115.669 0 0 1 .164 16.828 112.533 112.533 0 0 1-6.82 31.983 112.314 112.314 0 0 1-11.95 23.419 112.92 112.92 0 0 1-31.813 31.634c-5.447 3.594-11.9 7.07-17.65 9.505-6.26 2.653-12.533 4.715-18.768 6.169-6.35 1.482-12.337 2.35-19.36 2.807-1.472.095-9.172.182-10.454.119zm8.447-42.128c3.518-.23 4.888-.372 8.022-.832 11.33-1.663 22.503-5.846 30.403-11.381 2.423-1.698 4.006-3.021 5.952-4.973 2.497-2.508 4.013-4.56 5.322-7.207.658-1.328 1.091-2.48 1.413-3.745.478-1.882.453-1.298.477-11.335.023-9.9.037-9.529-.357-9.944-.232-.245-.434-.28-.762-.132-.385.175-.655.484-1.415 1.623-1.557 2.324-3.368 4.188-6.008 6.18-8.256 6.232-21.817 10.652-37.097 12.09-3.293.311-5.873.436-9.828.476-6.528.067-11.135-.207-17.355-1.035-12.992-1.725-24.81-5.876-32.056-11.257-2.856-2.122-4.834-4.123-6.42-6.503-.99-1.48-1.425-1.838-1.934-1.585-.311.155-.475.481-.552 1.098-.035.28-.052 4.137-.04 9.122.023 8.556.025 8.644.169 9.548.467 2.909 1.545 5.514 3.433 8.293 2.56 3.764 6.668 7.515 11.663 10.65 5.881 3.687 12.707 6.505 20.446 8.439 5.867 1.466 11.738 2.278 18.306 2.531 1.343.052 6.789-.028 8.22-.121zm-.624-44.872c9.997-.456 17.76-1.634 25.636-3.887 3.197-.914 6.57-2.125 9.304-3.34 9.77-4.344 15.787-10.054 17.02-16.15.27-1.326.278-1.71.257-12.087l-.02-9.994-.163-.294c-.12-.212-.224-.309-.38-.353-.48-.139-.948.184-1.643 1.132-2.704 3.688-6.95 6.78-12.966 9.443-9.173 4.06-21.173 6.574-35.007 7.334-3.19.176-10.461.174-13.444-.003-9.883-.585-17.205-1.697-24.879-3.78-10.454-2.84-18.77-7.365-22.537-12.268-1.08-1.406-1.177-1.517-1.48-1.709-.36-.23-.65-.245-.9-.049-.42.33-.393-.345-.415 10.145-.021 10.16 0 11.123.28 12.492 1.164 5.696 6.416 11.005 15.057 15.223 3.008 1.468 5.934 2.62 9.335 3.675 8.415 2.611 17.738 4.126 27.644 4.492 1.384.052 8.042.035 9.301-.022zm.983-43.783c5.081-.218 10.157-.689 14.203-1.318.687-.108 1.546-.24 1.906-.294 1.775-.267 5.505-1.024 7.79-1.58 9.202-2.235 16.513-5.41 21.398-9.286 1.087-.863 2.835-2.625 3.534-3.564 1.185-1.588 1.849-3 2.23-4.73l.153-.69v-6.179c0-5.717-.008-6.221-.119-6.739-.716-3.356-3.13-6.345-7.342-9.084-4.447-2.894-10.079-5.189-17.29-7.049-7.955-2.05-17.229-3.314-26.789-3.655-2.202-.079-8.512-.079-10.715 0-19.538.695-36.805 5.157-45.623 11.793-.841.633-1.328 1.054-2.16 1.872-2.32 2.277-3.5 4.492-3.72 6.979-.084.938-.088 10.524-.007 11.57.22 2.798 1.496 5.252 4.074 7.827 4.462 4.461 12.506 8.286 22.718 10.806 8.424 2.077 17.225 3.179 27.282 3.415 1.502.035 6.845-.025 8.477-.095z" stroke-width=".066"/></svg>