<svg xmlns="http://www.w3.org/2000/svg" width="226.777" height="226.777" viewBox="0 0 226.777 226.777"><path d="M114.845 195.223c-6.557-.328-11.658-1.079-17.416-2.562-5.69-1.466-11.862-3.842-17.017-6.55-7.262-3.817-13.6-8.433-19.361-14.103a80.79 80.79 0 0 1-18.3-27.524 80.603 80.603 0 0 1-5.767-31.871 80.673 80.673 0 0 1 10.888-38.687 80.473 80.473 0 0 1 14.866-18.614c1.669-1.553 2.887-2.61 4.418-3.837a80.593 80.593 0 0 1 19.125-11.414 80.808 80.808 0 0 1 26.708-6.255 82.776 82.776 0 0 1 13.679.355 80.9 80.9 0 0 1 37.23 13.982c5.814 4.039 11.122 8.895 15.798 14.454 3.647 4.336 7.046 9.426 9.716 14.549a80.929 80.929 0 0 1 8.845 30.508 82.71 82.71 0 0 1 .118 12.033 80.468 80.468 0 0 1-4.877 22.87 80.311 80.311 0 0 1-8.545 16.746 80.744 80.744 0 0 1-22.748 22.62c-3.895 2.57-8.509 5.055-12.621 6.797-4.476 1.897-8.962 3.371-13.42 4.411-4.541 1.06-8.822 1.68-13.844 2.007-1.052.068-6.558.13-7.475.085zm6.04-30.124c2.516-.164 3.495-.266 5.736-.595 8.102-1.189 16.091-4.18 21.74-8.138 1.733-1.214 2.865-2.16 4.256-3.556 1.786-1.793 2.87-3.26 3.806-5.153.47-.95.78-1.773 1.01-2.678.342-1.346.324-.928.341-8.105.017-7.079.027-6.814-.255-7.111-.166-.175-.31-.2-.545-.094-.275.125-.468.346-1.012 1.16-1.113 1.662-2.408 2.995-4.296 4.42-5.903 4.456-15.6 7.616-26.526 8.645-2.355.222-4.2.311-7.028.34-4.668.048-7.962-.148-12.41-.74-9.29-1.234-17.74-4.202-22.922-8.05-2.042-1.517-3.456-2.948-4.59-4.65-.708-1.058-1.019-1.314-1.383-1.133-.223.111-.34.344-.395.785-.025.2-.037 2.958-.028 6.523.016 6.118.017 6.181.12 6.827.334 2.08 1.105 3.943 2.455 5.93 1.83 2.692 4.768 5.374 8.34 7.615 4.205 2.637 9.086 4.652 14.62 6.035 4.195 1.048 8.393 1.629 13.09 1.81.96.037 4.854-.02 5.877-.087zm-.446-32.086c7.148-.326 12.699-1.168 18.331-2.779 2.286-.654 4.698-1.52 6.653-2.389 6.986-3.106 11.289-7.189 12.171-11.548.192-.948.198-1.222.183-8.643l-.014-7.146-.117-.21c-.086-.152-.16-.221-.272-.253-.343-.099-.677.132-1.174.81-1.934 2.637-4.97 4.848-9.272 6.752-6.559 2.903-15.14 4.701-25.032 5.244-2.281.126-7.48.125-9.613-.002-7.067-.418-12.303-1.213-17.79-2.703-7.475-2.03-13.421-5.266-16.115-8.772-.773-1.005-.842-1.085-1.058-1.222-.258-.164-.466-.175-.644-.035-.301.236-.281-.247-.297 7.254-.015 7.265 0 7.954.201 8.933.832 4.073 4.587 7.869 10.766 10.885 2.151 1.05 4.243 1.873 6.675 2.628 6.017 1.867 12.684 2.95 19.767 3.212.99.037 5.751.025 6.651-.016zm.703-31.307c3.633-.156 7.263-.493 10.156-.943.491-.077 1.105-.171 1.363-.21 1.269-.191 3.936-.732 5.57-1.13 6.58-1.598 11.808-3.868 15.301-6.64.777-.617 2.027-1.877 2.527-2.548.847-1.136 1.322-2.145 1.595-3.382l.109-.494v-4.418c0-4.088-.006-4.449-.085-4.819-.512-2.4-2.238-4.537-5.25-6.496-3.18-2.069-7.207-3.71-12.363-5.04-5.689-1.466-12.32-2.37-19.156-2.614-1.575-.056-6.087-.056-7.662 0-13.971.497-26.318 3.688-32.623 8.433-.602.453-.95.754-1.545 1.339-1.659 1.628-2.503 3.212-2.66 4.99-.06.671-.063 7.525-.005 8.273.158 2.001 1.07 3.756 2.913 5.597 3.191 3.19 8.943 5.925 16.245 7.727 6.024 1.485 12.317 2.273 19.508 2.442 1.074.025 4.895-.018 6.062-.068z" stroke-width=".047"/></svg>