<svg width="226.777" height="226.777" viewBox="0 0 226.777 226.777" xmlns="http://www.w3.org/2000/svg"><path d="M96.915 223.352c-14.028-2.36-22.572-5.222-36.243-12.145-30.037-15.211-51.868-43.963-58.67-77.27C-.274 122.79.332 98.079 3.156 86.87c8.01-31.79 30.098-59.196 59.666-74.036 18.286-9.177 28.74-11.49 51.329-11.363 19.431.11 25.158 1.088 39.508 6.746 56.265 22.184 85.049 81.01 67.53 138.009-5.215 16.963-14.13 31.707-27.142 44.883-17.56 17.783-38.773 28.25-65.473 32.307-14.032 2.132-18.65 2.123-31.66-.065zm-3.868-23.644c3.344-2.79 4.292-2.926 16.714-2.394 7.243.31 15.676-.016 18.739-.725 5.24-1.213 5.816-1.072 9.763 2.394 4.444 3.902 7.005 4.427 12.118 2.483 3.858-1.467 7.498-8.093 6.541-11.906-.944-3.76 3.944-6.637 7.785-4.58 4.446 2.379 10.127 1.642 13.523-1.755 2.486-2.486 3.082-4.241 2.875-8.466-.206-4.186.666-6.81 4.063-12.227 2.379-3.794 5.671-9.862 7.317-13.483 1.645-3.622 3.659-6.585 4.475-6.585.816 0 2.977-1.384 4.803-3.075 4.474-4.147 4.554-10.853.183-15.225-2.706-2.706-3.143-4.287-3.19-11.544-.03-4.625-.527-10.85-1.104-13.834-.928-4.804-.706-5.766 1.936-8.409 6.506-6.505 2.782-17.132-6.622-18.896-2.304-.432-4.19-1.206-4.19-1.72s-1.985-3.535-4.411-6.713c-3.863-5.059-4.315-6.387-3.63-10.674.96-6-.778-9.555-5.991-12.25-3.323-1.718-4.646-1.791-8.632-.476-4.183 1.38-5.103 1.274-8.267-.955-1.957-1.38-5.949-3.718-8.87-5.197-3.442-1.742-5.587-3.791-6.098-5.827-2.039-8.123-13.292-10.805-19.13-4.56-3.063 3.278-4.255 3.618-15.14 4.322-11.256.729-11.986.62-15.46-2.303-8.011-6.741-18.504-1.62-18.504 9.031 0 2.269-1.162 4.411-3.332 6.141l-3.332 2.658-4.542-2.488c-4.362-2.39-4.72-2.402-9.094-.327-5.112 2.426-7.848 7.484-6.644 12.283.614 2.446-.504 5.093-4.952 11.725-3.159 4.71-6.416 10.424-7.237 12.695-1.071 2.962-2.672 4.519-5.66 5.505-8.06 2.66-10.019 13.368-3.398 18.576 2.702 2.125 3.04 3.371 3.04 11.207 0 8.123-.296 9.111-3.763 12.578-2.475 2.476-3.763 5.025-3.763 7.453 0 4.189 3.861 9.763 7.58 10.943 1.373.436 3.686 3.15 5.14 6.032 1.454 2.882 5.096 8.769 8.093 13.083 4.126 5.94 5.409 8.922 5.282 12.282-.252 6.723 3.628 11.137 10.218 11.621 3.645.268 6.06-.266 7.631-1.688 2.145-1.94 2.511-1.925 5.476.235 2.28 1.66 3.19 3.496 3.218 6.488.027 2.906 1.153 5.286 3.705 7.84 4.555 4.553 9.825 4.806 14.738.707zm10.762-7.993c-8.447-.762-8.826-3.495-1.623-11.706l6.03-6.875 8.142.087c7.84.083 8.377.297 14.44 5.749 6.083 5.468 6.228 5.754 4.232 8.35-1.477 1.921-4.389 3.058-10.218 3.99-8.065 1.29-10.632 1.34-21.003.405zm-28.862-11.051l-2.812-1.97V46.431l3.449-1.935c6.27-3.516 7.372-2.176 8.672 10.546l1.18 11.542-4.142 3.911c-5.191 4.901-5.585 10.439-1.064 14.96 1.693 1.693 3.669 3.078 4.39 3.078.865 0 1.311 7.898 1.311 23.203 0 12.762-.487 23.203-1.083 23.203-2.778 0-7.696 6.815-7.696 10.663 0 4.41 4.111 10.659 7.013 10.659 1.22 0 1.621.925 1.226 2.821-.324 1.553-.947 7.197-1.385 12.543-.439 5.346-1.267 9.72-1.842 9.72-.574 0-1.8.29-2.724.644-.924.355-2.946-.242-4.493-1.325zm15.61 1.125c-1.072-1.07-1.104-7.804-.086-17.547.659-6.3 1.253-7.66 3.891-8.906 4.394-2.073 9.824 2.014 10.818 8.143.654 4.03.12 5.113-5.665 11.471-6.89 7.575-7.646 8.152-8.959 6.839zm60.536-.546c-1.003-.656-3.584-1.064-5.734-.905-3.12.23-5.411-1.012-11.332-6.141-7.022-6.084-7.396-6.694-6.952-11.35.407-4.268-.057-5.364-3.502-8.262-4.363-3.672-9.52-4.295-13.209-1.597-2.106 1.54-2.867 1.376-6.51-1.404-2.736-2.086-4.127-4.208-4.127-6.299 0-1.977-1.635-4.694-4.39-7.292-4.218-3.978-4.389-4.488-4.389-13.075 0-10.591-.951-10.866 15.954 4.604 6.056 5.542 19.76 17.806 30.452 27.253 23.703 20.944 23.655 20.883 19.05 23.603-2.375 1.403-4.067 1.679-5.31.865zm-102.495-20.28c-1.975-2.93-5.159-8.06-7.075-11.396l-3.485-6.066 2.844-3.027c1.666-1.773 4.268-3.027 6.285-3.027 7.226 0 7.409.374 7.409 15.185 0 7.812-.511 13.662-1.194 13.662-.657 0-2.81-2.398-4.784-5.33zm124.211 3.758c-3.102-1.732-56.59-48.815-56.705-49.914-.063-.603 16.67-16.287 48.434-45.4 5.08-4.657 9.775-8.466 10.433-8.466.658 0 3.173 2.934 5.588 6.52 3.77 5.597 4.15 6.797 2.69 8.466-2.68 3.065-3.447 7.043-1.979 10.267 1.149 2.524.562 4.416-3.933 12.686-4.736 8.715-5.664 9.72-8.962 9.72-2.482 0-5.001 1.327-7.74 4.077l-4.062 4.076-12.432-2.115c-15.741-2.678-17.983-2.719-18.896-.34-.409 1.065-.495 2.184-.193 2.487.303.302 7.379 1.696 15.723 3.097 14.15 2.374 15.467 2.84 19.546 6.92 5.054 5.054 10.185 5.74 14.824 1.984 3.643-2.95 7.36-1.452 7.36 2.965 0 1.648 1.411 4.672 3.136 6.722 1.724 2.05 3.135 4.175 3.135 4.724 0 1.818-7.727 16.413-10.472 19.779-2.384 2.923-3.022 3.126-5.495 1.745zM47.358 131.393c-1.086-.69-.197-1.657 2.864-3.117 5.579-2.66 5.373-2.705 4.66 1.019-.614 3.216-4.192 4.213-7.524 2.098zm-6.007-6.578c-.448-.725-2.171-1.834-3.829-2.464-2.755-1.048-3.013-1.845-3.013-9.297 0-7.628.221-8.265 3.449-9.919 3.187-1.633 3.949-1.483 10.033 1.97 6.375 3.618 6.585 3.913 6.585 9.24 0 5.334-.189 5.597-6.205 8.645-4.003 2.029-6.494 2.677-7.02 1.825zm141.338-2.272c-.933-.595-2.703-3.33-3.933-6.076l-2.236-4.995 4.97-8.961c3.312-5.972 5.725-8.961 7.236-8.961 2.996 0 3.775 3.38 3.796 16.472.015 9.245-.304 10.92-2.178 11.46a51.179 51.179 0 0 0-4.076 1.386c-1.035.416-2.645.27-3.579-.325zM90.948 102.48V90.873l4.39-4.14c2.783-2.624 4.39-5.309 4.39-7.332 0-3.839 9.68-11.79 11.787-9.683.691.691 3.642 1.256 6.558 1.256 4.234 0 5.826-.665 7.902-3.304 1.43-1.818 2.6-4.06 2.6-4.982 0-.945 2.876-2.512 6.584-3.587 10.715-3.109 20.354-5.504 20.71-5.147.183.182-4.89 5.075-11.275 10.871-6.384 5.796-19.514 17.846-29.177 26.776-9.664 8.93-19.123 17.643-21.02 19.361l-3.449 3.125zm-41.702-3.123c-6.184-3.268-6.212-6.488-.066-7.486 2.55-.413 4.843-.546 5.095-.294.252.252.281 2.665.066 5.362l-.392 4.905zM41.6 84.985c-1.142-1.261-2.076-2.837-2.076-3.501 0-2.01 12.583-21.798 13.861-21.798.67 0 1.19 5.397 1.19 12.344v12.343l-4.849 1.453c-6.101 1.828-5.67 1.873-8.126-.84zm52.27-16.234c-2.147-1.708-2.89-4.024-3.514-10.946-.435-4.829-1.04-9.99-1.345-11.47-1.005-4.883 2.826-4.218 10.497 1.822 7.072 5.567 7.467 6.164 7.303 11.048-.149 4.415-.838 5.64-4.77 8.466-5.404 3.885-4.756 3.799-8.171 1.08zm32.515-15.519c-2.565-2.565 2.564-10.615 7.377-11.578 2.23-.446 5.078-1.737 6.329-2.869 2.11-1.91 2.62-1.902 7.074.107 2.64 1.19 6.374 3.419 8.296 4.951l3.496 2.788-14.361 4.019c-16.23 4.543-16.248 4.545-18.211 2.582zm-22.582-8.639c-4.311-3.488-7.838-6.812-7.838-7.386 0-2.249 3.483-3.546 11.403-4.249 10.093-.895 12.994-.219 15.504 3.613 1.758 2.683 1.747 3.367-.12 7.282-1.133 2.377-3.25 4.581-4.704 4.9-1.454.317-3.49.938-4.525 1.38-1.192.508-4.756-1.524-9.72-5.54z" stroke-width="1.254"/></svg>