<svg xmlns="http://www.w3.org/2000/svg" width="226mm" height="226mm" viewBox="0 0 226 226"><path d="M143.6 212.66l-23.11-13.306.976-1.577.974-1.577 8.362-4.673 8.36-4.674 14.246 8.339 14.245 8.339v22.533l-.472-.05-.47-.048-23.11-13.307zm31.594-39.056v-52.367l-26.38-14.988-26.379-14.99.473-1.465.474-1.468 7.585-4.523 7.585-4.523 27.277 15.657 27.276 15.656-.078 8.715-.079 8.716-.392 43.849-.393 43.85-8.484 5.123-8.485 5.124zM40.862 219.993l-7.07-4.097-.392-43.936-.394-43.936-.078-8.737-.078-8.737 81.07-46.848 81.07-46.847 2.573-.034 2.57-.033 7.328 4.118 7.326 4.118-.08 1.067-.081 1.067-81.932 47.05-81.933 47.053v102.916l-1.415-.043-1.413-.043zm17.812-7.496l.57-9.796 52.791-30.636 52.79-30.636 1.414-.104 1.414-.103v20.172l-52.762 30.45-52.763 30.449h-4.023zm-44.187-7.728l-7.053-4.159.005-52.79.004-52.79 78.405-45.247 78.402-45.25 3.771-1.784 3.771-1.784 8.3 4.404 8.3 4.402-.035 1.152-.036 1.151-81.953 47.135-81.955 47.134-.023 51.375-.024 51.377-1.415-.083-1.414-.084-7.051-4.159zm187.103-46.348v-50.674l-2.357-1.95-2.357-1.95-23.567-13.503-23.567-13.505-1.305-1.273-1.305-1.274 8.861-4.928 8.86-4.93 26.829 15.298 26.831 15.298.007 52.79.007 52.79-7.429 4.243-7.429 4.242h-2.08zM58.672 183.517l.573-10.986 47.134-27.176 47.134-27.176 6.576 3.51 6.576 3.507.571 2.981.571 2.98-48.626 28.018-48.624 28.02-6.23 3.654-6.227 3.656zm98.005 4.52l-10.033-5.804 9.738-5.56 9.737-5.562.868.867.867.867-.571 10.497-.572 10.496zm-98.375-36.445v-10.37h1.41l8.722 4.875 8.722 4.874-.015 1.253-.014 1.253-7.43 4.241-7.43 4.243h-3.965zM71.5 139.264l-12.255-7.296v-6.764l6.6-3.526 6.599-3.525 15.553 9.101 15.555 9.102-.015 1.019-.014 1.019-7.43 4.242-7.428 4.242-2.455-.158-2.455-.159zM7.397 60.022V33.624l4.243 2.219 4.241 2.22 5.184 3.63 5.186 3.633v27.302l-2.357 2.883-2.357 2.885-7.07 4.01-7.07 4.013zM210.31 81.86l-7.302-4.33-1.624-2.563-1.623-2.56-.027-14.14-.027-14.141 9.425-5.294 9.425-5.293v53.007l-.471-.177-.472-.179zm-26.632-15.215l-7.541-4.464v-4.26l8.012-4.733 8.013-4.732v23.007l-.472-.177-.47-.178zM33.793 59.1V48.625l7.995 4.768 7.995 4.768.524 1.57.524 1.572-7.362 4.137-7.363 4.138h-2.313zm1.463-18.283l-23.99-13.66.44-1.468.44-1.465 7.64-4.556 7.64-4.557 24.393 14.034 24.392 14.033.507 1.521.507 1.52-7.362 4.137-7.361 4.138-1.629-.007-1.628-.007zm24.279-15.94L35.317 10.64l9.122-5.327 9.122-5.328 3.784 2.41 3.784 2.41 21.21 12.032 21.21 12.031-.015 1.03-.014 1.029-7.429 4.243-7.429 4.241-2.454-.149-2.455-.149z"/></svg>