<svg xmlns="http://www.w3.org/2000/svg" width="226mm" height="226mm" viewBox="0 0 226 226"><path d="M87.025 197.464c-3.665-2.197-5.033-5.149-5.033-10.861v-4.506l-2.56-.015c-5.028-.03-9.2-2.864-12.346-8.388l-1.481-2.6V57.1l1.673-3.302c2.694-5.316 7.247-8.245 12.836-8.256l1.878-.004.002-5.291c.003-6.063 1.241-8.843 4.942-11.1 3.101-1.89 9.35-1.857 12.777.068 3.839 2.158 4.811 4.34 4.811 10.796v5.527h13.52l.239-6.09c.21-5.377.439-6.306 1.946-7.918 2.58-2.76 5.002-3.744 9.217-3.744 4.215 0 6.637.983 9.218 3.744 1.524 1.63 1.732 2.513 1.943 8.25l.237 6.424 2.836.754c4.474 1.19 11.618 5.225 15.012 8.476 11.59 11.106 14.453 27.149 7.476 41.906-2.15 4.55-9.377 12.314-13.493 14.497-1.697.9-3.08 1.792-3.073 1.98.007.188 1.577 1.264 3.487 2.39 7.239 4.27 13.592 13.056 15.91 22.004 4.022 15.518-4.243 33.082-18.824 40.005-2.763 1.312-6.023 2.593-7.243 2.847l-2.22.46-.002 5.238c-.002 3.994-.32 5.758-1.34 7.43-2.829 4.64-10.36 6.35-15.782 3.584-4.042-2.063-5.403-4.762-5.406-10.727l-.002-4.95h-13.516l-.24 5.733c-.191 4.55-.523 6.043-1.607 7.242-3.857 4.263-10.893 5.329-15.792 2.392zm60.74-40.154c3.324-2.535 4.555-5.104 4.555-9.502 0-4.603-2.158-7.998-6.386-10.044-2.868-1.389-3.844-1.453-19.144-1.268-8.867.107-16.121.091-16.121-.035s2.217-4.12 4.926-8.876c4.706-8.26 4.927-8.845 4.944-13.085.017-4.256-.186-4.8-4.926-13.248-2.719-4.846-4.944-8.917-4.944-9.048 0-.13 7.451-.242 16.558-.248 15.87-.01 16.67-.074 19.238-1.536 3.059-1.74 5.855-6.364 5.855-9.681 0-3.085-2.7-7.973-5.393-9.762-2.313-1.538-2.395-1.542-30.28-1.542-31.153 0-30.954-.027-34.523 4.652-1.489 1.952-1.84 3.136-1.84 6.22 0 3.567.51 4.747 8.024 18.608 4.412 8.14 8.023 15.162 8.023 15.605 0 .444-3.58 7.15-7.957 14.903-7.238 12.822-7.983 14.466-8.253 18.193-.252 3.476-.053 4.456 1.315 6.47.887 1.305 2.663 3.082 3.948 3.947l2.335 1.574 28.77-.192 28.77-.192 2.507-1.913z"/></svg>