<svg xmlns="http://www.w3.org/2000/svg" width="226mm" height="226mm" viewBox="0 0 226 226"><path d="M101.93 220.23c-26.608-3.695-48.13-14.354-65.327-32.354-10.64-11.137-17.888-22.684-23.335-37.173-1.721-4.579-4.907-16.524-4.907-18.4 0-.26 12.503-.474 27.785-.474H63.93l2.093-3.22c1.152-1.77 5.127-8.515 8.835-14.988 3.708-6.473 7.007-11.605 7.333-11.404.325.201 7.314 10.031 15.53 21.845 8.216 11.814 15.162 21.484 15.435 21.49.273.007 7.355-9.839 15.738-21.878 8.382-12.04 15.36-21.89 15.506-21.89.145 0 4.21 6.76 9.034 15.022l8.77 15.023h55.764l-.598 3.648c-.981 5.998-5.563 19.546-8.78 25.968-7.021 14.011-19.793 29.23-32.407 38.617-6.155 4.58-21.111 12.414-28.437 14.895-13.436 4.55-33.992 6.916-45.817 5.273zm25.753-19.761c21.15-3.336 41.425-15.744 55.546-33.993 3.768-4.87 11.411-19.112 11.411-21.263 0-1.135-1.159-1.366-6.85-1.366h-6.85l-1.855 3.648c-5.061 9.954-15.452 21.733-24.426 27.69-6.76 4.486-16.16 8.686-23.919 10.686-14.868 3.831-36.046 1.606-49.666-5.22-13.009-6.52-25.957-18.769-31.938-30.214l-3.433-6.572-7.083-.009c-5.098-.007-7.081.292-7.08 1.064 0 1.617 4.628 11.072 7.992 16.33 12.745 19.924 35.882 35.388 58.672 39.213 6.075 1.02 23.031 1.023 29.479.006zm-19.102-84.711c-2.164-3.2-7.854-11.42-12.646-18.266-4.791-6.846-9.937-14.284-11.434-16.529-1.497-2.244-3.113-3.957-3.592-3.805-.746.237-9.573 14.876-21.279 35.285l-3.24 5.651H6.386l.529-9.228C8.455 82.041 19 58.435 37.919 39.468c18.402-18.449 38.463-27.98 65.93-31.325 9.103-1.108 18.024-.557 30.043 1.855 47.962 9.628 82.869 49.873 85.382 98.439l.5 9.657h-49.703l-11.966-20.602c-6.581-11.33-12.352-20.476-12.825-20.322-.472.153-7.696 10.094-16.055 22.09-8.358 11.996-15.537 21.925-15.953 22.064-.416.139-2.527-2.366-4.691-5.566zm-68.458-11.732c0-3.396 4.129-16.558 6.976-22.24 5.28-10.535 13.369-20.067 23.43-27.607 5.61-4.204 12.226-7.469 21.1-10.41 6.813-2.259 8.234-2.42 21.46-2.425 12.92-.006 14.774.19 21.098 2.228 26.633 8.583 45.902 29.677 51.227 56.08l1.21 5.995 6.583.25 6.584.251v-3.803c0-4.64-3.392-16.64-6.873-24.317-7.863-17.341-23.436-33.428-40.77-42.114-7.308-3.662-17.273-6.933-24.149-7.927-7.678-1.11-22.444-1.107-29.503.006C76.263 31.5 53.917 45.811 41.039 64.79c-7.226 10.65-13.294 25.962-14.37 36.264l-.526 5.022h6.99c6.796 0 6.99-.057 6.99-2.05z" stroke-width=".858"/></svg>