<svg xmlns="http://www.w3.org/2000/svg" width="226.777" height="226.777" viewBox="0 0 226.777 226.777"><path d="M104.808 132.717L70.232 167.29a12.634 12.634 0 0 1-17.875 0l-39.044-39.278a12.634 12.634 0 0 1 0-17.876l39.279-39.28a12.634 12.634 0 0 1 17.876 0l34.575 34.576a12.634 12.634 0 0 0 17.876 0l34.338-34.575a12.634 12.634 0 0 1 17.876 0l39.045 39.279a12.634 12.634 0 0 1 0 17.876l-39.045 39.278a12.634 12.634 0 0 1-17.876 0l-34.575-34.574a12.634 12.634 0 0 0-17.874 0z" stroke-width="2.353"/></svg>