<svg xmlns="http://www.w3.org/2000/svg" width="226mm" height="226mm" viewBox="0 0 226 226"><path d="M98.127 225.154c-37.76-5.321-70.65-29.347-86.89-63.471C4.323 147.157 1.2 134.266.508 117.389-.8 85.495 10.622 56.477 33.435 33.739 56.909 10.345 84.785-.588 117.506.768c30.004 1.243 53.74 11.673 75.039 32.973 21.132 21.132 31.68 45.149 32.928 74.973 2.321 55.491-35.223 103.465-90.092 115.119-8.108 1.722-29.124 2.468-37.254 1.322zm-1.35-47.788c11.259-5.21 14.572-6.083 23.14-6.089 8-.007 13.091 1.336 23.768 6.265 4.223 1.949 9.436 3.84 11.586 4.201 11.718 1.972 23.001-7.134 23.028-18.584.012-4.943-2.196-9.407-6.617-13.382-7.487-6.73-15.016-6.76-29.66-.117-16.95 7.688-27.577 7.676-44.929-.052-14.219-6.334-21.793-6.317-29.06.063-8.669 7.612-8.615 20.676.115 27.642 7.83 6.247 15.214 6.26 28.628.052zM59.35 124.183c10.239-4.785 15.197-6.063 23.516-6.063 8.493 0 13.134 1.21 24.78 6.465 6.605 2.98 9.413 3.763 13.5 3.763 10.767 0 17.828-5.695 19.813-15.982 1.63-8.449-4.496-17.56-13.584-20.202-6.556-1.906-9.954-1.282-20.929 3.84-19.052 8.893-27.61 8.72-49.568-1.003-11.035-4.887-18.014-4.582-25.478 1.111-5.915 4.511-8.319 14.94-5.038 21.854 2.363 4.98 8.015 9.239 13.454 10.139 6.217 1.028 10.991.07 19.534-3.922zm35.315-52.1c20.937-9.325 28.81-9.512 47.856-1.134 8.9 3.914 11.575 4.696 16.147 4.716 8.575.038 15.145-4.094 18.222-11.457 3.283-7.859.487-17.187-6.635-22.137-3.306-2.297-4.995-2.789-10.503-3.057-6.1-.298-7.144-.053-14.766 3.465-9.777 4.512-19.434 7.328-25.132 7.328-5.53 0-15.316-2.793-25.522-7.284-12.18-5.36-19.243-4.876-26.898 1.845-7.92 6.954-7.22 21.308 1.338 27.401 7.442 5.3 14.508 5.385 25.893.315z" stroke-width=".913"/></svg>