<svg width="250" height="250" viewBox="0 0 250 250" xmlns="http://www.w3.org/2000/svg"><path d="M.17 42.543l123.639 204.703v-70.418L.169 42.543zm249.607-.102L125.347 176.73v70.417l124.43-204.705zm-155.959-.699l15.455 25.588h14.748v-4.576l-19.345-21.012H93.818z"/><path d="M155.996 41.742L140.441 67.33h35.71l-51.354 55.113-51-55.113h35.476L93.818 41.742H.968l123.58 134.288 124.43-134.287h-92.98z"/><path d="M145.066 41.742l-19.468 21.012v4.576h14.843l15.555-25.588h-10.93zm-38.866 0l18.599 20.211 18.726-20.21H106.2z"/><path d="M73.912 6.656L124.8 61.953l51.236-55.297zm-.8.801l50.91 84.293V62.754zm103.724 0l-51.238 55.297V91.75z"/></svg>