<svg xmlns="http://www.w3.org/2000/svg" width="226mm" height="226mm" viewBox="0 0 226 226"><path d="M101.796 224.314c-27.003-2.419-46.58-11.901-67.256-32.578-23.423-23.423-32.814-45.858-32.84-78.46-.026-32.51 9.392-55.01 32.84-78.46C57.99 11.37 80.49 1.95 113 1.977c32.601.027 55.036 9.417 78.46 32.84 23.434 23.435 32.803 45.844 32.803 78.46 0 32.618-9.369 55.026-32.803 78.46-25.512 25.512-53.802 35.79-89.664 32.578zm-28.04-97.706l-13.334-13.413 12.932-12.845 12.931-12.845 13.384 13.304 13.383 13.305 13.318-13.318 13.318-13.318 12.945 12.859 12.945 12.858-13.32 13.4-13.321 13.4 13.71 13.79 13.71 13.79 13.397-13.319 13.399-13.32V85.775l-13.319-13.397-13.318-13.397H59.64L46.244 72.298 32.847 85.616v55.164l13.332 13.41 13.332 13.411 13.79-13.79 13.79-13.79z"/></svg>