<svg width="226.777" height="226.777" viewBox="0 0 226.777 226.777" xmlns="http://www.w3.org/2000/svg"><path d="M81.624 213.198c-4.093-4.094-4.722-5.632-4.691-11.471.036-6.744.036-6.744 13.402-16.247 7.35-5.226 14.217-9.83 15.258-10.229 1.534-.588 1.893 2.499 1.893 16.247 0 16.972 0 16.972-4.727 21.7-3.876 3.875-5.78 4.727-10.567 4.727-4.788 0-6.692-.852-10.568-4.727zm19.017-2.118c3.926-3.926 4.064-4.516 4.064-17.38 0-7.324-.297-13.316-.661-13.316-.364 0-5.996 3.815-12.514 8.477-10.981 7.855-11.852 8.834-11.852 13.316 0 6.447 6.292 12.967 12.514 12.967 2.992 0 5.675-1.29 8.45-4.064zm-83.971-7.59c-7.183-2.686-10.158-5.645-12.904-12.836-3.08-8.065-1.969-15.393 3.837-25.296 5.293-9.03 39.8-44.49 46.833-48.127 4.222-2.182 4.874-2.196 7.968-.169 1.854 1.214 3.37 3.464 3.37 5 0 1.758-8.156 10.878-22.045 24.648-24.012 23.805-29.79 32.14-26.812 38.675 5.213 11.441 29.984 4.918 61.572-16.215 59.175-39.587 116.268-92.645 129.323-120.18 4.587-9.676 4.98-14.634 1.415-17.86-5.117-4.631-15.5-1.487-27.495 8.326-8.22 6.725-15.847 5.887-15.847-1.74 0-4.11 11.9-14.69 21.779-19.363 20.06-9.49 38.01-.651 38.01 18.715 0 16.613-14.465 38.136-46.805 69.643-42.58 41.484-100.586 84.114-128.117 94.154-11.54 4.21-26.719 5.378-34.082 2.625zm33.47-5.808c27.693-10.424 90.756-57.387 130.428-97.13 27.662-27.712 40.367-46.206 41.892-60.979 1.944-18.833-13.935-27.279-33.633-17.89-10.886 5.19-20.716 13.908-19.422 17.226 1.423 3.65 4.453 2.966 10.754-2.427 16.574-14.187 34.393-14.01 34.39.341-.001 6.454-5.975 19.215-14.165 30.26-19.007 25.633-66.453 67.81-110.995 98.67-31.053 21.513-51.274 30.252-64.958 28.073-6.094-.97-11.493-6.367-11.493-11.488 0-8.58 15.148-27.773 36.78-46.606 13.125-11.426 15.524-15.404 9.785-16.228-5.12-.735-36.916 29.272-47.461 44.791-4.972 7.316-7.735 16.04-6.758 21.334 1.082 5.864 8.105 13.84 13.705 15.563 6.52 2.008 20.75.405 31.15-3.51zm26.758-49.663c0-25.999 1.729-27.422 33.301-27.422 17.036 0 20.926.362 20.926 1.951 0 2.722-49.357 42.542-52.731 42.542-.987 0-1.496-5.814-1.496-17.07zm38.676-15.185c11.563-9.457 11.563-9.457-6.674-9.457-19.268 0-24.85 1.381-27.79 6.875-.787 1.472-1.431 9.026-1.431 16.787 0 14.11 0 14.11 12.166 4.68 6.691-5.186 17.37-13.684 23.729-18.885zm23.912 17.507c.011-1.544 3.818-5.743 9.216-10.161 5.058-4.142 15.972-13.684 24.253-21.204 16.713-15.179 20.2-16.753 18.74-8.46-2.105 11.95-5.318 18.659-12.822 26.763-8.554 9.24-17.262 13.379-31.215 14.837-7.414.775-8.19.607-8.172-1.775zm21.382-4.455c3.74-1.288 9.488-4.709 12.773-7.6 6.008-5.288 14.491-19.943 14.491-25.033 0-3.494-.86-2.883-18.965 13.471-7.54 6.812-16.838 14.87-20.662 17.907-6.952 5.523-6.952 5.523-.695 4.56 3.44-.528 9.317-2.016 13.058-3.305zm-3.969-52.519c-3.342-5.101-10.277-7.531-21.493-7.531-5.342 0-11.203-.68-13.024-1.51-8.024-3.655-10.656-17.403-4.585-23.954 4.512-4.868 7.986-5.53 25.505-4.863 12.113.462 16.118 1.175 21.193 3.775 6.615 3.39 18.075 13.597 18.075 16.1 0 1.966-19.788 21.575-21.772 21.575-.85 0-2.604-1.616-3.899-3.592zm14.895-10.18c3.633-3.457 6.605-7.025 6.605-7.93 0-2.295-8.655-9.655-15.68-13.335-4.754-2.49-8.796-3.18-21.24-3.626-15.023-.539-15.466-.468-19.813 3.19-6.005 5.053-6.15 11.735-.381 17.505 3.78 3.78 4.804 4.064 14.644 4.064 11.345 0 17.945 2.011 22.172 6.755 3.039 3.41 3.257 3.305 13.693-6.624zm-90.423.479c-4.119-2.885-7.254-9.189-7.254-14.585 0-3.127 1.352-5.732 4.728-9.107 8.845-8.845 22.462-5.497 26.026 6.398 1.946 6.494.016 12.464-5.407 16.73-4.25 3.343-13.705 3.637-18.093.564zM99 78.139c4.772-5.435 4.896-5.89 2.98-10.929-3.41-8.968-11.985-11.769-19.548-6.384-5.008 3.566-6.41 9.551-3.538 15.105 4.544 8.787 13.47 9.767 20.106 2.208z" stroke-width="1.39"/></svg>