<svg xmlns="http://www.w3.org/2000/svg" width="226.777" height="226.777" viewBox="0 0 226.777 226.777"><path d="M72.722 210.906l-39.562-16.66-16.58-40.156L0 113.935l16.617-40.066 16.618-40.066L73.3 17.186 113.366.567l40.144 16.577 40.145 16.575 16.66 40.123 16.662 40.123-15.027 35.927-15.023 35.928 6.91 7.215c6.475 6.756 6.643 7.484 2.662 11.467-3.982 3.98-4.628 3.899-10.163-1.301-3.25-3.055-7.118-5.552-8.594-5.552-1.476 0-17.919 6.366-36.539 14.148s-34.996 14.514-36.388 14.96c-1.392.446-20.334-6.687-42.093-15.85zm67.62-10.923c13.805-5.676 27.844-11.413 31.2-12.748l6.103-2.427-8.52-8.79c-8.002-8.255-8.26-9.052-4.239-13.072 4.02-4.02 4.752-3.83 12.03 3.143 9.292 8.904 8.455 9.854 22.902-25.985 11.832-29.352 12.354-23.705-6.258-67.752l-11.763-27.84-32.357-13.29c-17.797-7.31-34.064-13.289-36.147-13.289-2.084 0-18.46 6.06-36.394 13.465L44.294 44.863 30.83 77.468c-7.406 17.932-13.466 34.358-13.466 36.498 0 2.961 24.008 63.924 26.79 68.027 1.007 1.487 65.583 28.17 68.345 28.241 1.51.039 14.04-4.574 27.844-10.25z" stroke-width="2.532"/></svg>