<svg xmlns="http://www.w3.org/2000/svg" width="226.777" height="226.777" viewBox="0 0 226.777 226.777"><path d="M78.441 195.99l-33.99-14.314-14.245-34.5-14.245-34.5 14.277-34.423L44.515 43.83l34.423-14.277 34.423-14.278 34.49 14.242 34.491 14.241 14.314 34.472 14.315 34.472-12.91 30.867-12.908 30.868 5.938 6.199c5.562 5.805 5.707 6.43 2.286 9.852-3.421 3.42-3.976 3.35-8.731-1.118-2.793-2.624-6.116-4.77-7.384-4.77-1.268 0-15.395 5.47-31.393 12.156-15.998 6.686-30.067 12.47-31.263 12.853-1.196.383-17.47-5.745-36.165-13.618zm58.097-9.384c11.86-4.877 23.922-9.806 26.806-10.953l5.243-2.085-7.32-7.553c-6.875-7.092-7.096-7.776-3.642-11.23 3.454-3.454 4.083-3.29 10.335 2.7 7.984 7.65 7.265 8.466 19.677-22.325 10.166-25.218 10.614-20.367-5.376-58.21l-10.107-23.92-27.8-11.418c-15.29-6.28-29.266-11.417-31.056-11.417-1.79 0-15.86 5.206-31.268 11.569L54.017 53.332 42.448 81.345c-6.363 15.407-11.569 29.519-11.569 31.358 0 2.544 20.626 54.921 23.016 58.446.866 1.278 56.347 24.203 58.72 24.264 1.298.033 12.063-3.93 23.923-8.807z" stroke-width="2.175"/></svg>