<svg xmlns="http://www.w3.org/2000/svg" width="226mm" height="226mm" viewBox="0 0 226 226"><path d="M96.647 225.258c-15.596-2.952-33.585-10.118-45.348-18.064-9.563-6.46-20.655-17.048-27.607-26.355C1.197 150.727-5.125 111.962 6.648 76.333c2.337-7.072 8.384-19.374 12.739-25.913 16.3-24.484 42.391-42.222 70.511-47.94 27.043-5.499 56.619-.665 79.566 13.004 15.59 9.287 29.956 23.094 39.275 37.747 7.383 11.609 13.67 28.375 16.062 42.83 1.068 6.461 1.212 24.636.266 33.622-2.289 21.739-14.338 45.896-31.517 63.187-15.723 15.826-33.597 25.627-56.617 31.047-7.902 1.86-8.675 1.932-22.03 2.052-9.95.09-15.08-.11-18.256-.71zm2.005-30.993c1.481-2.297 2.22-8.18 1.553-12.36-1.606-10.051-6.46-19.18-14.867-27.958-6.23-6.506-5.507-7.24 1.786-1.81 5.575 4.152 10.657 13.484 16.288 29.908 3.956 11.54 3.806 11.19 4.796 11.19 1.237 0 1.864-2.2 2.553-8.955 1.13-11.09 2.358-16.308 5.143-21.868 1.435-2.865 6.095-8.046 7.237-8.046.337 0-.229 1.656-1.258 3.68-1.757 3.456-1.887 4.149-2.123 11.337-.604 18.342 2.431 23.696 7.255 12.798 3.133-7.08 7.026-10.99 13.507-13.566 2.591-1.03 6.49-2.803 8.666-3.939 2.176-1.136 4.097-2.065 4.27-2.065 2.145 0-11.089 19.214-17.028 24.724-3.126 2.9-4.601 6.489-2.668 6.489 1.695 0 7.747-2.899 12.207-5.847 9.427-6.23 18.424-15.839 22.88-24.434 2.48-4.786 4.138-6.822 5.556-6.822 2.6 0 11.643-10.463 15.035-17.397 1.936-3.958 2.66-10.315 1.999-17.568-.351-3.85-.88-5.732-2.516-8.953-3.53-6.952-9.112-14.149-14.47-18.655-4.092-3.442-4.57-1.528-1.79 7.153.997 3.11 1.949 6.98 2.116 8.6l.303 2.945-1.874-3.828c-2.787-5.695-5.164-13.25-5.808-18.462-1.036-8.382.818-20.444 4.682-30.463 1.51-3.916 1.704-4.9 1.048-5.317-1.062-.672-1.117-.666-3.102.37-.94.489-1.826.771-1.971.626-.999-.999 9.104-11.764 14.63-15.59 5.118-3.542 4.508-6.166-.98-4.221-17.772 6.295-30.598 20.88-33.503 38.093-.485 2.873-1.282 10.656-1.77 17.296-.49 6.64-1.181 13.648-1.538 15.574-1.488 8.035-4.671 13.284-8.056 13.284-3.616 0-10.165-6.438-11.655-11.458-2.663-8.965-2.302-19.583.833-24.571 2.856-4.544 3.324-6.3 3.175-11.931-.109-4.106.065-5.489.788-6.288 1.64-1.812.825-3.15-2.045-3.357-3.952-.284-8.268 2.162-14.568 8.256-3.972 3.843-6.5 5.744-9.72 7.306-7.775 3.773-12.162 8.563-14.997 16.375-2.702 7.442-1.458 10.583 2.614 6.607 3.05-2.978 3.603-2.79 3.677 1.246.265 14.48-1.544 23.771-5.185 26.635-3.998 3.146-5.401.64-4.375-7.818.83-6.841.696-7.463-3.319-15.448-4.14-8.236-4.15-8.354-1.372-16.604 3.597-10.686 3.288-15.969-1.515-25.85-3.733-7.681-13.397-19.077-14.892-17.562-.58.588.33 3.454 3.377 10.627 2.738 6.448 3.863 12.412 3.53 18.711-.33 6.271-1.339 8.659-6.76 16-4.614 6.251-5.788 8.236-7.502 12.694-.98 2.546-1.46 3.29-1.482 2.295-.055-2.537-1.224-5.889-2.053-5.889-.965 0-4.052 3.43-5.44 6.045-1.472 2.771-1.596 1.14-.533-7.02.576-4.416.7-7.15.342-7.508-2.42-2.42-12.384 12.904-15.052 23.15-.466 1.787-.846 5.86-.846 9.052 0 6.473.86 9.275 4.657 15.15 2.586 4.003 12.02 13.63 14.683 14.986 4.246 2.16 4.706-.311 1.326-7.114-2.66-5.355-4.57-11.241-5.082-15.668l-.358-3.099 2.927 5.12c4.153 7.262 6.786 10.469 19.251 23.443 18.599 19.36 21.734 23.418 24.174 31.303 2.097 6.773 2.46 7.567 3.472 7.567.485 0 1.267-.597 1.737-1.326zM62.616 85.608c1.829-2.096 4.003-11.309 3.987-16.892-.018-6.134-2.363-12.882-6.401-18.419-4.19-5.745-15.597-13.128-20.284-13.128-1.43 0-2.164.271-2.164.8 0 .44 2.169 2.757 4.82 5.151 10.936 9.875 15.504 19.403 16.203 33.802.19 3.886.565 7.663.835 8.392.59 1.587 1.775 1.703 3.004.294zm110.546-1.107c.67-.852 1.496-2.641 1.835-3.976 2.677-10.551 9.384-25.178 14.988-32.69 3.307-4.432 3.946-6.312 2.355-6.922-2.164-.83-14.063 10.766-17.326 16.884-3.907 7.327-6.433 21.095-4.786 26.087.85 2.575 1.317 2.673 2.934.617z"/></svg>