<svg xmlns:serif="http://www.serif.com/" xmlns="http://www.w3.org/2000/svg" width="226.777" height="226.777" viewBox="0 0 226.777 226.777"><g serif:id="Pyrin_Token_Solid_Violet"><g serif:id="Ebene 1" clip-rule="evenodd" stroke-linejoin="round" stroke-miterlimit="2"><path d="M226.59 114.069c0 62.329-50.532 112.86-112.863 112.86-62.332 0-112.86-50.531-112.86-112.86 0-62.332 50.528-112.863 112.86-112.863 62.331 0 112.863 50.531 112.863 112.863"/><path d="M143.58 126.695L108.483 66.96h27.63c1.492 0 30.614.745 30.614 30.615.746 20.16-11.946 26.881-23.147 29.12m-7.466-73.923H83.097l44.054 75.416h-17.172L66.671 52.772H50.24l44.055 75.416H81.604v67.95h14.187v-53.762h39.575c17.174 0 47.04-9.708 47.04-44.801-.745-44.057-45.547-44.803-46.292-44.803" fill="#fff"/></g></g></svg>