<svg xmlns="http://www.w3.org/2000/svg" viewBox="0 0 250 250" height="250" width="250"><g fill-rule="evenodd"><path d="M227.631 181.528a3.906 3.906 0 0 0-3.912 3.896v11.69h-50.736l-.1-7.388c21.825-15.243 34.823-40.04 34.823-66.645 0-44.912-36.695-81.46-81.788-81.46-45.092 0-81.787 36.548-81.787 81.46 0 26.48 12.982 51.381 34.723 66.624.036.02.057.02.1.042l-.1 7.366H28.118v-11.689a3.906 3.906 0 0 0-3.913-3.896 3.906 3.906 0 0 0-3.912 3.896v19.482h66.28l.225-16.905c.02-1.663-1.017-3.065-2.467-3.652-.261-.385-.569-.754-.976-1.034-19.664-13.783-31.4-36.289-31.4-60.254 0-40.627 33.174-73.669 73.963-73.669 40.79 0 73.964 33.042 73.964 73.669 0 24.516-12.164 47.323-32.559 61.043-.39.245-.673.588-.939.936-.834.727-1.387 1.76-1.366 2.94l.224 16.905 66.301.021v-19.482a3.906 3.906 0 0 0-3.912-3.896z"/><path d="M176.333 128.512a85.145 85.145 0 0 0-5.215-5.832 89.265 89.265 0 0 0 5.215-5.833c8.713-10.742 11.416-20.257 7.616-26.798-2.887-4.97-9.145-7.598-18.088-7.598-4.985 0-10.673.825-16.762 2.352-4.822-16.675-12.798-27.395-21.989-27.395-9.198 0-17.169 10.72-21.99 27.395-6.095-1.527-11.778-2.352-16.768-2.352-8.953 0-15.201 2.627-18.089 7.598-3.801 6.541-1.09 16.062 7.617 26.798a89.559 89.559 0 0 0 5.228 5.856C71 135.185 65.664 147.401 70.255 155.32c2.888 4.97 9.136 7.597 18.09 7.597 4.982 0 10.672-.825 16.767-2.351 4.816 16.674 12.792 27.392 21.982 27.392 9.2 0 17.167-10.718 21.989-27.392 6.097 1.526 11.787 2.35 16.77 2.35 8.943 0 15.201-2.626 18.089-7.596 3.807-6.542 1.104-16.065-7.609-26.807zm-10.472-41.206c4.95 0 11.378.894 13.857 5.17 2.68 4.611.055 12.384-7.186 21.316a84.914 84.914 0 0 1-4.89 5.483c-4.246-3.978-9.091-7.879-14.382-11.606-.606-6.505-1.604-12.613-2.933-18.177 5.659-1.421 10.934-2.186 15.534-2.186zm-27.78 54.278a160.896 160.896 0 0 1-10.97 5.74 160.275 160.275 0 0 1-10.98-5.748 161.759 161.759 0 0 1-10.512-6.58c-.299-3.933-.46-8.04-.46-12.324 0-4.29.17-8.407.46-12.337a167.758 167.758 0 0 1 10.512-6.567 155.44 155.44 0 0 1 10.98-5.74 161.051 161.051 0 0 1 10.979 5.74 164.62 164.62 0 0 1 10.517 6.58c.3 3.933.462 8.041.462 12.324 0 4.284-.161 8.39-.462 12.323a160.228 160.228 0 0 1-10.525 6.589zm9.913-.344c-.576 4.794-1.36 9.26-2.32 13.353a125.706 125.706 0 0 1-12.813-4.67c2.563-1.3 5.12-2.667 7.662-4.133a162.794 162.794 0 0 0 7.471-4.55zm-26.635 8.688c-4.377 1.857-8.676 3.42-12.815 4.673-.96-4.093-1.742-8.559-2.318-13.353a168.59 168.59 0 0 0 7.464 4.55 166.099 166.099 0 0 0 7.67 4.13zm-20.86-18.582c-3.794-2.834-7.31-5.75-10.472-8.705 3.085-2.87 6.578-5.78 10.472-8.673-.153 2.84-.238 5.74-.238 8.704.006 2.955.09 5.84.238 8.674zm5.72-27.227c.576-4.794 1.358-9.26 2.319-13.353 4.137 1.245 8.436 2.809 12.813 4.665a170.264 170.264 0 0 0-7.67 4.13 172.822 172.822 0 0 0-7.462 4.558zm26.642-8.688c4.376-1.856 8.676-3.42 12.814-4.673.951 4.093 1.743 8.56 2.319 13.354a169.737 169.737 0 0 0-7.463-4.55 175.774 175.774 0 0 0-7.67-4.13zm20.86 18.582c3.778 2.827 7.279 5.727 10.434 8.667-3.155 2.94-6.656 5.848-10.433 8.666.145-2.834.23-5.719.23-8.666 0-2.948-.085-5.833-.23-8.667zm-26.61-51.74c6.395 0 13.066 8.848 17.35 23.804-5.581 1.673-11.433 3.895-17.35 6.597-5.921-2.702-11.772-4.924-17.352-6.597 4.282-14.956 10.948-23.804 17.351-23.804zM74.492 92.476c2.48-4.269 8.906-5.17 13.859-5.17 4.6 0 9.873.765 15.532 2.186-1.327 5.556-2.318 11.664-2.933 18.177-5.366 3.78-10.187 7.689-14.372 11.614a82.372 82.372 0 0 1-4.9-5.49c-7.24-8.933-9.857-16.706-7.186-21.317zm13.859 65.577c-4.953 0-11.379-.893-13.859-5.162-3.194-5.512 1.175-15.668 12.047-26.836 4.261 3.985 9.114 7.908 14.419 11.643.607 6.505 1.604 12.613 2.932 18.178-5.666 1.405-10.94 2.177-15.54 2.177zm38.758 25.034c-6.396 0-13.069-8.848-17.351-23.799 5.58-1.67 11.431-3.893 17.351-6.596 5.918 2.703 11.77 4.925 17.352 6.59-4.293 14.957-10.956 23.805-17.352 23.805zm52.608-30.204c-2.479 4.269-8.906 5.17-13.857 5.17-4.6 0-9.875-.764-15.534-2.185 1.329-5.565 2.32-11.673 2.933-18.177 5.29-3.728 10.136-7.637 14.381-11.606a82.881 82.881 0 0 1 4.89 5.482c7.25 8.932 9.868 16.705 7.187 21.316z"/><path d="M126.601 104.155c-10.242 0-18.572 8.283-18.572 18.468s8.33 18.477 18.572 18.477c10.242 0 18.572-8.284 18.572-18.477 0-10.185-8.33-18.468-18.572-18.468zm0 32.082c-7.548 0-13.69-6.108-13.69-13.614 0-7.505 6.142-13.613 13.69-13.613 7.548 0 13.69 6.108 13.69 13.613-.008 7.506-6.142 13.614-13.69 13.614z"/></g></svg>