<svg xmlns="http://www.w3.org/2000/svg" viewBox="0 0 250 250" height="250" width="250"><g fill-rule="evenodd"><path d="M244.05 187.187a4.553 4.553 0 0 0-4.56 4.542v13.628h-59.144l-.117-8.613c25.442-17.77 40.594-46.676 40.594-77.69 0-52.355-42.776-94.96-95.342-94.96-52.566 0-95.342 42.605-95.342 94.96 0 30.869 15.133 59.896 40.478 77.666.042.023.066.023.116.049l-.116 8.586H11.472V191.73a4.553 4.553 0 0 0-4.561-4.542 4.553 4.553 0 0 0-4.56 4.542v22.71h77.264l.262-19.706c.023-1.938-1.185-3.573-2.876-4.257-.304-.449-.663-.879-1.137-1.205-22.923-16.068-36.604-42.304-36.604-70.24 0-47.36 38.672-85.879 86.22-85.879 47.55 0 86.223 38.519 86.223 85.879 0 28.579-14.18 55.166-37.955 71.16-.455.285-.785.685-1.095 1.09-.972.848-1.617 2.052-1.592 3.428l.26 19.706 77.29.025v-22.71a4.553 4.553 0 0 0-4.56-4.543z"/><path d="M184.25 125.385a99.256 99.256 0 0 0-6.078-6.798 104.059 104.059 0 0 0 6.079-6.8c10.157-12.522 13.308-23.614 8.878-31.24-3.365-5.793-10.66-8.857-21.086-8.857-5.81 0-12.442.962-19.54 2.742-5.62-19.438-14.919-31.935-25.633-31.935-10.722 0-20.014 12.497-25.634 31.935-7.105-1.78-13.73-2.742-19.547-2.742-10.437 0-17.72 3.063-21.087 8.858-4.431 7.625-1.27 18.724 8.88 31.239a104.402 104.402 0 0 0 6.094 6.826c-14.115 14.551-20.335 28.792-14.984 38.023 3.367 5.794 10.65 8.856 21.089 8.856 5.807 0 12.44-.962 19.545-2.74 5.614 19.437 14.912 31.931 25.625 31.931 10.725 0 20.013-12.494 25.634-31.932 7.107 1.78 13.74 2.74 19.549 2.74 10.425 0 17.72-3.061 21.087-8.855 4.438-7.626 1.287-18.727-8.87-31.25zM172.044 77.35c5.77 0 13.264 1.042 16.154 6.027 3.124 5.375.064 14.436-8.377 24.849a98.987 98.987 0 0 1-5.7 6.391c-4.95-4.637-10.598-9.185-16.766-13.53-.707-7.582-1.87-14.703-3.42-21.189 6.598-1.656 12.747-2.548 18.11-2.548zm-32.384 63.274a187.561 187.561 0 0 1-12.788 6.69 186.837 186.837 0 0 1-12.8-6.7 188.567 188.567 0 0 1-12.254-7.67 189.48 189.48 0 0 1-.536-14.367c0-5 .198-9.8.536-14.381a195.56 195.56 0 0 1 12.254-7.656 181.201 181.201 0 0 1 12.8-6.691 187.742 187.742 0 0 1 12.799 6.691 191.903 191.903 0 0 1 12.26 7.67c.35 4.586.538 9.374.538 14.367 0 4.994-.187 9.78-.538 14.366a186.783 186.783 0 0 1-12.27 7.68zm11.556-.402c-.671 5.589-1.585 10.795-2.704 15.567a146.54 146.54 0 0 1-14.937-5.444 188.723 188.723 0 0 0 8.932-4.818 189.774 189.774 0 0 0 8.71-5.305zm-31.05 10.128c-5.101 2.165-10.113 3.987-14.938 5.448-1.119-4.772-2.03-9.978-2.702-15.566a196.53 196.53 0 0 0 8.701 5.304 193.627 193.627 0 0 0 8.941 4.814zM95.85 128.69c-4.423-3.304-8.522-6.703-12.208-10.148 3.597-3.346 7.668-6.738 12.208-10.11a187.76 187.76 0 0 0-.278 10.146c.007 3.445.105 6.808.278 10.112zm6.668-31.74c.671-5.588 1.583-10.794 2.703-15.566 4.823 1.452 9.834 3.275 14.937 5.439a198.482 198.482 0 0 0-8.942 4.814 201.464 201.464 0 0 0-8.698 5.313zm31.057-10.127c5.101-2.164 10.114-3.987 14.938-5.448 1.108 4.771 2.032 9.979 2.703 15.567a197.868 197.868 0 0 0-8.7-5.304 204.905 204.905 0 0 0-8.94-4.814zm24.317 21.661c4.404 3.296 8.486 6.676 12.164 10.104-3.678 3.427-7.76 6.817-12.163 10.102a197.4 197.4 0 0 0 .269-10.102c0-3.437-.1-6.8-.269-10.104zm-31.02-60.315c7.455 0 15.232 10.315 20.226 27.75-6.506 1.95-13.328 4.54-20.226 7.69-6.902-3.15-13.723-5.74-20.228-7.69 4.992-17.435 12.763-27.75 20.227-27.75zm-61.34 35.209c2.892-4.977 10.383-6.027 16.157-6.027 5.362 0 11.509.892 18.106 2.548-1.547 6.477-2.703 13.597-3.42 21.19-6.255 4.406-11.875 8.963-16.753 13.539a96.024 96.024 0 0 1-5.712-6.4c-8.44-10.414-11.491-19.475-8.377-24.85zm16.157 76.445c-5.774 0-13.265-1.041-16.156-6.018-3.724-6.425 1.37-18.264 14.043-31.283 4.967 4.645 10.625 9.218 16.809 13.572.707 7.584 1.87 14.704 3.418 21.191-6.605 1.638-12.753 2.538-18.116 2.538zm45.18 29.183c-7.455 0-15.234-10.315-20.226-27.743 6.505-1.947 13.326-4.539 20.227-7.69 6.899 3.151 13.72 5.742 20.228 7.683-5.005 17.435-12.772 27.75-20.228 27.75zm61.328-35.21c-2.89 4.977-10.382 6.027-16.154 6.027-5.362 0-11.511-.89-18.108-2.547 1.549-6.487 2.704-13.608 3.419-21.19 6.166-4.346 11.816-8.902 16.764-13.53a96.617 96.617 0 0 1 5.7 6.391c8.452 10.413 11.504 19.474 8.379 24.85z"/><path d="M126.277 96.991c-11.94 0-21.65 9.656-21.65 21.53 0 11.872 9.71 21.538 21.65 21.538 11.94 0 21.65-9.657 21.65-21.539 0-11.873-9.71-21.529-21.65-21.529zm0 37.4c-8.8 0-15.96-7.12-15.96-15.87s7.16-15.87 15.96-15.87c8.799 0 15.959 7.12 15.959 15.87-.01 8.75-7.16 15.87-15.96 15.87z"/></g></svg>