<svg width="226.777" height="226.777" viewBox="0 0 226.777 226.777" xmlns="http://www.w3.org/2000/svg"><path d="M107.14 225.869c-8.642-.655-17.025-2.095-24.341-4.18-38.691-11.025-68.453-41.745-78.299-80.82-2.317-9.196-3.216-16.742-3.224-27.058C1.263 95.51 4.758 80.25 12.653 64.136c8.223-16.783 19.989-30.645 35.878-42.274 4.082-2.987 12.728-7.928 18.385-10.505 15.126-6.893 29.767-10.044 46.598-10.03 22.8.02 42.945 6.044 61.765 18.469 5.518 3.643 7.21 4.898 11.21 8.317 17.705 15.137 30.322 35.512 36.039 58.2 2.317 9.197 3.217 16.743 3.224 27.059.013 18.302-3.481 33.561-11.377 49.675-8.223 16.782-19.989 30.645-35.878 42.274-11.068 8.1-28.005 15.47-42.186 18.355-8.417 1.713-22.015 2.735-29.171 2.193zm49.347-47.966c5.937-4.009 8.848-6.226 8.695-6.624-.267-.696-9.572-14.653-11.03-16.544l-.984-1.278 2.744-3.338c5.096-6.197 8.538-12.208 10.728-18.736 2.654-7.911 3.474-18.965 2.024-27.295-4.048-23.264-22.43-41.597-45.79-45.67-4.821-.842-13.898-.842-18.72 0-7.994 1.393-15.038 4.225-21.824 8.774-11.482 7.696-19.545 19.128-23.112 32.772-.995 3.805-1.244 5.85-1.416 11.65-.233 7.833.33 12.343 2.337 18.742 4.97 15.84 17.133 28.986 32.515 35.145 6.497 2.602 11.16 3.538 18.882 3.79 8.001.263 12.445-.313 19.216-2.491 2.988-.96 4.136-1.166 4.374-.78 1.476 2.388 12.064 17.886 12.227 17.896.114.006 4.225-2.7 9.134-6.013zm-27.907-22c-6.118-9.054-6.174-9.12-7.647-8.995-.817.07-4.056.162-7.2.206-4.78.066-6.285-.084-9.206-.918-14.51-4.142-24.863-17.695-24.863-32.547 0-24.378 25.569-40.896 47.742-30.842 19.058 8.641 25.82 32.625 14.052 49.835l-1.153 1.687.995 1.61c.547.886 3.322 5.025 6.167 9.198 2.844 4.173 5.172 7.752 5.172 7.954 0 .565-5.16 4.82-8.406 6.933-2.773 1.804-8.66 4.995-9.224 5-.147 0-3.04-4.104-6.43-9.12z" stroke-width=".44"/></svg>