<svg width="226.777" height="226.777" viewBox="0 0 226.777 226.777" xmlns="http://www.w3.org/2000/svg"><path d="M113.557 1.275c-8.152 0-10.115.124-16.393 1.032-18.46 2.67-36.556 10.227-51.404 21.46-8.176 6.187-16.138 14.149-22.324 22.325C12.202 60.94 4.648 79.034 1.976 97.494c-.907 6.277-1.033 8.242-1.033 16.393 0 8.152.126 10.114 1.034 16.392 2.67 18.46 10.225 36.557 21.459 51.405 4.698 6.21 11.857 13.784 17.343 18.35 18.732 15.59 39.9 24.266 64.287 26.353 3.008.258 16.611.11 19.47-.211 9.493-1.067 16.647-2.621 25.013-5.428 11.413-3.83 22.338-9.58 31.803-16.74 8.176-6.186 16.138-14.148 22.324-22.324 11.234-14.848 18.79-32.945 21.46-51.405.909-6.278 1.032-8.241 1.032-16.392 0-8.152-.123-10.116-1.031-16.393-2.671-18.46-10.227-36.554-21.461-51.402-6.186-8.176-14.148-16.138-22.324-22.324-14.848-11.234-32.945-18.79-51.405-21.461-6.277-.908-8.24-1.032-16.39-1.032zM78.23 49.996h31.762v95.289H78.23V49.996zm38.82 0h31.765v127.051h-31.764V49.996z"/></svg>