<svg width="226.777" height="226.777" viewBox="0 0 226.777 226.777" xmlns="http://www.w3.org/2000/svg"><path d="M184.368 222.635c-18.744-5.048-33.625-14.967-59.405-39.596l-15.23-14.552v-40.151l5.229 3.76c2.876 2.068 13.786 12 24.244 22.07 19.77 19.04 33.32 29.303 45.28 34.3l7.012 2.93v-10.305c0-10.111-.17-10.429-9.032-16.829-4.968-3.587-18.397-15.005-29.843-25.373l-20.81-18.85 10.351-1.129c12.51-1.363 20.572-5.287 27.309-13.293 20.243-24.057 14.339-54.17-13.062-66.616-6.414-2.914-12.692-3.504-37.646-3.538l-29.95-.042v133.106H68.239c-24.142 0-34.304-2.81-45.83-12.676-4.347-3.721-10.222-11.162-13.057-16.535l-5.153-9.77-.612-63.226-.612-63.225h32.6V61.76c0 57.696.07 58.77 4.278 64.995 2.353 3.48 7.059 7.46 10.458 8.843l6.18 2.515V3.094h49.24c44.737 0 50.427.368 62.24 4.017 22.62 6.986 39.032 21.62 46.509 41.47 3.331 8.843 3.861 13.616 3.185 28.673-.941 20.942-6.65 36.268-17.757 47.672-6.232 6.398-6.418 6.952-3.232 9.626 5.728 4.81 12.57 8.575 20.018 11.016l7.13 2.337v77.668l-14.736-.126c-8.105-.068-19.229-1.334-24.719-2.812z" stroke-width="1.902"/></svg>