<svg xmlns="http://www.w3.org/2000/svg" viewBox="0 0 250 250" height="250" width="250"><path d="M27.938 201.828c-1.226-6.413-.844-15.402.847-19.976 3.029-8.186 3.152-8.174 7.937.767 3.835 7.165 3.656 11.383-.847 19.976l-5.707 10.894zm33.918-17.118l-14.384-6.694 22.817-2.791c12.55-1.535 27.775-6.039 33.834-10.009 13.717-8.988 27.56-30.878 27.726-43.842.11-8.58.639-8.908 4.283-2.652 6.886 11.818-3.29 39.974-20.759 57.444-17.5 17.5-29.99 19.494-53.517 8.544zm1.895-30.23c-5.492-8.887 30.042-36.228 39.492-30.388 5.057 3.126 1.036 17.756-7.576 27.564-6.942 7.906-27.643 9.737-31.916 2.823zm-29.905-33.515c2.787-46.107 22.849-59.86 104.094-71.357 27.097-3.834 54.261-9.49 60.365-12.569 18.015-9.085 18.248-6.587 1.038 11.094-19.569 20.105-44.827 34.994-101.166 59.634-23.312 10.195-47.699 23.548-54.193 29.672l-11.807 11.134zm136.922-36.61c13.562-7.172 31.132-15.592 39.044-18.711l14.384-5.671-12.33 10.382c-15.236 12.829-32.547 21.07-51.373 24.455-12.58 2.262-11.292.95 10.275-10.455z" stroke-width="4.11"/></svg>