<svg xmlns="http://www.w3.org/2000/svg" width="226mm" height="226mm" viewBox="0 0 226 226"><path d="M115.961 118.412c-15.892-35.753-28.744-65.155-28.56-65.338.41-.412 74.277 9.747 74.82 10.29.374.374-15.5 111.466-16.754 117.232-.553 2.547-3.412-3.478-29.506-62.185zm1.793 65.13c-9.547-.258-10.044-.36-10.46-2.165C106.3 177.046 86.3 56.735 86.536 56.498c.192-.192 49.594 110.467 55.93 125.282l1.025 2.4-7.857-.184c-4.32-.102-12.367-.305-17.88-.454zM47.5 224.098c.245-1.057 8.7-39.155 18.788-84.662 10.088-45.507 18.445-82.84 18.57-82.964.167-.166 18.569 109.79 20.961 125.252.321 2.073-1.839 3.818-28.783 23.268-16.022 11.564-29.322 21.026-29.556 21.026-.234 0-.225-.864.02-1.92zm76.817-167.53c-17.87-2.465-32.999-4.651-33.619-4.858-.62-.206 13.233-4.935 30.783-10.506 17.553-5.571 32.296-10.267 32.766-10.433.47-.166 2.322 5.946 4.118 13.582 1.795 7.635 3.454 14.555 3.686 15.377.59 2.086-.127 2.026-37.734-3.162zm24.448 114.883c-.104-1.839 14.453-101.841 15.15-104.09.57-1.834.932-1.577 5.106 3.633 2.473 3.084 4.693 6.127 4.937 6.762.244.635-5.154 21.862-11.995 47.172-13.063 48.33-13.091 48.43-13.198 46.524zM91.062 48.647c.469-.48 10.21-7.1 21.65-14.71L133.51 20.1l9.515 4.054c5.233 2.23 9.812 4.306 10.177 4.615.363.31-13.085 4.912-29.887 10.229-16.799 5.316-31.121 9.86-31.826 10.095-.863.288-1.002.144-.427-.446zm-2.99-.592c0-.969 7.102-13.369 7.969-13.915 1.854-1.167 32.39-13.106 32.707-12.787.32.319-39.451 27.064-40.244 27.064-.237 0-.432-.164-.432-.362zm9.643-21.406c1.63-5.015 2.05-5.58 4.405-5.935 3.255-.488 26.336-1.295 25.945-.907-.402.399-31.031 12.385-31.649 12.385-.277 0 .307-2.494 1.299-5.543zm6.617-12.16c2.564-2.687 4.698-4.995 4.746-5.132.047-.136 4.735 1.763 10.417 4.22 5.682 2.46 10.254 4.526 10.16 4.593-.093.068-6.878.366-15.076.662l-14.908.54zm21.524.805c-8.101-3.566-14.73-6.71-14.73-6.988 0-.276 3.062-1.893 6.804-3.591l6.803-3.092 6.592 7.387c3.626 4.062 7.748 8.635 9.16 10.161 1.593 1.72 2.101 2.744 1.335 2.69-.679-.044-7.863-3-15.964-6.567zm10.688-2.1c-4.503-5.283-8.085-9.71-7.96-9.838.318-.326 18.668 7.41 19.463 8.207.529.528-2.443 11.237-3.12 11.237-.107 0-3.88-4.322-8.383-9.606zm.2-7.76l-10.675-4.407 7.212-.251 7.21-.25 4.734 4.732c2.604 2.605 4.162 4.7 3.463 4.66-.7-.043-6.075-2.06-11.945-4.484zm16.738 14.304c-1.3-4.5-2.236-8.31-2.08-8.464.36-.357 32.071 8.448 32.703 9.08.42.42-25.51 7.569-27.455 7.569-.442 0-1.867-3.683-3.168-8.184zm-4.215 5.53c-1.8-.95-3.104-2.18-2.9-2.738.206-.555 1.07-3.124 1.92-5.707l1.548-4.697 1.977 6.405c2.922 9.47 2.875 9.596-2.545 6.736z"/></svg>