<svg width="250" height="250" viewBox="0 0 250 250" xmlns="http://www.w3.org/2000/svg"><path d="M19.878 144.064c10.192 0 18.505-8.312 18.505-18.504 0-10.192-8.313-18.505-18.505-18.505-10.19 0-18.504 8.313-18.504 18.505 0 10.192 8.313 18.504 18.504 18.504m7.65 40.413c9.159 0 16.629-7.47 16.629-16.63 0-9.158-7.47-16.627-16.63-16.627-9.158 0-16.628 7.47-16.628 16.628 0 9.159 7.47 16.629 16.629 16.629m23.328 28.867c7.439 0 13.507-6.067 13.507-13.508 0-7.44-6.068-13.507-13.507-13.507-7.44 0-13.508 6.067-13.508 13.507 0 7.44 6.067 13.508 13.508 13.508M83.62 233.55c6.883 0 12.496-5.612 12.496-12.496 0-6.883-5.613-12.497-12.496-12.497s-12.497 5.613-12.497 12.497c0 6.884 5.614 12.497 12.497 12.497m41.48 8.66c6.295 0 11.43-5.135 11.43-11.43 0-6.297-5.135-11.43-11.43-11.43s-11.43 5.133-11.43 11.43c0 6.295 5.135 11.43 11.43 11.43m38.549-8.66c5.268 0 9.565-4.297 9.565-9.565s-4.297-9.565-9.565-9.565c-5.269 0-9.566 4.296-9.566 9.564 0 5.269 4.297 9.565 9.566 9.565m35.443-25.928c4.588 0 8.33-3.742 8.33-8.33 0-4.587-3.742-8.329-8.33-8.329-4.587 0-8.33 3.742-8.33 8.33 0 4.587 3.743 8.33 8.33 8.33m21.995-33.668c3.673 0 6.669-2.996 6.669-6.668 0-3.673-2.996-6.668-6.669-6.668-3.672 0-6.668 2.995-6.668 6.668 0 3.672 2.996 6.668 6.668 6.668" fill-rule="evenodd" stroke-width=".711"/><path d="M230.788 146.45c-10.217 0-18.504-8.286-18.504-18.504 0-10.217 8.287-18.504 18.504-18.504 10.218 0 18.504 8.287 18.504 18.504 0 10.218-8.286 18.505-18.504 18.505m-7.648-44.164c-9.183 0-16.63-7.448-16.63-16.63 0-9.182 7.447-16.629 16.63-16.629 9.182 0 16.629 7.447 16.629 16.63 0 9.181-7.447 16.629-16.63 16.629m-23.328-35.11c-7.458 0-13.507-6.049-13.507-13.507 0-7.46 6.05-13.508 13.506-13.508 7.46 0 13.51 6.049 13.51 13.507 0 7.46-6.05 13.508-13.509 13.508m-32.764-22.229c-6.9 0-12.498-5.596-12.498-12.496s5.598-12.497 12.498-12.497c6.9 0 12.497 5.596 12.497 12.497 0 6.9-5.596 12.496-12.498 12.496m-41.479-10.792c-6.311 0-11.43-5.12-11.43-11.431 0-6.311 5.119-11.43 11.43-11.43s11.43 5.118 11.43 11.43c0 6.312-5.119 11.43-11.43 11.43m-38.549 4.93c-5.281 0-9.565-4.282-9.565-9.564s4.284-9.566 9.565-9.566c5.282 0 9.566 4.284 9.566 9.566 0 5.282-4.284 9.565-9.566 9.565M51.574 62.543a8.331 8.331 0 0 1-8.33-8.33 8.33 8.33 0 1 1 8.33 8.33M29.58 92.887a6.668 6.668 0 1 1 0-13.336 6.668 6.668 0 0 1 0 13.336" fill="#4d4d4d" fill-rule="evenodd" stroke-width=".711"/><path d="M66.024 166.296c4.862-4.74 12.648-4.642 17.387.22 4.74 4.861 4.64 12.648-.22 17.387-4.862 4.74-12.649 4.64-17.388-.222-4.74-4.86-4.64-12.646.221-17.386m24.124 17.464c4.369-4.258 11.366-4.17 15.625.199 4.26 4.368 4.17 11.366-.199 15.625-4.368 4.259-11.366 4.17-15.625-.199-4.258-4.369-4.17-11.366.2-15.625m27.383 5.885a8.976 8.976 0 1 1 12.53 12.854 8.976 8.976 0 0 1-12.53-12.854m25.9-4.622a8.303 8.303 0 1 1 11.592 11.89 8.303 8.303 0 0 1-11.593-11.89m24.741-14.105a7.596 7.596 0 0 1 10.604 10.876 7.595 7.595 0 0 1-10.604-10.876m16.054-20.226a6.358 6.358 0 0 1 8.988.114 6.357 6.357 0 0 1-.115 8.988 6.356 6.356 0 0 1-8.873-9.102m5.983-27.6a5.535 5.535 0 0 1 7.727 7.925 5.535 5.535 0 0 1-7.727-7.925m-3.61-24.64a4.431 4.431 0 0 1 6.184 6.345 4.43 4.43 0 0 1-6.184-6.345" fill-rule="evenodd" stroke-width=".711"/><path d="M184.642 87.21c-4.86 4.74-12.647 4.641-17.386-.22-4.74-4.861-4.64-12.648.22-17.387 4.861-4.739 12.648-4.64 17.387.22 4.74 4.863 4.64 12.649-.22 17.388m-24.125-17.465c-4.369 4.26-11.366 4.171-15.625-.198-4.258-4.368-4.17-11.366.2-15.625 4.368-4.26 11.365-4.17 15.623.2 4.26 4.368 4.171 11.364-.198 15.623m-27.384-5.883c-3.547 3.46-9.232 3.387-12.692-.161a8.976 8.976 0 0 1 12.855-12.531 8.977 8.977 0 0 1-.162 12.692m-25.899 4.622a8.305 8.305 0 1 1 .15-11.742 8.305 8.305 0 0 1-.15 11.742M82.494 82.589a7.596 7.596 0 0 1-10.603-10.876A7.595 7.595 0 0 1 82.495 82.59m-16.054 20.226a6.355 6.355 0 1 1-8.872-9.102 6.355 6.355 0 0 1 8.872 9.102m-5.983 27.6a5.535 5.535 0 0 1-7.728-7.926 5.535 5.535 0 0 1 7.728 7.927m3.61 24.639a4.43 4.43 0 1 1-6.185-6.346 4.43 4.43 0 0 1 6.185 6.346" fill="#4d4d4d" fill-rule="evenodd" stroke-width=".711"/><path d="M115.78 164.601a6.734 6.734 0 1 1 13.441.844 6.734 6.734 0 0 1-13.44-.844m16.212-1.772a6.051 6.051 0 1 1 12.079.757 6.051 6.051 0 0 1-12.078-.757m13.28-7.673a4.917 4.917 0 0 1 5.213-4.599 4.916 4.916 0 0 1-.615 9.812 4.917 4.917 0 0 1-4.598-5.213m8.818-11.392a4.548 4.548 0 0 1 9.076.568 4.548 4.548 0 0 1-9.076-.568m4.864-14.818a4.16 4.16 0 1 1 8.302.52 4.16 4.16 0 0 1-8.302-.521m-.913-14.111a3.481 3.481 0 0 1 3.69-3.257 3.481 3.481 0 0 1-.434 6.948 3.48 3.48 0 0 1-3.256-3.691m-7.713-13.406a3.031 3.031 0 1 1 6.05.38 3.031 3.031 0 0 1-6.049-.38m-10.52-8.678a2.427 2.427 0 1 1 4.844.304 2.427 2.427 0 0 1-4.844-.304" fill-rule="evenodd" stroke-width=".711"/><path d="M134.887 88.904a6.734 6.734 0 1 1-13.437-.843 6.734 6.734 0 0 1 13.436.843m-16.212 1.773a6.051 6.051 0 1 1-12.078-.756 6.051 6.051 0 0 1 12.078.756m-13.281 7.673a4.916 4.916 0 0 1-9.811-.614 4.917 4.917 0 0 1 5.213-4.599 4.916 4.916 0 0 1 4.598 5.213m-8.818 11.393a4.548 4.548 0 0 1-9.077-.569 4.548 4.548 0 0 1 9.077.57m-4.864 14.817a4.16 4.16 0 0 1-4.411 3.891 4.159 4.159 0 1 1 4.411-3.891m.913 14.112a3.481 3.481 0 0 1-6.948-.435 3.48 3.48 0 0 1 6.949.435m7.711 13.405a3.03 3.03 0 1 1-6.05-.379 3.03 3.03 0 1 1 6.05.38m10.52 8.677a2.427 2.427 0 1 1-4.844-.304 2.427 2.427 0 0 1 4.844.304" fill="#4d4d4d" fill-rule="evenodd" stroke-width=".711"/></svg>