<svg xmlns="http://www.w3.org/2000/svg" width="226.8" height="226.8" viewBox="0 0 226.8 226.8"><path d="M113.736 10.842A102.552 102.552 0 0 0 11.184 113.395a102.552 102.552 0 0 0 102.552 102.55 102.552 102.552 0 0 0 102.551-102.55 102.552 102.552 0 0 0-102.55-102.553zm.223 12.469a90.647 90.647 0 0 1 90.646 90.648 90.647 90.647 0 0 1-90.646 90.646 90.647 90.647 0 0 1-90.648-90.646 90.647 90.647 0 0 1 90.648-90.648z" stroke-width="0"/><path d="M80.648 80.648v67.27h67.27v-67.27h-67.27zm6.672 6.672h53.926v53.926H87.32V87.32z" stroke-width="0"/></svg>