<svg xmlns="http://www.w3.org/2000/svg" width="226.8" height="226.8" viewBox="0 0 226.8 226.8"><path d="M113.085.631A113.085 113.085 0 0 0 0 113.717 113.085 113.085 0 0 0 113.085 226.8a113.085 113.085 0 0 0 113.084-113.083A113.085 113.085 0 0 0 113.086.631zm.246 13.75a99.957 99.957 0 0 1 99.956 99.958 99.957 99.957 0 0 1-99.956 99.956 99.957 99.957 0 0 1-99.958-99.956 99.957 99.957 0 0 1 99.958-99.958z" stroke-width="0"/><path d="M76.599 77.607v74.18h74.179v-74.18zm7.357 7.357h59.464v59.465H83.956z" stroke-width="0"/></svg>