<svg xmlns="http://www.w3.org/2000/svg" width="226mm" height="226mm" viewBox="0 0 226 226"><path d="M66.005 198.24l-48.797-28.02-.026-56.839-.027-56.839L65.463 28.84 113.77 1.136l1.452-.053 1.451-.055 48.783 27.898 48.783 27.899-.222 56.574-.222 56.575-48.597 27.887-48.598 27.887-.899.258-.901.255-48.795-28.021zm89.013-22.679l38.078-22.207 1.177-1.1 1.176-1.1-18.5-10.548-18.5-10.55V89.208l-1.576-.979-1.575-.977-19.872-11.439-19.874-11.436-16.125 9.362-16.125 9.362-1.95 1.028-1.95 1.03-9.573-5.495-9.572-5.492.273-.233.274-.233 27.18-15.896 27.184-15.896 30.738 17.58 30.737 17.578 6.195-3.373 6.196-3.374-.003-.45-.002-.45-36.93-20.99-36.93-20.989-39.894 23.239-39.892 23.24.373.45.372.45 18.188 10.367L72.503 95.56l.24 21.726.24 21.726 21.094 12.229 21.093 12.23h.8l18.71-10.782 18.708-10.781 5.829 3.258 5.828 3.26 2.545 1.448 2.545 1.447-.03.45-.03.45-27.463 15.929-27.461 15.93-30.67-17.504-30.669-17.505h-.459l-6.009 3.51-6.006 3.512 1.182.764 1.183.764 35.548 20.42 35.548 20.42 1.07-.346 1.07-.347zm-49.392-40.215l.47-2.024 1.986-9.477 1.985-9.476-3.187-3.186-3.187-3.187-.613-3.273-.614-3.271 1.667-3.402 1.668-3.402 3.058-2.037 3.058-2.036h5.191l3.1 1.295 3.102 1.296 1.816 2.979 1.817 2.978.003 3.42.003 3.42-1.344 2.6-1.345 2.601-2.01 1.407-2.01 1.408 2.13 10.57 2.13 10.573.421 1.125.42 1.125h-20.186z" stroke-width=".9"/></svg>