<svg width="226.777" height="226.777" viewBox="0 0 226.777 226.777" xmlns="http://www.w3.org/2000/svg"><g transform="translate(-1.074 -.708) scale(.8053)"><circle class="cls-2" cx="219.41" cy="40.47" r="19.91"/><path class="cls-1" d="M255.3 59.32c-4.53 8.59-12.04 15.36-21.16 18.92 12.44 18.05 19.73 39.91 19.73 63.44 0 61.81-50.29 112.1-112.1 112.1-61.81 0-112.1-50.29-112.1-112.1 0-61.81 50.28-112.1 112.1-112.1 13.09 0 25.66 2.26 37.34 6.4 1.1-9.98 5.84-18.87 12.85-25.33-15.59-5.99-32.52-9.29-50.2-9.29C64.4 1.36 1.45 64.31 1.45 141.68 1.45 219.05 64.4 282 141.77 282c77.37 0 140.32-62.95 140.32-140.32 0-30.75-9.95-59.21-26.79-82.36z"/><path class="cls-2" d="M132.05 90.62c3.89-2.78 9.35-4.18 16.39-4.18 10.42 0 22.67 3.89 36.75 11.66l12.1-24.43c-7.63-4.99-15.48-8.84-23.55-11.55-8.07-2.71-18.12-4.07-30.15-4.07-15.26.74-27.47 5.36-36.64 13.86-9.17 8.51-13.75 19.73-13.75 33.67 0 9.54 2.24 17.46 6.71 23.77 4.47 6.31 9.79 11.15 15.95 14.52 6.16 3.38 13.86 6.9 23.11 10.56 15.7 6.16 23.55 13.42 23.55 21.79 0 6.46-2.5 11.11-7.48 13.97-4.99 2.86-10.86 4.29-17.61 4.29-5.72 0-12.18-1.32-19.37-3.96-7.19-2.64-13.57-6.01-19.15-10.12l-14.08 24.87c8.21 5.87 17.09 10.23 26.63 13.09 9.54 2.86 19.15 4.29 28.83 4.29 11.59 0 21.57-2.09 29.93-6.27s14.71-9.83 19.04-16.95c4.33-7.12 6.49-14.86 6.49-23.22 0-9.68-1.8-17.68-5.39-23.99-3.6-6.31-8.11-11.26-13.53-14.85-5.43-3.59-11.96-6.78-19.59-9.57-9.39-3.52-16.91-7.22-22.56-11.11-5.65-3.88-8.47-8.4-8.47-13.53 0-5.57 1.94-9.75 5.83-12.54z"/></g></svg>