<svg xmlns="http://www.w3.org/2000/svg" width="226.777" height="226.777" viewBox="0 0 226.777 226.777"><path d="M101.761 213.667c-46.038-6.897-81.77-41.753-88.166-86.004-7.53-52.096 27.741-101.27 80.598-112.368 16.562-3.477 23.168-3.484 39.42-.04 36.41 7.714 64.395 31.78 76.56 65.842 6.951 19.46 6.951 45.685 0 65.144-11.031 30.887-35.732 54.26-67.198 63.589-10.762 3.19-32.204 5.187-41.214 3.837zm28.505-12.18c36.91-6.742 66.97-37.406 73.134-74.603 9.584-57.837-44.787-111.494-102.881-101.532-38.666 6.63-68.736 36.205-75.544 74.297-9.203 51.495 33.319 101.983 87.318 103.677 3.71.116 11.799-.711 17.973-1.84zm-35.33-13.814c-22.19-6.43-43.046-24.054-52.3-44.2-3.957-8.615-5.134-14.434-5.644-27.912l-.645-17.028 4.918 9.876c6.507 13.066 17.23 22.162 40.425 34.292 20.609 10.777 30.477 17.972 30.477 22.22 0 1.468.852 2.669 1.892 2.669 3.12 0 2.153-5.642-2.338-13.634-2.954-5.255-9.093-10.728-20.339-18.13-31.611-20.81-41.44-34.169-39.178-53.258 2.655-22.422 18.508-37.9 44.448-43.399 26.684-5.656 50.948 1.471 71.642 21.043 17.679 16.72 25.491 38.824 22.405 63.39l-1.366 10.878-3.585-9.587c-5.054-13.517-17.828-25.551-37.132-34.982-18.513-9.045-22.807-8.857-6.763.297 13.978 7.975 28.24 21.243 33.124 30.818 5.578 10.933 4.261 29.933-2.815 40.626-6.49 9.807-20.127 19.828-32.521 23.898-12.914 4.242-33.945 5.24-44.705 2.123zm36.393-4.054c23.411-7.977 36.264-33.421 27.48-54.402-3.464-8.276-15.708-18.937-30.031-26.15-26.17-13.178-33.451-21.341-30.947-34.692 1.959-10.44 14.177-18.07 24.707-15.427 6.971 1.75 16.884 11.255 20.805 19.95 2.17 4.812 4.713 7.661 6.84 7.661 4.935 0 5.197-1.413 3.08-16.636-2.217-15.94-2.7-16.378-21.537-19.557-36.986-6.24-67.482 19.014-59.365 49.16 3.133 11.635 11.447 19.784 33.62 32.956 22.176 13.174 27.186 18.622 27.34 29.733.134 9.749-4.145 16.14-12.696 18.961-14.15 4.67-28.553-3.453-39.025-22.008-9.509-16.85-14.718-12.965-11.131 8.3 2.412 14.304 3.635 15.623 19.926 21.492 11.688 4.21 29.66 4.5 40.934.659z" stroke-width="1.892"/></svg>