<svg xmlns="http://www.w3.org/2000/svg" width="226.777" height="226.777" viewBox="0 0 226.777 226.777"><path d="M99.918 226.297C48.335 218.57 8.3 179.516 1.133 129.935-7.304 71.565 32.215 16.47 91.438 4.034 109.995.138 117.397.13 135.606 3.989c40.795 8.643 72.15 35.608 85.78 73.772 7.789 21.804 7.789 51.187 0 72.99-12.359 34.607-40.035 60.795-75.29 71.247-12.059 3.574-36.083 5.812-46.178 4.3zm31.938-13.647c41.355-7.554 75.035-41.91 81.942-83.588C224.536 64.26 163.617 4.14 98.526 15.302c-43.323 7.429-77.014 40.566-84.642 83.245-10.312 57.697 37.332 114.266 97.834 116.164 4.157.13 13.22-.797 20.138-2.062zM92.27 197.173c-24.863-7.205-48.23-26.951-58.6-49.524-4.433-9.652-5.751-16.172-6.323-31.273l-.723-19.079 5.51 11.065c7.291 14.64 19.306 24.832 45.294 38.422 23.092 12.075 34.148 20.137 34.148 24.897 0 1.644.955 2.99 2.12 2.99 3.496 0 2.412-6.321-2.62-15.276-3.31-5.888-10.188-12.02-22.788-20.314-35.418-23.316-46.431-38.284-43.897-59.672 2.975-25.122 20.737-42.464 49.801-48.626 29.898-6.337 57.084 1.648 80.27 23.578 19.809 18.733 28.562 43.5 25.104 71.024l-1.53 12.188-4.017-10.741c-5.663-15.145-19.975-28.629-41.604-39.195-20.743-10.135-25.554-9.924-7.578.332 15.662 8.936 31.641 23.802 37.114 34.53 6.25 12.25 4.774 33.538-3.154 45.519-7.272 10.988-22.551 22.216-36.438 26.776-14.47 4.753-38.033 5.871-50.09 2.379zm40.776-4.542c26.23-8.938 40.631-37.447 30.79-60.955-3.882-9.272-17.6-21.217-33.648-29.299-29.322-14.765-37.48-23.911-34.675-38.87C97.71 51.809 111.4 43.26 123.197 46.222c7.81 1.96 18.918 12.61 23.31 22.353 2.432 5.391 5.281 8.583 7.665 8.583 5.529 0 5.822-1.583 3.45-18.64-2.484-17.86-3.025-18.35-24.13-21.912-41.44-6.991-75.61 21.304-66.515 55.08 3.51 13.037 12.826 22.168 37.669 36.926 24.847 14.76 30.46 20.865 30.633 33.314.15 10.923-4.644 18.084-14.225 21.245-15.855 5.232-31.992-3.87-43.725-24.659-10.655-18.88-16.491-14.526-12.472 9.3 2.702 16.026 4.073 17.504 22.326 24.08 13.096 4.717 33.232 5.042 45.864.739z" stroke-width="2.12"/></svg>