<svg width="226.777" height="226.777" viewBox="0 0 226.777 226.777" xmlns="http://www.w3.org/2000/svg"><path d="M115.18 225.47c-.221-.266-.326-1.258-.27-2.55l.092-2.116 1.274-.093c1.107-.08 1.3 0 1.465.619.298 1.114.231 3.32-.121 3.978-.38.71-1.9.812-2.44.162zm.488-7.994c-.383-.28-.583-1.004-.706-2.551-.195-2.466.094-3.068 1.626-3.384 1.302-.27 2.1.5 1.844 1.777-.1.504-.183 1.514-.183 2.246 0 1.985-1.232 2.898-2.58 1.912zm5.442-4.711c.003-.68.067-.922.14-.538.075.385.072.942-.004 1.237-.078.296-.138-.019-.135-.7zm-6.726-3.463c-.952-.223-1.391-1.01-1.391-2.491 0-1.823.378-2.414 2.002-3.133 1.397-.617 1.593-.944 1.778-2.972.062-.682.243-.928.684-.928.89 0 1.2 1.652 1 5.32-.217 3.983-.437 4.432-2.151 4.384-.717-.02-1.582-.1-1.922-.18zm-5.292-2.392c-.243-.635.1-1.504.497-1.258.172.106.312.454.312.774 0 .762-.57 1.103-.809.484zm11.9-.716c-.183-.467-.402-2.311-.485-4.097-.119-2.533-.054-3.376.294-3.835.246-.323.59-.5.766-.39.775.478.817 9.173.044 9.173-.157 0-.435-.383-.618-.85zm-8.423-5.72c-.239-.893-.243-7.594-.005-8.482.203-.756.818-1.095 1.508-.83 1.328.51 1.788 8.333.562 9.56-.701.7-1.847.563-2.064-.248zm4.567-4.727c-.12-.48-.138-6.365-.04-13.076.187-12.64.279-13.428 1.428-12.28.886.886.686 20.487-.25 24.4-.397 1.661-.862 2.052-1.137.956zm9.795.49c-.21-.13-.337-.639-.28-1.13.074-.654.267-.894.72-.894.466 0 .641.237.712.965.098 1.008-.437 1.501-1.152 1.06zm-5.528-1.313c-.39-.39-.543-7.169-.183-8.107.29-.758 1.584-.594 2.152.273.4.61.479 1.414.394 4.045-.09 2.82-.19 3.345-.706 3.721-.733.536-1.17.554-1.657.068zm-21.02-.789c-.122-.297-.215-1.281-.206-2.186.018-1.732.536-2.479 1.287-1.855.41.339.555 3.193.21 4.093-.251.653-1.014.623-1.291-.052zm26.432-2.746c-.12-.12-.217-.472-.217-.784 0-.402.23-.567.794-.567.646 0 .776.13.696.693-.098.685-.855 1.077-1.273.658zm-18.151-16.347v-13.45h-5.566l.003-3.17c.005-4.633.193-5.443 1.435-6.175.57-.336 1.035-.835 1.035-1.109 0-.273-.521-1.032-1.16-1.685l-1.159-1.188.022-4.236c.013-2.47.165-4.501.365-4.871.478-.885 3.646-2.375 5.42-2.548 3.12-.305 3.996 1.964 5.173 13.412.714 6.948.758 8.814.24 10.247-.651 1.799.182 2.379 4.527 3.151 2.63.468 4.072 1.516 4.606 3.348l.429 1.471h3.336l.094-1.124c.076-.913-.062-1.246-.737-1.778-.458-.36-1.13-.653-1.494-.653-1.497 0-6.366-2.845-6.366-3.72 0-.412 1.822-1.514 5.825-3.522l3.451-1.73v17.939h-4.02l-.017 3.787c-.01 2.083-.116 4.345-.236 5.025-.21 1.192-.264 1.24-1.523 1.331l-1.305.095-.082-7.825-.083-7.825-2.705-.089-2.706-.09v20.433h-6.802zm18.215 12.194c-.334-.209-.356-.4-.094-.822.552-.886 1.359-.878 1.359.013 0 .845-.596 1.226-1.265.809zm-26.75-2.003c-.269-1.075.637-2.109 1.462-1.667.319.17.58.625.58 1.01 0 1.481-1.697 2.027-2.041.657zm26.656-2.486c-.103-.27-.187-1.852-.187-3.518 0-2.25.114-3.124.442-3.396.692-.574 1.104.54 1.102 2.976-.003 3.165-.783 5.431-1.357 3.938zm4.34-1.83c-.11-.283-.198-1.738-.198-3.234 0-2.04.115-2.816.463-3.105.408-.338.464.005.46 2.822-.005 3.162-.305 4.615-.726 3.517zm-30.48-.734c-.181-.34-.33-.984-.33-1.432 0-.668.126-.797.696-.716.586.083.696.29.696 1.31 0 1.348-.554 1.785-1.062.838zm-.124-4.574c-.701-.702.285-4.12 1.052-3.646.321.198.393 2.601.1 3.363-.192.502-.786.648-1.151.283zm36.301-1.779c-.542-.654-.281-1.57.448-1.57.472 0 .614.207.614.9 0 1.03-.5 1.346-1.062.67zm-5.759-2.473c-.526-.384-.613-.903-.703-4.174l-.104-3.736h4.157l-.155 3.76c-.13 3.175-.243 3.826-.72 4.175-.733.536-1.72.526-2.475-.025zm-33.53-4.973v-2.937h8.039v5.875h-8.04zm39.694.11c-.15-.23-.317-2.751-.374-5.601-.096-4.824-.057-5.28.576-6.587.374-.772 1.03-1.634 1.458-1.914.74-.485.804-.476 1.332.175.323.4.64 1.488.76 2.614.326 3.038.164 3.644-1.223 4.583-1.501 1.017-1.667 1.422-1.7 4.147-.03 2.33-.35 3.328-.83 2.584zm-43.545-1.274c-.423-1.39-.536-4.737-.784-23.263-.265-19.796-.407-23.345-.937-23.345-.51 0-.689 2.033-.929 10.513-.137 4.847-.261 8.847-.276 8.89-.082.24-2.804.025-2.965-.234-.105-.172-.305-7.58-.443-16.465s-.353-16.398-.477-16.695c-.125-.298-.416-.542-.647-.542-.878 0-1.143 1.397-1.3 6.86l-.158 5.509H79.29v-6.142c0-6.54.285-9.003 1.183-10.246.793-1.098 5.665-3.486 7.111-3.486 1.933 0 2.414.307 3.176 2.027.578 1.305.738 2.305.839 5.235l.124 3.622 1.033.61c1.34.79 2.018 2.17 3.365 6.848 1.28 4.445 1.314 4.881.486 6.24-.34.556-.618 1.54-.618 2.185-.001 1.167.127 1.35 2.198 3.12.514.44.582.948.57 4.287-.008 2.488-.167 4.213-.46 5.025-.244.68-.447 1.6-.45 2.045-.005 1.06 1.076 2.405 2.367 2.944l1.03.43-.001 7.03c0 3.867-.09 8.378-.2 10.023l-.198 2.993-2.351.213c-2.503.226-3.43.715-3.438 1.812-.007 1.09-.343 1.987-.81 2.167-.245.094-.498 0-.562-.21zm36.678-10.493c.078-3.933.236-5.88.52-6.383.225-.398.324-1.06.222-1.468-.268-1.067-1.823-1.04-2.533.043-.434.663-.488 1.342-.343 4.293l.173 3.506-3.317 1.575c-4.201 1.995-5.686 2.516-7.173 2.516-.994 0-1.265-.145-1.643-.876-.864-1.67-2.3-17.873-1.719-19.4.372-.977 1.025-.975 10.09.038 9.069 1.014 10.37 1.296 10.652 2.308.262.94.336 9.479.09 10.394-.096.362-.515.812-.929 1-1.2.547-1.495 1.76-.73 2.996.504.817.619 1.442.546 2.982l-.093 1.95-1.962.092-1.962.093zm7.988-5.194c-.546-.546-.619-1.031-.619-4.12 0-2.42.155-3.955.503-4.976.477-1.4.473-1.512-.077-2.187-.32-.392-1.226-1.508-2.016-2.48-1.695-2.088-4.36-6.476-5.082-8.367-.489-1.279-.483-1.394.123-2.667.895-1.878 2.373-9.834 1.827-9.834-.09 0-.395 1.043-.679 2.317-.564 2.535-1.13 3.376-2.07 3.078-.332-.106-1.297-.026-2.144.177-1.44.346-1.613.32-2.687-.393-1.828-1.213-5.573-4.4-8.303-7.062-2.222-2.168-2.54-2.619-2.727-3.858-.263-1.752-1.267-2.398-2.583-1.66-.758.426-.973.896-1.443 3.16-.244 1.176-6.628 7.736-8.306 8.536-1.556.74-2.826.565-3.515-.486-.59-.901-2.399-6.32-2.876-8.618-.283-1.365-.26-1.805.14-2.578.909-1.758.657-2.692-1.056-3.923-2.048-1.471-3.557-4.376-3.31-6.373.309-2.498.72-4.115 1.36-5.353.79-1.528 5.573-7.933 8.016-10.734 2.602-2.983 3.6-3.644 5.509-3.644 1.559 0 8.303 1.562 12.3 2.85 1.873.603 2.281.635 3.87.308 2.595-.534 8.93-1.234 13.424-1.483 3.83-.212 3.947-.2 5.265.573 1.849 1.084 8.507 8.107 10.523 11.101.66.98.735 1.338.541 2.61-.282 1.863-.612 2.128-6.592 5.302-6.623 3.516-8.936 4.465-11.453 4.7-2.604.242-3.456.972-2.923 2.502.663 1.903 2.191 2.005 3.81.256 1.675-1.81 4.12-3.315 10.825-6.66 6.194-3.091 5.99-3.037 9.045-2.407 3.117.643 4.744-4.673 1.806-5.9-.557-.233-1.308-.347-1.668-.253-.981.257-2.483-.826-4.89-3.523-4.86-5.445-6.46-7.736-6.144-8.796.118-.394 1.556-2.013 3.197-3.599 3.087-2.982 2.9-3.202-.573-.673-2.393 1.743-2.708 1.913-5.105 2.765-4.47 1.588-21.673 2.317-27.052 1.146-4.508-.982-8.273-2.317-9.453-3.354-.945-.83-1.185-.909-1.838-.611-.44.2-.823.698-.925 1.203-.335 1.652-1.73 3.985-5.047 8.436-4.214 5.656-6.38 8.04-7.308 8.04-.958 0-2.258 1.083-2.77 2.31-.365.872-1.03 1.323-4.708 3.19-2.355 1.196-4.617 2.465-5.026 2.82-1.008.877-1.834.821-2.202-.147-.166-.436-.301-2.636-.301-4.888 0-3.069-.111-4.245-.443-4.695-.69-.934-1.232-.12-1.413 2.12-.153 1.9-.163 1.919-1.16 2.015-.893.086-1.004.01-1.004-.682 0-.428.644-2.976 1.431-5.663 2.32-7.918 3.775-13.264 4.298-15.797.27-1.305.714-2.62.988-2.923.274-.302 2.249-1.476 4.389-2.607 4.44-2.348 17.236-9.647 19.883-11.342 2.09-1.339 2.285-1.651 2.76-4.424.461-2.687.308-3.03-3.96-8.858l-3.197-4.364.01-5.113c.018-9.65.501-17.575 1.21-19.848 1.066-3.418 4.785-7.74 8.49-9.865 3.044-1.745 5.243-2.3 8.997-2.271 3.82.03 6.43.744 9.689 2.654 2.73 1.6 5.956 5.015 7.291 7.716 1.08 2.186 1.15 2.518 1.425 6.772.159 2.46.292 8.11.295 12.557l.007 8.085-3.046 3.979c-3.934 5.138-4.183 5.63-3.981 7.854.247 2.725.958 3.887 3.31 5.408 3.369 2.18 12.794 7.42 18.404 10.231 2.891 1.45 5.375 2.749 5.519 2.887.144.14.59 1.902.993 3.918.401 2.016 1.919 7.82 3.37 12.898 1.453 5.078 2.641 9.562 2.641 9.964 0 .795-.962 1.44-2.705 1.816l-1.005.216v3.023c0 4.22-.31 6.843-.834 7.043-.734.282-.861-.165-1.043-3.653-.316-6.048-1.515-5.041-1.764 1.48l-.157 4.117h-3.552l-.12 6.32c-.065 3.475-.222 6.423-.35 6.55-.702.703-.964-.85-1.214-7.22-.328-8.329-.537-10.097-1.206-10.223-.747-.14-.892 1.126-.892 7.787 0 6.574-.496 15.285-.936 16.443-.216.568-.514.75-1.228.75-1.327 0-1.546-.804-1.546-5.68 0-3.024-.114-4.25-.433-4.688-.406-.555-.454-.514-.756.637-.559 2.125-.99 9.221-1.19 19.55l-.192 9.971H140c-.62 0-1.28-.247-1.652-.618zM125.776 25.994c1.461-1.016 2.227-3.287 1.733-5.14-.353-1.324-2.001-2.893-3.35-3.19-2.035-.447-4.055 1.603-4.055 4.115 0 3.74 3.072 6.023 5.672 4.215zm-14.706-.007c1.49-1.044 2.295-4.084 1.492-5.637-.583-1.128-2.14-2.473-3.157-2.728-1.633-.41-4.452 2.618-4.452 4.78 0 1.239.872 2.806 1.914 3.441 1.226.748 3.243.817 4.203.144zM88.168 148.105c-.121-.122-.22-1.572-.22-3.224 0-3.316.24-3.815 1.758-3.641.812.093.884.219 1.094 1.91.124.994.123 2.525-.003 3.4-.221 1.548-.257 1.594-1.318 1.684-.6.05-1.19-.007-1.311-.13zm-12.452-9.296c-.227-2.118-.015-7.744.304-8.063.418-.418.596.425.731 3.452.152 3.42-.117 6.677-.551 6.677-.145 0-.362-.93-.484-2.066zm49.8-.886c-8.351-.939-9.467-1.25-10.76-3-1.515-2.048-1.28-2.62 1.705-4.13.898-.454 3.416-1.933 5.594-3.286 4.394-2.728 4.67-2.776 6.526-1.146 1.919 1.684 6.214 9.033 6.424 10.99l.096.896-2.937.047c-1.616.026-4.608-.141-6.648-.37zm28.189-.655c-.294-.294-.247-3.58.058-4.06.465-.733 1.033.432 1.02 2.093-.015 1.937-.402 2.643-1.078 1.967zm-50.68-1.205c-.466-.253-1.062-.876-1.326-1.386-.537-1.04-1.53-7.196-1.27-7.875.093-.242.65-.641 1.24-.887 1.447-.605 1.845-1.451 1.602-3.402-.179-1.426-.103-1.735.732-2.996 1.405-2.122 7.573-8.016 8.388-8.016 1.235 0 5.591 3.373 10.264 7.948 3.309 3.24 3.546 3.8 2.165 5.111-1.64 1.557-11.957 7.658-12.949 7.658-.225 0-.632.338-.903.752-.394.602-.42.887-.133 1.425.492.92.165 1.155-2.345 1.686-2.704.573-4.385.568-5.465-.018zm40.476-.032c-.38-.38-.212-1.878.254-2.264 1.053-.874 3.03.679 2.528 1.987-.189.49-2.353.706-2.782.277zm10.196-6.968c-.104-.39-.192-2.319-.194-4.284-.003-2.623.114-3.734.439-4.175.764-1.035 1.147-.11 1.304 3.153.171 3.577-.15 5.784-.865 5.922-.3.058-.568-.185-.684-.616zm-78.25-2.279c-.636-.635-.624-1.954.02-2.2 1.136-.437 2.148 1.26 1.335 2.24-.474.57-.754.562-1.356-.04zm3.892-3.519c.065-2.083.247-3.528.475-3.755.204-.204 1.421-.437 2.706-.52l2.335-.15v7.812h-5.62zm-6.347-2.201c-1.19-.936-1.09-2.146.279-3.347.6-.528 1.164-.96 1.252-.96.488 0 2.011 1.02 2.284 1.53.496.926.375 2.343-.247 2.906-.788.712-2.58.648-3.568-.13zm81.884-4.756c-1.352-1.352-.847-3.368 1.12-4.474 1.375-.773 1.89-.624 3.19.92 1.105 1.314 1.03 2.197-.287 3.353-1.396 1.226-2.922 1.302-4.023.2zm-79.285-1.546c-.644-.775-.261-1.56.761-1.56.639 0 .952.169 1.026.555.123.638-.453 1.454-1.026 1.454-.213 0-.556-.202-.76-.449zm-3.826-.066c-.113-.113-.206-.53-.206-.928 0-.519.177-.721.628-.721.779 0 1.117.78.606 1.395-.416.501-.708.573-1.028.254zm3.504-4.434c-.279-.52-.25-.815.14-1.41.272-.414.612-.752.758-.752.531 0 1 .912.903 1.759-.128 1.118-1.28 1.376-1.801.403zm-3.709-.77c-.313-.377-.322-.656-.042-1.271.387-.85.884-.859 1.409-.026.627.994-.63 2.186-1.367 1.297zm3.72-3.536c-.175-.33-.32-.855-.32-1.168 0-.84.877-1.945 1.543-1.945.789 0 1.032.953.626 2.459-.375 1.394-1.28 1.714-1.848.654zm-3.966-2.09c-.413-.803-.68-3.582-.469-4.882.11-.672.43-1.245.81-1.448 1.115-.597 1.483.404 1.383 3.757-.082 2.756-.13 2.948-.762 3.038-.41.058-.787-.124-.962-.464z" stroke-width=".309"/></svg>