<svg xmlns="http://www.w3.org/2000/svg" width="226.777" height="226.777" viewBox="0 0 226.777 226.777"><path d="M113.394 192.677c-1.419-2.48-4.34-6.865-6.492-9.743l-3.912-5.232 7.082-.211c3.896-.117 10.036-.117 13.645 0l6.562.211-4.162 5.527c-2.29 3.04-4.43 5.638-4.758 5.773-.328.135-.595.598-.595 1.028 0 .914-3.878 7.209-4.422 7.179-.203-.012-1.53-2.05-2.948-4.532zM96.075 166.87c-8.638-12.38-17.474-20.423-31.023-28.238l-5.826-3.36 4.79.446c17.77 1.653 32.692 5.515 44.252 11.452 3.889 1.998 7.42 3.633 7.848 3.633 1.18 0 15.752-17.196 15.113-17.835-.307-.307-4.362-1.411-9.012-2.454l-13.245-2.971c-2.635-.591-7.608-1.594-11.051-2.23-3.443-.635-8.086-1.636-10.318-2.225-2.23-.589-8.036-1.88-12.9-2.868-10.932-2.222-31.426-6.861-31.752-7.188-.133-.133 2.463-2.55 5.769-5.371 13.624-11.63 32.529-30.393 45.82-45.48l5.032-5.71h33.898l14.105 14.186c7.757 7.802 16.163 15.663 18.678 17.467 2.516 1.804 4.457 3.397 4.313 3.54-.59.59-16.88-2.15-25.087-4.221-8.818-2.225-16.217-4.969-24.142-8.954-4.732-2.38-5.467-2.512-6.71-1.2-3.11 3.285-13.025 15.336-13.025 15.832 0 .331 2.902 1.22 6.449 1.973 3.546.754 9.765 2.183 13.818 3.176 4.053.992 8.033 1.933 8.844 2.09 7.072 1.372 23.721 4.997 28.263 6.153 5.786 1.472 29.71 6.704 30.657 6.704 1.119 0-.195 1.39-6.964 7.367-13.447 11.874-29.715 28.138-37.596 37.588-2.535 3.04-5.228 6.078-5.984 6.751-.756.673-1.375 1.437-1.375 1.698 0 .26-.912 1.617-2.027 3.014l-2.026 2.54-16.95-.012-16.951-.012-3.685-5.281zm7.001-116.01c0-.247 1.26-1.988 2.798-3.868 3.808-4.653 10.465-14.68 10.48-15.785.007-.495.73.261 1.608 1.68 4.05 6.549 9.738 14.786 10.995 15.924.763.69 1.387 1.535 1.387 1.878 0 .342-6.135.622-13.634.622-7.498 0-13.634-.202-13.634-.45z" stroke-width=".737"/></svg>