<svg xmlns="http://www.w3.org/2000/svg" width="226.777" height="226.777" viewBox="0 0 226.777 226.777"><path d="M110.767 217.293c-1.861-3.253-5.693-9.006-8.516-12.781l-5.132-6.864 9.29-.277c5.111-.153 13.166-.153 17.9 0l8.609.277-5.46 7.25c-3.004 3.989-5.812 7.397-6.242 7.574-.43.177-.78.785-.78 1.349 0 1.199-5.088 9.457-5.801 9.417-.267-.015-2.008-2.689-3.868-5.945zm-22.72-33.855c-11.331-16.24-22.923-26.791-40.697-37.043l-7.642-4.408 6.283.585c23.312 2.168 42.887 7.235 58.052 15.023 5.101 2.621 9.734 4.766 10.295 4.766 1.548 0 20.664-22.558 19.826-23.397-.403-.402-5.722-1.85-11.822-3.219l-17.376-3.897c-3.456-.776-9.98-2.091-14.497-2.926-4.517-.833-10.607-2.146-13.535-2.919-2.926-.772-10.542-2.466-16.923-3.762-14.341-2.915-41.226-9-41.654-9.43-.174-.174 3.231-3.345 7.568-7.045 17.873-15.257 42.673-39.871 60.109-59.663l6.601-7.49h44.469l18.503 18.61c10.176 10.234 21.203 20.547 24.503 22.913 3.3 2.367 5.847 4.457 5.658 4.644-.774.774-22.144-2.82-32.91-5.537-11.568-2.919-21.275-6.519-31.67-11.746-6.208-3.122-7.173-3.296-8.803-1.574-4.08 4.309-17.087 20.118-17.087 20.769 0 .434 3.807 1.6 8.46 2.588 4.652.989 12.81 2.864 18.127 4.166 5.317 1.302 10.538 2.536 11.602 2.742 9.277 1.8 31.118 6.555 37.076 8.072 7.59 1.93 38.975 8.794 40.218 8.794 1.467 0-.256 1.824-9.136 9.665-17.64 15.576-38.981 36.912-49.32 49.31-3.326 3.987-6.858 7.972-7.85 8.855s-1.804 1.885-1.804 2.228c0 .34-1.196 2.121-2.659 3.954l-2.658 3.332-22.235-.016-22.237-.016zm9.185-152.186c0-.324 1.653-2.608 3.67-5.074 4.996-6.104 13.729-19.258 13.748-20.708.01-.649.958.343 2.11 2.204 5.313 8.592 12.774 19.397 14.423 20.89 1.001.905 1.82 2.014 1.82 2.464 0 .448-8.048.816-17.886.816-9.836 0-17.885-.265-17.885-.59z" stroke-width=".967"/></svg>