<svg xmlns="http://www.w3.org/2000/svg" width="226mm" height="226mm" viewBox="0 0 226 226"><g stroke-width="8.809"><path d="M120.601 203.456c2.785-2.892 5.481-5.66 5.99-6.151.51-.492 3.758-4.14 7.218-8.106 19.337-22.17 29.422-38.478 30.262-48.94.392-4.887.163-5.935-2.424-11.104-4.946-9.885-20.491-24.211-39.064-36.003l-6.675-4.237V16.896l4.03 2.327c3.667 2.117 11.26 6.979 13.367 8.56.469.35 4.478 3.08 8.909 6.065 7.915 5.331 26.13 18.832 30.457 22.575a3172.77 3172.77 0 0 0 6.87 5.91c7.193 6.175 16.743 16.325 22.022 23.41 8.076 10.836 11.195 20.423 9.424 28.958-4.02 19.358-34.21 51.234-78.598 82.983-3.589 2.566-6.951 5.049-7.473 5.516-1.584 1.42-8.081 5.513-8.751 5.513-.345 0 1.65-2.365 4.436-5.257z" fill="#999"/><path d="M104.454 207.527c-38-24.578-57.77-39.711-72.972-55.86-22.972-24.403-24.735-39.09-7.463-62.158 13.432-17.94 37.388-39.536 69.229-62.41 7.097-5.098 13.209-9.273 13.582-9.276.373-.004-3.826 4.867-9.333 10.824-11.582 12.53-19.44 22.163-26.669 32.69-11.568 16.848-13.957 26.702-8.783 36.232 5.165 9.514 22.152 24.942 39.652 36.013l6.575 4.16v35.485c0 37.52.078 36.82-3.818 34.3z"/></g></svg>