<svg xmlns="http://www.w3.org/2000/svg" width="226mm" height="226mm" viewBox="0 0 226 226"><g stroke-width="8.809"><path d="M123.36 215.054c3.141-3.262 6.182-6.383 6.756-6.937.575-.555 4.238-4.67 8.14-9.142 21.81-25.004 33.183-43.396 34.13-55.196.443-5.511.184-6.693-2.733-12.523-5.578-11.148-23.11-27.306-44.057-40.605l-7.529-4.778V4.648l4.546 2.625c4.135 2.387 12.699 7.87 15.075 9.654.529.395 5.05 3.473 10.048 6.84 8.927 6.012 29.47 21.24 34.35 25.46a3578.308 3578.308 0 0 0 7.748 6.666c8.112 6.964 18.883 18.412 24.837 26.402 9.108 12.221 12.626 23.034 10.628 32.66-4.534 21.832-38.582 57.782-88.644 93.59-4.048 2.893-7.84 5.694-8.428 6.22-1.787 1.602-9.114 6.218-9.87 6.218-.389 0 1.861-2.667 5.003-5.929z" fill="#999"/><path d="M105.15 219.645c-42.858-27.72-65.155-44.786-82.3-63-25.908-27.522-27.896-44.086-8.417-70.102 15.15-20.234 42.167-44.59 78.078-70.388 8.004-5.75 14.897-10.458 15.318-10.461.42-.005-4.315 5.489-10.526 12.207C84.241 32.033 75.378 42.897 67.225 54.77c-13.045 19-15.74 30.115-9.905 40.863 5.825 10.73 24.983 28.13 44.72 40.616l7.415 4.692v40.02c0 42.316.088 41.526-4.306 38.684z"/></g></svg>