<svg xmlns="http://www.w3.org/2000/svg" width="226.777" height="226.777" viewBox="0 0 226.777 226.777"><g transform="translate(14.55 15.055) scale(3.57457)" fill="none"><circle r="28" cy="28" cx="28" fill="#000"/><path d="M20.209 18.504h15.704c.556 0 1.111.082 1.691.352.696.325 1.065.836 1.323 1.213a3.524 3.524 0 0 1 .517 1.844c0 .597-.142 1.247-.46 1.814l-.01.016-9.922 17.043a1.217 1.217 0 0 1-2.108-.007l-9.74-17.007-.008-.014c-.223-.367-.568-.935-.628-1.668a3.322 3.322 0 0 1 .435-1.935 3.306 3.306 0 0 1 1.461-1.341c.658-.307 1.324-.31 1.745-.31zm6.574 2.435h-6.574c-.432 0-.598.027-.714.08a.87.87 0 0 0-.385.354.888.888 0 0 0-.116.517c.009.104.051.222.3.632l.015.027 7.474 13.05zm2.434 0v14.724l7.647-13.135a1.33 1.33 0 0 0 .145-.615c0-.188-.04-.35-.126-.519a1.957 1.957 0 0 0-.194-.248.357.357 0 0 0-.114-.083c-.18-.084-.365-.124-.662-.124z" clip-rule="evenodd" fill="#fff" fill-rule="evenodd"/></g></svg>