<svg xmlns="http://www.w3.org/2000/svg" width="226.8" height="226.8" viewBox="0 0 226.8 226.8"><path d="M109.793 29.908c3.494-1.853 7.574-4.92 11.614-2.587 9.146 5.04 18.72 9.387 27.56 14.974-5.147 9.28-10.307 18.546-15.76 27.64-9.054.346-18.12-.067-27.187.2-4.253.56-5.253-4.28-7.093-7.027-3.52-7.08-8.627-13.507-11.227-20.933 6.773-4.907 14.84-8.014 22.093-12.267zM75.7 48.068c.92-.187 2.773-.573 3.707-.76 4.453 6.893 8.053 14.307 12.346 21.32 1.294 2.56 3.8 5.413 2.067 8.373-2.987 6.147-6.76 11.894-9.8 18.027-1.547 2.827-3.307 7-7.253 6.44-7.627-.133-15.254-.173-22.88-.413-1.56.146-3.294-.974-3.2-2.654-1.187-10.666-2.974-21.306-3.254-32.04-.253-2.946 2.347-4.653 4.654-5.786C60.007 56.52 67.82 52.24 75.7 48.068zm69.68 18.907c4.333-6.64 7.173-14.294 12.32-20.347 8.72 4.613 17.36 9.333 26.16 13.787 2.76 1.306 5.747 3.8 5.12 7.226-.72 8.467-2.227 16.854-2.68 25.36-.613 2.614.213 6.614-2.787 7.92-8.066.494-16.16.347-24.24.56-3.066.36-5.013-2.4-6.226-4.786-3.44-6.64-7.254-13.094-10.774-19.707-2.066-3.627 1.707-6.893 3.107-10.013zm-43.4 13.786c4.64-2.213 9.88-.933 14.8-1.2 5.227.267 10.6-.72 15.72.44 4.08 3.067 5.587 8.454 8.493 12.547 2.507 5.013 7.787 9.973 5.707 16.053-4.133 6.534-7.667 13.44-11.733 20.014-2.374 4.066-7.627 3.213-11.587 3.373-6.947-.293-14.053.787-20.827-1.187-4.546-7.306-8.573-14.906-13.093-22.226-1.587-2.387-.387-5.174.747-7.44 3.653-6.947 8.16-13.414 11.773-20.374zm-48.44 29.627c8.533.093 17.093-.28 25.6.347 2.787 1.2 3.8 4.306 5.307 6.68 3.106 5.706 6.6 11.213 9.333 17.12 1.28 2.253-.027 4.586-1.107 6.6-4.52 8.04-9.093 16.04-13.746 24-11.414-16.694-20.587-35.04-25.387-54.747zm103.44.373c8.453-.653 16.947-.293 25.427-.373-4.387 19.733-13.747 38.053-25.2 54.573-5.36-9.146-10.867-18.266-15.654-27.733 1.707-6.213 5.787-11.493 8.667-17.227 2.12-3.12 3.227-7.4 6.76-9.24zm-53.36 30.814c9.787-.467 19.907-.92 29.6.24 5.573 8.026 9.68 17.013 14.893 25.28 1.254 2.453 3.96 5.64 1.28 8.133-8.12 9.613-17.28 18.427-27.373 25.973-1.987 1.84-5.147 2.4-7.28.44-10.173-7.4-19.173-16.306-27.48-25.733-1.333-1.32-2.507-3.56-1.16-5.307 4.867-8.48 9.773-16.946 14.52-25.493.947-1.187 1.307-3.227 3-3.533z" stroke-width=".125"/></svg>