<svg xmlns="http://www.w3.org/2000/svg" width="226.8" height="226.8" viewBox="0 0 226.8 226.8"><path d="M104.696 5.837c4.426-2.348 9.596-6.234 14.714-3.278 11.588 6.386 23.718 11.893 34.918 18.972-6.521 11.757-13.059 23.497-19.968 35.018-11.47.439-22.957-.084-34.445.254-5.388.71-6.655-5.423-8.986-8.903-4.46-8.97-10.93-17.113-14.224-26.521 8.58-6.217 18.801-10.154 27.99-15.542zM61.5 28.845c1.166-.237 3.513-.726 4.697-.963C71.839 36.615 76.4 46.008 81.84 54.894c1.639 3.243 4.814 6.858 2.618 10.608-3.784 7.788-8.564 15.07-12.416 22.84-1.96 3.581-4.19 8.868-9.19 8.159-9.662-.169-19.325-.22-28.987-.524-1.977.185-4.174-1.234-4.055-3.362C28.306 79.1 26.042 65.62 25.688 52.02c-.32-3.732 2.973-5.895 5.896-7.33 10.034-5.138 19.933-10.56 29.917-15.846zm88.282 23.954c5.49-8.412 9.088-18.11 15.609-25.779 11.048 5.845 21.994 11.825 33.144 17.468 3.497 1.655 7.281 4.814 6.487 9.155-.913 10.727-2.822 21.353-3.396 32.13-.777 3.312.27 8.38-3.53 10.035-10.22.625-20.475.44-30.712.71-3.885.455-6.351-3.042-7.888-6.065-4.359-8.412-9.19-16.59-13.65-24.968-2.618-4.595 2.162-8.733 3.936-12.686zM94.797 70.266c5.878-2.804 12.517-1.182 18.75-1.52 6.623.338 13.43-.913 19.917.557 5.17 3.886 7.079 10.71 10.76 15.896 3.177 6.352 9.867 12.636 7.231 20.339-5.236 8.278-9.713 17.028-14.865 25.357-3.008 5.151-9.663 4.07-14.68 4.273-8.802-.37-17.805.997-26.387-1.504-5.76-9.256-10.862-18.885-16.589-28.159-2.01-3.024-.49-6.555.947-9.426 4.628-8.802 10.338-16.995 14.916-25.813zm-61.372 37.536c10.811.118 21.656-.355 32.434.44 3.531 1.52 4.815 5.455 6.724 8.463 3.935 7.23 8.362 14.206 11.825 21.69 1.621 2.855-.035 5.81-1.403 8.362a2082.01 2082.01 0 0 1-17.416 30.407c-14.46-21.15-26.083-44.394-32.164-69.362zm131.055.473c10.71-.828 21.471-.372 32.215-.473-5.558 25.001-17.417 48.212-31.928 69.142-6.79-11.588-13.768-23.142-19.833-35.137 2.163-7.871 7.332-14.56 10.981-21.826 2.686-3.953 4.089-9.375 8.565-11.706zm-67.605 39.04c12.4-.592 25.221-1.166 37.502.304 7.06 10.168 12.264 21.555 18.869 32.029 1.588 3.108 5.017 7.145 1.621 10.304-10.287 12.18-21.893 23.346-34.68 32.907-2.518 2.331-6.521 3.04-9.224.557-12.889-9.375-24.291-20.659-34.816-32.603-1.689-1.672-3.176-4.51-1.47-6.723 6.167-10.744 12.382-21.47 18.397-32.3 1.2-1.503 1.656-4.088 3.8-4.475z" stroke-width=".158"/></svg>