<svg xmlns="http://www.w3.org/2000/svg" width="226.8" height="226.8" viewBox="0 0 226.8 226.8"><g stroke-width="6.706"><path d="M50.345 197.934C-25.075 164.49 6.121 54.804 98.858 27.357c84.315-24.954 147.48 34.447 111.646 104.993-29.417 57.914-106.383 89.432-160.159 65.584zm103.858-22.33c43.56-26.196 49.724-87.694 12.027-119.988C108.633 6.276 14.709 72.804 43.37 142.64c5.066 12.342 16.173 27.406 24.683 33.474 20.113 14.342 61.865 14.095 86.15-.51zm-73.635-63.447c0-26.36 2.269-46.912 5.041-45.672 16.785 7.51 74.699 43.44 74.704 46.346.008 3.885-69.56 47.252-75.799 47.252-2.17 0-3.946-21.567-3.946-47.926z"/><path d="M50.526 194.792c-53.31-24.655-57.52-88.605-8.804-133.717C112.541-4.506 220.218 17.67 220.11 97.815c-.054 39.446-45.993 88.16-96.342 102.163-35.247 9.802-41.843 9.335-73.241-5.186zm103.365-17.908c23.194-12.21 39.659-41.8 39.659-71.27 0-15.215-6.464-27.892-22.597-44.316-19.037-19.381-27.331-23.005-52.657-23.005-36.438 0-66.158 22.206-77.804 58.132-20.568 63.445 50.26 113.7 113.4 80.459zm-73.323-59.089c0-23.879 1.72-45.166 3.821-47.306 3.874-3.943 75.564 36.003 75.793 42.231.104 2.817-57.877 38.765-74.573 46.235-2.772 1.24-5.04-17.281-5.04-41.16z"/><path d="M62.843 200.005c-11.577-3.403-29.086-15.913-38.91-27.799C9.285 154.484 6.686 145.925 9.49 124.638c7.52-57.088 62.344-99.877 127.968-99.877 33.765 0 39.723 2.281 60.078 23.005 23.932 24.364 27.789 43.356 15.508 76.355-20.009 53.763-95.579 91.942-150.202 75.884zm96.058-24.899c20.006-13.345 34.649-42.713 34.649-69.492 0-15.215-6.464-27.892-22.597-44.316-19.168-19.515-27.248-23.005-53.265-23.005-25.654 0-34.728 3.788-55.494 23.162-21.576 20.13-24.825 27.12-24.825 53.418 0 63.339 67.056 96.573 121.532 60.233zm-72.799-59.423c-1.216-23.973.247-43.581 3.252-43.573 9.309.024 64.32 34.81 64.32 40.673 0 3.049-14.706 14.755-32.68 26.015L88.312 159.27z"/><path d="M34.782 183.357C-6.52 147.974 6.125 84.36 61.938 46.759c23.341-15.726 34.641-18.615 72.823-18.615 40.532 0 47.096 1.936 63.622 18.76 38.168 38.859 15.819 108.806-44.83 140.306-38.873 20.19-92.744 18.443-118.77-3.853zm107.475 1.341c28.968-12.482 44.451-31.677 49.106-60.877 10.59-66.444-53.46-109.062-115.122-76.6C54.839 58.49 34.046 94.09 34.046 119.466c0 22.477 20.148 52.54 42.858 63.951 25.291 12.708 38.248 12.962 65.353 1.282zM87.214 112.72c0-22.328 1.374-40.596 3.052-40.596 6.471 0 63.408 37.35 63.408 41.596 0 4.5-55.539 39.597-62.659 39.597-2.09 0-3.8-18.268-3.8-40.597z"/><path d="M53.984 196.263C13.527 179.74-.009 139.47 20.44 96.467 58.809 15.775 178.644-1.411 211.646 69.045c10.337 22.069 10.223 25.158-2.042 55.286-18.372 45.13-56.551 71.454-107.402 74.05-21.037 1.074-42.735.12-48.218-2.118zm88.819-11.679c67.695-28.796 68.647-123.529 1.467-146.1C92.325 21.03 34.046 62.07 34.046 116.103c0 27.35 18.696 57.602 41.968 67.906 27.067 11.985 39.708 12.094 66.789.574zm-55.589-72.427c0-22.639 2.243-40.146 4.985-38.905 15.152 6.856 61.38 36.597 61.424 39.518.052 3.507-57.824 40.547-63.357 40.547-1.678 0-3.052-18.522-3.052-41.16z"/><path d="M45.844 190.133c-23.51-12.99-31.736-29.499-31.736-63.698 0-23.052 4.235-32.098 24.923-53.238C52.738 59.19 58.373 54.551 51.553 62.89c-6.82 8.337-13.931 28.99-15.803 45.895-5.249 47.408 17.45 74.621 71.402 85.604 21.637 4.405 20.94 4.771-9.969 5.243-18.276.279-41.379-3.995-51.34-9.498zM154.353 178.6c12.42-8.422 28.15-26.88 34.957-41.017 11.012-22.873 11.378-28.373 3.318-49.93-10.52-28.143-34.558-48.47-66.354-56.113l-22.445-5.395 25.136-.692c31.553-.87 67.945 14.244 77.342 32.12 3.95 7.513 7.18 26.474 7.18 42.136 0 25.038-3.897 32.444-32.28 61.34-17.754 18.075-36.14 32.864-40.858 32.864-4.718 0 1.583-6.891 14.004-15.313zm-67.139-66.042V71.02l24.923 15.128c44.19 26.822 44.429 28.26 8.143 49.027l-33.066 18.923z"/></g></svg>