<svg xmlns="http://www.w3.org/2000/svg" width="226mm" height="226mm" viewBox="0 0 226 226"><path d="M109.81 210.776l-1.277-.056-2.848-.212-2.848-.21-2.848-.394-2.847-.394-3.34-.67-3.338-.672-2.553-.695-2.553-.695-2.75-.903-2.75-.903-2.749-1.074-2.75-1.073-4.32-2.13-4.32-2.13-2.554-1.542-2.553-1.542-1.866-1.252-1.866-1.253-2.17-1.609-2.169-1.609-2.446-2.036-2.445-2.036-3.641-3.641-3.641-3.641-2.037-2.446-2.036-2.446-1.61-2.17-1.611-2.169-1.592-2.386-1.59-2.386-1.612-2.808-1.61-2.807-1.718-3.546-1.718-3.546-1.076-2.75-1.076-2.75-.903-2.749-.903-2.75-.695-2.553-.695-2.553-.581-2.791-.581-2.791-.485-3.395-.485-3.396-.237-2.75-.238-2.749v-5.106l.002-5.106.24-2.652.24-2.651.392-2.848.391-2.848.492-2.553.493-2.553.587-2.357.588-2.356.78-2.554.78-2.553 1-2.745.998-2.745.984-2.263.983-2.263 1.34-2.678 1.34-2.678 1.501-2.611 1.5-2.611 1.782-2.665 1.78-2.665 1.487-1.964 1.486-1.964 1.957-2.357 1.958-2.357 3.645-3.64 3.644-3.639 2.357-1.962 2.357-1.963 1.964-1.486 1.964-1.486 2.651-1.77 2.651-1.77 2.652-1.54 2.651-1.54 3.732-1.802 3.731-1.802 1.964-.791 1.964-.792 2.259-.789 2.258-.788 2.259-.694 2.258-.694 2.357-.586 2.357-.586 2.553-.493 2.553-.493 2.946-.4 2.946-.402 2.455-.19 2.455-.19 2.946-.127 2.946-.125 3.928.222 3.928.222 1.866.194 1.865.195 2.652.406 2.651.406 2.357.476 2.357.476 2.99.785 2.989.784 2.706.9 2.706.9 2.75 1.079 2.749 1.078 3.74 1.816 3.74 1.816 2.642 1.534 2.643 1.534 2.6 1.73 2.601 1.732 1.997 1.511 1.996 1.512 2.375 1.966 2.376 1.966 3.64 3.65 3.639 3.65 1.962 2.357 1.963 2.357 1.486 1.964 1.486 1.964 1.781 2.665 1.781 2.665 1.5 2.61 1.501 2.612 1.365 2.725 1.365 2.725 1.151 2.702 1.15 2.703.9 2.553.899 2.553.798 2.652.797 2.651.687 2.957.687 2.958.48 2.836.478 2.837.304 2.65.304 2.652.211 4.174.212 4.173-.212 4.174-.211 4.173-.304 2.651-.304 2.652-.479 2.836-.479 2.837-.687 2.957-.687 2.957-.797 2.651-.798 2.652-.9 2.553-.9 2.553-.87 2.062-.87 2.062-1.532 3.167-1.533 3.167-1.608 2.802-1.607 2.802-1.786 2.673-1.787 2.672-1.486 1.964-1.486 1.964-1.963 2.357-1.962 2.357-3.64 3.644-3.64 3.645-2.356 1.958-2.357 1.957-1.964 1.486-1.964 1.486-2.665 1.781-2.665 1.782-2.61 1.5-2.612 1.5-2.678 1.34-2.678 1.34-2.75 1.176-2.75 1.175-2.552.9-2.553.9-2.652.797-2.651.798-2.957.687-2.958.686-2.836.48-2.837.479-2.65.302-2.652.302-3.732.2-3.731.2-1.571-.036-1.572-.037zm13.028-6.627l2.718-.304 2.48-.403 2.48-.403 2.725-.597 2.724-.596 2.683-.784 2.683-.784 1.767-.602 1.768-.602 2.946-1.18 2.946-1.178 3.437-1.717 3.437-1.717 1.67-.973 1.668-.973 1.228-.77 1.227-.77v-.336l-1.012-2.288-1.012-2.287-1.31-2.75-1.31-2.75-1.638-3.043-1.64-3.045-1.073-1.865-1.073-1.866-1.961-3.142-1.961-3.143-2.256-3.202-2.256-3.203-1.876-2.395-1.876-2.394-2.007-2.357-2.006-2.357-2.529-2.678-2.529-2.679-2.26-2.133-2.26-2.133-1.472-1.302-1.47-1.301-1.442-.723-1.442-.723-1.995-.665-1.996-.665-1.964-.397-1.964-.396-2.357-.3-2.356-.3-4.714-.401-4.713-.402-2.553-.3-2.554-.299-2.877-.573-2.877-.573-2.425-.79-2.426-.79-2.615-1.297-2.616-1.296-.593-.815-.594-.815-.845-1.767-.846-1.768-.617-1.866-.617-1.866-.482-2.374-.483-2.374-.29-2.437-.29-2.438-.236-5.106-.235-5.107-.052-.068-.051-.068-1.634 1.232-1.634 1.231-2.258 1.868-2.259 1.869-2.949 2.958-2.948 2.959-1.491 1.865-1.491 1.866-1.18 1.768-1.18 1.767-.886 1.768-.885 1.767-.518 1.55-.518 1.55-.166 1.495-.166 1.494.144 1.2.143 1.202.33.996.331.996.74 1.141.74 1.142.28.228.28.229 1.472-.17 1.473-.171 4.124-.133 4.125-.133 3.83.23 3.83.231 2.749.298 2.75.297 3.436.582 3.437.582 3.535.873 3.535.873 2.259.713 2.258.713 2.75 1.081 2.75 1.082 2.64 1.294 2.639 1.295 2.263 1.363 2.263 1.363 1.775 1.277 1.775 1.277 1.473 1.227 1.473 1.227 2.458 2.527 2.459 2.527.44.623.442.624-2.605-1.632-2.605-1.631-2.455-1.411-2.455-1.412-5.303-2.632-5.303-2.632-3.119-1.287-3.119-1.287-3.2-1.077-3.2-1.078-2.646-.678-2.646-.678-2.321-.403-2.322-.403-2.711-.194-2.712-.194-2.273.2-2.272.199-1.737.379-1.737.379-1.5.6-1.499.6-1.31.77-1.312.77-1.42 1.2-1.419 1.2-1.45 2.204-1.451 2.204-7.293 11.069-7.294 11.07.002.125.003.125 1.796 2.16 1.796 2.16 3.75 3.754 3.75 3.753 2.49 2.053 2.491 2.053 2.616 1.861 2.615 1.862 2.062 1.294 2.062 1.293 1.45.834 1.451.833 3.263 1.62 3.264 1.622 2.945 1.182 2.946 1.182 2.357.782 2.357.782 2.16.608 2.16.607 2.706.602 2.705.601 2.99.466 2.99.466 2.554.217 2.553.217.786.077.785.076 5.597-.065 5.598-.066 2.718-.303zm55.036-26.114l4.166-4.148 2.047-2.491 2.047-2.491 1.862-2.616 1.861-2.615 1.294-2.062 1.293-2.062.834-1.45.833-1.451 1.621-3.263 1.62-3.263 1.179-2.946 1.178-2.946.602-1.768.602-1.767.798-2.733.798-2.732.675-3.16.675-3.16.394-2.65.394-2.652.255-2.455.255-2.455v-11.98l-.255-2.455-.255-2.455-.394-2.651-.394-2.652-.675-3.16-.675-3.16-.798-2.731-.798-2.732-.604-1.768-.605-1.768-.97-2.455-.971-2.455-1.101-2.356-1.101-2.357-1.268-2.357-1.267-2.357-.888-1.473-.887-1.472-1.57-2.357-1.57-2.357-1.59-2.088-1.59-2.088-1.995-2.33-1.995-2.332-3.21-3.154-3.21-3.154-2.258-1.87-2.258-1.868-1.572-1.181-1.57-1.182-2.357-1.57-2.357-1.571-1.473-.886-1.473-.886-2.162-1.178-2.162-1.178-2.612-1.221-2.612-1.222-2.395-.942-2.394-.943-2.062-.702-2.062-.701-2.393-.69-2.393-.69-3.204-.685-3.205-.685-2.651-.394-2.652-.394-2.455-.255-2.455-.255h-11.98l-2.455.255-2.455.255-2.651.394-2.651.394-3.16.675-3.16.675-2.732.798-2.732.798-1.768.605-1.767.604-2.455.973-2.455.972-2.29 1.06-2.291 1.06-2.423 1.307-2.423 1.307-1.473.887-1.473.888-2.357 1.57-2.357 1.571-1.571 1.182-1.571 1.181-2.259 1.869-2.258 1.869-3.21 3.154-3.21 3.154-1.994 2.331-1.995 2.331-1.59 2.088-1.59 2.088-1.57 2.357-1.57 2.357-.886 1.472-.885 1.473-1.178 2.162-1.179 2.162-1.191 2.552-1.192 2.551-.967 2.455-.967 2.455-.618 1.768-.617 1.768-.79 2.732-.789 2.732-.675 3.16-.674 3.16-.394 2.65-.395 2.652-.254 2.455-.255 2.455v11.98l.253 2.455.253 2.455.479 3.112.479 3.11.689 3.076.69 3.075.857 2.848.857 2.848.742 2.062.74 2.062 1.133 2.713 1.131 2.713.119.118.118.119.066-.082.066-.082 1.84-4.026 1.84-4.026 2.598-5.205 2.597-5.204 2.1-3.83 2.1-3.83 2.058-3.437 2.06-3.437L50 114.378l2.605-3.927 1.441-1.964 1.442-1.964 1.86-2.357 1.86-2.357 1.773-2.062 1.773-2.062 3.151-3.161 3.15-3.161 1.768-1.528 1.768-1.529 2.568-1.93 2.568-1.93 2.234-1.387 2.233-1.387 2.08-1.064 2.08-1.063 2.152-.882 2.153-.881 2.652-.91 2.651-.91 2.553-.66 2.553-.66 2.946-.497 2.946-.495 3.045-.235 3.044-.235 3.044.119 3.044.118 2.334.308 2.335.307 2.295.484 2.295.485 1.591.476 1.592.476 2.027.72 2.028.718 3.339 1.622 3.339 1.622 1.866 1.132 1.865 1.132 1.893 1.347 1.892 1.346 2.821-.296 2.821-.295 2.455-.296 2.455-.296 3.339-.115 3.339-.115 2.455.237 2.455.236 2.258.382 2.259.38 3.24.802 3.24.802 4.693 1.559 4.693 1.558.252.142.252.141-5.043.017-5.043.018-2.847.335-2.848.336-2.236.497-2.235.498-1.987.688-1.987.688-2.553 1.227-2.553 1.228-1.67 1.14-1.67 1.139-1.963 1.618-1.964 1.617-1.885 1.948-1.885 1.947-1.226 1.654-1.225 1.653-1.06 1.8-1.06 1.8-.676 1.58-.676 1.58-.594 1.856-.595 1.857-.39 1.94-.391 1.94-.234 2.456-.235 2.455.126 3.24.125 3.24.285 2.214.285 2.212.332 1.808.332 1.807.512.398.511.398 2.351 1.965 2.351 1.965 2.475 2.455 2.475 2.455 1.67 1.964 1.67 1.963 1.18 1.572 1.18 1.57 1.41 2.11 1.41 2.109 1.366 2.438 1.364 2.438.81 1.738.81 1.737.945 2.357.945 2.357.904 2.817.903 2.818v.565l.428-.229.427-.229 4.167-4.147zm-37.722-72.662l.982-.459.645-.544.644-.544.558-.812.558-.812.647-1.571.647-1.572 1.392-1.374 1.391-1.375 2.16-1.114 2.16-1.114 2.357-.781 2.357-.782 2.356-.507 2.357-.506 1.845-.294 1.844-.293.103-.103.103-.103-2.831.003-2.831.003-2.848.189-2.848.189-1.767.213-1.768.214-2.088.383-2.089.384-2.036.572-2.036.572-1.964.802-1.964.802-1.57.91-1.572.91-1.431 1.075-1.432 1.074-.532.698-.533.698v1.827l.532.805.533.804.691.527.691.527 1.133.466 1.134.466 1.669.003 1.67.003.981-.458zm-29.937-3.78l1.067-.312 1.138-.603 1.137-.602 1.062-1.147 1.063-1.148.59-1.237.591-1.238.233-1.413.234-1.413-.234-1.413-.233-1.413-.59-1.237-.591-1.238-1.094-1.18-1.093-1.182-1.63-.807-1.63-.808-1.758-.1-1.759-.1-1.057.246-1.056.246-1.329.689-1.328.69-1.068 1.153-1.068 1.153-.59 1.238-.591 1.237-.234 1.413-.233 1.413.233 1.413.234 1.413.59 1.238.591 1.237 1.055 1.14 1.055 1.14 1.036.563 1.036.564 1.09.349 1.092.35 1.486.01 1.487.01 1.066-.313z" stroke-width=".196"/></svg>