<svg xmlns="http://www.w3.org/2000/svg" width="226mm" height="226mm" viewBox="0 0 226 226"><path d="M108.576 225.852l-1.466-.064-3.272-.244-3.27-.241-3.272-.453-3.27-.452-3.836-.77-3.834-.772-2.932-.798-2.933-.798-3.158-1.037-3.159-1.037-3.157-1.234-3.159-1.232-4.962-2.447-4.962-2.446-2.933-1.772-2.932-1.77-2.144-1.439-2.143-1.439-2.492-1.848-2.492-1.848-2.81-2.338-2.807-2.339-4.182-4.182-4.182-4.182-2.34-2.81-2.338-2.809-1.85-2.492-1.85-2.491-1.829-2.741-1.826-2.74-1.851-3.226-1.85-3.224-1.973-4.073-1.973-4.072-1.236-3.159-1.236-3.159-1.037-3.157-1.037-3.159-.798-2.932-.799-2.932-.667-3.206-.667-3.206-.557-3.9-.557-3.9-.273-3.158L0 118.966v-5.864l.002-5.865.276-3.046.276-3.045.45-3.271.449-3.271.565-2.933.566-2.932.675-2.707.675-2.706.896-2.934.896-2.932 1.148-3.153 1.147-3.153 1.13-2.599 1.129-2.6 1.539-3.075 1.539-3.076 1.724-2.999 1.723-2.999 2.047-3.06 2.044-3.062 1.708-2.255 1.707-2.256 2.248-2.707 2.248-2.708 4.187-4.18 4.185-4.18 2.708-2.254 2.707-2.254 2.256-1.707 2.256-1.707 3.044-2.033 3.045-2.033 3.046-1.769 3.045-1.769 4.287-2.07 4.285-2.069 2.256-.909 2.256-.91 2.594-.905 2.594-.906 2.594-.797 2.594-.797 2.707-.673 2.707-.673 2.933-.566 2.932-.566 3.384-.46 3.383-.462 2.82-.218 2.82-.218 3.384-.146 3.383-.143 4.512.255 4.512.255 2.143.222 2.142.224 3.046.467 3.045.466 2.707.547 2.707.546 3.434.902 3.434.9 3.108 1.034 3.108 1.034 3.158 1.24 3.158 1.237 4.295 2.086 4.296 2.086 3.035 1.762 3.035 1.762 2.987 1.987 2.987 1.99 2.294 1.735 2.292 1.736 2.728 2.259 2.73 2.258 4.18 4.192 4.18 4.192 2.253 2.708 2.255 2.707 1.707 2.256 1.706 2.255 2.046 3.061 2.046 3.061 1.723 2.998 1.724 3 1.567 3.13 1.568 3.13 1.322 3.103 1.321 3.105 1.034 2.932 1.032 2.933.917 3.046.915 3.045.79 3.396.789 3.397.55 3.258.55 3.258.349 3.044.35 3.046.242 4.794.243 4.793-.243 4.794-.243 4.793-.349 3.045-.35 3.046-.55 3.258-.55 3.258-.789 3.397-.789 3.396-.915 3.045-.917 3.046-1.033 2.932-1.034 2.932-1 2.369-.999 2.368-1.76 3.638-1.76 3.637-1.847 3.219-1.846 3.218-2.051 3.07-2.053 3.069-1.706 2.256-1.707 2.256-2.255 2.707-2.253 2.707-4.181 4.185-4.18 4.187-2.707 2.249-2.707 2.248-2.256 1.707-2.256 1.706-3.06 2.046-3.062 2.047-2.998 1.723-3 1.722-3.075 1.54-3.076 1.539-3.159 1.35-3.159 1.35-2.93 1.034-2.933 1.033-3.046.916-3.045.916-3.396.79-3.398.787-3.257.552-3.259.55-3.043.347-3.046.347-4.287.23-4.285.229-1.805-.041-1.805-.043zm14.964-7.612l3.122-.349 2.848-.463 2.849-.463 3.13-.685 3.128-.685 3.082-.9 3.082-.901 2.03-.691 2.03-.692 3.384-1.355 3.383-1.353 3.948-1.972 3.948-1.972 1.918-1.118 1.916-1.118 1.41-.884 1.41-.884v-.386l-1.163-2.628-1.162-2.627-1.505-3.159-1.505-3.158-1.881-3.495-1.884-3.498-1.232-2.142-1.233-2.143-2.252-3.609-2.252-3.61-2.591-3.678-2.592-3.679-2.154-2.75-2.155-2.75-2.305-2.707-2.304-2.707-2.905-3.076-2.905-3.077-2.596-2.45-2.595-2.45-1.691-1.496-1.689-1.494-1.656-.83-1.656-.83-2.292-.765-2.292-.763-2.256-.456-2.256-.455-2.707-.345-2.706-.344-5.414-.461-5.414-.462-2.932-.344-2.933-.344-3.305-.658-3.304-.658-2.786-.907-2.786-.908-3.004-1.49-3.004-1.488-.681-.936-.683-.936-.97-2.03-.972-2.03-.709-2.144-.708-2.143-.554-2.727-.555-2.726-.333-2.8-.333-2.8-.27-5.864-.27-5.866-.06-.078-.06-.078-1.876 1.415-1.877 1.414-2.593 2.145-2.595 2.147-3.387 3.397-3.386 3.399-1.712 2.142-1.713 2.143-1.355 2.031-1.356 2.03-1.017 2.03-1.017 2.03-.595 1.78-.595 1.78-.19 1.717-.191 1.716.165 1.379.165 1.38.379 1.144.38 1.144.85 1.31.85 1.313.321.261.322.263 1.69-.195 1.693-.196 4.736-.153 4.738-.153 4.4.264 4.398.266 3.158.342 3.158.341 3.947.669 3.947.668 4.06 1.003 4.06 1.003 2.596.818 2.593.82 3.159 1.241 3.158 1.243 3.032 1.486 3.032 1.487 2.599 1.566 2.599 1.565 2.039 1.467 2.038 1.467 1.692 1.41 1.692 1.409 2.823 2.902 2.825 2.902.505.716.508.717-2.992-1.875-2.992-1.873-2.82-1.62-2.82-1.623-6.09-3.023-6.092-3.023-3.582-1.478-3.582-1.478-3.676-1.237-3.675-1.238-3.04-.779-3.039-.779-2.665-.463-2.667-.462-3.114-.223-3.115-.223-2.611.23-2.61.228-1.995.435-1.995.436-1.723.689-1.721.69-1.505.883-1.507.885-1.63 1.378-1.63 1.378-1.666 2.532-1.667 2.531-8.376 12.714-8.378 12.715.002.143.004.144 2.063 2.48 2.062 2.482 4.308 4.312 4.307 4.31 2.86 2.358 2.86 2.358 3.006 2.138 3.003 2.138 2.368 1.487 2.369 1.485 1.665.958 1.667.956 3.748 1.861 3.749 1.863 3.382 1.358 3.384 1.357 2.707.899 2.707.898 2.481.698 2.481.697 3.108.692 3.107.69 3.434.535 3.435.535 2.933.25 2.932.249.903.088.902.088 6.428-.075 6.43-.076zm63.213-29.994l4.785-4.764 2.351-2.861 2.351-2.861 2.139-3.005 2.138-3.004 1.486-2.368 1.485-2.368.958-1.666.957-1.666 1.861-3.748 1.861-3.748 1.354-3.384 1.353-3.383.692-2.031.691-2.03.917-3.139.916-3.138.776-3.629.775-3.63.452-3.043.453-3.046.293-2.82.293-2.82v-13.76l-.293-2.82-.293-2.82-.453-3.044-.452-3.046-.775-3.63-.776-3.63-.916-3.136-.917-3.138-.694-2.03-.694-2.031-1.115-2.82-1.115-2.82-1.264-2.706-1.265-2.707-1.456-2.707-1.456-2.707-1.02-1.692-1.018-1.691-1.804-2.707-1.803-2.707-1.826-2.399-1.826-2.398-2.292-2.676-2.291-2.679-3.687-3.622-3.687-3.623-2.594-2.148-2.593-2.145-1.806-1.357-1.803-1.357-2.707-1.804-2.707-1.804L167 22.715l-1.692-1.017-2.483-1.353-2.483-1.353-3-1.403-3-1.403-2.751-1.082-2.75-1.083-2.369-.807-2.368-.805-2.748-.792-2.749-.793-3.68-.787-3.681-.786-3.045-.453-3.046-.452-2.82-.293-2.82-.293h-13.76l-2.82.293-2.82.293-3.044.452-3.045.453-3.63.775-3.629.775-3.138.917-3.138.916-2.03.695-2.03.694-2.82 1.118-2.82 1.116-2.63 1.217-2.631 1.218-2.783 1.501-2.783 1.501-1.692 1.02-1.692 1.019-2.707 1.803-2.707 1.805-1.805 1.357-1.804 1.357-2.595 2.146-2.593 2.147-3.687 3.623-3.687 3.622-2.29 2.678-2.292 2.677-1.826 2.398-1.826 2.399-1.804 2.707-1.803 2.707-1.017 1.69-1.017 1.693-1.353 2.483-1.354 2.483-1.368 2.931-1.37 2.93-1.11 2.82-1.11 2.82-.71 2.03-.709 2.031-.907 3.138-.907 3.138-.775 3.63-.774 3.629-.453 3.044-.453 3.046-.292 2.82-.293 2.82v13.76l.29 2.819.291 2.82.55 3.574.55 3.572.792 3.533.792 3.532.985 3.271.984 3.271.852 2.369.85 2.368 1.302 3.116 1.299 3.116.136.136.136.136.076-.094.076-.094 2.113-4.624 2.113-4.624 2.984-5.978 2.983-5.978 2.412-4.399 2.412-4.399 2.364-3.947 2.366-3.948 2.99-4.512 2.992-4.51 1.655-2.256 1.656-2.256 2.137-2.707 2.136-2.707 2.036-2.369 2.037-2.368 3.619-3.63 3.618-3.631 2.03-1.755 2.031-1.756 2.95-2.217 2.95-2.217 2.565-1.593 2.565-1.593 2.39-1.222 2.388-1.221 2.472-1.013 2.473-1.012 3.046-1.045 3.045-1.045 2.932-.759 2.932-.758 3.384-.57 3.384-.569 3.497-.27 3.497-.27 3.496.137 3.496.135 2.68.354 2.683.353 2.636.556 2.636.557 1.827.546 1.829.547 2.328.827 2.33.825 3.834 1.863 3.835 1.863 2.144 1.3 2.142 1.3 2.174 1.547 2.173 1.546 3.24-.34 3.24-.338 2.82-.34 2.82-.34 3.835-.133 3.835-.132 2.82.273 2.82.27 2.593.44 2.595.436 3.721.921 3.722.921 5.39 1.79 5.39 1.79.29.163.289.162-5.792.02-5.793.02-3.27.385-3.27.386-2.569.571-2.567.572-2.282.79-2.282.79-2.933 1.41-2.932 1.41-1.918 1.31-1.918 1.308-2.255 1.858-2.256 1.858-2.165 2.237-2.165 2.236-1.408 1.9-1.407 1.899-1.218 2.067-1.217 2.068-.777 1.814-.776 1.815-.682 2.132-.684 2.133-.448 2.228-.449 2.228-.268 2.821-.27 2.82.144 3.721.144 3.722.327 2.543.328 2.54.38 2.077.382 2.075.588.458.587.457 2.7 2.257 2.7 2.257 2.844 2.82 2.842 2.82 1.918 2.255 1.919 2.255 1.355 1.805 1.355 1.803 1.62 2.424 1.62 2.422 1.568 2.8 1.567 2.8.93 1.997.93 1.995 1.086 2.707 1.085 2.707 1.039 3.236 1.037 3.237v.649l.491-.263.49-.263 4.787-4.764zm-43.327-83.458l1.128-.527.741-.625.74-.625.64-.932.642-.933.743-1.804.743-1.806 1.599-1.578 1.597-1.58 2.481-1.279 2.481-1.28 2.707-.896 2.708-.899 2.706-.582 2.707-.581 2.12-.338 2.117-.336.118-.119.119-.118-3.252.004-3.252.003-3.27.217-3.272.217-2.03.245-2.03.246-2.398.44-2.4.44-2.338.658-2.339.657-2.256.92-2.255.922-1.804 1.045-1.805 1.045-1.644 1.235-1.645 1.234-.61.801-.613.802v2.098l.611.925.612.924.794.605.794.605 1.301.535 1.303.536 1.917.003 1.918.003 1.126-.526zm-34.385-4.341l1.226-.359 1.307-.692 1.306-.692 1.22-1.317 1.22-1.319.678-1.42.68-1.423.267-1.622.269-1.623-.27-1.623-.267-1.623-.677-1.421-.68-1.422-1.256-1.355-1.255-1.358-1.872-.927-1.873-.928-2.019-.115-2.02-.115-1.214.283-1.213.282-1.527.792-1.525.792-1.227 1.325-1.226 1.324-.678 1.422-.679 1.42-.268 1.624-.268 1.623.268 1.623.268 1.622.678 1.422.679 1.421 1.212 1.31 1.211 1.309 1.19.647 1.19.647 1.252.401 1.254.402 1.707.012 1.708.011 1.224-.36z" stroke-width=".225"/></svg>