<svg xmlns="http://www.w3.org/2000/svg" width="226mm" height="226mm" viewBox="0 0 226 226"><path d="M91.847 223.336c-19.54-2.37-35.244-7.979-36.894-13.174-.313-.99-.058-2.76.57-3.932 1.138-2.126 1.148-2.126 5.503.4 2.401 1.392 6.933 3.237 10.07 4.098 3.139.861 7.591 2.26 9.892 3.11 8.976 3.309 43.036 4.794 45.005 1.962.335-.481 2.709-1 5.278-1.15 8.967-.527 25.466-4.375 31.619-7.373 6.526-3.183 7.756-2.912 7.788 1.71.08 11.251-41.695 18.855-78.831 14.349zm5.187-30.609c-17.855-2.074-33.096-6.95-34.69-11.1-1.254-3.268 1.17-3.824 6.556-1.506 9.473 4.074 19.345 5.676 34.359 5.574 25.286-.172 44.966-3.071 55.095-8.115 3.587-1.785 5.075-2.083 5.965-1.193 5.14 5.14-6.392 12.179-25.083 15.312-9.047 1.517-32.973 2.1-42.202 1.03zm-1.038-31.835c-18.299-1.882-32.884-8.594-30.075-13.84.878-1.642 1.323-1.592 5.916.658 9.643 4.728 18.678 6.016 41.796 5.96 18.463-.042 22.353-.344 29.488-2.29 4.521-1.231 9.725-3.127 11.564-4.212 2.44-1.44 3.653-1.662 4.489-.826 4.76 4.76-4.518 10.768-21.096 13.658-8.39 1.464-31.717 1.957-42.082.892zm-5.707-28.457c-39.563-4.158-72.447-18.546-80.83-35.364-8.943-17.95 6.15-35.062 41.356-46.886 20.064-6.74 43.947-9.475 75.269-8.625 20.932.57 23.198.83 36.829 4.228 14.912 3.714 28.625 8.323 36.79 12.365 6.861 3.395 16.577 12.862 19.388 18.89 13.778 29.548-36.605 56.956-103.695 56.405-9.244-.076-20.54-.532-25.105-1.011zm64.762-6.604c20.892-4.494 35.239-10.816 42.554-18.753 16.638-18.05-3.452-36.74-49.217-45.787-13.637-2.695-60.245-2.703-73.66-.01-13.904 2.79-22.912 5.61-32.161 10.075-10.293 4.966-15.263 9.047-18.064 14.832-2.744 5.669-2.746 10.275-.006 15.934 2.487 5.137 10.417 12.56 14.35 13.43 1.477.326 5.95 1.902 9.945 3.5 19.32 7.736 38.184 10.431 69.51 9.932 21.06-.338 25.375-.707 36.749-3.153zm-60.61-1.642c-28.77-2.98-50.203-9.78-60.696-19.259C18.17 90.856 41.237 73.656 83.547 67.8c23.317-3.228 51.81-2.82 70.798 1.012 4.418.891 8.479 1.345 9.024 1.007.548-.339 3.885.36 7.416 1.55 11.177 3.763 19.448 8.387 24.312 13.586 4.099 4.382 4.646 5.524 4.646 9.704 0 4.117-.566 5.35-4.338 9.443-7.709 8.363-24.234 14.912-46.928 18.599-11.792 1.914-41.904 2.744-54.038 1.488zm47.204-12.94c13.021-3.48 20.75-8.975 20.75-14.756 0-3.77-6.714-9.916-13.654-12.498-19.7-7.329-58.662-6.717-74.15 1.165-7.056 3.591-10.134 7.164-10.134 11.762 0 6.532 8.277 11.553 24.607 14.931 12.39 2.563 42.009 2.222 52.58-.604zm-44.611-2.657c-9.43-1.214-22.795-5.654-26.24-8.717-2.461-2.189-2.72-2.902-1.737-4.744.8-1.491 1.703-1.937 2.898-1.423 13.524 5.802 23.98 7.716 42.136 7.716 13.698 0 27.502-2.171 36.235-5.698 6.83-2.76 7.918-2.621 7.918 1.015 0 9.147-32.832 15.504-61.21 11.851zM24.24 81.838c2.321-1.472.965-5.68-2.338-7.26-6.227-2.974-12.06 2.732-6.659 6.514 2.566 1.799 6.786 2.148 8.997.746zm187.348-1.794c2.486-.954 1.965-3.449-.953-4.557-4.478-1.704-9.87 1.716-7.088 4.495.864.864 5.85.903 8.04.062zM64.273 60.014c4.438-4.905-5.281-10.867-11.92-7.314-2.814 1.507-2.498 4.615.726 7.15 3.455 2.718 8.81 2.795 11.194.162zm110.637.913c4.66-2.494.52-8.264-5.93-8.264-3.131 0-6.587 2.177-6.587 4.15 0 .488 1.23 1.855 2.733 3.037 2.986 2.35 6.654 2.752 9.784 1.077zm-53.872-8.178l2.45-1.989-2.175-2.938c-4.155-5.616-14.958-5.396-15.78.323-.78 5.458 10.375 8.772 15.505 4.604zm96.5 15c-5.242-7.697-21.566-17.672-38.026-23.237C133.314 28.892 70.54 30.94 31.795 49.33a1103.305 1103.305 0 0 0-8.683 4.15c-.428.217-.778-.013-.778-.513 0-1.347 11.916-7.951 20.231-11.213 21.775-8.543 49.376-12.465 81.442-11.574 23.403.652 36.681 2.81 54.945 8.93 23.392 7.835 36.912 17.465 41.513 29.566 1.43 3.762-.054 3.293-2.927-.926zm-63.445-41.12c-24.277-5.196-53.171-5.288-86.055-.276l-4.614.703 2.365-3.018C71.953 16.174 84.27 8.612 96.234 5.343c9.185-2.505 25.04-2.993 34.38-1.054 8.428 1.75 9.235 2.077 18.492 7.52 5.279 3.106 17.436 14.356 17.436 16.137 0 1.136-1.958.928-12.45-1.316z"/></svg>