<svg xmlns="http://www.w3.org/2000/svg" width="226mm" height="226mm" viewBox="0 0 226 226"><path d="M59.834 209.058c-19.576-3.638-36.814-17.591-46.199-37.395-8.455-17.843-8.404-17.347-8.868-87.366l-.413-62.131L7.28 18.69l2.925-3.477h39.086c36.828 0 39.239.121 41.703 2.115l2.613 2.117.553 55.738c.526 52.947.665 55.958 2.769 60.097 3.472 6.834 7.046 8.833 15.793 8.832 8.582 0 13.156-2.096 16.445-7.526 1.951-3.224 2.123-7.101 2.641-59.555l.553-56.107 2.685-2.856 2.684-2.855h77.816l2.975 3.106 2.976 3.105-.046 59.733-.048 59.732-39.899 30.45c-21.944 16.747-40.417 30.634-41.05 30.86-2.044.733-3.076-2.467-3.094-9.595l-.017-6.97-5.812 5.904c-7.125 7.238-13.724 11.157-24.922 14.808-7.233 2.36-11.17 2.862-25.184 3.217-9.134.231-18.85.005-21.59-.505zM209.87 133.69v-8.305l-9.688-.32-9.69-.319-.006-7.984c-.013-14.051-3.448-21.59-11.51-25.253-10.593-4.811-22.254-1.172-27.155 8.474-2.531 4.98-2.82 6.99-3.211 22.378-.317 12.389-.063 17.349.945 18.565 1.171 1.411 5.771 1.614 30.846 1.364l29.469-.294zm-47.06-16.056c0-5.72.455-7.65 2.215-9.412 2.66-2.66 5.3-2.81 8.612-.49 2.142 1.5 2.461 2.722 2.461 9.412v7.688H162.81zm47.38-36.767l-.32-9.64-7.98-5.585c-4.388-3.072-7.988-5.834-8-6.14-.013-.303 3.702-3.196 8.256-6.425l8.277-5.873v-9.471c0-8.026-.258-9.372-1.685-8.824-.927.356-7.672 4.966-14.986 10.245-11.591 8.365-13.615 9.452-15.754 8.458-1.35-.627-7.826-4.984-14.388-9.679-7.061-5.052-12.6-8.284-13.565-7.915-1.904.73-2.34 13.908-.568 17.217.582 1.09 4.32 4.105 8.304 6.7 3.984 2.597 7.244 4.908 7.244 5.136 0 .228-3.738 3.18-8.304 6.557l-8.305 6.142v8.196c0 4.568.517 8.515 1.171 8.918.997.616 7.637-3.04 11.504-6.335.642-.546 4.903-3.663 9.47-6.926 5.881-4.2 8.806-5.665 10.018-5.017.942.504 7.667 5.187 14.945 10.407 7.277 5.221 13.625 9.494 14.108 9.494.483 0 .734-4.338.557-9.64zM153.963 204.28c1.516-1.372 6.993-5.695 12.17-9.611a2793.267 2793.267 0 0 0 16.056-12.238 9733.89 9733.89 0 0 1 22.975-17.591l16.332-12.473v48.671l-3.407 2.867-3.406 2.865h-63.476z" stroke-width="1.107"/></svg>