<svg xmlns="http://www.w3.org/2000/svg" width="226mm" height="226mm" viewBox="0 0 226 226"><path d="M73.93 180.827c-13.984-2.599-26.298-12.566-33.002-26.713-6.04-12.746-6.003-12.392-6.335-62.41l-.295-44.383 2.09-2.483 2.09-2.484h27.921c26.308 0 28.03.087 29.79 1.511l1.867 1.512.395 39.817c.376 37.822.475 39.973 1.978 42.93 2.48 4.882 5.033 6.31 11.282 6.309 6.13 0 9.398-1.497 11.747-5.376 1.394-2.303 1.517-5.073 1.887-42.543l.395-40.08 1.918-2.04 1.917-2.04h55.588l2.125 2.219 2.126 2.218-.033 42.67-.034 42.67-28.502 21.751c-15.676 11.964-28.872 21.884-29.324 22.046-1.46.523-2.197-1.763-2.21-6.855l-.012-4.979-4.152 4.218c-5.09 5.17-9.804 7.97-17.803 10.578-5.167 1.685-7.98 2.044-17.99 2.298-6.525.165-13.466.003-15.423-.361zm107.179-53.838v-5.933l-6.921-.228-6.922-.228-.004-5.704c-.009-10.037-2.463-15.423-8.222-18.039-7.567-3.437-15.897-.837-19.398 6.053-1.808 3.558-2.014 4.993-2.294 15.986-.226 8.85-.045 12.393.675 13.262.837 1.008 4.123 1.153 22.035.974l21.051-.21zm-33.617-11.47c0-4.086.325-5.465 1.582-6.723 1.9-1.9 3.786-2.008 6.152-.35 1.53 1.071 1.758 1.944 1.758 6.723v5.492h-9.492zm33.845-26.264l-.228-6.886-5.7-3.99c-3.135-2.195-5.707-4.168-5.716-4.386-.009-.217 2.645-2.283 5.898-4.59l5.913-4.195v-6.766c0-5.733-.184-6.695-1.204-6.303-.662.254-5.48 3.547-10.705 7.318-8.28 5.976-9.726 6.752-11.254 6.042-.964-.448-5.59-3.56-10.278-6.914-5.044-3.609-9.001-5.918-9.69-5.654-1.36.522-1.671 9.935-.406 12.299.416.778 3.086 2.932 5.932 4.786 2.846 1.855 5.175 3.506 5.175 3.669 0 .163-2.67 2.271-5.932 4.684l-5.933 4.387v5.855c0 3.263.37 6.083.837 6.371.712.44 5.455-2.172 8.218-4.526.458-.39 3.502-2.616 6.765-4.947 4.201-3 6.29-4.047 7.156-3.584.673.36 5.477 3.705 10.676 7.434 5.198 3.73 9.733 6.782 10.078 6.782.345 0 .524-3.099.398-6.886zm-40.165 88.159c1.083-.98 4.995-4.068 8.693-6.866 3.698-2.797 8.859-6.73 11.47-8.742a6953.39 6953.39 0 0 1 16.412-12.566l11.667-8.91v34.768l-2.434 2.048-2.433 2.047h-45.344z" stroke-width=".791"/></svg>