<svg xmlns="http://www.w3.org/2000/svg" width="226mm" height="226mm" viewBox="0 0 226 226"><path d="M105.898 225.882c-22.314-1.412-43.26-9.096-60.87-22.33a115.713 115.713 0 0 1-21.645-21.3c-11.55-14.88-19.372-33.125-22.179-51.739C.292 124.475 0 120.303 0 113.38c0-6.933.294-11.123 1.206-17.134C5.962 64.883 23.944 36.892 50.664 19.26c13.64-9.001 29.153-14.91 45.54-17.344 5.327-.793 9.712-1.084 16.344-1.084 6.934 0 11.124.297 17.133 1.208 33.414 5.067 62.995 25.21 80.243 54.643 18.749 31.993 20.341 72.01 4.196 105.515-17.13 35.552-51.363 59.473-90.639 63.335-4.316.424-13.511.607-17.584.35zm17.813-5.057c8.727-1.024 15.09-2.389 22.587-4.844 8.934-2.927 18.156-7.423 26.104-12.726 10.191-6.8 19.539-15.685 26.833-25.502 10.473-14.098 17.519-30.926 20.06-47.911 1.454-9.728 1.615-20.593.44-29.737-2.144-16.673-7.688-31.805-16.736-45.677-6.893-10.567-15.965-20.216-26.077-27.735A107.761 107.761 0 0 0 127.314 6.43c-5.567-.763-7.874-.903-14.766-.903-6.894 0-9.2.14-14.766.903-23.218 3.178-44.85 13.948-61.543 30.642C12.49 60.822 1.173 94.04 5.487 127.357c1.539 11.895 4.841 22.768 10.235 33.704 5.468 11.082 11.803 19.928 20.51 28.635 8.923 8.922 18.11 15.45 29.53 20.974 12.8 6.193 25.082 9.407 40.36 10.56 2.656.201 14.809-.08 17.589-.405zm-19.28-10.295c-23.066-2.01-44.25-11.825-60.544-28.05-15.148-15.086-24.782-34.252-27.817-55.347-1.42-9.877-1.165-21.813.679-31.676 4.265-22.819 16.791-43.681 34.915-58.15 14.176-11.32 30.722-18.3 48.936-20.647 4.757-.614 14.192-.842 19.162-.464 27.135 2.064 51.857 15.1 68.86 36.315 11.493 14.339 18.457 31.03 20.792 49.823.582 4.675.582 17.417 0 22.093-3.272 26.344-15.852 48.958-36.336 65.325-13.964 11.156-30.854 18.175-49.258 20.468-3.366.42-15.845.619-19.388.31zm18.112-17.43c13.387-1.905 23.74-5.771 34.59-12.917 8.086-5.325 16.818-14.052 22.208-22.2 7.1-10.727 11.052-21.313 12.922-34.607.477-3.393.667-12.743.336-16.537-.91-10.433-3.4-19.485-7.903-28.74-8.333-17.125-23.099-31.136-40.7-38.618-7.524-3.198-15.246-5.156-23.784-6.03-4.492-.46-13.195-.352-17.537.218-15.106 1.984-28.688 7.742-40.513 17.172-3.19 2.545-9.623 8.98-12.117 12.118-9.783 12.324-15.425 25.83-17.338 41.515-.188 1.543-.303 4.913-.303 8.905 0 6.77.185 9.08 1.16 14.43 2.983 16.398 10.82 31.147 22.77 42.852 13.42 13.146 29.977 20.832 49 22.749 2.983.3 14.357.095 17.209-.31zm-27.367-27.474c-.293-1.1-5.293-18.858-7.76-27.56-3.786-13.356-5.753-20.364-5.753-20.492 0-.075 5.32-.137 11.82-.137 11.063 0 11.828.026 11.935.396.064.217 1.349 5.06 2.856 10.764a2394.408 2394.408 0 0 0 3.394 12.738c.358 1.302.652 2.544.653 2.762 0 .216.103.394.227.394.124 0 .226-.129.226-.287 0-.158 1.715-6.726 3.81-14.597 2.096-7.871 5.55-20.855 7.676-28.851l5.547-20.854 3.448-12.962 1.768-6.651 12.337-.057c11.681-.057 12.33-.039 12.22.337-.065.217-.93 3.288-1.922 6.821-.992 3.535-3.638 12.919-5.881 20.854a13548.56 13548.56 0 0 0-7.218 25.587 14273.82 14273.82 0 0 1-5.375 19.05c-2.485 8.803-5.595 19.81-6.906 24.46-1.311 4.65-2.44 8.632-2.506 8.848-.114.372-1.132.395-17.23.395h-17.11zM79.97 111.744c-.13-.367-6.114-21.506-6.317-22.32l-.156-.622 12.139.058 12.138.058 2.311 8.68 3.074 11.553.762 2.875H91.996c-9.336 0-11.948-.06-12.026-.282zM71.62 82.1c-.209-.713-1.638-5.76-3.175-11.215a2691.1 2691.1 0 0 0-2.92-10.315c-.118-.371.567-.394 12.234-.394h12.358l2.344 8.848c1.288 4.869 2.674 10.092 3.078 11.61l.735 2.762H72z" stroke-width="1.14"/></svg>