<svg xmlns="http://www.w3.org/2000/svg" width="226mm" height="226mm" viewBox="0 0 226 226"><path d="M107.76 211.872c-19.57-1.238-37.941-7.977-53.385-19.584a101.484 101.484 0 0 1-18.983-18.68c-10.13-13.051-16.99-29.052-19.452-45.377-.8-5.296-1.056-8.954-1.056-15.026 0-6.081.258-9.756 1.058-15.027 4.171-27.507 19.942-52.056 43.376-67.52 11.963-7.895 25.568-13.077 39.94-15.212 4.672-.695 8.518-.95 14.334-.95 6.081 0 9.756.26 15.026 1.059 29.305 4.444 55.249 22.11 70.376 47.924 16.443 28.059 17.84 63.155 3.68 92.54-15.024 31.18-45.047 52.159-79.493 55.546-3.786.372-11.85.533-15.422.307zm15.622-4.435c7.654-.898 13.235-2.095 19.81-4.248 7.835-2.567 15.923-6.51 22.894-11.161 8.938-5.964 17.136-13.756 23.533-22.366 9.185-12.365 15.365-27.123 17.593-42.02 1.276-8.531 1.417-18.06.386-26.08-1.88-14.623-6.742-27.894-14.678-40.06-6.045-9.268-14.001-17.73-22.87-24.325a94.51 94.51 0 0 0-43.508-17.771c-4.882-.669-6.905-.792-12.95-.792-6.046 0-8.068.123-12.95.792-20.363 2.787-39.335 12.233-53.975 26.874-20.83 20.83-30.754 49.963-26.971 79.183 1.35 10.432 4.246 19.968 8.977 29.559 4.795 9.72 10.351 17.478 17.987 25.114 7.826 7.825 15.884 13.55 25.9 18.395 11.225 5.431 21.997 8.25 35.397 9.262 2.329.176 12.987-.07 15.425-.356zm-16.908-9.029c-20.23-1.763-38.81-10.371-53.1-24.601-13.285-13.23-21.734-30.04-24.396-48.541-1.246-8.662-1.022-19.13.595-27.78 3.741-20.013 14.727-38.31 30.622-51 12.433-9.927 26.944-16.05 42.918-18.108 4.172-.538 12.447-.738 16.806-.407 23.798 1.81 45.48 13.244 60.392 31.85 10.08 12.575 16.188 27.214 18.236 43.696.51 4.1.51 15.275 0 19.376-2.87 23.105-13.903 42.938-31.868 57.292-12.247 9.784-27.06 15.94-43.201 17.951-2.952.368-13.897.543-17.004.272zm15.884-15.287c11.741-1.67 20.821-5.061 30.336-11.328 7.092-4.67 14.75-12.324 19.478-19.47 6.227-9.408 9.693-18.692 11.333-30.352.418-2.975.585-11.176.294-14.503-.798-9.15-2.982-17.089-6.931-25.206-7.308-15.019-20.258-27.307-35.695-33.869-6.599-2.805-13.371-4.522-20.859-5.289-3.94-.403-11.573-.308-15.381.192-13.248 1.74-25.16 6.79-35.531 15.06-2.798 2.232-8.44 7.875-10.627 10.628-8.58 10.808-13.528 22.654-15.206 36.41-.165 1.353-.266 4.309-.266 7.81 0 5.937.163 7.964 1.017 12.655 2.617 14.382 9.49 27.317 19.971 37.583 11.77 11.529 26.29 18.27 42.974 19.951 2.616.264 12.592.084 15.093-.272zm-24.002-24.095c-.257-.965-4.642-16.539-6.806-24.171-3.32-11.714-5.045-17.86-5.045-17.972 0-.066 4.665-.12 10.366-.12 9.703 0 10.374.023 10.468.347.056.19 1.183 4.438 2.505 9.44a2099.97 2099.97 0 0 0 2.976 11.172c.314 1.142.572 2.231.573 2.422 0 .19.09.346.199.346.109 0 .198-.113.198-.252 0-.138 1.504-5.899 3.342-12.802s4.868-18.29 6.732-25.303l4.865-18.29 3.024-11.368 1.55-5.833 10.82-.05c10.245-.05 10.814-.034 10.717.296-.056.19-.815 2.883-1.685 5.982-.87 3.1-3.191 11.33-5.158 18.29a11882.508 11882.508 0 0 0-6.33 22.44c-.41 1.468-2.532 8.986-4.714 16.707-2.18 7.721-4.907 17.375-6.057 21.453-1.15 4.078-2.14 7.57-2.198 7.76-.1.326-.993.346-15.112.346H98.581l-.225-.84zM85.02 111.77c-.114-.322-5.362-18.862-5.54-19.575l-.137-.546 10.646.051 10.646.051 2.027 7.612 2.696 10.133.668 2.521H95.567c-8.188 0-10.478-.053-10.547-.247zm-7.323-26c-.183-.625-1.437-5.051-2.785-9.836-1.349-4.785-2.5-8.855-2.56-9.046-.104-.326.497-.346 10.729-.346h10.838l2.056 7.76c1.13 4.27 2.345 8.851 2.7 10.183l.644 2.422H78.031l-.334-1.137z"/></svg>