<svg xmlns="http://www.w3.org/2000/svg" width="226mm" height="226mm" viewBox="0 0 226 226"><path d="M103 179.76c-6.172-10.658-28.787-49.703-50.257-86.767-21.47-37.065-39.036-67.713-39.036-68.109 0-1.069 10.386 1.447 17.37 4.208 19.133 7.562 33.89 23.162 41.349 43.71C76.639 84.41 83.61 92.749 93.51 98.026c16.644 8.871 38.215 6.101 51.685-6.638 5.769-5.456 8.71-10.156 12.38-19.779 7.181-18.834 19.469-32.409 36.787-40.641 6.857-3.26 19.976-7.222 21.337-6.444.3.172-6.815 12.98-15.811 28.464-8.997 15.483-31.625 54.6-50.284 86.924-18.66 32.325-34.254 58.875-34.655 59-.4.124-5.778-8.494-11.95-19.152z" stroke-width=".834"/></svg>