<svg width="226.777" height="226.777" viewBox="0 0 226.777 226.777" xmlns="http://www.w3.org/2000/svg"><path d="M58.136 120.06C28.162 67.579 3.013 22.994 2.248 20.985c-1.284-3.373.073-3.608 17.681-3.063l19.072.59 37.16 65.07 37.161 65.069 4.306-8.44c5.121-10.039 8.48-2.492-29.861-67.114-16.168-27.25-29.919-50.91-30.558-52.576-1.016-2.648 9.53-3.03 83.79-3.03 46.723 0 84.952.497 84.952 1.103 0 2.527-10.226 20.903-35.993 64.68-15.016 25.51-27.302 47.29-27.302 48.399 0 1.108 6.453 12.7 14.34 25.76l14.34 23.745-8.33 15.093c-4.583 8.3-9.16 15.604-10.172 16.23-1.013.625-8.081-9.457-15.708-22.405-7.627-12.949-14.327-23.52-14.888-23.492-.562.028-7.297 11.05-14.969 24.495-7.67 13.445-14.102 24.432-14.292 24.416-.19-.017-24.868-42.97-54.841-95.453zm97.914-44.915l12.792-21.923-25.83-.574c-14.206-.315-26.186-.218-26.62.217-.97.97 24.266 44.265 25.782 44.23.596-.015 6.84-9.892 13.876-21.95z" stroke-width="2.042"/></svg>