<svg xmlns="http://www.w3.org/2000/svg" width="226.777" height="226.777" viewBox="0 0 226.777 226.777"><path d="M112.971 23.411c-50.44.002-91.327 40.893-91.325 91.333.001 50.437 40.888 91.323 91.325 91.325 50.44.003 91.331-40.886 91.332-91.325.003-50.443-40.89-91.335-91.332-91.333zM77.705 55.76c6.774.147 13.122 5.842 19.631 17.21 5.361 9.361 10.314 17.741 11.01 18.623.695.882 8.598-6.777 17.559-17.02 10.907-12.469 19.058-18.624 24.656-18.624 9.454 0 26.91 18.454 26.91 28.443 0 8.135-70.93 100.556-77.174 100.556-2.568 0-14.474-19.226-26.455-42.727-24.625-48.3-26.906-61.78-12.996-76.789 6.063-6.542 11.59-9.786 16.86-9.672z" stroke-width="0"/></svg>