<svg xmlns="http://www.w3.org/2000/svg" width="226.777" height="226.777" viewBox="0 0 226.777 226.777"><path d="M113.1.566C50.635.568-.001 51.209 0 113.676c.001 62.464 50.637 113.099 113.1 113.101 62.468.004 113.109-50.635 113.11-113.1C226.214 51.205 175.57.562 113.1.565zM69.427 40.628c8.389.182 16.25 7.235 24.312 21.314 6.639 11.593 12.773 21.97 13.635 23.063.86 1.092 10.648-8.393 21.746-21.078 13.507-15.442 23.602-23.065 30.535-23.065 11.708 0 33.326 22.854 33.326 35.225 0 10.075-87.843 124.533-95.575 124.533-3.18 0-17.926-23.81-32.763-52.915-30.497-59.817-33.322-76.51-16.095-95.099 7.509-8.102 14.353-12.12 20.88-11.978z" stroke-width="0"/></svg>