<svg width="226.777" height="226.777" viewBox="0 0 226.777 226.777" xmlns="http://www.w3.org/2000/svg"><path d="M105.067 226.387C80.68 224.3 59.512 215.623 40.78 200.033c-5.486-4.565-12.646-12.14-17.344-18.35-11.234-14.848-18.789-32.944-21.46-51.404-.908-6.278-1.032-8.24-1.032-16.392 0-8.151.124-10.115 1.032-16.392 2.671-18.46 10.226-36.556 21.46-51.404 6.186-8.176 14.148-16.138 22.324-22.324C60.608 12.533 78.704 4.978 97.164 2.307c6.278-.908 8.24-1.032 16.392-1.032 8.151 0 10.115.124 16.392 1.032 18.46 2.671 36.556 10.226 51.404 21.46 8.176 6.186 16.138 14.148 22.324 22.324 11.234 14.848 18.789 32.944 21.46 51.404.908 6.277 1.032 8.24 1.032 16.392 0 8.151-.124 10.114-1.032 16.392-2.671 18.46-10.226 36.556-21.46 51.404-6.186 8.176-14.148 16.138-22.324 22.324-9.465 7.161-20.39 12.912-31.803 16.742-8.366 2.807-15.52 4.359-25.014 5.426-2.858.321-16.46.47-19.468.212zm-44.443-66.83c5.733-5.386 10.54-9.857 10.683-9.938.142-.081 6.268-2.254 13.614-4.828l13.355-4.68 14.278-7.082 14.277-7.082 14.466 3.464c7.957 1.905 14.496 3.546 14.531 3.647.453 1.29 5.516 11.26 5.697 11.219.266-.061 13.654-6.372 13.776-6.493.04-.04-1.471-2.818-3.359-6.172l-3.432-6.1-8.565-5.755c-4.711-3.167-8.57-5.811-8.576-5.877-.006-.066.717-.48 1.605-.92l1.615-.798 9.566 3.556 9.565 3.557 7.654-1.676c4.209-.922 7.721-1.752 7.804-1.845.461-.516 4.325-9.61 4.15-9.768-.112-.102-1.441-.49-2.953-.863l-2.748-.678-7.826-5.39-7.825-5.39-5.921-9.752c-3.257-5.364-5.95-9.785-5.984-9.823-.034-.039-1.157.248-2.496.638-1.891.551-2.474.646-2.611.423-.098-.158-1.166-3.195-2.375-6.75-1.209-3.556-2.26-6.58-2.337-6.722-.084-.156-2.365 1.468-5.797 4.127-3.113 2.411-5.686 4.305-5.719 4.21-.033-.097.243-1.848.612-3.893.37-2.045.625-3.764.568-3.821-.154-.154-19.635-3.661-19.96-3.593-.152.032 1.145 1.28 2.881 2.774 1.737 1.494 3.16 2.772 3.163 2.84.004.067-5.52-.56-12.274-1.395-6.754-.834-12.296-1.5-12.315-1.48-.018.02 2.07 1.512 4.64 3.318l4.675 3.282-9.507.163c-5.229.09-10.916.19-12.638.226l-3.131.064 5.686 2.915c3.127 1.604 5.629 2.973 5.56 3.042-.07.07-5.055 1.205-11.078 2.523l-10.952 2.397 5.646 1.445c3.105.795 5.565 1.52 5.467 1.609-.099.09-2.471.895-5.272 1.79a8627.766 8627.766 0 0 0-18.336 5.883l-.566.184.566.14c.311.077 1.174.27 1.918.428l1.352.288-4.634 3.12a493.027 493.027 0 0 1-9.588 6.259l-4.954 3.137-2.258 5.057-2.26 5.057-4.145 2.123-4.146 2.123.676 1.832c.371 1.008.72 1.877.776 1.933.056.056 2.378-.527 5.16-1.296 2.783-.768 5.22-1.397 5.415-1.397.542 0 5.91 5.793 6.072 6.55.074.353.21 4.222.3 8.6l.165 7.957-7.859 13.403c-4.322 7.372-7.9 13.48-7.953 13.574-.053.093 3.074.17 6.949.17H50.2zm100.867-66.801c-2.209-1.015-4.017-1.903-4.018-1.974-.004-.249 6.135-1.86 6.318-1.658.396.439 2.222 5.52 1.976 5.5-.143-.013-2.067-.854-4.276-1.868zM85.05 158.198c4.76-6.132 8.813-11.332 9.006-11.557.328-.381.315-.394-.205-.195l-10.741 4.107c-5.603 2.143-10.301 3.962-10.441 4.044-.14.082-3.632 3.358-7.759 7.28l-7.504 7.13 6.967.118c3.831.065 8.103.141 9.494.17l2.527.051zm65.207-9.252c3.158-1.508 5.773-2.77 5.811-2.803.038-.034-.938-1.977-2.169-4.318l-2.238-4.257-12.77-3.564-12.772-3.563-3.107 1.74c-1.71.956-3.11 1.793-3.113 1.859-.003.066 4.286 2.052 9.53 4.414l9.534 4.294 2.595 4.471c1.427 2.46 2.676 4.47 2.775 4.47.1 0 2.766-1.234 5.924-2.743z" stroke-width=".226"/></svg>