<svg xmlns="http://www.w3.org/2000/svg" width="226.777" height="226.777" viewBox="0 0 226.777 226.777"><path d="M102.807 221.656c-27.76-2.694-56.015-18.596-72.818-40.98-17.709-23.593-25.028-49.74-21.77-77.767.775-6.666 1.964-13.711 2.642-15.656l1.233-3.537h24.82c13.651 0 24.828.391 24.836.87.086 4.624 2.418 49.753 3.008 58.209l.765 10.95 3.498-3.992c1.925-2.196 6.421-7.151 9.993-11.012 3.572-3.86 10.67-11.689 15.772-17.396 5.103-5.707 11.725-12.985 14.715-16.174l5.438-5.799 4.42 5.216c2.431 2.868 7.595 8.609 11.476 12.757 7.169 7.662 16.007 17.365 26.705 29.319l5.928 6.623.686-7.242c.378-3.984 1.337-19.647 2.132-34.808l1.446-27.565 24.942.312 24.941.312 1.689 5.218c1.186 3.668 1.719 11.08 1.79 24.934.09 17.481-.202 20.701-2.575 28.413-6.414 20.846-17.038 38.647-29.712 49.784-1.867 1.64-4.222 3.766-5.234 4.723-7.747 7.327-24.699 16.34-38.92 20.694-6.792 2.08-27.296 5.119-31.311 4.641-.638-.076-5.379-.547-10.535-1.047zm35.955-10.25c17.976-4.788 34.534-14.45 47.242-27.564 6.756-6.973 16.239-20.785 17.784-25.905.481-1.594 1.338-3.48 1.904-4.19 1.865-2.342 5.532-14.932 6.907-23.712 1.308-8.359.833-29.958-.784-35.592-.734-2.56-1.087-2.61-18.468-2.61h-17.72l-.732 17.107c-.403 9.408-1.24 23.834-1.86 32.058-.62 8.224-1.128 18.5-1.128 22.836 0 4.336-.458 8.166-1.018 8.512-.56.346-5.126-3.883-10.147-9.398-5.022-5.515-10.187-11.116-11.478-12.448-1.292-1.33-8.337-9.179-15.656-17.44-7.32-8.26-14.522-16.338-16.006-17.95l-2.698-2.931-7.16 7.689c-3.938 4.23-11.429 12.568-16.647 18.53-11.835 13.525-14.924 16.937-24.514 27.078l-7.677 8.118-1.424-20.875c-.784-11.481-1.844-29.747-2.355-40.59l-.93-19.715-17.588-.32-17.587-.32-.658 3.22c-2.666 13.044-3.079 19.925-1.79 29.865 5.912 45.637 36.57 78.774 81.691 88.298 9.856 2.08 29.26 1.24 40.497-1.752zm-11.01 13.18c13.488-1.58 21.932-4.088 34.182-10.152 13.676-6.77 14.306-7.138 20.351-11.892 19.628-15.433 32.99-35.334 39.711-59.145 2.07-7.331 2.459-11.886 2.48-28.993.025-21.188-1.124-28.394-6.425-40.287-1.205-2.704-2.19-5.222-2.19-5.596 0-.953-9.44-17.034-10.943-18.641-.68-.726-3.322-4.01-5.874-7.298-4.204-5.417-18.582-18.274-24.358-21.78-5.439-3.3-23.96-11.931-25.605-11.931-.988 0-2.824-.55-4.08-1.222-1.255-.672-8.136-2.007-15.29-2.967-10.723-1.438-15.347-1.51-26.343-.408-7.335.735-15.424 2.062-17.975 2.95-2.552.887-5.333 1.62-6.181 1.63-2.561.028-21.993 10.087-28.408 14.705-10.635 7.657-14.68 11.6-26.057 25.403-2.619 3.178-7.787 12.305-11.446 20.214C2.586 92.335.74 121.518 8.393 146.809c2.02 6.68 9.239 22.481 12.968 28.39 3.917 6.205 13.974 17.539 20.22 22.788 11.475 9.643 11.578 9.71 24.883 16.385 11.695 5.867 17.807 7.75 31.106 9.58 14.156 1.949 18.224 2.034 30.183.634zm-58.468-84.462c-.524-.847-2.994-49.153-3.02-59.061l-.007-2.61H40.164c-14.352 0-26.094-.238-26.094-.53 0-.29 1.962-4.596 4.36-9.567 4.222-8.755 10.285-18.375 14.084-22.348 1.018-1.064 3.194-3.463 4.834-5.33C40.976 36.55 48.968 29.8 55.24 25.57c5.42-3.657 21.94-12.06 23.71-12.06.668 0 4.478-1.156 8.468-2.57 6.415-2.274 9.528-2.568 26.967-2.547 18.096.022 20.486.274 29.088 3.07 14.61 4.748 30.665 13.112 38.756 20.19 2.255 1.972 13.516 13.234 15.489 15.489 3.06 3.498 8.635 12.336 11.706 18.555 1.732 3.509 3.627 7.285 4.213 8.393.585 1.107 1.064 2.532 1.064 3.167 0 .72-9.68 1.27-25.804 1.465l-25.804.312-.237 9.278c-.424 16.518-3.004 50.522-3.875 51.06-.465.288-4.166-3.2-8.224-7.752-4.059-4.552-8.683-9.672-10.278-11.378-4.928-5.273-18.145-20.134-21.435-24.102-4.499-5.426-4.07-5.598-13.933 5.615-30.922 35.16-35.067 39.6-35.827 38.37z" stroke-width="1.16"/></svg>