<svg xmlns="http://www.w3.org/2000/svg" width="226.777" height="226.777" viewBox="0 0 226.777 226.777"><path d="M107.937 226.32c-.388-.031-1.8-.134-3.136-.228-14.46-1.015-29.545-5.26-42.583-11.98-10.412-5.369-19.106-11.669-27.501-19.93-7.98-7.853-13.828-15.406-19.19-24.781-13.063-22.844-17.6-50.102-12.745-76.574C9.69 55.165 36.043 23.16 71.942 8.838c23.368-9.323 50.163-10.44 74.48-3.107 34.462 10.394 62.293 37.263 73.944 71.392 5.217 15.28 7.077 31.795 5.43 48.205-2.725 27.146-15.273 52.293-35.439 71.017-11.22 10.418-24.043 18.247-38.465 23.486-8.93 3.243-18.182 5.237-29.133 6.278-1.679.16-13.409.327-14.822.211zm13.254-8.376c11.195-.871 21.438-3.237 31.46-7.266 16.177-6.503 30.68-17.197 41.945-30.926a103.442 103.442 0 0 0 22.724-52.934c.634-5.11.78-7.572.78-13.096 0-6.589-.337-10.928-1.323-17.004-4.315-26.58-18.822-50.407-40.692-66.832-8.607-6.463-18.372-11.619-28.702-15.152-14.426-4.935-30.058-6.622-45.484-4.908-21.12 2.346-40.587 10.918-56.927 25.064-2.21 1.914-6.706 6.334-8.8 8.651C21.13 60.19 12.085 80.377 9.684 102.665c-.64 5.933-.712 14.733-.17 20.468 2.65 28 15.79 52.936 37.407 70.984 17.256 14.407 38.515 22.708 61.409 23.978 2.909.161 9.902.08 12.86-.151zm-14.9-4.567c-19.51-1.471-37.854-8.46-53.369-20.33-1.23-.942-1.884-1.54-1.812-1.66.348-.577 46.242-54.53 46.354-54.493.074.025 1.332 1.451 2.794 3.17 2.633 3.096 2.656 3.129 2.366 3.449-.754.833-39.543 46.527-39.543 46.583 0 .108 3.583 2.337 5.568 3.464 2.646 1.503 8.038 4.104 10.822 5.22a91.888 91.888 0 0 0 48.856 5.43c11.995-1.93 24.44-6.679 34.383-13.122l1.525-.989-52.576-61.855-52.577-61.856-.04 23.942c-.022 13.167-.022 34.717 0 47.887l.04 23.945 14.955-17.593c8.225-9.677 15-17.589 15.056-17.583.056.006 1.286 1.416 2.734 3.133l2.632 3.12-21.767 25.66-21.766 25.659-.04-35.144a39200.63 39200.63 0 0 1 0-70.28l.04-35.139 62.58 73.624c34.418 40.493 62.595 73.72 62.615 73.838.073.43-6.173 4.935-10.466 7.548-13.603 8.279-28.197 13.005-44.21 14.316-3.019.247-12.171.281-15.154.056zm-63.537-29.35c-4.194-4.244-6.325-6.712-9.585-11.097-13.046-17.553-19.976-39.444-19.438-61.404.37-15.107 3.658-28.582 10.219-41.876 4.402-8.921 9.276-16.052 16.115-23.576 2.018-2.22 5.85-5.989 6.09-5.989.087 0 .144 29.234.144 73.637 0 40.5-.057 73.637-.126 73.637s-1.607-1.5-3.42-3.333zm-4.806-96.13l-.04-25.927-1.122 1.736c-4.373 6.767-8.036 14.463-10.48 22.02-3.262 10.085-4.634 20.067-4.294 31.25.498 16.42 5.643 32.663 14.802 46.734l1.094 1.681.04-25.782c.022-14.18.022-37.45 0-51.711zm143.077 25.838c0-40.507.06-73.65.133-73.65.227 0 5.025 4.835 7.006 7.06 8.467 9.508 14.745 19.942 19.302 32.08 6.186 16.479 7.736 35.875 4.279 53.553-3.435 17.562-11.407 33.704-23.279 47.131-1.683 1.904-6.04 6.36-6.853 7.007l-.588.47zm9.78 49.416c8.617-13.499 13.375-28.103 14.39-44.175.222-3.504.096-10.49-.25-13.958-.968-9.7-3.222-18.512-6.98-27.29-1.953-4.564-5.368-10.902-7.936-14.73l-.691-1.03v51.638c0 28.401.029 51.638.065 51.638.035 0 .666-.942 1.401-2.093zm-15.697 19.954c-.67-.787-29.008-34.118-62.971-74.068L50.384 36.4l.585-.528c1.092-.986 4.966-3.82 7.642-5.592 17.007-11.258 36.77-16.959 57.169-16.491 2.285.052 5.356.206 6.822.34 19.203 1.768 36.872 8.73 52.267 20.595 1.057.815 1.922 1.542 1.922 1.617 0 .127-45.65 53.956-46.581 54.928l-.427.445-2.695-3.155c-1.482-1.736-2.657-3.217-2.61-3.292.046-.075 9.155-10.811 20.242-23.858l20.159-23.721-.985-.66c-1.928-1.294-5.762-3.533-8.294-4.844-17.672-9.152-37.734-12.24-57.622-8.867-10.13 1.718-20.646 5.516-29.74 10.741-2.925 1.68-5.809 3.525-5.753 3.68.026.072 23.797 28.072 52.824 62.224l52.777 62.093.04-23.892c.021-13.14.021-34.64 0-47.778l-.04-23.887-14.9 17.533c-8.195 9.644-14.948 17.517-15.008 17.496-.144-.051-5.155-5.949-5.25-6.18-.062-.149 41.631-49.436 43.095-50.945l.454-.468v70.3c0 38.666-.034 70.302-.075 70.302-.041 0-.623-.644-1.294-1.431z" stroke-width=".157"/></svg>