<svg xmlns="http://www.w3.org/2000/svg" width="226mm" height="226mm" viewBox="0 0 226 226"><path d="M22.396 201.17c-.544-.22-.763-2.204-.763-6.93v-6.621l16.638-.196 16.637-.197 3.552-1.744c6.319-3.102 9.894-9.77 9.469-17.654-.399-7.384-3.95-13.273-9.968-16.525-2.308-1.248-3.373-1.33-19.385-1.508l-16.943-.188v-14.051l18.79.192 18.79.192 4.258 2.091c11.539 5.666 18.651 18.473 17.824 32.095-.969 15.94-11.753 28.834-25.776 30.819-4.311.61-31.706.796-33.123.225zm63.461-19.57c.216-19.824.234-20.06 1.824-24.452.884-2.439 2.48-5.797 3.55-7.462 2.795-4.356 8.816-9.675 13.424-11.86 3.761-1.782 4.386-1.886 11.308-1.886 7.006 0 7.51.087 11.536 1.994 5.544 2.626 11.693 8.794 14.382 14.428 3.33 6.978 3.73 10.444 3.55 30.748l-.162 18.159h-12.821l-.306-19.232c-.297-18.744-.342-19.302-1.748-21.98-2.435-4.633-4.095-6.406-7.896-8.432-8.219-4.38-17.457-.907-21.615 8.127-1.347 2.927-1.417 3.841-1.71 22.285l-.306 19.232-6.614.174-6.614.173zm87.345 19.048c-10.618-2.306-19.392-11.705-22.506-24.106-1.318-5.25-.873-14.085.976-19.369 2.958-8.45 9.013-15.474 16.367-18.986l4.705-2.247 18.474-.185 18.474-.186-.158 32.85-.158 32.85h-12.821l-.16-25.796-.159-25.795-9.914.006c-9.1.006-10.166.123-12.968 1.43-10.82 5.05-13.5 20.748-5.192 30.411 3.76 4.373 6.64 5.477 15.464 5.93l7.434.382.18 5.495c.284 8.718.705 8.25-7.365 8.193-3.772-.026-8.574-.421-10.673-.877zm-74.03-83.389c-3.208-1.88-4.485-3.99-4.755-7.85-.195-2.792.014-3.75 1.191-5.466 2.115-3.082 4.343-4.47 7.64-4.758 3.762-.33 6.719 1.207 8.584 4.46 1.74 3.035 1.743 5.987.01 9.42-2.48 4.915-8.207 6.81-12.67 4.194zm24.181-.574c-2.071-.62-5-3.253-6.224-5.594-1.018-1.95-1.126-6.424-.212-8.844 3.2-8.467 15.558-9.249 19.44-1.229 2.229 4.603 1.412 9.236-2.258 12.82-3.233 3.157-6.668 4.067-10.746 2.847zm-42.802-8.16c-5.634-2.487-6.562-9.561-1.802-13.74 1.724-1.514 2.696-1.888 4.906-1.888 5.57 0 8.564 3.227 8.042 8.668-.323 3.355-2.01 5.631-5.173 6.98-2.412 1.027-3.61 1.023-5.973-.02zm108.067-2.76c-4.014-1.686-4.85-6.414-1.639-9.282 2.617-2.339 5.127-2.329 7.486.03 2.335 2.335 2.371 4.887.106 7.342-1.84 1.994-4.059 2.706-5.953 1.91zm10.962-3.377c-.824-.824-1.499-2.21-1.499-3.08 0-2.123 2.543-4.58 4.74-4.58 2.356 0 3.715 1.135 4.176 3.487.323 1.644.086 2.258-1.47 3.815-2.248 2.248-3.955 2.35-5.947.358zm-57.251-1.21c-2.946-1.06-4.636-2.56-5.692-5.056-1.756-4.149-.813-8.015 2.788-11.44 1.598-1.519 2.5-1.841 5.733-2.047 3.468-.22 4.024-.085 5.811 1.418 2.594 2.183 3.764 4.55 3.764 7.617 0 6.723-6.434 11.655-12.404 9.507zm31.788-.393c-1.23-.717-2.9-3.693-2.9-5.17 0-1.872 1.842-4.903 3.615-5.95 2.762-1.632 4.776-1.32 7.209 1.112 1.961 1.961 2.123 2.384 1.808 4.732-.461 3.44-3.161 5.943-6.383 5.917-1.254-.01-2.761-.299-3.349-.641zM31.5 98.635c-2.808-1.966-2.875-5.305-.15-7.398 2.547-1.955 6.77.062 6.77 3.233 0 1.675-2.966 5.143-4.397 5.143-.455 0-1.455-.44-2.223-.978zm-9.866-2.686c-1.573-1.573-1.543-2.705.115-4.25 1.596-1.486 3.71-1.606 5.031-.285 1.304 1.303 1.206 2.82-.285 4.42-1.55 1.664-3.272 1.705-4.86.115zm18.554-.208c-4.32-3.717.722-10.695 5.823-8.057 3.083 1.594 3.054 6.333-.052 8.51-1.95 1.365-3.828 1.218-5.77-.453zm26.478-1.473c-2.278-1.412-3.728-4.621-3.247-7.184.552-2.943 3.992-5.788 6.998-5.788 6.654 0 8.868 8.816 3.176 12.647-2.453 1.65-4.625 1.752-6.927.325zm95.974-.49c-5.913-2.495-5.399-11.485.772-13.52 4.148-1.368 7.937.654 9.063 4.834.529 1.963.448 2.77-.46 4.596-2.013 4.046-5.684 5.647-9.375 4.09zM48.803 88.512c-2.05-2.436-1.735-4.946.924-7.368 2.389-2.177 4.505-2.144 6.754.105 2.276 2.276 2.345 4.783.204 7.327-2.261 2.688-5.59 2.66-7.882-.064zm102.572-7.146c-7.748-3.567-4.992-15.537 3.577-15.537 8.779 0 10.71 12.394 2.467 15.837-2.598 1.086-3.087 1.062-6.044-.3zm-93.417-1.543c-2.843-2.844-2.55-6.747.686-9.12 4.813-3.529 11.22 1.622 8.517 6.848-2.018 3.904-6.472 5.003-9.203 2.272zM71.71 72.08c-5.63-2.295-5.6-9.541.051-11.802 5.273-2.11 10.236 3.038 7.685 7.972-1.822 3.522-4.834 5.014-7.736 3.83zm-19.19-3.652c-1.786-2.122-1.87-2.545-.871-4.42 1.045-1.963 2.412-2.818 4.537-2.84 3.832-.04 5.334 4.718 2.412 7.64-2.051 2.051-4.143 1.92-6.079-.38zm87.54 1.316c-3.958-1.234-6.698-4.753-6.698-8.602 0-4.338 3.945-8.576 8.367-8.988 9.156-.853 12.76 11.752 4.696 16.431-2.342 1.36-4.477 1.748-6.366 1.16zM83.926 63.42c-2.438-1.234-4.444-4.686-4.074-7.01 1.013-6.346 8.395-8.948 12.282-4.328 2.99 3.553 1.67 8.927-2.755 11.215-2.12 1.097-3.467 1.128-5.453.123zm37.032-1.96c-2.872-.994-4.32-2.265-5.564-4.886-2.09-4.406-.756-8.92 3.627-12.262 4.257-3.247 10.397-1.92 13.063 2.822 2.514 4.473 1.17 10.458-2.938 13.083-2.903 1.854-5.35 2.226-8.188 1.244zm37.131-.547c-6.863-2.992-4.644-13.197 2.87-13.197 3.036 0 4.508.79 5.672 3.04 2.071 4.007.45 8.41-3.74 10.161-2.413 1.008-2.478 1.008-4.802-.004zM51.075 58.977c-2.697-1.89-.988-6.376 2.429-6.376.589 0 1.496.65 2.017 1.444 1.132 1.727.437 4.22-1.46 5.235-1.517.812-1.373.826-2.986-.303zm50.612.293c-5.081-1.09-7.78-7.582-4.996-12.017 3.642-5.8 11.526-5.785 14.284.026 1.238 2.61 1.28 4.139.182 6.715-1.703 3.998-5.518 6.123-9.47 5.276zm-51.763-8.647c-2.703-1.236-2.165-4.987.822-5.737 4.07-1.021 5.293 3.854 1.465 5.84-.534.277-1.557.231-2.287-.103zm114.855-5.016c-2.1-2.1-1.991-4.819.286-7.096s4.995-2.387 7.096-.286c1.977 1.977 1.946 4.592-.082 7.002-2.043 2.428-5.094 2.587-7.3.38zm10.39-10.12c-2.303-2.545 1.436-7.111 4.285-5.232 1.615 1.066 1.91 3.82.567 5.304-1.372 1.517-3.441 1.486-4.852-.072zm10.128-4.218c-1.622-1.623-1.587-2.64.164-4.675 1.143-1.33 1.744-1.572 3.073-1.238.912.228 1.964 1.099 2.348 1.941.58 1.275.491 1.802-.54 3.189-1.566 2.105-3.433 2.395-5.045.783z" stroke-width=".611"/></svg>