<svg xmlns="http://www.w3.org/2000/svg" width="226mm" height="226mm" viewBox="0 0 226 226"><path d="M109.362 213.788c-3.16-2.737-14.09-12.35-24.29-21.36-10.199-9.012-23.156-20.334-28.794-25.162l-10.25-8.777-.083-74.022-.082-74.022h139.266v147.53l-4.361 3.768c-2.398 2.072-9.418 8.244-15.6 13.715-35.579 31.492-47.188 41.638-48.544 42.426-.955.555-3.641-.96-7.262-4.096zm13.07-11.12c10.114-9.38 51.132-45.292 52.87-46.285 1.37-.785 1.635-11.992 1.635-69.34V18.637H54.055l.03 68.17.027 68.17 10.94 9.362c17.728 15.17 47.32 41.449 48.103 42.716 1.317 2.13 3.222 1.23 9.278-4.388zm-31.138-36.316l-23.032-19.566-.082-57.082-.082-57.082 18.433.322 18.432.322.316 24.196.316 24.196 10.509-6.464 10.51-6.464V32.681h37.449v113.33l-20.639 17.357a22193.633 22193.633 0 0 0-23.699 19.948c-1.683 1.425-3.586 2.593-4.23 2.597-.643.004-11.534-8.8-24.202-19.56zm37.286-1.134c6.786-5.632 13.465-11.15 14.841-12.262 2.387-1.929 1.104-2.023-27.698-2.048l-30.2-.026 14.401 12.238c7.92 6.73 14.832 12.26 15.36 12.288.526.027 6.51-4.558 13.296-10.19zm-31.224-45.897V95.952l-11.073 6.692-11.074 6.692-.045 16.677-.044 16.677h22.236zm29.258 6.972v-16.397l-10.24 6.345-10.24 6.346-.339 10.051-.338 10.052h21.157zm29.257-8.834c0-13.877-.395-25.034-.878-24.794-.482.24-5.222 3.034-10.532 6.21l-9.655 5.775v38.04h21.064zM133 96.625c7.234-4.595 15.325-9.671 17.98-11.28l4.83-2.926.03-20.773.031-20.773h-22.236l-.04 16.677-.04 16.677-13.71 8.192-13.71 8.192-.335 11.399-.335 11.398 7.191-4.215c3.956-2.318 13.11-7.974 20.344-12.568zm-46.176-3.439l9.948-6.157.317-23.078.317-23.078H75.12v29.258c0 16.092.395 29.247.878 29.235.482-.012 5.354-2.793 10.825-6.18z" stroke-width="1.17"/></svg>