<svg xmlns="http://www.w3.org/2000/svg" width="226mm" height="226mm" viewBox="0 0 226 226"><path d="M41.982 190.023c-3.18-2.02-5.062-4.21-6.156-7.167-.575-1.552-.891-25.636-.936-71.225l-.069-68.88 1.903-2.855c2.673-4.008 7.126-6.363 12.023-6.36 6.77.006 8.342 1.456 24 22.143 7.784 10.283 23.33 30.69 24.792 32.541.557.705 3.913 5.03 7.458 9.613 3.546 4.582 6.757 8.331 7.136 8.331.38 0 3.173-3.257 6.208-7.237 3.034-3.98 6.071-7.922 6.749-8.759 1.26-1.555 21.945-28.61 28.18-36.856 14.606-19.316 15.13-19.779 22.406-19.779 7.984 0 13.9 5.966 13.894 14.012-.003 5.23-.6 6.312-10.908 19.793a4019.75 4019.75 0 0 0-10.293 13.507 361.47 361.47 0 0 1-5.404 6.937 332.516 332.516 0 0 0-6.014 7.802c-5.108 6.864-21.107 27.847-24.751 32.461a410.664 410.664 0 0 0-4.573 5.94c-5.032 6.671-7.518 9.202-10.147 10.33-6.614 2.84-12.853.51-18.352-6.854-2.15-2.88-4.367-5.812-4.926-6.517a2611.7 2611.7 0 0 1-8.277-10.68c-3.993-5.17-9.34-12.083-11.881-15.363-2.542-3.279-5.654-7.412-6.914-9.185-1.26-1.773-2.646-3.224-3.077-3.224-.48 0-.883 17.538-1.035 45.074l-.248 45.074-1.886 2.717c-1.037 1.494-3.14 3.513-4.672 4.486-3.642 2.314-10.727 2.403-14.23.18zm129.565-1.449c-4.314-1.941-6.919-6.206-6.919-11.326 0-3.816.353-4.74 2.753-7.206 3.879-3.986 8.744-5.523 12.959-4.094 10.964 3.719 12.55 17.02 2.647 22.212-3.802 1.993-7.625 2.131-11.44.414z" stroke-width=".843"/></svg>