<svg width="226.777" height="226.777" viewBox="0 0 226.777 226.777" xmlns="http://www.w3.org/2000/svg"><path d="M100.242 225.981c-43.693-5.409-80.931-35.945-94.367-77.38-7.236-22.317-7.24-48.144-.014-70.283C18.676 39.061 51.76 10.078 92.987 1.99c10.386-2.037 30.725-2.037 41.11 0 46.65 9.152 81.718 44.22 90.87 90.87 2.038 10.386 2.038 30.725 0 41.11-8.06 41.084-37.199 74.387-76.2 87.09-14.389 4.686-34.2 6.696-48.525 4.922zm28.448-9.229c57.062-8.602 96.727-61.855 88.2-118.415-3.546-23.524-13.304-42.487-30.57-59.404C167.613 20.6 145.413 10.683 119.545 9.1c-29.55-1.808-58.35 9.251-79.707 30.609-35.564 35.561-40.9 89.14-13.129 131.815 5.891 9.053 19.67 22.832 28.724 28.723 22.443 14.606 47.865 20.333 73.257 16.505zM57.238 194.21c-3.93-1.802-7.968-5.52-9.76-8.986-3.068-5.933-2.659-14.62.939-19.922l2.17-3.199V64.725l-2.17-3.199c-2.5-3.683-3.624-9.592-2.73-14.355 1.784-9.51 9.902-16.158 19.781-16.2 11.535-.047 19.876 8.24 20.06 19.932l.084 5.32 30.147 40.104 30.147 40.104.237-35.67.236-35.671-2.398-4.416c-4.4-8.104-2.813-18.262 3.84-24.576 9.215-8.747 25.91-5.855 31.786 5.507 3.068 5.932 2.658 14.62-.939 19.921l-2.17 3.2v97.378l2.17 3.198c2.5 3.684 3.623 9.593 2.73 14.356-1.784 9.51-9.902 16.158-19.781 16.199-8.411.035-14.71-3.976-18.335-11.674-1.077-2.286-15.49-22.206-32.03-44.268l-30.074-40.11-.237 30.967-.237 30.967 2.398 4.415c5.698 10.49 1.155 23.83-9.654 28.345-4.422 1.847-11.842 1.715-16.21-.289zm14.576-6.286c9.616-4.906 9.616-19.09 0-23.996-6.316-3.222-12.955-1.675-17.31 4.035-2.033 2.665-2.523 4.213-2.523 7.963 0 10.452 10.46 16.78 19.833 11.998zm95.285.51c3.852-1.61 7.405-6.345 8.077-10.764.408-2.685.051-4.45-1.51-7.456-2.659-5.118-5.787-7.31-11.068-7.75-7.92-.66-14.475 5.436-14.475 13.462 0 9.796 9.88 16.308 18.976 12.508zM71.814 62.9c9.616-4.906 9.616-19.09 0-23.996-6.316-3.222-12.955-1.675-17.31 4.035-2.033 2.665-2.523 4.213-2.523 7.963 0 10.452 10.46 16.78 19.833 11.998zm95.285.51c7.8-3.26 10.608-13.75 5.481-20.471-8.052-10.557-24.457-5.216-24.457 7.963 0 9.796 9.88 16.308 18.976 12.508z" stroke-width=".887"/></svg>