<svg xmlns="http://www.w3.org/2000/svg" width="226mm" height="226mm" viewBox="0 0 226 226"><g transform="translate(0 -71)"><circle cx="113.595" cy="184.48" r="113.055"/><path d="M72.672 234.483c7.62-1.022 15.256-3.26 16.97-4.974l3.116-3.116-4.23-9.284-4.23-9.284 5.906-4.319 5.906-4.319 6.83 1.786 6.831 1.787 10.528-11.387c5.79-6.263 10.589-13.577 10.663-16.253l.134-4.867 26.054-6.436 26.053-6.435v-6.229c0-3.426-3.122-7.9-6.938-9.942l-6.938-3.713-3.988 3.073c-2.193 1.69-10.795 4.771-19.115 6.846-8.32 2.075-23.8 5.437-34.4 7.472-10.599 2.034-20.143 5.11-21.209 6.834-1.066 1.724-5.109 3.135-8.984 3.135h-7.046l6.167 6.815 6.168 6.815-10.503 9.154-10.503 9.153-3.53 13.447c-1.94 7.396-3.537 16.294-3.547 19.773l-.019 6.326zm36.573-36.007a3.372 3.372 0 0 1-3.362-3.362 3.372 3.372 0 0 1 3.362-3.361 3.372 3.372 0 0 1 3.361 3.361 3.372 3.372 0 0 1-3.361 3.362z" fill="#fff"/></g></svg>