<svg xmlns="http://www.w3.org/2000/svg" width="226mm" height="226mm" viewBox="0 0 226 226"><path d="M116.15 13.278A102.392 102.392 0 0 0 13.759 115.67a102.392 102.392 0 0 0 102.393 102.393A102.392 102.392 0 0 0 218.543 115.67 102.392 102.392 0 0 0 116.15 13.278zm50.002 55.336l6.938 3.714c3.816 2.042 6.938 6.515 6.938 9.941v6.23l-26.053 6.435-26.054 6.436-.134 4.866c-.074 2.676-4.873 9.99-10.663 16.254l-10.528 11.387-6.831-1.787-6.83-1.786-5.906 4.319-5.906 4.318 4.23 9.285 4.23 9.284-3.116 3.116c-1.714 1.714-9.35 3.952-16.97 4.974l-13.854 1.857.02-6.325c.01-3.48 1.606-12.377 3.546-19.773l3.53-13.447 10.503-9.153 10.503-9.154-6.168-6.815-6.167-6.815h7.046c3.875 0 7.918-1.411 8.984-3.135 1.066-1.724 10.61-4.8 21.21-6.834 10.6-2.035 26.08-5.397 34.4-7.472s16.921-5.156 19.114-6.846l3.988-3.074zM106.07 122.87a3.372 3.372 0 0 0-3.362 3.36 3.372 3.372 0 0 0 3.362 3.363 3.372 3.372 0 0 0 3.361-3.362 3.372 3.372 0 0 0-3.361-3.361z" stroke-width="0"/></svg>