<svg xmlns="http://www.w3.org/2000/svg" width="226mm" height="226mm" viewBox="0 0 226 226"><path d="M116.671 209.22l.202-12.73 34.82-20.113 34.819-20.114 10.67 6.098c5.869 3.354 10.677 6.264 10.685 6.467.008.203-18.955 11.315-42.14 24.694a428709.916 428709.916 0 0 0-45.705 26.377l-3.553 2.052zm-48.989-14.108c-24.622-14.254-44.76-26.081-44.752-26.284.008-.203 4.815-3.112 10.681-6.464l10.666-6.096 34.824 20.114 34.824 20.114.202 12.334c.158 9.633-.003 12.319-.738 12.265-.516-.037-21.084-11.73-45.707-25.983zm-46.266-81.243c0-29.011.249-52.61.553-52.44.304.17 5.282 3.035 11.063 6.368l10.51 6.06-.19 40.248-.191 40.248-10.57 6.132c-5.813 3.372-10.706 6.132-10.872 6.132-.167 0-.303-23.737-.303-52.748zm176.54 46.602l-10.32-6.064-.19-40.287-.19-40.287 6.824-4.004c3.754-2.202 8.732-5.074 11.063-6.382l4.239-2.38v52.775c0 29.026-.249 52.756-.553 52.734-.304-.023-5.197-2.77-10.873-6.105zM151.36 51.423l-34.804-20.068-.026-12.426c-.022-10.33.149-12.36 1.003-12.031 1.705.654 88.464 50.771 89.415 51.651.662.613-1.753 2.332-9.689 6.898-5.813 3.344-10.688 6.073-10.833 6.062-.144-.01-15.924-9.049-35.067-20.086zM34.322 65.28c-5.268-3.03-9.666-5.776-9.775-6.102-.151-.456 85.549-50.538 88.407-51.663.351-.139.548 5.149.436 11.75l-.202 12.001L78.944 51.03C60.111 61.898 44.52 70.79 44.3 70.79c-.221 0-4.711-2.48-9.978-5.51zM80.19 175.017l-34.828-20.11.183-40.541.183-40.542 34.645-20.056c19.055-11.03 34.977-20.055 35.382-20.054.405 0 16.327 9.028 35.382 20.06l34.645 20.059.184 40.537.184 40.538-34.353 19.807c-18.894 10.894-34.899 19.943-35.566 20.109-.667.166-16.886-8.747-36.041-19.807zm39.619-10.527c0-5.067.249-9.211.553-9.209.304.003 4.168 2.015 8.588 4.472 6.218 3.456 8.182 4.247 8.685 3.496 1.337-1.992 2.188-3.683 1.952-3.878-.135-.111-4.64-2.634-10.011-5.606l-9.767-5.404V128.77l3.87-2.22c2.128-1.22 4.256-2.222 4.728-2.226.472-.003 4.701 2.168 9.398 4.827l8.54 4.833v22.029h5.897V146.8c0-5.067.156-9.214.346-9.214.19 0 3.907 1.977 8.26 4.393l7.915 4.394 1.318-1.998c.724-1.099 1.319-2.188 1.322-2.42.003-.234-3.064-2.123-6.814-4.198-10.804-5.98-10.61-5.146-2.262-9.71 9.639-5.271 9.265-4.919 7.936-7.489-.607-1.175-1.376-2.137-1.707-2.137-.332 0-4.718 2.318-9.748 5.151-5.03 2.833-9.41 5.155-9.734 5.16-.323.006-4.552-2.183-9.398-4.862l-8.81-4.871v-9.055l9.03-5.026 9.03-5.026 5.16 2.777a638.579 638.579 0 0 1 9.942 5.485l4.783 2.708 1.298-2.135c.714-1.175 1.299-2.279 1.299-2.455 0-.175-3.65-2.352-8.109-4.837-4.46-2.486-8.108-4.642-8.108-4.792 0-.15 3.649-2.306 8.108-4.791 4.46-2.485 8.109-4.648 8.109-4.805 0-.157-.597-1.268-1.327-2.467l-1.326-2.18-7.703 4.346c-4.237 2.391-7.953 4.36-8.257 4.374-.304.014-.553-4.119-.553-9.186V72.72h-5.859l-.203 11.233-.203 11.233-8.8 4.934-8.799 4.933-3.363-1.92c-1.85-1.056-3.778-2.235-4.284-2.62-.655-.498-.922-3.502-.922-10.384v-9.685l9.09-5.032c5-2.767 9.512-5.293 10.029-5.612.736-.455.651-1.04-.39-2.7a427.575 427.575 0 0 1-1.454-2.329c-.068-.115-3.65 1.793-7.958 4.239-4.308 2.445-8.167 4.447-8.575 4.447-.458 0-.742-3.525-.742-9.214v-9.214h-5.16v9.214c0 5.69-.283 9.214-.741 9.214-.408 0-4.267-2.002-8.576-4.447-4.308-2.446-7.89-4.354-7.958-4.239-.068.115-.723 1.163-1.454 2.329-1.04 1.66-1.125 2.245-.39 2.7.517.319 5.03 2.845 10.03 5.612l9.09 5.032v9.685c0 6.882-.267 9.886-.922 10.384-.507.385-2.435 1.564-4.285 2.62l-3.363 1.92-8.8-4.933-8.798-4.934-.204-11.233-.203-11.233h-5.859v9.214c0 5.067-.249 9.208-.553 9.201-.304-.005-4.026-1.963-8.272-4.348l-7.72-4.336-1.31 2.155c-.72 1.185-1.31 2.283-1.31 2.44 0 .158 3.649 2.32 8.108 4.806 4.46 2.485 8.109 4.641 8.109 4.791 0 .15-3.649 2.306-8.109 4.792-4.46 2.485-8.108 4.662-8.108 4.837 0 .176.582 1.276 1.292 2.445l1.293 2.125 9.58-5.408c5.27-2.974 9.922-5.333 10.34-5.24.418.092 4.647 2.315 9.398 4.94l8.639 4.773v8.984l-8.77 4.925c-4.822 2.709-9.052 4.924-9.398 4.923-.346 0-4.984-2.443-10.308-5.426l-9.679-5.425-1.154 2.42c-1.377 2.888-1.817 2.454 7.847 7.738 8.348 4.565 8.543 3.73-2.262 9.71-3.75 2.076-6.816 3.965-6.813 4.198.003.233.6 1.327 1.329 2.432l1.324 2.007 7.322-4.124c4.027-2.27 7.74-4.286 8.253-4.483.721-.276.932 1.749.932 8.935v9.293h5.897v-22.029l8.54-4.833c4.698-2.659 8.927-4.83 9.399-4.827.472.003 2.6 1.006 4.728 2.226l3.87 2.22v19.591l-9.767 5.404c-5.372 2.972-9.877 5.495-10.011 5.606-.236.195.614 1.886 1.951 3.878.504.75 2.468-.04 8.686-3.496 4.42-2.457 8.284-4.469 8.588-4.472.304-.003.553 4.142.553 9.21v9.213h5.16z" stroke-width=".737"/></svg>