<svg xmlns="http://www.w3.org/2000/svg" width="226mm" height="226mm" viewBox="0 0 226 226"><path d="M114.233 211.7c0-.202.316-.925.702-1.606.65-1.147 6.035-14.208 11.86-28.767l2.45-6.12 5.516-2.328a2252.09 2252.09 0 0 1 11.582-4.838c13.042-5.4 14.655-6.12 15.436-6.9.78-.781 1.501-2.395 6.9-15.436 1.381-3.336 3.56-8.55 4.841-11.588 1.282-3.038 2.194-5.646 2.027-5.795-.168-.15-3.195-1.425-6.727-2.835a1320.011 1320.011 0 0 1-13.557-5.52 1021.682 1021.682 0 0 0-12.285-4.995c-8.565-3.389-10.619-4.675-12.121-7.59-.768-1.488-2.527-4.633-3.91-6.988-8.308-14.149-10.657-18.35-10.404-18.602.155-.156 2.99.658 6.3 1.808 5.453 1.895 21.77 7.214 69.525 22.667 21.09 6.824 20.517 6.597 20.101 7.972-.19.627-2.492 6.277-5.118 12.557-2.626 6.279-5.687 13.664-6.802 16.411a1275.322 1275.322 0 0 1-5.34 12.844c-1.822 4.318-3.89 9.295-4.595 11.06a2613.06 2613.06 0 0 1-3.933 9.747l-2.65 6.534-6.535 2.651c-3.594 1.458-7.98 3.23-9.746 3.94-1.766.708-6.422 2.633-10.347 4.276-13.139 5.503-19.912 8.296-29.969 12.358-5.494 2.219-10.547 4.353-11.229 4.742-1.379.786-1.972.889-1.972.34zm-10.346-69.586c-5.166-1.844-20.533-6.866-69.215-22.618-21.09-6.824-20.517-6.597-20.102-7.973.19-.626 2.493-6.277 5.119-12.556 2.625-6.28 5.686-13.665 6.801-16.412 1.115-2.747 3.518-8.527 5.34-12.844s3.89-9.294 4.595-11.06c.705-1.766 2.475-6.152 3.933-9.746l2.65-6.535 6.535-2.65c3.595-1.458 7.98-3.23 9.746-3.94 1.766-.708 6.422-2.633 10.347-4.277 13.14-5.502 19.912-8.295 29.97-12.357 5.494-2.22 10.582-4.375 11.307-4.791 1.683-.966 2.201-.45 1.24 1.235-.691 1.213-5.921 13.88-11.91 28.845l-2.448 6.12-5.517 2.328a2254.67 2254.67 0 0 1-11.582 4.839c-13.041 5.399-14.655 6.12-15.435 6.9-.78.78-1.502 2.394-6.9 15.436-1.382 3.336-3.56 8.55-4.842 11.588-1.282 3.038-2.194 5.645-2.026 5.795.167.15 3.194 1.425 6.726 2.834 3.532 1.41 9.633 3.893 13.558 5.52 3.924 1.627 9.452 3.874 12.284 4.995 8.565 3.39 10.62 4.675 12.121 7.59.768 1.489 2.527 4.634 3.91 6.989 7.378 12.565 10.573 18.16 10.573 18.514 0 .595-.588.442-6.778-1.769z" stroke-width=".714"/></svg>