<svg width="226.777" height="226.777" viewBox="0 0 226.777 226.777" xmlns="http://www.w3.org/2000/svg"><path d="M48.409 175.747L2.52 124.924l.615-32.75.615-32.752 42.177-27.391L88.105 4.64l3.511-1.994L95.127.652l64.195 29.56 64.195 29.56v65.844l-43.287 33.982-43.288 33.981-21.323 16.495-21.323 16.495zm101.572-20.802l39.42-30.82-1.81-1.777-1.812-1.775-36.627-9.123-36.628-9.122-3.885-1.163-3.885-1.162v89.314l2.903-1.775 2.903-1.776zm-67.425-17.74V94.191l-27.69-6.934-27.69-6.935h-2.337l.087 18.314.087 18.314 28.217 31.462 28.216 31.462.555.17.555.172zm119.872-48.63V74.628l-52.127-24.043L98.173 26.54l-3.186 1.223-3.186 1.223L66.91 45.07 42.024 61.155l79.648 20.498 79.647 20.498.555.185.555.186z" stroke-width="2.22"/></svg>