<svg xmlns="http://www.w3.org/2000/svg" width="226mm" height="226mm" viewBox="0 0 226 226"><path d="M94.802 225.385c-38.008-7.316-66.77-28.683-83.515-62.043-13.883-27.658-15.039-62.929-3.025-92.294 14.192-34.689 45.29-60.41 82.443-68.189 10.25-2.148 33.865-2.146 43.811 0 45.966 9.922 80.016 44.481 89.015 90.346 2.149 10.953 1.952 31.646-.41 42.884-1.887 8.987-6.055 21.057-9.935 28.777-7.272 14.469-22.998 32.522-36.22 41.58-11.816 8.094-26.74 14.574-41.187 17.881-6.804 1.559-34.643 2.277-40.977 1.058zm27.282-6.507c13.964-1.471 24.536-4.443 36.344-10.22 11.104-5.433 18.423-10.742 28.237-20.485 19.887-19.744 30.066-42.844 31.242-70.899 1.133-27.025-9.07-54.537-27.808-74.986-15.246-16.638-34.426-27.31-58.418-32.502-6.721-1.456-31.105-1.432-38.517.035-36.402 7.21-66.59 32.822-79.369 67.332-4.502 12.155-6.275 22.375-6.274 36.153.003 22.24 5.358 40.807 16.626 57.648 15.444 23.078 37.056 38.605 62.742 45.075 13.248 3.337 23.038 4.13 35.194 2.85zm23.968-40.904c-.465-.872-.847-1.837-.847-2.143 0-.306 2.801-3.437 6.227-6.957l6.229-6.4-3.975-.503c-14.185-1.795-25.475-9.298-34.81-23.13-4.407-6.531-4.852-8.58-2.262-10.394 2.514-1.76 3.641-.983 8.055 5.56 4.947 7.33 12.482 14.376 18.55 17.345 4.581 2.242 13.458 3.735 13.458 2.262 0-.407-2.24-2.942-4.975-5.632-2.739-2.692-5.334-5.537-5.767-6.326-1.038-1.888.295-4.361 2.687-4.988 1.513-.393 3.579 1.25 11.908 9.486 7.687 7.6 10.08 10.465 10.08 12.068 0 3.107-18.366 21.337-21.496 21.337-1.349 0-2.544-.618-3.062-1.585zM54.645 159.89c-.775-2.442.285-4.865 2.308-5.274.984-.198 3.972-.547 6.639-.775 10.779-.926 20.964-8.755 29.544-22.709 24.763-40.275 28.847-46.49 34.244-52.088 7.932-8.23 18.155-13.37 26.634-13.392 1.915-.005 3.483-.296 3.483-.647 0-.352-2.423-3.024-5.386-5.942-2.961-2.916-5.74-5.948-6.175-6.738-1.196-2.171.516-4.712 3.178-4.712 3.13 0 21.495 18.231 21.495 21.338 0 1.604-2.398 4.475-10.112 12.1-5.562 5.5-10.54 9.998-11.063 9.998-1.214 0-4.23-2.989-4.23-4.192 0-.502 2.859-3.871 6.351-7.488l6.351-6.574-4.617.453c-2.54.25-6.78 1.468-9.424 2.708-6.373 2.99-15.886 12.624-20.97 21.24-9.939 16.847-26.865 43.587-30.337 47.927-8.015 10.016-20.221 16.407-31.338 16.407-5.335 0-6.117-.196-6.575-1.64zm41.368-58.392c-.497-.563-2.768-3.905-5.047-7.426-8.087-12.494-18.253-19.685-29.355-20.762-5.972-.579-7.376-1.324-7.376-3.915 0-2.768 1.607-3.752 6.105-3.742 9.135.022 19.616 4.69 27.433 12.223 4.988 4.805 14.815 18.93 14.815 21.294 0 2.991-4.566 4.608-6.575 2.328z" stroke-width=".82"/></svg>