<svg xmlns="http://www.w3.org/2000/svg" width="226mm" height="226mm" viewBox="0 0 226 226"><path d="M104.171 205.704c-31.854-6.131-55.959-24.039-69.993-51.997-11.635-23.18-12.604-52.74-2.535-77.351C43.537 47.284 69.6 25.728 100.737 19.208c8.591-1.8 28.382-1.799 36.718 0 38.523 8.315 67.06 37.279 74.602 75.718 1.801 9.179 1.636 26.522-.343 35.94-1.582 7.532-5.075 17.648-8.327 24.118-6.094 12.126-19.274 27.256-30.356 34.848-9.902 6.783-22.41 12.214-34.518 14.986-5.702 1.306-29.034 1.908-34.342.886zm22.865-5.453c11.703-1.233 20.563-3.724 30.459-8.566 9.306-4.553 15.44-9.002 23.665-17.168 16.667-16.547 25.198-35.907 26.184-59.419.949-22.65-7.602-45.707-23.306-62.845-12.777-13.944-28.852-22.888-48.959-27.24-5.633-1.22-26.069-1.2-32.281.03C72.29 31.086 46.99 52.55 36.28 81.473c-3.773 10.187-5.259 18.752-5.258 30.299.002 18.64 4.49 34.2 13.934 48.314 12.943 19.342 31.056 32.355 52.583 37.777 11.103 2.797 19.308 3.461 29.496 2.388zm20.087-34.281c-.39-.731-.71-1.54-.71-1.796 0-.257 2.348-2.881 5.219-5.831l5.22-5.364-3.331-.421c-11.888-1.505-21.35-7.793-29.174-19.386-3.693-5.473-4.066-7.19-1.896-8.71 2.107-1.476 3.052-.824 6.751 4.66 4.146 6.143 10.461 12.048 15.546 14.536 3.84 1.879 11.28 3.13 11.28 1.896 0-.341-1.877-2.466-4.17-4.72-2.295-2.256-4.47-4.641-4.833-5.302-.87-1.582.247-3.655 2.252-4.18 1.268-.33 2.999 1.048 9.98 7.95 6.442 6.369 8.447 8.77 8.447 10.114 0 2.604-15.392 17.882-18.015 17.882-1.13 0-2.132-.518-2.566-1.328zm-76.607-15.156c-.65-2.047.239-4.078 1.934-4.42.825-.166 3.329-.459 5.564-.65 9.034-.776 17.57-7.337 24.761-19.032 20.753-33.754 24.176-38.962 28.699-43.654 6.648-6.898 15.216-11.206 22.322-11.224 1.605-.004 2.919-.248 2.919-.542 0-.295-2.031-2.535-4.514-4.98-2.482-2.444-4.811-4.985-5.175-5.647-1.003-1.82.432-3.949 2.663-3.949 2.623 0 18.015 15.279 18.015 17.883 0 1.344-2.01 3.75-8.475 10.141-4.661 4.609-8.834 8.379-9.272 8.379-1.017 0-3.545-2.505-3.545-3.513 0-.421 2.396-3.245 5.323-6.276l5.323-5.51-3.87.38c-2.128.209-5.682 1.23-7.898 2.27-5.341 2.505-13.314 10.58-17.574 17.8-8.33 14.12-22.516 36.53-25.426 40.168-6.717 8.394-16.947 13.75-26.264 13.75-4.471 0-5.126-.164-5.51-1.374zm34.67-48.938c-.417-.472-2.32-3.273-4.23-6.224-6.778-10.471-15.298-16.497-24.602-17.4-5.005-.485-6.182-1.11-6.182-3.281 0-2.32 1.347-3.145 5.117-3.136 7.656.018 16.44 3.931 22.991 10.244 4.18 4.027 12.416 15.865 12.416 17.846 0 2.507-3.826 3.862-5.51 1.951z" stroke-width=".687"/></svg>