<svg xmlns="http://www.w3.org/2000/svg" width="226.777" height="226.777" viewBox="0 0 226.777 226.777"><path d="M89.794 174.051c-6.08-1.693-9.452-3.782-15.126-9.372-4.372-4.307-7.577-8.79-10.86-15.192-5.272-10.283-8.071-19.037-11.59-36.238-1.839-8.993-5.717-24.708-8.77-35.539-2.665-9.452-5.645-22.054-5.65-23.891-.012-5.57 6.109-9.767 10.748-7.368 2.742 1.418 6.08 7.74 11.466 21.72 3.995 10.364 7.028 18.02 8.052 20.32 1.214 2.727 1.79 6.62 1.8 12.161.01 7.11.715 13.036 1.804 15.17.987 1.934 3.213 3.6 6.09 4.558 2.046.682 12.76.849 16.03.25 2.186-.4 2.024-.475 6.756 3.161 2.308 1.773 5.534 2.213 13.098 1.784 4.352-.247 5.592-.489 7.548-1.476 2.534-1.28 2.822-1.266 7.142.334 3.568 1.322 12.589 1.472 16.553.275 4.297-1.297 7.02-4.994 8.261-11.214.306-1.532 1.623-1.868 13.245-3.376 11.971-1.554 21.19-1.898 24.565-.917 2.954.859 6.527 3.819 8.336 6.905 2.25 3.84 1.878 10.785-.646 12.054-2.31 1.16-15.231 5.65-31.02 10.78l-15.797 5.132-1.85 4.563c-2.353 5.798-3.922 8.215-7.742 11.918-3.753 3.64-6.57 5.666-10.874 7.823-8.275 4.147-17.382 6.095-29.899 6.397-7.42.179-8.724.098-11.67-.722zm17.041-53.87c-3.474-.782-4.8-1.745-5.237-3.804-.198-.933-.36-11.552-.36-23.597 0-29.13-.356-27.983 8.806-28.337 8.094-.313 9.611.8 10.397 7.632.577 5.017.567 40.218-.011 43.334-.279 1.5-.813 2.732-1.391 3.212-2.04 1.691-8.154 2.473-12.204 1.56zm24.432-.122c-.87-.375-2.444-1.527-3.5-2.56l-1.919-1.877.015-18.082c.017-19.762.27-23.395 1.783-25.52 1.872-2.628 4.065-3.355 10.189-3.378 9.143-.034 9.188.058 9.543 19.623.283 15.565-.264 26.496-1.448 28.968-1.02 2.128-2.105 2.584-7.384 3.098-5.506.535-5.4.54-7.279-.272zm-51.477-5.12c-4.57-.915-4.64-1.282-4.438-23.74.175-19.617.255-20.172 3.16-21.757 1.205-.657 2.49-.815 6.47-.795 8.654.043 9.178.75 9.822 13.242.436 8.462-.094 30.149-.776 31.767-.182.43-1.072.987-1.978 1.24-1.83.507-9.795.535-12.26.042z" stroke-width=".452"/></svg>