<svg xmlns="http://www.w3.org/2000/svg" width="226.777" height="226.777" viewBox="0 0 226.777 226.777"><path d="M73.104 202.423c-8.361-2.328-12.998-5.2-20.802-12.888-6.012-5.923-10.42-12.089-14.935-20.893-7.25-14.141-11.1-26.18-15.939-49.836-2.529-12.367-7.862-33.979-12.06-48.874-3.665-12.999-7.764-30.33-7.77-32.856-.017-7.66 8.4-13.432 14.78-10.133 3.771 1.95 8.362 10.645 15.769 29.87 5.494 14.253 9.665 24.782 11.073 27.945 1.67 3.75 2.462 9.104 2.476 16.724.014 9.778.983 17.928 2.48 20.863 1.358 2.66 4.42 4.95 8.376 6.268 2.814.938 17.548 1.168 22.045.344 3.006-.55 2.783-.653 9.291 4.347 3.174 2.438 7.61 3.043 18.013 2.453 5.985-.34 7.69-.672 10.38-2.03 3.485-1.76 3.881-1.74 9.822.46 4.907 1.818 17.313 2.024 22.764.378 5.91-1.784 9.655-6.868 11.361-15.422.421-2.107 2.232-2.569 18.215-4.643 16.463-2.137 29.141-2.61 33.783-1.26 4.062 1.18 8.976 5.251 11.464 9.495 3.094 5.281 2.583 14.832-.889 16.577-3.176 1.596-20.946 7.77-42.66 14.825l-21.724 7.058-2.544 6.275c-3.236 7.974-5.394 11.298-10.647 16.39-5.162 5.006-9.036 7.793-14.955 10.759-11.38 5.703-23.904 8.382-41.118 8.797-10.204.246-11.997.135-16.049-.993zM96.54 128.34c-4.778-1.075-6.601-2.4-7.202-5.231-.273-1.283-.496-15.887-.496-32.451 0-40.061-.49-38.484 12.11-38.97 11.132-.43 13.218 1.1 14.3 10.495.793 6.9.779 55.31-.016 59.595-.384 2.063-1.118 3.757-1.913 4.417-2.806 2.326-11.214 3.401-16.783 2.145zm33.6-.167c-1.197-.516-3.362-2.1-4.814-3.52l-2.639-2.582.02-24.867c.024-27.178.372-32.174 2.453-35.096 2.574-3.614 5.59-4.614 14.012-4.646 12.574-.047 12.636.08 13.124 26.986.389 21.406-.363 36.439-1.992 39.838-1.402 2.927-2.894 3.554-10.154 4.26-7.572.736-7.427.743-10.01-.373zm-70.794-7.042c-6.284-1.258-6.38-1.763-6.103-32.648.24-26.978.35-27.74 4.346-29.92 1.657-.904 3.424-1.121 8.898-1.094 11.9.06 12.622 1.031 13.507 18.21.6 11.638-.13 41.463-1.067 43.688-.25.591-1.474 1.357-2.72 1.705-2.517.698-13.47.736-16.86.058z" stroke-width=".622"/></svg>