<svg xmlns="http://www.w3.org/2000/svg" width="226.777" height="226.777" viewBox="0 0 226.777 226.777"><path d="M107.894 213.815c-12.205-.994-22.002-3.328-32.454-7.734-22.294-9.397-40.63-26.909-51.172-48.871-10.205-21.26-12.6-45.036-6.848-67.955C21.224 74.1 28.712 59.815 39.105 47.89c2.431-2.79 7.93-8.257 10.626-10.563 15.432-13.206 35.667-21.62 56.283-23.406 3.972-.344 12.964-.347 17.048-.007 10.158.847 21.486 3.662 30.92 7.685 28.548 12.172 50.05 37.306 57.71 67.458 1.945 7.654 2.794 13.827 3.045 22.135.9 29.78-11.837 58.654-34.598 78.43-16.004 13.906-36.148 22.324-57.655 24.095-2.905.24-12.098.301-14.59.099zm18.553-5.597c21.905-2.887 41.463-12.655 56.54-28.237 14.681-15.173 23.575-34.076 26.23-55.752.604-4.922.615-15.714.023-20.683-1.433-12.033-4.508-22.305-9.83-32.843-7.922-15.687-19.516-28.273-35.107-38.11-.827-.521-3.31-1.884-5.515-3.028-10.775-5.586-20.597-8.666-32.774-10.277-3.959-.524-14.282-.733-18.746-.38-33.198 2.63-62.39 22.077-77.385 51.549-5.718 11.238-8.938 22.372-10.114 34.969-.397 4.249-.33 13.536.128 17.925 3.236 30.988 20.939 58.098 47.885 73.33 8.342 4.715 18.404 8.466 27.842 10.38 2.927.594 9.9 1.56 12.646 1.752 3.736.262 14.298-.084 18.177-.595zm-70.448-54.125l-14.541-8.462V110.85l14.665-8.49c8.066-4.67 14.845-8.445 15.065-8.387.22.057 6.962 3.916 14.981 8.574l14.58 8.469v34.45l-14.602 8.482c-8.03 4.665-14.828 8.51-15.105 8.544-.289.036-6.682-3.533-15.043-8.398zm87.308-.062l-14.73-8.543v-34.5l14.762-8.547c8.12-4.701 14.884-8.548 15.032-8.548.149 0 6.846 3.823 14.884 8.495l14.614 8.494v34.716l-14.614 8.494c-8.038 4.672-14.75 8.492-14.917 8.488-.166-.004-6.93-3.85-15.031-8.55zm-34.096-10.574l-5.202-3.056v-31.454l-.565-.367c-.31-.203-6.374-3.748-13.475-7.878l-12.911-7.51V80.807l18.677-10.911c16.766-9.794 18.742-10.885 19.305-10.662.344.138 8.862 5.053 18.928 10.925l18.301 10.675.067 6.126.067 6.127-13.538 7.862-13.539 7.862-.008 15.795-.008 15.794-5.347 3.071c-2.941 1.69-5.393 3.065-5.449 3.057-.056-.008-2.442-1.39-5.303-3.07z" stroke-width=".251"/></svg>