<svg xmlns="http://www.w3.org/2000/svg" width="226.777" height="226.777" viewBox="0 0 226.777 226.777"><path d="M105.203 226.64c-13.728-1.119-24.747-3.744-36.503-8.7-25.075-10.569-45.698-30.266-57.555-54.967C-.333 139.06-3.027 112.319 3.443 86.54c4.278-17.046 12.7-33.113 24.39-46.526 2.734-3.138 8.919-9.287 11.951-11.88C57.141 13.28 79.901 3.818 103.088 1.809c4.468-.387 14.582-.39 19.175-.008 11.425.953 24.166 4.119 34.777 8.644 32.11 13.69 56.294 41.96 64.91 75.873 2.187 8.609 3.142 15.552 3.424 24.896 1.013 33.495-13.313 65.971-38.914 88.214-18 15.64-40.657 25.109-64.847 27.1-3.267.27-13.607.34-16.41.112zm20.867-6.296c24.638-3.247 46.636-14.234 63.594-31.76 16.512-17.065 26.516-38.326 29.502-62.707.68-5.536.691-17.674.026-23.263-1.612-13.534-5.07-25.087-11.057-36.94-8.91-17.644-21.95-31.8-39.486-42.864-.93-.586-3.723-2.119-6.203-3.406-12.12-6.282-23.167-9.747-36.863-11.559-4.452-.589-16.063-.824-21.084-.427-37.34 2.958-70.173 24.831-87.039 57.98-6.431 12.64-10.053 25.162-11.375 39.33-.447 4.78-.372 15.225.144 20.162 3.64 34.854 23.55 65.346 53.858 82.478 9.383 5.303 20.7 9.522 31.315 11.675 3.292.668 11.135 1.754 14.224 1.97 4.202.295 16.082-.094 20.444-.67zm-79.236-60.877l-16.355-9.518v-39.12l16.495-9.549c9.072-5.252 16.697-9.498 16.944-9.433.247.064 7.83 4.405 16.85 9.644l16.399 9.525v38.748l-16.424 9.54c-9.032 5.247-16.678 9.571-16.99 9.61-.324.04-7.515-3.974-16.919-9.446zm98.2-.07l-16.568-9.608v-38.804l16.604-9.613c9.133-5.288 16.74-9.615 16.907-9.615.167 0 7.7 4.3 16.74 9.555l16.438 9.554v39.046l-16.437 9.554c-9.041 5.255-16.59 9.551-16.778 9.547-.187-.005-7.795-4.33-16.906-9.617zm-38.35-11.893l-5.85-3.437v-35.378l-.636-.413c-.349-.228-7.17-4.215-15.156-8.86L70.52 90.969v-13.93l21.007-12.272c18.858-11.016 21.08-12.243 21.713-11.992.387.155 9.968 5.683 21.29 12.287l20.584 12.007.075 6.89.075 6.892-15.226 8.842-15.228 8.843-.01 17.766-.008 17.764-6.014 3.454c-3.308 1.9-6.066 3.447-6.13 3.438-.062-.009-2.746-1.563-5.964-3.453z" stroke-width=".282"/></svg>