<svg width="226.777" height="226.777" viewBox="0 0 226.777 226.777" xmlns="http://www.w3.org/2000/svg"><path d="M106.4 225.884c-54.77-3.66-99.113-46.529-104.768-101.283-.806-7.8-.33-22.75.952-29.98C6.95 70.026 17.921 49.176 35.443 32.176 62.385 6.035 99.56-4.855 136.526 2.562c42.239 8.475 76.271 40.823 86.82 82.524 2.293 9.06 3.114 15.096 3.41 25.077.563 18.861-2.971 35.266-11.279 52.364-20.135 41.44-63.152 66.427-109.078 63.357zm62.047-56.516c4.273-4.256 7.77-7.804 7.77-7.887 0-.082-22.002-.15-48.894-.15H78.428l20.08-20.084 20.081-20.085h49.194l7.804-7.752c4.292-4.263 7.803-7.932 7.803-8.153 0-.221-10.867-.337-24.15-.258-13.281.079-24.149.01-24.149-.153s12.594-12.806 27.987-28.095l27.986-27.798H67.415l-7.88 7.89-7.88 7.89h48.653c26.758 0 48.652.161 48.652.357 0 .196-8.876 9.235-19.724 20.085l-19.724 19.728H60.24l-7.765 7.776c-4.27 4.277-7.765 7.94-7.765 8.138 0 .2 10.867.305 24.15.234 13.281-.07 24.149.002 24.149.162 0 .159-12.586 12.802-27.968 28.094l-27.967 27.805 61.8-.003 61.8-.003 7.772-7.736z" stroke-width=".478"/></svg>