<svg xmlns="http://www.w3.org/2000/svg" width="226mm" height="226mm" viewBox="0 0 226 226"><path d="M112.506.987C50.37.987 0 51.357 0 113.493S50.37 226 112.505 226c62.136 0 112.506-50.37 112.506-112.507 0-62.135-50.37-112.505-112.505-112.505zM69.048 62.262h87.974v13.394l-12.829 14.938-12.83 14.938v1.939h14.66v13.44h-27.87l-8.162 8.815-8.161 8.814-3.664 4.626-3.663 4.626h63.742v15.884H67.827l.009-6.415.01-6.414 9.858-10.998 9.858-10.995 3.675-4.583 3.676-4.582H77.602v-13.44h30.086l2.497-3.36 2.496-3.361 8.73-9.595 8.73-9.595v-2.191H69.048v-7.943z" stroke-width=".379"/></svg>