<svg xmlns="http://www.w3.org/2000/svg" width="226mm" height="226mm" viewBox="0 0 226 226"><path d="M114.308 12.603c-56.583 0-102.451 45.869-102.451 102.451 0 56.583 45.868 102.452 102.45 102.452 56.583 0 102.451-45.869 102.451-102.452 0-56.582-45.868-102.45-102.45-102.45zM74.734 68.402h80.111v12.197l-11.682 13.603-11.683 13.603v1.765h13.35v12.239h-25.38l-7.432 8.027-7.432 8.027-3.336 4.212-3.336 4.213h58.045v14.464H73.622l.008-5.842h.001l.008-5.84 8.977-10.015 8.977-10.013 3.347-4.173 3.347-4.173H82.523v-12.239h27.398l2.273-3.06 2.273-3.06 7.95-8.737 7.95-8.738v-1.995H74.734v-7.233z" stroke-width=".345"/></svg>